<svg xmlns="http://www.w3.org/2000/svg" xmlns:xlink="http://www.w3.org/1999/xlink" contentStyleType="text/css" height="876px" preserveAspectRatio="none" style="width:1036px;height:876px;background:#FFFFFF;" version="1.1" viewBox="0 0 1036 876" width="1036px" zoomAndPan="magnify"><defs/><g><!--cluster datasets subpackage--><g id="cluster_datasets subpackage"><path d="M8.5,6 L177.5,6 A3.75,3.75 0 0 1 180,8.5 L187,28.2969 L1026.5,28.2969 A2.5,2.5 0 0 1 1029,30.7969 L1029,867.22 A2.5,2.5 0 0 1 1026.5,869.72 L8.5,869.72 A2.5,2.5 0 0 1 6,867.22 L6,8.5 A2.5,2.5 0 0 1 8.5,6 " fill="none" style="stroke:#000000;stroke-width:1.5;"/><line style="stroke:#000000;stroke-width:1.5;" x1="6" x2="187" y1="28.2969" y2="28.2969"/><text fill="#000000" font-family="sans-serif" font-size="14" font-weight="bold" lengthAdjust="spacing" textLength="168" x="10" y="20.9951">datasets subpackage</text></g><!--class DataLoadingContext--><g id="elem_DataLoadingContext"><rect codeLine="2" fill="#F1F1F1" height="113.1875" id="DataLoadingContext" rx="2.5" ry="2.5" style="stroke:#181818;stroke-width:0.5;" width="648" x="22" y="443.05"/><ellipse cx="271.75" cy="459.05" fill="#ADD1B2" rx="11" ry="11" style="stroke:#181818;stroke-width:1.0;"/><path d="M274.7188,464.6906 Q274.1406,464.9875 273.5,465.1281 Q272.8594,465.2844 272.1563,465.2844 Q269.6563,465.2844 268.3281,463.6438 Q267.0156,461.9875 267.0156,458.8625 Q267.0156,455.7375 268.3281,454.0813 Q269.6563,452.425 272.1563,452.425 Q272.8594,452.425 273.5,452.5813 Q274.1563,452.7375 274.7188,453.0344 L274.7188,455.7531 Q274.0938,455.175 273.5,454.9094 Q272.9063,454.6281 272.2813,454.6281 Q270.9375,454.6281 270.25,455.7063 Q269.5625,456.7688 269.5625,458.8625 Q269.5625,460.9563 270.25,462.0344 Q270.9375,463.0969 272.2813,463.0969 Q272.9063,463.0969 273.5,462.8313 Q274.0938,462.55 274.7188,461.9719 L274.7188,464.6906 Z " fill="#000000"/><text fill="#000000" font-family="sans-serif" font-size="14" lengthAdjust="spacing" textLength="140" x="292.25" y="463.8967">DataLoadingContext</text><line style="stroke:#181818;stroke-width:0.5;" x1="23" x2="669" y1="475.05" y2="475.05"/><rect fill="none" height="6" style="stroke:#C82930;stroke-width:1.0;" width="6" x="30" y="485.6984"/><text fill="#000000" font-family="sans-serif" font-size="14" lengthAdjust="spacing" textLength="275" x="42" y="492.0451">selected_strategy: DataLoadingStrategy</text><line style="stroke:#181818;stroke-width:0.5;" x1="23" x2="669" y1="499.3469" y2="499.3469"/><ellipse cx="33" cy="512.9953" fill="#84BE84" rx="3" ry="3" style="stroke:#038048;stroke-width:1.0;"/><text fill="#000000" font-family="sans-serif" font-size="14" lengthAdjust="spacing" textLength="340" x="42" y="516.342">set_strategy(strategy: DataLoadingStrategy): void</text><ellipse cx="33" cy="529.2922" fill="#84BE84" rx="3" ry="3" style="stroke:#038048;stroke-width:1.0;"/><text fill="#000000" font-family="sans-serif" font-size="14" lengthAdjust="spacing" textLength="248" x="42" y="532.6389">get_strategy(): DataLoadingStrategy</text><ellipse cx="33" cy="545.5891" fill="#84BE84" rx="3" ry="3" style="stroke:#038048;stroke-width:1.0;"/><text fill="#000000" font-family="sans-serif" font-size="14" lengthAdjust="spacing" textLength="622" x="42" y="548.9357">load_as_np(file_path: str, target_column_name: str): Tuple[List[str], np.ndarray, np.ndarray]</text></g><!--class DataLoadingStrategy--><g id="elem_DataLoadingStrategy"><rect codeLine="9" fill="#F1F1F1" height="64.2969" id="DataLoadingStrategy" rx="2.5" ry="2.5" style="stroke:#181818;stroke-width:0.5;" width="648" x="22" y="665.13"/><ellipse cx="270.25" cy="681.13" fill="#A9DCDF" rx="11" ry="11" style="stroke:#181818;stroke-width:1.0;"/><path d="M270.3594,676.4738 L269.2031,681.5519 L271.5313,681.5519 L270.3594,676.4738 Z M268.875,674.2394 L271.8594,674.2394 L275.2188,686.63 L272.7656,686.63 L272,683.5675 L268.7188,683.5675 L267.9688,686.63 L265.5313,686.63 L268.875,674.2394 Z " fill="#000000"/><text fill="#000000" font-family="sans-serif" font-size="14" font-style="italic" lengthAdjust="spacing" textLength="143" x="290.75" y="685.9767">DataLoadingStrategy</text><line style="stroke:#181818;stroke-width:0.5;" x1="23" x2="669" y1="697.13" y2="697.13"/><line style="stroke:#181818;stroke-width:0.5;" x1="23" x2="669" y1="705.13" y2="705.13"/><ellipse cx="33" cy="718.7784" fill="#84BE84" rx="3" ry="3" style="stroke:#038048;stroke-width:1.0;"/><text fill="#000000" font-family="sans-serif" font-size="14" font-style="italic" lengthAdjust="spacing" textLength="622" x="42" y="722.1251">execute(path_to_file: str, target_column_name: str): Tuple[List[str], np.ndarray, np.ndarray]</text></g><!--class CSVDataLoadingStrategy--><g id="elem_CSVDataLoadingStrategy"><rect codeLine="13" fill="#F1F1F1" height="64.2969" id="CSVDataLoadingStrategy" rx="2.5" ry="2.5" style="stroke:#181818;stroke-width:0.5;" width="648" x="22" y="789.42"/><ellipse cx="256.25" cy="805.42" fill="#ADD1B2" rx="11" ry="11" style="stroke:#181818;stroke-width:1.0;"/><path d="M259.2188,811.0606 Q258.6406,811.3575 258,811.4981 Q257.3594,811.6544 256.6563,811.6544 Q254.1563,811.6544 252.8281,810.0138 Q251.5156,808.3575 251.5156,805.2325 Q251.5156,802.1075 252.8281,800.4513 Q254.1563,798.795 256.6563,798.795 Q257.3594,798.795 258,798.9513 Q258.6563,799.1075 259.2188,799.4044 L259.2188,802.1231 Q258.5938,801.545 258,801.2794 Q257.4063,800.9981 256.7813,800.9981 Q255.4375,800.9981 254.75,802.0763 Q254.0625,803.1388 254.0625,805.2325 Q254.0625,807.3263 254.75,808.4044 Q255.4375,809.4669 256.7813,809.4669 Q257.4063,809.4669 258,809.2013 Q258.5938,808.92 259.2188,808.3419 L259.2188,811.0606 Z " fill="#000000"/><text fill="#000000" font-family="sans-serif" font-size="14" lengthAdjust="spacing" textLength="171" x="276.75" y="810.2667">CSVDataLoadingStrategy</text><line style="stroke:#181818;stroke-width:0.5;" x1="23" x2="669" y1="821.42" y2="821.42"/><line style="stroke:#181818;stroke-width:0.5;" x1="23" x2="669" y1="829.42" y2="829.42"/><ellipse cx="33" cy="843.0684" fill="#84BE84" rx="3" ry="3" style="stroke:#038048;stroke-width:1.0;"/><text fill="#000000" font-family="sans-serif" font-size="14" lengthAdjust="spacing" textLength="622" x="42" y="846.4151">execute(path_to_file: str, target_column_name: str): Tuple[List[str], np.ndarray, np.ndarray]</text></g><!--class DatasetsManager--><g id="elem_DatasetsManager"><rect codeLine="20" fill="#F1F1F1" height="276.1563" id="DatasetsManager" rx="2.5" ry="2.5" style="stroke:#181818;stroke-width:0.5;" width="615" x="273.5" y="41"/><ellipse cx="515.75" cy="57" fill="#ADD1B2" rx="11" ry="11" style="stroke:#181818;stroke-width:1.0;"/><path d="M518.7188,62.6406 Q518.1406,62.9375 517.5,63.0781 Q516.8594,63.2344 516.1563,63.2344 Q513.6563,63.2344 512.3281,61.5938 Q511.0156,59.9375 511.0156,56.8125 Q511.0156,53.6875 512.3281,52.0313 Q513.6563,50.375 516.1563,50.375 Q516.8594,50.375 517.5,50.5313 Q518.1563,50.6875 518.7188,50.9844 L518.7188,53.7031 Q518.0938,53.125 517.5,52.8594 Q516.9063,52.5781 516.2813,52.5781 Q514.9375,52.5781 514.25,53.6563 Q513.5625,54.7188 513.5625,56.8125 Q513.5625,58.9063 514.25,59.9844 Q514.9375,61.0469 516.2813,61.0469 Q516.9063,61.0469 517.5,60.7813 Q518.0938,60.5 518.7188,59.9219 L518.7188,62.6406 Z " fill="#000000"/><text fill="#000000" font-family="sans-serif" font-size="14" lengthAdjust="spacing" textLength="122" x="536.25" y="61.8467">DatasetsManager</text><line style="stroke:#181818;stroke-width:0.5;" x1="274.5" x2="887.5" y1="73" y2="73"/><rect fill="none" height="6" style="stroke:#C82930;stroke-width:1.0;" width="6" x="281.5" y="83.6484"/><text fill="#000000" font-family="sans-serif" font-size="14" lengthAdjust="spacing" textLength="171" x="293.5" y="89.9951">base_model_training_set</text><rect fill="none" height="6" style="stroke:#C82930;stroke-width:1.0;" width="6" x="281.5" y="99.9453"/><text fill="#000000" font-family="sans-serif" font-size="14" lengthAdjust="spacing" textLength="184" x="293.5" y="106.292">base_model_validation_set</text><rect fill="none" height="6" style="stroke:#C82930;stroke-width:1.0;" width="6" x="281.5" y="116.2422"/><text fill="#000000" font-family="sans-serif" font-size="14" lengthAdjust="spacing" textLength="96" x="293.5" y="122.5889">reference_set</text><rect fill="none" height="6" style="stroke:#C82930;stroke-width:1.0;" width="6" x="281.5" y="132.5391"/><text fill="#000000" font-family="sans-serif" font-size="14" lengthAdjust="spacing" textLength="77" x="293.5" y="138.8857">testing_set</text><rect fill="none" height="6" style="stroke:#C82930;stroke-width:1.0;" width="6" x="281.5" y="148.8359"/><text fill="#000000" font-family="sans-serif" font-size="14" lengthAdjust="spacing" textLength="98" x="293.5" y="155.1826">column_labels</text><line style="stroke:#181818;stroke-width:0.5;" x1="274.5" x2="887.5" y1="162.4844" y2="162.4844"/><ellipse cx="284.5" cy="176.1328" fill="#84BE84" rx="3" ry="3" style="stroke:#038048;stroke-width:1.0;"/><text fill="#000000" font-family="sans-serif" font-size="14" lengthAdjust="spacing" textLength="502" x="293.5" y="179.4795">set_base_model_training_data(training_file: str, target_column_name: str)</text><ellipse cx="284.5" cy="192.4297" fill="#84BE84" rx="3" ry="3" style="stroke:#038048;stroke-width:1.0;"/><text fill="#000000" font-family="sans-serif" font-size="14" lengthAdjust="spacing" textLength="528" x="293.5" y="195.7764">set_base_model_validation_data(validation_file: str, target_column_name: str)</text><ellipse cx="284.5" cy="208.7266" fill="#84BE84" rx="3" ry="3" style="stroke:#038048;stroke-width:1.0;"/><text fill="#000000" font-family="sans-serif" font-size="14" lengthAdjust="spacing" textLength="443" x="293.5" y="212.0732">set_reference_data(reference_file: str, target_column_name: str)</text><ellipse cx="284.5" cy="225.0234" fill="#84BE84" rx="3" ry="3" style="stroke:#038048;stroke-width:1.0;"/><text fill="#000000" font-family="sans-serif" font-size="14" lengthAdjust="spacing" textLength="405" x="293.5" y="228.3701">set_testing_data(testing_file: str, target_column_name: str)</text><ellipse cx="284.5" cy="241.3203" fill="#84BE84" rx="3" ry="3" style="stroke:#038048;stroke-width:1.0;"/><text fill="#000000" font-family="sans-serif" font-size="14" lengthAdjust="spacing" textLength="576" x="293.5" y="244.667">get_base_model_training_data(return_instance: bool): Union[tuple, MaskedDataset]</text><ellipse cx="284.5" cy="257.6172" fill="#84BE84" rx="3" ry="3" style="stroke:#038048;stroke-width:1.0;"/><text fill="#000000" font-family="sans-serif" font-size="14" lengthAdjust="spacing" textLength="589" x="293.5" y="260.9639">get_base_model_validation_data(return_instance: bool): Union[tuple, MaskedDataset]</text><ellipse cx="284.5" cy="273.9141" fill="#84BE84" rx="3" ry="3" style="stroke:#038048;stroke-width:1.0;"/><text fill="#000000" font-family="sans-serif" font-size="14" lengthAdjust="spacing" textLength="501" x="293.5" y="277.2607">get_reference_data(return_instance: bool): Union[tuple, MaskedDataset]</text><ellipse cx="284.5" cy="290.2109" fill="#84BE84" rx="3" ry="3" style="stroke:#038048;stroke-width:1.0;"/><text fill="#000000" font-family="sans-serif" font-size="14" lengthAdjust="spacing" textLength="482" x="293.5" y="293.5576">get_testing_data(return_instance: bool): Union[tuple, MaskedDataset]</text><ellipse cx="284.5" cy="306.5078" fill="#84BE84" rx="3" ry="3" style="stroke:#038048;stroke-width:1.0;"/><text fill="#000000" font-family="sans-serif" font-size="14" lengthAdjust="spacing" textLength="198" x="293.5" y="309.8545">get_column_labels(): List[str]</text></g><!--class MaskedDataset--><g id="elem_MaskedDataset"><rect codeLine="37" fill="#F1F1F1" height="210.9688" id="MaskedDataset" rx="2.5" ry="2.5" style="stroke:#181818;stroke-width:0.5;" width="308" x="705" y="394.16"/><ellipse cx="800.75" cy="410.16" fill="#ADD1B2" rx="11" ry="11" style="stroke:#181818;stroke-width:1.0;"/><path d="M803.7188,415.8006 Q803.1406,416.0975 802.5,416.2381 Q801.8594,416.3944 801.1563,416.3944 Q798.6563,416.3944 797.3281,414.7538 Q796.0156,413.0975 796.0156,409.9725 Q796.0156,406.8475 797.3281,405.1913 Q798.6563,403.535 801.1563,403.535 Q801.8594,403.535 802.5,403.6913 Q803.1563,403.8475 803.7188,404.1444 L803.7188,406.8631 Q803.0938,406.285 802.5,406.0194 Q801.9063,405.7381 801.2813,405.7381 Q799.9375,405.7381 799.25,406.8163 Q798.5625,407.8788 798.5625,409.9725 Q798.5625,412.0663 799.25,413.1444 Q799.9375,414.2069 801.2813,414.2069 Q801.9063,414.2069 802.5,413.9413 Q803.0938,413.66 803.7188,413.0819 L803.7188,415.8006 Z " fill="#000000"/><text fill="#000000" font-family="sans-serif" font-size="14" lengthAdjust="spacing" textLength="108" x="821.25" y="415.0067">MaskedDataset</text><line style="stroke:#181818;stroke-width:0.5;" x1="706" x2="1012" y1="426.16" y2="426.16"/><rect fill="none" height="6" style="stroke:#C82930;stroke-width:1.0;" width="6" x="713" y="436.8084"/><text fill="#000000" font-family="sans-serif" font-size="14" lengthAdjust="spacing" textLength="139" x="725" y="443.1551">features: np.ndarray</text><rect fill="none" height="6" style="stroke:#C82930;stroke-width:1.0;" width="6" x="713" y="453.1053"/><text fill="#000000" font-family="sans-serif" font-size="14" lengthAdjust="spacing" textLength="157" x="725" y="459.452">true_labels: np.ndarray</text><rect fill="none" height="6" style="stroke:#C82930;stroke-width:1.0;" width="6" x="713" y="469.4022"/><text fill="#000000" font-family="sans-serif" font-size="14" lengthAdjust="spacing" textLength="182" x="725" y="475.7489">pseudo_labels: np.ndarray</text><rect fill="none" height="6" style="stroke:#C82930;stroke-width:1.0;" width="6" x="713" y="485.6991"/><text fill="#000000" font-family="sans-serif" font-size="14" lengthAdjust="spacing" textLength="225" x="725" y="492.0457">pseudo_probabilities: np.ndarray</text><rect fill="none" height="6" style="stroke:#C82930;stroke-width:1.0;" width="6" x="713" y="501.9959"/><text fill="#000000" font-family="sans-serif" font-size="14" lengthAdjust="spacing" textLength="131" x="725" y="508.3426">indices: np.ndarray</text><rect fill="none" height="6" style="stroke:#C82930;stroke-width:1.0;" width="6" x="713" y="518.2928"/><text fill="#000000" font-family="sans-serif" font-size="14" lengthAdjust="spacing" textLength="187" x="725" y="524.6395">original_indices: np.ndarray</text><rect fill="none" height="6" style="stroke:#C82930;stroke-width:1.0;" width="6" x="713" y="534.5897"/><text fill="#000000" font-family="sans-serif" font-size="14" lengthAdjust="spacing" textLength="187" x="725" y="540.9364">sample_counts: np.ndarray</text><line style="stroke:#181818;stroke-width:0.5;" x1="706" x2="1012" y1="548.2381" y2="548.2381"/><ellipse cx="716" cy="561.8866" fill="#84BE84" rx="3" ry="3" style="stroke:#038048;stroke-width:1.0;"/><text fill="#000000" font-family="sans-serif" font-size="14" lengthAdjust="spacing" textLength="194" x="725" y="565.2332">refine(mask: np.ndarray): int</text><ellipse cx="716" cy="578.1834" fill="#84BE84" rx="3" ry="3" style="stroke:#038048;stroke-width:1.0;"/><text fill="#000000" font-family="sans-serif" font-size="14" lengthAdjust="spacing" textLength="282" x="725" y="581.5301">sample(N: int, seed: int): MaskedDataset</text><ellipse cx="716" cy="594.4803" fill="#84BE84" rx="3" ry="3" style="stroke:#038048;stroke-width:1.0;"/><text fill="#000000" font-family="sans-serif" font-size="14" lengthAdjust="spacing" textLength="165" x="725" y="597.827">clone(): MaskedDataset</text></g><!--reverse link DataLoadingStrategy to CSVDataLoadingStrategy--><g id="link_DataLoadingStrategy_CSVDataLoadingStrategy"><path codeLine="17" d="M346,747.77 C346,766.03 346,770.94 346,789.18 " fill="none" id="DataLoadingStrategy-backto-CSVDataLoadingStrategy" style="stroke:#181818;stroke-width:1.0;"/><polygon fill="none" points="346,729.77,340,747.77,352,747.77,346,729.77" style="stroke:#181818;stroke-width:1.0;"/></g><!--reverse link DataLoadingContext to DataLoadingStrategy--><g id="link_DataLoadingContext_DataLoadingStrategy"><path codeLine="18" d="M346,568.7 C346,603.82 346,635.77 346,664.87 " fill="none" id="DataLoadingContext-backto-DataLoadingStrategy" style="stroke:#181818;stroke-width:1.0;"/><polygon fill="#181818" points="346,556.7,342,562.7,346,568.7,350,562.7,346,556.7" style="stroke:#181818;stroke-width:1.0;"/><text fill="#000000" font-family="sans-serif" font-size="13" lengthAdjust="spacing" textLength="8" x="337.2125" y="654.093">1</text></g><!--reverse link DatasetsManager to MaskedDataset--><g id="link_DatasetsManager_MaskedDataset"><path codeLine="50" d="M708.8,326.5314 C731.14,352.1314 746.26,369.45 767.57,393.87 " fill="none" id="DatasetsManager-backto-MaskedDataset" style="stroke:#181818;stroke-width:1.0;"/><polygon fill="#181818" points="700.91,317.49,701.8412,324.6407,708.8,326.5314,707.8688,319.3807,700.91,317.49" style="stroke:#181818;stroke-width:1.0;"/><text fill="#000000" font-family="sans-serif" font-size="13" lengthAdjust="spacing" textLength="8" x="752.8601" y="382.977">1</text></g><!--link DatasetsManager to DataLoadingContext--><g id="link_DatasetsManager_DataLoadingContext"><path codeLine="51" d="M479.63,317.49 C447.09,361.61 416.4217,403.1815 390.7517,437.9815 " fill="none" id="DatasetsManager-to-DataLoadingContext" style="stroke:#181818;stroke-width:1.0;stroke-dasharray:7.0,7.0;"/><polygon fill="#181818" points="387.19,442.81,395.7515,437.9417,390.1581,438.7863,389.3136,433.1928,387.19,442.81" style="stroke:#181818;stroke-width:1.0;"/><text fill="#000000" font-family="sans-serif" font-size="13" lengthAdjust="spacing" textLength="46" x="457" y="360.2269">&#171;uses&#187;</text></g><!--SRC=[lLHDZvim4BtdLrWviSs7r2kASjaUTtlPjfSeiWQOK6kDZUnXjQjj_di70WHOGXj5RKGaFFFc-VanunpYPqXHp1CWy4XU-2BAJy6vU9y94MlmNdpXz8E5H9dqtXh2LwgIvM_bKMDCc4XF3WZJjx0BVwg3DNh1cxJ0OBBYBXGlLYLDOTejl9lSGtDOWfSc3mvAeyo1VeQ2YvU2m9L4iTL5PgI13Ai4ytqhSesx1-Lfnu7zKfXyRH9m3jwwxtlUvCX_VY0gzSJqqQD6K6lIUuCzYWM-ObmG1gKgILQM4l-1kfEe-wSVKxh-bvWn3PjVgzK5VVsAfkC-CNx-UNxXo_TwjMpbHp3SnUxSg167PMOJr9BBbE5woS2Hz0jenHEXhEa271xGeOcn6oJqD22g7TCGeVRTlXyJK0vUqAx-mluBX1t95MLdVINf-PWLqNbv9K_ZpEc4zU8AZdJACOTKE2ELyGIiBHIHjPfRyxlX4- -eRD2bU0J_Z4dT3_iBl4FZRcJ-uDvDR3qFR-JgjMLvWxO3FBmqUXpd-JaWi03qOMV6sp5m1TRKO-dSOv7OFmDoPoE8b5QanlTH9b7nUCewbIe3MavWF6Ji4bjH61e3BFZpAOD1nWvqq-oMCjHsTyKIVAs2I-4Ha-gLKJth6doiBNEEP8-pusnuNJMtN1yxHAtNsx4hCXIRJU7HRxU_0G00]--></g></svg>