<svg xmlns="http://www.w3.org/2000/svg" xmlns:xlink="http://www.w3.org/1999/xlink" contentStyleType="text/css" height="1251px" preserveAspectRatio="none" style="width:1310px;height:1251px;background:#FFFFFF;" version="1.1" viewBox="0 0 1310 1251" width="1310px" zoomAndPan="magnify"><defs/><g><!--cluster datasets subpackage--><g id="cluster_datasets subpackage"><path d="M8.5,6 L177.5,6 A3.75,3.75 0 0 1 180,8.5 L187,28.2969 L1300.5,28.2969 A2.5,2.5 0 0 1 1303,30.7969 L1303,1242.05 A2.5,2.5 0 0 1 1300.5,1244.55 L8.5,1244.55 A2.5,2.5 0 0 1 6,1242.05 L6,8.5 A2.5,2.5 0 0 1 8.5,6 " fill="none" style="stroke:#000000;stroke-width:1.5;"/><line style="stroke:#000000;stroke-width:1.5;" x1="6" x2="187" y1="28.2969" y2="28.2969"/><text fill="#000000" font-family="sans-serif" font-size="14" font-weight="bold" lengthAdjust="spacing" textLength="168" x="10" y="20.9951">datasets subpackage</text></g><!--class DataLoadingContext--><g id="elem_DataLoadingContext"><rect codeLine="2" fill="#F1F1F1" height="113.1875" id="DataLoadingContext" rx="2.5" ry="2.5" style="stroke:#181818;stroke-width:0.5;" width="648" x="22" y="663.06"/><ellipse cx="271.75" cy="679.06" fill="#ADD1B2" rx="11" ry="11" style="stroke:#181818;stroke-width:1.0;"/><path d="M274.7188,684.7006 Q274.1406,684.9975 273.5,685.1381 Q272.8594,685.2944 272.1563,685.2944 Q269.6563,685.2944 268.3281,683.6538 Q267.0156,681.9975 267.0156,678.8725 Q267.0156,675.7475 268.3281,674.0913 Q269.6563,672.435 272.1563,672.435 Q272.8594,672.435 273.5,672.5913 Q274.1563,672.7475 274.7188,673.0444 L274.7188,675.7631 Q274.0938,675.185 273.5,674.9194 Q272.9063,674.6381 272.2813,674.6381 Q270.9375,674.6381 270.25,675.7163 Q269.5625,676.7788 269.5625,678.8725 Q269.5625,680.9663 270.25,682.0444 Q270.9375,683.1069 272.2813,683.1069 Q272.9063,683.1069 273.5,682.8413 Q274.0938,682.56 274.7188,681.9819 L274.7188,684.7006 Z " fill="#000000"/><text fill="#000000" font-family="sans-serif" font-size="14" lengthAdjust="spacing" textLength="140" x="292.25" y="683.9067">DataLoadingContext</text><line style="stroke:#181818;stroke-width:0.5;" x1="23" x2="669" y1="695.06" y2="695.06"/><rect fill="none" height="6" style="stroke:#C82930;stroke-width:1.0;" width="6" x="30" y="705.7084"/><text fill="#000000" font-family="sans-serif" font-size="14" lengthAdjust="spacing" textLength="275" x="42" y="712.0551">selected_strategy: DataLoadingStrategy</text><line style="stroke:#181818;stroke-width:0.5;" x1="23" x2="669" y1="719.3569" y2="719.3569"/><ellipse cx="33" cy="733.0053" fill="#84BE84" rx="3" ry="3" style="stroke:#038048;stroke-width:1.0;"/><text fill="#000000" font-family="sans-serif" font-size="14" lengthAdjust="spacing" textLength="340" x="42" y="736.352">set_strategy(strategy: DataLoadingStrategy): void</text><ellipse cx="33" cy="749.3022" fill="#84BE84" rx="3" ry="3" style="stroke:#038048;stroke-width:1.0;"/><text fill="#000000" font-family="sans-serif" font-size="14" lengthAdjust="spacing" textLength="248" x="42" y="752.6489">get_strategy(): DataLoadingStrategy</text><ellipse cx="33" cy="765.5991" fill="#84BE84" rx="3" ry="3" style="stroke:#038048;stroke-width:1.0;"/><text fill="#000000" font-family="sans-serif" font-size="14" lengthAdjust="spacing" textLength="622" x="42" y="768.9457">load_as_np(file_path: str, target_column_name: str): Tuple[List[str], np.ndarray, np.ndarray]</text></g><!--class DataLoadingStrategy--><g id="elem_DataLoadingStrategy"><rect codeLine="9" fill="#F1F1F1" height="64.2969" id="DataLoadingStrategy" rx="2.5" ry="2.5" style="stroke:#181818;stroke-width:0.5;" width="648" x="22" y="1039.96"/><ellipse cx="270.25" cy="1055.96" fill="#A9DCDF" rx="11" ry="11" style="stroke:#181818;stroke-width:1.0;"/><path d="M270.3594,1051.3038 L269.2031,1056.3819 L271.5313,1056.3819 L270.3594,1051.3038 Z M268.875,1049.0694 L271.8594,1049.0694 L275.2188,1061.46 L272.7656,1061.46 L272,1058.3975 L268.7188,1058.3975 L267.9688,1061.46 L265.5313,1061.46 L268.875,1049.0694 Z " fill="#000000"/><text fill="#000000" font-family="sans-serif" font-size="14" font-style="italic" lengthAdjust="spacing" textLength="143" x="290.75" y="1060.8067">DataLoadingStrategy</text><line style="stroke:#181818;stroke-width:0.5;" x1="23" x2="669" y1="1071.96" y2="1071.96"/><line style="stroke:#181818;stroke-width:0.5;" x1="23" x2="669" y1="1079.96" y2="1079.96"/><ellipse cx="33" cy="1093.6084" fill="#84BE84" rx="3" ry="3" style="stroke:#038048;stroke-width:1.0;"/><text fill="#000000" font-family="sans-serif" font-size="14" font-style="italic" lengthAdjust="spacing" textLength="622" x="42" y="1096.9551">execute(path_to_file: str, target_column_name: str): Tuple[List[str], np.ndarray, np.ndarray]</text></g><!--class CSVDataLoadingStrategy--><g id="elem_CSVDataLoadingStrategy"><rect codeLine="13" fill="#F1F1F1" height="64.2969" id="CSVDataLoadingStrategy" rx="2.5" ry="2.5" style="stroke:#181818;stroke-width:0.5;" width="648" x="22" y="1164.25"/><ellipse cx="256.25" cy="1180.25" fill="#ADD1B2" rx="11" ry="11" style="stroke:#181818;stroke-width:1.0;"/><path d="M259.2188,1185.8906 Q258.6406,1186.1875 258,1186.3281 Q257.3594,1186.4844 256.6563,1186.4844 Q254.1563,1186.4844 252.8281,1184.8438 Q251.5156,1183.1875 251.5156,1180.0625 Q251.5156,1176.9375 252.8281,1175.2813 Q254.1563,1173.625 256.6563,1173.625 Q257.3594,1173.625 258,1173.7813 Q258.6563,1173.9375 259.2188,1174.2344 L259.2188,1176.9531 Q258.5938,1176.375 258,1176.1094 Q257.4063,1175.8281 256.7813,1175.8281 Q255.4375,1175.8281 254.75,1176.9063 Q254.0625,1177.9688 254.0625,1180.0625 Q254.0625,1182.1563 254.75,1183.2344 Q255.4375,1184.2969 256.7813,1184.2969 Q257.4063,1184.2969 258,1184.0313 Q258.5938,1183.75 259.2188,1183.1719 L259.2188,1185.8906 Z " fill="#000000"/><text fill="#000000" font-family="sans-serif" font-size="14" lengthAdjust="spacing" textLength="171" x="276.75" y="1185.0967">CSVDataLoadingStrategy</text><line style="stroke:#181818;stroke-width:0.5;" x1="23" x2="669" y1="1196.25" y2="1196.25"/><line style="stroke:#181818;stroke-width:0.5;" x1="23" x2="669" y1="1204.25" y2="1204.25"/><ellipse cx="33" cy="1217.8984" fill="#84BE84" rx="3" ry="3" style="stroke:#038048;stroke-width:1.0;"/><text fill="#000000" font-family="sans-serif" font-size="14" lengthAdjust="spacing" textLength="622" x="42" y="1221.2451">execute(path_to_file: str, target_column_name: str): Tuple[List[str], np.ndarray, np.ndarray]</text></g><!--class DatasetsManager--><g id="elem_DatasetsManager"><rect codeLine="20" fill="#F1F1F1" height="341.3438" id="DatasetsManager" rx="2.5" ry="2.5" style="stroke:#181818;stroke-width:0.5;" width="789" x="311.5" y="41"/><ellipse cx="640.75" cy="57" fill="#ADD1B2" rx="11" ry="11" style="stroke:#181818;stroke-width:1.0;"/><path d="M643.7188,62.6406 Q643.1406,62.9375 642.5,63.0781 Q641.8594,63.2344 641.1563,63.2344 Q638.6563,63.2344 637.3281,61.5938 Q636.0156,59.9375 636.0156,56.8125 Q636.0156,53.6875 637.3281,52.0313 Q638.6563,50.375 641.1563,50.375 Q641.8594,50.375 642.5,50.5313 Q643.1563,50.6875 643.7188,50.9844 L643.7188,53.7031 Q643.0938,53.125 642.5,52.8594 Q641.9063,52.5781 641.2813,52.5781 Q639.9375,52.5781 639.25,53.6563 Q638.5625,54.7188 638.5625,56.8125 Q638.5625,58.9063 639.25,59.9844 Q639.9375,61.0469 641.2813,61.0469 Q641.9063,61.0469 642.5,60.7813 Q643.0938,60.5 643.7188,59.9219 L643.7188,62.6406 Z " fill="#000000"/><text fill="#000000" font-family="sans-serif" font-size="14" lengthAdjust="spacing" textLength="122" x="661.25" y="61.8467">DatasetsManager</text><line style="stroke:#181818;stroke-width:0.5;" x1="312.5" x2="1099.5" y1="73" y2="73"/><rect fill="none" height="6" style="stroke:#C82930;stroke-width:1.0;" width="6" x="319.5" y="83.6484"/><text fill="#000000" font-family="sans-serif" font-size="14" lengthAdjust="spacing" textLength="288" x="331.5" y="89.9951">base_model_training_set: MaskedDataset</text><rect fill="none" height="6" style="stroke:#C82930;stroke-width:1.0;" width="6" x="319.5" y="99.9453"/><text fill="#000000" font-family="sans-serif" font-size="14" lengthAdjust="spacing" textLength="301" x="331.5" y="106.292">base_model_validation_set: MaskedDataset</text><rect fill="none" height="6" style="stroke:#C82930;stroke-width:1.0;" width="6" x="319.5" y="116.2422"/><text fill="#000000" font-family="sans-serif" font-size="14" lengthAdjust="spacing" textLength="213" x="331.5" y="122.5889">reference_set: MaskedDataset</text><rect fill="none" height="6" style="stroke:#C82930;stroke-width:1.0;" width="6" x="319.5" y="132.5391"/><text fill="#000000" font-family="sans-serif" font-size="14" lengthAdjust="spacing" textLength="194" x="331.5" y="138.8857">testing_set: MaskedDataset</text><rect fill="none" height="6" style="stroke:#C82930;stroke-width:1.0;" width="6" x="319.5" y="148.8359"/><text fill="#000000" font-family="sans-serif" font-size="14" lengthAdjust="spacing" textLength="158" x="331.5" y="155.1826">column_labels: List[str]</text><line style="stroke:#181818;stroke-width:0.5;" x1="312.5" x2="1099.5" y1="162.4844" y2="162.4844"/><ellipse cx="322.5" cy="176.1328" fill="#84BE84" rx="3" ry="3" style="stroke:#038048;stroke-width:1.0;"/><text fill="#000000" font-family="sans-serif" font-size="14" lengthAdjust="spacing" textLength="483" x="331.5" y="179.4795">set_from_file(dataset_type: str, file: str, target_column_name: str): void</text><ellipse cx="322.5" cy="192.4297" fill="#84BE84" rx="3" ry="3" style="stroke:#038048;stroke-width:1.0;"/><text fill="#000000" font-family="sans-serif" font-size="14" lengthAdjust="spacing" textLength="763" x="331.5" y="195.7764">set_from_data(dataset_type: str, features: np.ndarray, true_labels: np.ndarray, column_labels: list = None): void</text><ellipse cx="322.5" cy="208.7266" fill="#84BE84" rx="3" ry="3" style="stroke:#038048;stroke-width:1.0;"/><text fill="#000000" font-family="sans-serif" font-size="14" lengthAdjust="spacing" textLength="261" x="331.5" y="212.0732">set_column_labels(columns: list): void</text><ellipse cx="322.5" cy="225.0234" fill="#84BE84" rx="3" ry="3" style="stroke:#038048;stroke-width:1.0;"/><text fill="#000000" font-family="sans-serif" font-size="14" lengthAdjust="spacing" textLength="198" x="331.5" y="228.3701">get_column_labels(): List[str]</text><ellipse cx="322.5" cy="241.3203" fill="#84BE84" rx="3" ry="3" style="stroke:#038048;stroke-width:1.0;"/><text fill="#000000" font-family="sans-serif" font-size="14" lengthAdjust="spacing" textLength="279" x="331.5" y="244.667">get_info(show_details: bool = True): dict</text><ellipse cx="322.5" cy="257.6172" fill="#84BE84" rx="3" ry="3" style="stroke:#038048;stroke-width:1.0;"/><text fill="#000000" font-family="sans-serif" font-size="14" lengthAdjust="spacing" textLength="110" x="331.5" y="260.9639">summary(): void</text><ellipse cx="322.5" cy="273.9141" fill="#84BE84" rx="3" ry="3" style="stroke:#038048;stroke-width:1.0;"/><text fill="#000000" font-family="sans-serif" font-size="14" lengthAdjust="spacing" textLength="150" x="331.5" y="277.2607">reset_datasets(): void</text><ellipse cx="322.5" cy="290.2109" fill="#84BE84" rx="3" ry="3" style="stroke:#038048;stroke-width:1.0;"/><text fill="#000000" font-family="sans-serif" font-size="14" lengthAdjust="spacing" textLength="596" x="331.5" y="293.5576">get_dataset_by_type(dataset_type: str, return_instance: bool = False): MaskedDataset</text><ellipse cx="322.5" cy="306.5078" fill="#84BE84" rx="3" ry="3" style="stroke:#038048;stroke-width:1.0;"/><text fill="#000000" font-family="sans-serif" font-size="14" lengthAdjust="spacing" textLength="397" x="331.5" y="309.8545">save_dataset_to_csv(dataset_type: str, file_path: str): void</text><rect fill="#F24D5C" height="6" style="stroke:#C82930;stroke-width:1.0;" width="6" x="319.5" y="319.8047"/><text fill="#000000" font-family="sans-serif" font-size="14" lengthAdjust="spacing" textLength="646" x="331.5" y="326.1514">__get_base_model_training_data(return_instance: bool = False): Union[tuple, MaskedDataset]</text><rect fill="#F24D5C" height="6" style="stroke:#C82930;stroke-width:1.0;" width="6" x="319.5" y="336.1016"/><text fill="#000000" font-family="sans-serif" font-size="14" lengthAdjust="spacing" textLength="659" x="331.5" y="342.4482">__get_base_model_validation_data(return_instance: bool = False): Union[tuple, MaskedDataset]</text><rect fill="#F24D5C" height="6" style="stroke:#C82930;stroke-width:1.0;" width="6" x="319.5" y="352.3984"/><text fill="#000000" font-family="sans-serif" font-size="14" lengthAdjust="spacing" textLength="571" x="331.5" y="358.7451">__get_reference_data(return_instance: bool = False): Union[tuple, MaskedDataset]</text><rect fill="#F24D5C" height="6" style="stroke:#C82930;stroke-width:1.0;" width="6" x="319.5" y="368.6953"/><text fill="#000000" font-family="sans-serif" font-size="14" lengthAdjust="spacing" textLength="552" x="331.5" y="375.042">__get_testing_data(return_instance: bool = False): Union[tuple, MaskedDataset]</text></g><!--class MaskedDataset--><g id="elem_MaskedDataset"><rect codeLine="41" fill="#F1F1F1" height="520.6094" id="MaskedDataset" rx="2.5" ry="2.5" style="stroke:#181818;stroke-width:0.5;" width="582" x="705" y="459.35"/><ellipse cx="937.75" cy="475.35" fill="#ADD1B2" rx="11" ry="11" style="stroke:#181818;stroke-width:1.0;"/><path d="M940.7188,480.9906 Q940.1406,481.2875 939.5,481.4281 Q938.8594,481.5844 938.1563,481.5844 Q935.6563,481.5844 934.3281,479.9437 Q933.0156,478.2875 933.0156,475.1625 Q933.0156,472.0375 934.3281,470.3812 Q935.6563,468.725 938.1563,468.725 Q938.8594,468.725 939.5,468.8812 Q940.1563,469.0375 940.7188,469.3344 L940.7188,472.0531 Q940.0938,471.475 939.5,471.2094 Q938.9063,470.9281 938.2813,470.9281 Q936.9375,470.9281 936.25,472.0062 Q935.5625,473.0687 935.5625,475.1625 Q935.5625,477.2562 936.25,478.3344 Q936.9375,479.3969 938.2813,479.3969 Q938.9063,479.3969 939.5,479.1312 Q940.0938,478.85 940.7188,478.2719 L940.7188,480.9906 Z " fill="#000000"/><text fill="#000000" font-family="sans-serif" font-size="14" lengthAdjust="spacing" textLength="108" x="958.25" y="480.1967">MaskedDataset</text><line style="stroke:#181818;stroke-width:0.5;" x1="706" x2="1286" y1="491.35" y2="491.35"/><rect fill="none" height="6" style="stroke:#C82930;stroke-width:1.0;" width="6" x="713" y="501.9984"/><text fill="#000000" font-family="sans-serif" font-size="14" lengthAdjust="spacing" textLength="139" x="725" y="508.3451">features: np.ndarray</text><rect fill="none" height="6" style="stroke:#C82930;stroke-width:1.0;" width="6" x="713" y="518.2953"/><text fill="#000000" font-family="sans-serif" font-size="14" lengthAdjust="spacing" textLength="157" x="725" y="524.642">true_labels: np.ndarray</text><rect fill="none" height="6" style="stroke:#C82930;stroke-width:1.0;" width="6" x="713" y="534.5922"/><text fill="#000000" font-family="sans-serif" font-size="14" lengthAdjust="spacing" textLength="182" x="725" y="540.9389">pseudo_labels: np.ndarray</text><rect fill="none" height="6" style="stroke:#C82930;stroke-width:1.0;" width="6" x="713" y="550.8891"/><text fill="#000000" font-family="sans-serif" font-size="14" lengthAdjust="spacing" textLength="225" x="725" y="557.2357">pseudo_probabilities: np.ndarray</text><rect fill="none" height="6" style="stroke:#C82930;stroke-width:1.0;" width="6" x="713" y="567.1859"/><text fill="#000000" font-family="sans-serif" font-size="14" lengthAdjust="spacing" textLength="213" x="725" y="573.5326">confidence_scores: np.ndarray</text><rect fill="none" height="6" style="stroke:#C82930;stroke-width:1.0;" width="6" x="713" y="583.4828"/><text fill="#000000" font-family="sans-serif" font-size="14" lengthAdjust="spacing" textLength="131" x="725" y="589.8295">indices: np.ndarray</text><rect fill="none" height="6" style="stroke:#C82930;stroke-width:1.0;" width="6" x="713" y="599.7797"/><text fill="#000000" font-family="sans-serif" font-size="14" lengthAdjust="spacing" textLength="187" x="725" y="606.1264">original_indices: np.ndarray</text><rect fill="none" height="6" style="stroke:#C82930;stroke-width:1.0;" width="6" x="713" y="616.0766"/><text fill="#000000" font-family="sans-serif" font-size="14" lengthAdjust="spacing" textLength="187" x="725" y="622.4232">sample_counts: np.ndarray</text><rect fill="none" height="6" style="stroke:#C82930;stroke-width:1.0;" width="6" x="713" y="632.3734"/><text fill="#000000" font-family="sans-serif" font-size="14" lengthAdjust="spacing" textLength="126" x="725" y="638.7201">column_labels: list</text><line style="stroke:#181818;stroke-width:0.5;" x1="706" x2="1286" y1="646.0219" y2="646.0219"/><ellipse cx="716" cy="659.6703" fill="#84BE84" rx="3" ry="3" style="stroke:#038048;stroke-width:1.0;"/><text fill="#000000" font-family="sans-serif" font-size="14" lengthAdjust="spacing" textLength="553" x="725" y="663.017">__init__(features: np.ndarray, true_labels: np.ndarray, column_labels: list = None)</text><ellipse cx="716" cy="675.9672" fill="#84BE84" rx="3" ry="3" style="stroke:#038048;stroke-width:1.0;"/><text fill="#000000" font-family="sans-serif" font-size="14" lengthAdjust="spacing" textLength="198" x="725" y="679.3139">__getitem__(index: int): tuple</text><ellipse cx="716" cy="692.2641" fill="#84BE84" rx="3" ry="3" style="stroke:#038048;stroke-width:1.0;"/><text fill="#000000" font-family="sans-serif" font-size="14" lengthAdjust="spacing" textLength="85" x="725" y="695.6107">__len__(): int</text><ellipse cx="716" cy="708.5609" fill="#84BE84" rx="3" ry="3" style="stroke:#038048;stroke-width:1.0;"/><text fill="#000000" font-family="sans-serif" font-size="14" lengthAdjust="spacing" textLength="194" x="725" y="711.9076">refine(mask: np.ndarray): int</text><ellipse cx="716" cy="724.8578" fill="#84BE84" rx="3" ry="3" style="stroke:#038048;stroke-width:1.0;"/><text fill="#000000" font-family="sans-serif" font-size="14" lengthAdjust="spacing" textLength="176" x="725" y="728.2045">original(): MaskedDataset</text><ellipse cx="716" cy="741.1547" fill="#84BE84" rx="3" ry="3" style="stroke:#038048;stroke-width:1.0;"/><text fill="#000000" font-family="sans-serif" font-size="14" lengthAdjust="spacing" textLength="139" x="725" y="744.5014">reset_indices(): void</text><ellipse cx="716" cy="757.4516" fill="#84BE84" rx="3" ry="3" style="stroke:#038048;stroke-width:1.0;"/><text fill="#000000" font-family="sans-serif" font-size="14" lengthAdjust="spacing" textLength="282" x="725" y="760.7982">sample(N: int, seed: int): MaskedDataset</text><ellipse cx="716" cy="773.7484" fill="#84BE84" rx="3" ry="3" style="stroke:#038048;stroke-width:1.0;"/><text fill="#000000" font-family="sans-serif" font-size="14" lengthAdjust="spacing" textLength="165" x="725" y="777.0951">clone(): MaskedDataset</text><ellipse cx="716" cy="790.0453" fill="#84BE84" rx="3" ry="3" style="stroke:#038048;stroke-width:1.0;"/><text fill="#000000" font-family="sans-serif" font-size="14" lengthAdjust="spacing" textLength="99" x="725" y="793.392">get_info(): dict</text><ellipse cx="716" cy="806.3422" fill="#84BE84" rx="3" ry="3" style="stroke:#038048;stroke-width:1.0;"/><text fill="#000000" font-family="sans-serif" font-size="14" lengthAdjust="spacing" textLength="110" x="725" y="809.6889">summary(): void</text><ellipse cx="716" cy="822.6391" fill="#84BE84" rx="3" ry="3" style="stroke:#038048;stroke-width:1.0;"/><text fill="#000000" font-family="sans-serif" font-size="14" lengthAdjust="spacing" textLength="206" x="725" y="825.9857">to_dataframe(): pd.DataFrame</text><ellipse cx="716" cy="838.9359" fill="#84BE84" rx="3" ry="3" style="stroke:#038048;stroke-width:1.0;"/><text fill="#000000" font-family="sans-serif" font-size="14" lengthAdjust="spacing" textLength="214" x="725" y="842.2826">save_to_csv(file_path: str): void</text><ellipse cx="716" cy="855.2328" fill="#84BE84" rx="3" ry="3" style="stroke:#038048;stroke-width:1.0;"/><text fill="#000000" font-family="sans-serif" font-size="14" lengthAdjust="spacing" textLength="179" x="725" y="858.5795">get_features(): np.ndarray</text><ellipse cx="716" cy="871.5297" fill="#84BE84" rx="3" ry="3" style="stroke:#038048;stroke-width:1.0;"/><text fill="#000000" font-family="sans-serif" font-size="14" lengthAdjust="spacing" textLength="222" x="725" y="874.8764">get_pseudo_labels(): np.ndarray</text><ellipse cx="716" cy="887.8266" fill="#84BE84" rx="3" ry="3" style="stroke:#038048;stroke-width:1.0;"/><text fill="#000000" font-family="sans-serif" font-size="14" lengthAdjust="spacing" textLength="197" x="725" y="891.1732">get_true_labels(): np.ndarray</text><ellipse cx="716" cy="904.1234" fill="#84BE84" rx="3" ry="3" style="stroke:#038048;stroke-width:1.0;"/><text fill="#000000" font-family="sans-serif" font-size="14" lengthAdjust="spacing" textLength="265" x="725" y="907.4701">get_pseudo_probabilities(): np.ndarray</text><ellipse cx="716" cy="920.4203" fill="#84BE84" rx="3" ry="3" style="stroke:#038048;stroke-width:1.0;"/><text fill="#000000" font-family="sans-serif" font-size="14" lengthAdjust="spacing" textLength="253" x="725" y="923.767">get_confidence_scores(): np.ndarray</text><ellipse cx="716" cy="936.7172" fill="#84BE84" rx="3" ry="3" style="stroke:#038048;stroke-width:1.0;"/><text fill="#000000" font-family="sans-serif" font-size="14" lengthAdjust="spacing" textLength="556" x="725" y="940.0639">set_pseudo_probs_labels(pseudo_probabilities: np.ndarray, threshold=0.5): void</text><ellipse cx="716" cy="953.0141" fill="#84BE84" rx="3" ry="3" style="stroke:#038048;stroke-width:1.0;"/><text fill="#000000" font-family="sans-serif" font-size="14" lengthAdjust="spacing" textLength="420" x="725" y="956.3607">set_confidence_scores(confidence_scores: np.ndarray): void</text><ellipse cx="716" cy="969.3109" fill="#84BE84" rx="3" ry="3" style="stroke:#038048;stroke-width:1.0;"/><text fill="#000000" font-family="sans-serif" font-size="14" lengthAdjust="spacing" textLength="358" x="725" y="972.6576">set_pseudo_labels(pseudo_labels: np.ndarray): void</text></g><!--reverse link DataLoadingStrategy to CSVDataLoadingStrategy--><g id="link_DataLoadingStrategy_CSVDataLoadingStrategy"><path codeLine="17" d="M346,1122.6 C346,1140.86 346,1145.77 346,1164.01 " fill="none" id="DataLoadingStrategy-backto-CSVDataLoadingStrategy" style="stroke:#181818;stroke-width:1.0;"/><polygon fill="none" points="346,1104.6,340,1122.6,352,1122.6,346,1104.6" style="stroke:#181818;stroke-width:1.0;"/></g><!--reverse link DataLoadingContext to DataLoadingStrategy--><g id="link_DataLoadingContext_DataLoadingStrategy"><path codeLine="18" d="M346,788.57 C346,862.97 346,980.02 346,1039.46 " fill="none" id="DataLoadingContext-backto-DataLoadingStrategy" style="stroke:#181818;stroke-width:1.0;"/><polygon fill="#181818" points="346,776.57,342,782.57,346,788.57,350,782.57,346,776.57" style="stroke:#181818;stroke-width:1.0;"/><text fill="#000000" font-family="sans-serif" font-size="13" lengthAdjust="spacing" textLength="8" x="337.2375" y="1028.8863">1</text></g><!--reverse link DatasetsManager to MaskedDataset--><g id="link_DatasetsManager_MaskedDataset"><path codeLine="74" d="M809.3368,392.9814 C823.4868,417.6714 832.36,433.13 847.24,459.1 " fill="none" id="DatasetsManager-backto-MaskedDataset" style="stroke:#181818;stroke-width:1.0;"/><polygon fill="#181818" points="803.37,382.57,802.883,389.7646,809.3368,392.9814,809.8239,385.7867,803.37,382.57" style="stroke:#181818;stroke-width:1.0;"/><text fill="#000000" font-family="sans-serif" font-size="13" lengthAdjust="spacing" textLength="8" x="834.7049" y="448.211">4</text></g><!--link DatasetsManager to DataLoadingContext--><g id="link_DatasetsManager_DataLoadingContext"><path codeLine="75" d="M585.12,382.57 C515.88,479.89 436.9783,590.7811 389.2183,657.9111 " fill="none" id="DatasetsManager-to-DataLoadingContext" style="stroke:#181818;stroke-width:1.0;stroke-dasharray:7.0,7.0;"/><polygon fill="#181818" points="385.74,662.8,394.2167,657.7854,388.6386,658.7259,387.6981,653.1478,385.74,662.8" style="stroke:#181818;stroke-width:1.0;"/><text fill="#000000" font-family="sans-serif" font-size="13" lengthAdjust="spacing" textLength="46" x="559" y="425.4169">&#171;uses&#187;</text></g><!--SRC=[jLQnRjim4Dtz5OGdkR6D5cWN8ycI8bEI9McN820ewMGJeKY1fDmOQVwzHqcK9Oko2zJrPFCUtptTtJkhOCahMmEPfimo0zOGKyP5VJXzdoI26KE-O-nEiPJBzOsI5juiUPyG_2mC24WifDHOpIoiTwik-B4vhB0NoDx2egFusOfi5K_hQ-lkjTaHVe67b1agYoZZ0cZ1x6P5yEgSMAOTJQ94cKigMGvL0DcUoaB0ynqtzXaFNkP45akPCgtPhllzPV8ncR3OwKWi6LJ52sdAykwH7-G2tY0fBKHE3RMAEcbdLLMBkNdyEQxd_ui8vRxylLYCw9e49keJegTVfi7-TkRGpUWzapYUsWzXZ8SqLoa8YXUun9iKOIjopymhfCsj0NRB1CUfvqgEeZLae44cC8gmOEonV4rT1Oj1c1LfgxctHAPLNZKaQYn8xQxmtVchHkszql8vgY0VC5jgG2NTPbfTGYkn6pXGBr0zkI8FIi8WRGyQrR-QAmCxzx6pGLaSXijCHMQZVj4KBECkVQoKmFHFg1Rlf3onJVeopvckbiC-3puailYj5Wqq-EB4kwe-eM9fm5f9L68imnbe1TmoOPo2ORil3Dj2Iur6IynshAtx_TJLjg3KgGkDTDNJKvf-I9pdP-kiE-yBV1dXxzZWd1dsrZadgxVRFtEsYxDtxZTAo2QDtyDMgOE5WJ9LfyA5LZ6BkU2MXp8aIcOyhPTEee8YkCJX3mMKvcikcQ2Z2CDoB0Swi9Gsc7nW-7gmAL9oIsbqlWtYYR6lt4AEtAWQtbQ4IxSoghvvZ029yLaLy_xEk8Gen_PrCtOXlXfHsAlrXcWgrLyGTPMYXufiJWn0wcK5Y1A1ZpEIf5rbfpSMhWitrfd6rUuYHRfqLBVkTsUxD5jbV8LKENsR7D51awjuRrJ7G9skdk3fpVGOTZ3P8Q3fangV_vHvS0OtIBbH8htwlFmM-7ywJ7xKQ8Fx_OADEjtVmmNpCJbyNwbUSRvE3-Ra4BLSNeVUk5Vayh8qOAwl_m00]--></g></svg>