<svg xmlns="http://www.w3.org/2000/svg" xmlns:xlink="http://www.w3.org/1999/xlink" contentStyleType="text/css" height="1269px" preserveAspectRatio="none" style="width:1338px;height:1269px;background:#FFFFFF;" version="1.1" viewBox="0 0 1338 1269" width="1338px" zoomAndPan="magnify"><defs/><g><!--cluster datasets subpackage--><g id="cluster_datasets subpackage"><path d="M8.5,6 L177.5,6 A3.75,3.75 0 0 1 180,8.5 L187,28.2969 L1328.5,28.2969 A2.5,2.5 0 0 1 1331,30.7969 L1331,1260.34 A2.5,2.5 0 0 1 1328.5,1262.84 L8.5,1262.84 A2.5,2.5 0 0 1 6,1260.34 L6,8.5 A2.5,2.5 0 0 1 8.5,6 " fill="none" style="stroke:#000000;stroke-width:1.5;"/><line style="stroke:#000000;stroke-width:1.5;" x1="6" x2="187" y1="28.2969" y2="28.2969"/><text fill="#000000" font-family="sans-serif" font-size="14" font-weight="bold" lengthAdjust="spacing" textLength="168" x="10" y="20.9951">datasets subpackage</text></g><!--class DataLoadingContext--><g id="elem_DataLoadingContext"><rect codeLine="3" fill="#F1F1F1" height="113.1875" id="DataLoadingContext" rx="2.5" ry="2.5" style="stroke:#181818;stroke-width:0.5;" width="648" x="22" y="671.2"/><ellipse cx="271.75" cy="687.2" fill="#ADD1B2" rx="11" ry="11" style="stroke:#181818;stroke-width:1.0;"/><path d="M274.7188,692.8406 Q274.1406,693.1375 273.5,693.2781 Q272.8594,693.4344 272.1563,693.4344 Q269.6563,693.4344 268.3281,691.7937 Q267.0156,690.1375 267.0156,687.0125 Q267.0156,683.8875 268.3281,682.2312 Q269.6563,680.575 272.1563,680.575 Q272.8594,680.575 273.5,680.7312 Q274.1563,680.8875 274.7188,681.1844 L274.7188,683.9031 Q274.0938,683.325 273.5,683.0594 Q272.9063,682.7781 272.2813,682.7781 Q270.9375,682.7781 270.25,683.8562 Q269.5625,684.9187 269.5625,687.0125 Q269.5625,689.1062 270.25,690.1844 Q270.9375,691.2469 272.2813,691.2469 Q272.9063,691.2469 273.5,690.9812 Q274.0938,690.7 274.7188,690.1219 L274.7188,692.8406 Z " fill="#000000"/><text fill="#000000" font-family="sans-serif" font-size="14" lengthAdjust="spacing" textLength="140" x="292.25" y="692.0467">DataLoadingContext</text><line style="stroke:#181818;stroke-width:0.5;" x1="23" x2="669" y1="703.2" y2="703.2"/><rect fill="none" height="6" style="stroke:#C82930;stroke-width:1.0;" width="6" x="30" y="713.8484"/><text fill="#000000" font-family="sans-serif" font-size="14" lengthAdjust="spacing" textLength="275" x="42" y="720.1951">selected_strategy: DataLoadingStrategy</text><line style="stroke:#181818;stroke-width:0.5;" x1="23" x2="669" y1="727.4969" y2="727.4969"/><ellipse cx="33" cy="741.1453" fill="#84BE84" rx="3" ry="3" style="stroke:#038048;stroke-width:1.0;"/><text fill="#000000" font-family="sans-serif" font-size="14" lengthAdjust="spacing" textLength="340" x="42" y="744.492">set_strategy(strategy: DataLoadingStrategy): void</text><ellipse cx="33" cy="757.4422" fill="#84BE84" rx="3" ry="3" style="stroke:#038048;stroke-width:1.0;"/><text fill="#000000" font-family="sans-serif" font-size="14" lengthAdjust="spacing" textLength="248" x="42" y="760.7889">get_strategy(): DataLoadingStrategy</text><ellipse cx="33" cy="773.7391" fill="#84BE84" rx="3" ry="3" style="stroke:#038048;stroke-width:1.0;"/><text fill="#000000" font-family="sans-serif" font-size="14" lengthAdjust="spacing" textLength="622" x="42" y="777.0857">load_as_np(file_path: str, target_column_name: str): Tuple[List[str], np.ndarray, np.ndarray]</text></g><!--class DataLoadingStrategy--><g id="elem_DataLoadingStrategy"><rect codeLine="10" fill="#F1F1F1" height="64.2969" id="DataLoadingStrategy" rx="2.5" ry="2.5" style="stroke:#181818;stroke-width:0.5;" width="648" x="22" y="1057.25"/><ellipse cx="270.25" cy="1073.25" fill="#A9DCDF" rx="11" ry="11" style="stroke:#181818;stroke-width:1.0;"/><path d="M270.3594,1068.5938 L269.2031,1073.6719 L271.5313,1073.6719 L270.3594,1068.5938 Z M268.875,1066.3594 L271.8594,1066.3594 L275.2188,1078.75 L272.7656,1078.75 L272,1075.6875 L268.7188,1075.6875 L267.9688,1078.75 L265.5313,1078.75 L268.875,1066.3594 Z " fill="#000000"/><text fill="#000000" font-family="sans-serif" font-size="14" font-style="italic" lengthAdjust="spacing" textLength="143" x="290.75" y="1078.0967">DataLoadingStrategy</text><line style="stroke:#181818;stroke-width:0.5;" x1="23" x2="669" y1="1089.25" y2="1089.25"/><line style="stroke:#181818;stroke-width:0.5;" x1="23" x2="669" y1="1097.25" y2="1097.25"/><ellipse cx="33" cy="1110.8984" fill="#84BE84" rx="3" ry="3" style="stroke:#038048;stroke-width:1.0;"/><text fill="#000000" font-family="sans-serif" font-size="14" font-style="italic" lengthAdjust="spacing" textLength="622" x="42" y="1114.2451">execute(path_to_file: str, target_column_name: str): Tuple[List[str], np.ndarray, np.ndarray]</text></g><!--class CSVDataLoadingStrategy--><g id="elem_CSVDataLoadingStrategy"><rect codeLine="14" fill="#F1F1F1" height="64.2969" id="CSVDataLoadingStrategy" rx="2.5" ry="2.5" style="stroke:#181818;stroke-width:0.5;" width="648" x="22" y="1182.54"/><ellipse cx="256.25" cy="1198.54" fill="#ADD1B2" rx="11" ry="11" style="stroke:#181818;stroke-width:1.0;"/><path d="M259.2188,1204.1806 Q258.6406,1204.4775 258,1204.6181 Q257.3594,1204.7744 256.6563,1204.7744 Q254.1563,1204.7744 252.8281,1203.1338 Q251.5156,1201.4775 251.5156,1198.3525 Q251.5156,1195.2275 252.8281,1193.5713 Q254.1563,1191.915 256.6563,1191.915 Q257.3594,1191.915 258,1192.0713 Q258.6563,1192.2275 259.2188,1192.5244 L259.2188,1195.2431 Q258.5938,1194.665 258,1194.3994 Q257.4063,1194.1181 256.7813,1194.1181 Q255.4375,1194.1181 254.75,1195.1963 Q254.0625,1196.2588 254.0625,1198.3525 Q254.0625,1200.4463 254.75,1201.5244 Q255.4375,1202.5869 256.7813,1202.5869 Q257.4063,1202.5869 258,1202.3213 Q258.5938,1202.04 259.2188,1201.4619 L259.2188,1204.1806 Z " fill="#000000"/><text fill="#000000" font-family="sans-serif" font-size="14" lengthAdjust="spacing" textLength="171" x="276.75" y="1203.3867">CSVDataLoadingStrategy</text><line style="stroke:#181818;stroke-width:0.5;" x1="23" x2="669" y1="1214.54" y2="1214.54"/><line style="stroke:#181818;stroke-width:0.5;" x1="23" x2="669" y1="1222.54" y2="1222.54"/><ellipse cx="33" cy="1236.1884" fill="#84BE84" rx="3" ry="3" style="stroke:#038048;stroke-width:1.0;"/><text fill="#000000" font-family="sans-serif" font-size="14" lengthAdjust="spacing" textLength="622" x="42" y="1239.5351">execute(path_to_file: str, target_column_name: str): Tuple[List[str], np.ndarray, np.ndarray]</text></g><!--class DatasetsManager--><g id="elem_DatasetsManager"><rect codeLine="21" fill="#F1F1F1" height="341.3438" id="DatasetsManager" rx="2.5" ry="2.5" style="stroke:#181818;stroke-width:0.5;" width="789" x="273.5" y="41"/><ellipse cx="602.75" cy="57" fill="#ADD1B2" rx="11" ry="11" style="stroke:#181818;stroke-width:1.0;"/><path d="M605.7188,62.6406 Q605.1406,62.9375 604.5,63.0781 Q603.8594,63.2344 603.1563,63.2344 Q600.6563,63.2344 599.3281,61.5938 Q598.0156,59.9375 598.0156,56.8125 Q598.0156,53.6875 599.3281,52.0313 Q600.6563,50.375 603.1563,50.375 Q603.8594,50.375 604.5,50.5313 Q605.1563,50.6875 605.7188,50.9844 L605.7188,53.7031 Q605.0938,53.125 604.5,52.8594 Q603.9063,52.5781 603.2813,52.5781 Q601.9375,52.5781 601.25,53.6563 Q600.5625,54.7188 600.5625,56.8125 Q600.5625,58.9063 601.25,59.9844 Q601.9375,61.0469 603.2813,61.0469 Q603.9063,61.0469 604.5,60.7813 Q605.0938,60.5 605.7188,59.9219 L605.7188,62.6406 Z " fill="#000000"/><text fill="#000000" font-family="sans-serif" font-size="14" lengthAdjust="spacing" textLength="122" x="623.25" y="61.8467">DatasetsManager</text><line style="stroke:#181818;stroke-width:0.5;" x1="274.5" x2="1061.5" y1="73" y2="73"/><rect fill="none" height="6" style="stroke:#C82930;stroke-width:1.0;" width="6" x="281.5" y="83.6484"/><text fill="#000000" font-family="sans-serif" font-size="14" lengthAdjust="spacing" textLength="288" x="293.5" y="89.9951">base_model_training_set: MaskedDataset</text><rect fill="none" height="6" style="stroke:#C82930;stroke-width:1.0;" width="6" x="281.5" y="99.9453"/><text fill="#000000" font-family="sans-serif" font-size="14" lengthAdjust="spacing" textLength="301" x="293.5" y="106.292">base_model_validation_set: MaskedDataset</text><rect fill="none" height="6" style="stroke:#C82930;stroke-width:1.0;" width="6" x="281.5" y="116.2422"/><text fill="#000000" font-family="sans-serif" font-size="14" lengthAdjust="spacing" textLength="213" x="293.5" y="122.5889">reference_set: MaskedDataset</text><rect fill="none" height="6" style="stroke:#C82930;stroke-width:1.0;" width="6" x="281.5" y="132.5391"/><text fill="#000000" font-family="sans-serif" font-size="14" lengthAdjust="spacing" textLength="194" x="293.5" y="138.8857">testing_set: MaskedDataset</text><rect fill="none" height="6" style="stroke:#C82930;stroke-width:1.0;" width="6" x="281.5" y="148.8359"/><text fill="#000000" font-family="sans-serif" font-size="14" lengthAdjust="spacing" textLength="158" x="293.5" y="155.1826">column_labels: List[str]</text><line style="stroke:#181818;stroke-width:0.5;" x1="274.5" x2="1061.5" y1="162.4844" y2="162.4844"/><ellipse cx="284.5" cy="176.1328" fill="#84BE84" rx="3" ry="3" style="stroke:#038048;stroke-width:1.0;"/><text fill="#000000" font-family="sans-serif" font-size="14" lengthAdjust="spacing" textLength="483" x="293.5" y="179.4795">set_from_file(dataset_type: str, file: str, target_column_name: str): void</text><ellipse cx="284.5" cy="192.4297" fill="#84BE84" rx="3" ry="3" style="stroke:#038048;stroke-width:1.0;"/><text fill="#000000" font-family="sans-serif" font-size="14" lengthAdjust="spacing" textLength="763" x="293.5" y="195.7764">set_from_data(dataset_type: str, features: np.ndarray, true_labels: np.ndarray, column_labels: list = None): void</text><ellipse cx="284.5" cy="208.7266" fill="#84BE84" rx="3" ry="3" style="stroke:#038048;stroke-width:1.0;"/><text fill="#000000" font-family="sans-serif" font-size="14" lengthAdjust="spacing" textLength="261" x="293.5" y="212.0732">set_column_labels(columns: list): void</text><ellipse cx="284.5" cy="225.0234" fill="#84BE84" rx="3" ry="3" style="stroke:#038048;stroke-width:1.0;"/><text fill="#000000" font-family="sans-serif" font-size="14" lengthAdjust="spacing" textLength="198" x="293.5" y="228.3701">get_column_labels(): List[str]</text><ellipse cx="284.5" cy="241.3203" fill="#84BE84" rx="3" ry="3" style="stroke:#038048;stroke-width:1.0;"/><text fill="#000000" font-family="sans-serif" font-size="14" lengthAdjust="spacing" textLength="279" x="293.5" y="244.667">get_info(show_details: bool = True): dict</text><ellipse cx="284.5" cy="257.6172" fill="#84BE84" rx="3" ry="3" style="stroke:#038048;stroke-width:1.0;"/><text fill="#000000" font-family="sans-serif" font-size="14" lengthAdjust="spacing" textLength="123" x="293.5" y="260.9639">summarize(): void</text><ellipse cx="284.5" cy="273.9141" fill="#84BE84" rx="3" ry="3" style="stroke:#038048;stroke-width:1.0;"/><text fill="#000000" font-family="sans-serif" font-size="14" lengthAdjust="spacing" textLength="150" x="293.5" y="277.2607">reset_datasets(): void</text><ellipse cx="284.5" cy="290.2109" fill="#84BE84" rx="3" ry="3" style="stroke:#038048;stroke-width:1.0;"/><text fill="#000000" font-family="sans-serif" font-size="14" lengthAdjust="spacing" textLength="596" x="293.5" y="293.5576">get_dataset_by_type(dataset_type: str, return_instance: bool = False): MaskedDataset</text><ellipse cx="284.5" cy="306.5078" fill="#84BE84" rx="3" ry="3" style="stroke:#038048;stroke-width:1.0;"/><text fill="#000000" font-family="sans-serif" font-size="14" lengthAdjust="spacing" textLength="397" x="293.5" y="309.8545">save_dataset_to_csv(dataset_type: str, file_path: str): void</text><rect fill="#F24D5C" height="6" style="stroke:#C82930;stroke-width:1.0;" width="6" x="281.5" y="319.8047"/><text fill="#000000" font-family="sans-serif" font-size="14" lengthAdjust="spacing" textLength="646" x="293.5" y="326.1514">__get_base_model_training_data(return_instance: bool = False): Union[tuple, MaskedDataset]</text><rect fill="#F24D5C" height="6" style="stroke:#C82930;stroke-width:1.0;" width="6" x="281.5" y="336.1016"/><text fill="#000000" font-family="sans-serif" font-size="14" lengthAdjust="spacing" textLength="659" x="293.5" y="342.4482">__get_base_model_validation_data(return_instance: bool = False): Union[tuple, MaskedDataset]</text><rect fill="#F24D5C" height="6" style="stroke:#C82930;stroke-width:1.0;" width="6" x="281.5" y="352.3984"/><text fill="#000000" font-family="sans-serif" font-size="14" lengthAdjust="spacing" textLength="571" x="293.5" y="358.7451">__get_reference_data(return_instance: bool = False): Union[tuple, MaskedDataset]</text><rect fill="#F24D5C" height="6" style="stroke:#C82930;stroke-width:1.0;" width="6" x="281.5" y="368.6953"/><text fill="#000000" font-family="sans-serif" font-size="14" lengthAdjust="spacing" textLength="552" x="293.5" y="375.042">__get_testing_data(return_instance: bool = False): Union[tuple, MaskedDataset]</text></g><!--class MaskedDataset--><g id="elem_MaskedDataset"><rect codeLine="42" fill="#F1F1F1" height="536.9063" id="MaskedDataset" rx="2.5" ry="2.5" style="stroke:#181818;stroke-width:0.5;" width="611" x="704.5" y="459.34"/><ellipse cx="951.75" cy="475.34" fill="#ADD1B2" rx="11" ry="11" style="stroke:#181818;stroke-width:1.0;"/><path d="M954.7188,480.9806 Q954.1406,481.2775 953.5,481.4181 Q952.8594,481.5744 952.1563,481.5744 Q949.6563,481.5744 948.3281,479.9337 Q947.0156,478.2775 947.0156,475.1525 Q947.0156,472.0275 948.3281,470.3712 Q949.6563,468.715 952.1563,468.715 Q952.8594,468.715 953.5,468.8712 Q954.1563,469.0275 954.7188,469.3244 L954.7188,472.0431 Q954.0938,471.465 953.5,471.1994 Q952.9063,470.9181 952.2813,470.9181 Q950.9375,470.9181 950.25,471.9962 Q949.5625,473.0587 949.5625,475.1525 Q949.5625,477.2462 950.25,478.3244 Q950.9375,479.3869 952.2813,479.3869 Q952.9063,479.3869 953.5,479.1212 Q954.0938,478.84 954.7188,478.2619 L954.7188,480.9806 Z " fill="#000000"/><text fill="#000000" font-family="sans-serif" font-size="14" lengthAdjust="spacing" textLength="108" x="972.25" y="480.1867">MaskedDataset</text><line style="stroke:#181818;stroke-width:0.5;" x1="705.5" x2="1314.5" y1="491.34" y2="491.34"/><rect fill="none" height="6" style="stroke:#C82930;stroke-width:1.0;" width="6" x="712.5" y="501.9884"/><text fill="#000000" font-family="sans-serif" font-size="14" lengthAdjust="spacing" textLength="171" x="724.5" y="508.3351">observations: np.ndarray</text><rect fill="none" height="6" style="stroke:#C82930;stroke-width:1.0;" width="6" x="712.5" y="518.2853"/><text fill="#000000" font-family="sans-serif" font-size="14" lengthAdjust="spacing" textLength="157" x="724.5" y="524.632">true_labels: np.ndarray</text><rect fill="none" height="6" style="stroke:#C82930;stroke-width:1.0;" width="6" x="712.5" y="534.5822"/><text fill="#000000" font-family="sans-serif" font-size="14" lengthAdjust="spacing" textLength="182" x="724.5" y="540.9289">pseudo_labels: np.ndarray</text><rect fill="none" height="6" style="stroke:#C82930;stroke-width:1.0;" width="6" x="712.5" y="550.8791"/><text fill="#000000" font-family="sans-serif" font-size="14" lengthAdjust="spacing" textLength="225" x="724.5" y="557.2257">pseudo_probabilities: np.ndarray</text><rect fill="none" height="6" style="stroke:#C82930;stroke-width:1.0;" width="6" x="712.5" y="567.1759"/><text fill="#000000" font-family="sans-serif" font-size="14" lengthAdjust="spacing" textLength="213" x="724.5" y="573.5226">confidence_scores: np.ndarray</text><rect fill="none" height="6" style="stroke:#C82930;stroke-width:1.0;" width="6" x="712.5" y="583.4728"/><text fill="#000000" font-family="sans-serif" font-size="14" lengthAdjust="spacing" textLength="131" x="724.5" y="589.8195">indices: np.ndarray</text><rect fill="none" height="6" style="stroke:#C82930;stroke-width:1.0;" width="6" x="712.5" y="599.7697"/><text fill="#000000" font-family="sans-serif" font-size="14" lengthAdjust="spacing" textLength="187" x="724.5" y="606.1164">original_indices: np.ndarray</text><rect fill="none" height="6" style="stroke:#C82930;stroke-width:1.0;" width="6" x="712.5" y="616.0666"/><text fill="#000000" font-family="sans-serif" font-size="14" lengthAdjust="spacing" textLength="187" x="724.5" y="622.4132">sample_counts: np.ndarray</text><rect fill="none" height="6" style="stroke:#C82930;stroke-width:1.0;" width="6" x="712.5" y="632.3634"/><text fill="#000000" font-family="sans-serif" font-size="14" lengthAdjust="spacing" textLength="126" x="724.5" y="638.7101">column_labels: list</text><line style="stroke:#181818;stroke-width:0.5;" x1="705.5" x2="1314.5" y1="646.0119" y2="646.0119"/><ellipse cx="715.5" cy="659.6603" fill="#84BE84" rx="3" ry="3" style="stroke:#038048;stroke-width:1.0;"/><text fill="#000000" font-family="sans-serif" font-size="14" lengthAdjust="spacing" textLength="585" x="724.5" y="663.007">__init__(observations: np.ndarray, true_labels: np.ndarray, column_labels: list = None)</text><ellipse cx="715.5" cy="675.9572" fill="#84BE84" rx="3" ry="3" style="stroke:#038048;stroke-width:1.0;"/><text fill="#000000" font-family="sans-serif" font-size="14" lengthAdjust="spacing" textLength="198" x="724.5" y="679.3039">__getitem__(index: int): tuple</text><ellipse cx="715.5" cy="692.2541" fill="#84BE84" rx="3" ry="3" style="stroke:#038048;stroke-width:1.0;"/><text fill="#000000" font-family="sans-serif" font-size="14" lengthAdjust="spacing" textLength="85" x="724.5" y="695.6007">__len__(): int</text><ellipse cx="715.5" cy="708.5509" fill="#84BE84" rx="3" ry="3" style="stroke:#038048;stroke-width:1.0;"/><text fill="#000000" font-family="sans-serif" font-size="14" lengthAdjust="spacing" textLength="194" x="724.5" y="711.8976">refine(mask: np.ndarray): int</text><ellipse cx="715.5" cy="724.8478" fill="#84BE84" rx="3" ry="3" style="stroke:#038048;stroke-width:1.0;"/><text fill="#000000" font-family="sans-serif" font-size="14" lengthAdjust="spacing" textLength="176" x="724.5" y="728.1945">original(): MaskedDataset</text><ellipse cx="715.5" cy="741.1447" fill="#84BE84" rx="3" ry="3" style="stroke:#038048;stroke-width:1.0;"/><text fill="#000000" font-family="sans-serif" font-size="14" lengthAdjust="spacing" textLength="139" x="724.5" y="744.4914">reset_indices(): void</text><ellipse cx="715.5" cy="757.4416" fill="#84BE84" rx="3" ry="3" style="stroke:#038048;stroke-width:1.0;"/><text fill="#000000" font-family="sans-serif" font-size="14" lengthAdjust="spacing" textLength="341" x="724.5" y="760.7882">sample_uniform(N: int, seed: int): MaskedDataset</text><ellipse cx="715.5" cy="773.7384" fill="#84BE84" rx="3" ry="3" style="stroke:#038048;stroke-width:1.0;"/><text fill="#000000" font-family="sans-serif" font-size="14" lengthAdjust="spacing" textLength="342" x="724.5" y="777.0851">sample_random(N: int, seed: int): MaskedDataset</text><ellipse cx="715.5" cy="790.0353" fill="#84BE84" rx="3" ry="3" style="stroke:#038048;stroke-width:1.0;"/><text fill="#000000" font-family="sans-serif" font-size="14" lengthAdjust="spacing" textLength="211" x="724.5" y="793.382">get_observations(): np.ndarray</text><ellipse cx="715.5" cy="806.3322" fill="#84BE84" rx="3" ry="3" style="stroke:#038048;stroke-width:1.0;"/><text fill="#000000" font-family="sans-serif" font-size="14" lengthAdjust="spacing" textLength="222" x="724.5" y="809.6789">get_pseudo_labels(): np.ndarray</text><ellipse cx="715.5" cy="822.6291" fill="#84BE84" rx="3" ry="3" style="stroke:#038048;stroke-width:1.0;"/><text fill="#000000" font-family="sans-serif" font-size="14" lengthAdjust="spacing" textLength="197" x="724.5" y="825.9757">get_true_labels(): np.ndarray</text><ellipse cx="715.5" cy="838.9259" fill="#84BE84" rx="3" ry="3" style="stroke:#038048;stroke-width:1.0;"/><text fill="#000000" font-family="sans-serif" font-size="14" lengthAdjust="spacing" textLength="265" x="724.5" y="842.2726">get_pseudo_probabilities(): np.ndarray</text><ellipse cx="715.5" cy="855.2228" fill="#84BE84" rx="3" ry="3" style="stroke:#038048;stroke-width:1.0;"/><text fill="#000000" font-family="sans-serif" font-size="14" lengthAdjust="spacing" textLength="253" x="724.5" y="858.5695">get_confidence_scores(): np.ndarray</text><ellipse cx="715.5" cy="871.5197" fill="#84BE84" rx="3" ry="3" style="stroke:#038048;stroke-width:1.0;"/><text fill="#000000" font-family="sans-serif" font-size="14" lengthAdjust="spacing" textLength="556" x="724.5" y="874.8664">set_pseudo_probs_labels(pseudo_probabilities: np.ndarray, threshold=0.5): void</text><ellipse cx="715.5" cy="887.8166" fill="#84BE84" rx="3" ry="3" style="stroke:#038048;stroke-width:1.0;"/><text fill="#000000" font-family="sans-serif" font-size="14" lengthAdjust="spacing" textLength="420" x="724.5" y="891.1632">set_confidence_scores(confidence_scores: np.ndarray): void</text><ellipse cx="715.5" cy="904.1134" fill="#84BE84" rx="3" ry="3" style="stroke:#038048;stroke-width:1.0;"/><text fill="#000000" font-family="sans-serif" font-size="14" lengthAdjust="spacing" textLength="358" x="724.5" y="907.4601">set_pseudo_labels(pseudo_labels: np.ndarray): void</text><ellipse cx="715.5" cy="920.4103" fill="#84BE84" rx="3" ry="3" style="stroke:#038048;stroke-width:1.0;"/><text fill="#000000" font-family="sans-serif" font-size="14" lengthAdjust="spacing" textLength="165" x="724.5" y="923.757">clone(): MaskedDataset</text><ellipse cx="715.5" cy="936.7072" fill="#84BE84" rx="3" ry="3" style="stroke:#038048;stroke-width:1.0;"/><text fill="#000000" font-family="sans-serif" font-size="14" lengthAdjust="spacing" textLength="99" x="724.5" y="940.0539">get_info(): dict</text><ellipse cx="715.5" cy="953.0041" fill="#84BE84" rx="3" ry="3" style="stroke:#038048;stroke-width:1.0;"/><text fill="#000000" font-family="sans-serif" font-size="14" lengthAdjust="spacing" textLength="123" x="724.5" y="956.3507">summarize(): void</text><ellipse cx="715.5" cy="969.3009" fill="#84BE84" rx="3" ry="3" style="stroke:#038048;stroke-width:1.0;"/><text fill="#000000" font-family="sans-serif" font-size="14" lengthAdjust="spacing" textLength="206" x="724.5" y="972.6476">to_dataframe(): pd.DataFrame</text><ellipse cx="715.5" cy="985.5978" fill="#84BE84" rx="3" ry="3" style="stroke:#038048;stroke-width:1.0;"/><text fill="#000000" font-family="sans-serif" font-size="14" lengthAdjust="spacing" textLength="214" x="724.5" y="988.9445">save_to_csv(file_path: str): void</text></g><!--reverse link DataLoadingStrategy to CSVDataLoadingStrategy--><g id="link_DataLoadingStrategy_CSVDataLoadingStrategy"><path codeLine="18" d="M346,1139.83 C346,1158.38 346,1163.78 346,1182.32 " fill="none" id="DataLoadingStrategy-backto-CSVDataLoadingStrategy" style="stroke:#181818;stroke-width:1.0;"/><polygon fill="none" points="346,1121.83,340,1139.83,352,1139.83,346,1121.83" style="stroke:#181818;stroke-width:1.0;"/></g><!--reverse link DataLoadingContext to DataLoadingStrategy--><g id="link_DataLoadingContext_DataLoadingStrategy"><path codeLine="19" d="M346,796.59 C346,873.13 346,996.13 346,1057.04 " fill="none" id="DataLoadingContext-backto-DataLoadingStrategy" style="stroke:#181818;stroke-width:1.0;"/><polygon fill="#181818" points="346,784.59,342,790.59,346,796.59,350,790.59,346,784.59" style="stroke:#181818;stroke-width:1.0;"/><text fill="#000000" font-family="sans-serif" font-size="13" lengthAdjust="spacing" textLength="8" x="337.2125" y="1046.2728">1</text></g><!--reverse link DatasetsManager to MaskedDataset--><g id="link_DatasetsManager_MaskedDataset"><path codeLine="75" d="M787.817,392.7809 C804.157,417.3409 814.64,433.12 831.88,459.02 " fill="none" id="DatasetsManager-backto-MaskedDataset" style="stroke:#181818;stroke-width:1.0;"/><polygon fill="#181818" points="781.17,382.79,781.1632,390.0011,787.817,392.7809,787.8238,385.5698,781.17,382.79" style="stroke:#181818;stroke-width:1.0;"/><text fill="#000000" font-family="sans-serif" font-size="13" lengthAdjust="spacing" textLength="8" x="818.4733" y="447.887">1</text></g><!--link DatasetsManager to DataLoadingContext--><g id="link_DatasetsManager_DataLoadingContext"><path codeLine="76" d="M561.45,382.79 C498.91,482.65 427.1345,597.2448 384.1445,665.8948 " fill="none" id="DatasetsManager-to-DataLoadingContext" style="stroke:#181818;stroke-width:1.0;stroke-dasharray:7.0,7.0;"/><polygon fill="#181818" points="380.96,670.98,389.1268,665.4752,383.6137,666.7423,382.3465,661.2292,380.96,670.98" style="stroke:#181818;stroke-width:1.0;"/><text fill="#000000" font-family="sans-serif" font-size="13" lengthAdjust="spacing" textLength="46" x="536" y="425.4069">&#171;uses&#187;</text></g><!--SRC=[lLR1Rjim3BttAuIUd3K9jiCkGTjBXvxQNhhjKXI2RD69K5ao93bhrlNVHpcsOoMoqmtTWWI8fKVocUIZLBBiYIs1d7Bcc0LdYQtIShju-d9oGaWccRNa2sxVQCQ5MbvfvU3PaHVSz9-P1GcP0qwjCyp1ShFem- -RnGPzXa4wO39gCLcGjHQyDLps3IUZCIGkKsQfAfDSIA0bSwi5GUCfSSnuHvcMLQ6eOWNK6-ZlQrLAUBWHrZtWmkEKg7AkE3E6RVh_7p78A_xmorBF9tE7EMe9TKbwQR6lv0oU8QiS99uLTPfwYl-0tPRKrVttCLx_YqoCm_clsMo0NsZHTjm7n9z-EXseVD2hlfLlcS8kDhj6JN6P5fg3f6Wc5DfJ12x8BRDFm1kx27hDf4212Ar6y0PoCA0o6C4ui6uyQfDjoLAGTa6w7FVbanjTr8LA6jLIjodRghsfW7rTTHwziwX7OAuoW6pwPNQcWevcVsFl3II-0RaWTrf19700JhPFZL54_Y5w4acFHmcLwyIkz0_AmJ7XIQHQIoJn5JcZ5HUPwqXKHS6C-0d9NZnyOVJLZiKamgPDLRgfinLBdG7Cd496rZ7iZ8x8DPFMCucrm9bbQ-YSeoGpknugz6woXVncb7g6iOQlgtoCrpU5lVxWlCod8Sd7mGWzaRnlZ9smtjTlAyPty1gCt61tDtrqQi6iwmG5YkbcGrnGxNPfeUBwEA0qEcMfaC89YE8ohNB1juCgqoOE4Wf54j_IHYo5OfAEO2mhC56erqgv0H87Gw9jVugEXQCq6KhOtysUdNkilN1GO0Hy0tXU4A7yiAbhkqD9K8YOrBkxcP0B1Kc11Ux73K5jVf8XVMydIvEz_S7IPAvI8jUcIEvgrrDY0NXBT61er7Q6AQx_mCphe9zdJ-UWMZKgwBzXMAyqHtq5hJgCFcZOEDI6ZctBufWki9rMw7Ib9R_uEFySFQJs2OngAE8XJDwWbFSiCucDcuoLhZxgtdgYuL7YHrrky2BWzqe-zowl_NDmzZHdpj01qxlIzQzPxUrid-m-RZw_Z5tk5kJylB9WBozFNdy3]--></g></svg>