<svg xmlns="http://www.w3.org/2000/svg" xmlns:xlink="http://www.w3.org/1999/xlink" contentStyleType="text/css" height="1025px" preserveAspectRatio="none" style="width:2082px;height:1025px;background:#FFFFFF;" version="1.1" viewBox="0 0 2082 1025" width="2082px" zoomAndPan="magnify"><defs/><g><!--cluster Detectron Subpackage--><g id="cluster_Detectron Subpackage"><path d="M8.5,6 L189.5,6 A3.75,3.75 0 0 1 192,8.5 L199,28.2969 L2072.5,28.2969 A2.5,2.5 0 0 1 2075,30.7969 L2075,1015.59 A2.5,2.5 0 0 1 2072.5,1018.09 L8.5,1018.09 A2.5,2.5 0 0 1 6,1015.59 L6,8.5 A2.5,2.5 0 0 1 8.5,6 " fill="none" style="stroke:#000000;stroke-width:1.5;"/><line style="stroke:#000000;stroke-width:1.5;" x1="6" x2="199" y1="28.2969" y2="28.2969"/><text fill="#000000" font-family="sans-serif" font-size="14" font-weight="bold" lengthAdjust="spacing" textLength="180" x="10" y="20.9951">Detectron Subpackage</text></g><!--class DetectronEnsemble--><g id="elem_DetectronEnsemble"><rect codeLine="3" fill="#F1F1F1" height="113.1875" id="DetectronEnsemble" rx="2.5" ry="2.5" style="stroke:#181818;stroke-width:0.5;" width="949" x="77.5" y="214.89"/><ellipse cx="478.25" cy="230.89" fill="#ADD1B2" rx="11" ry="11" style="stroke:#181818;stroke-width:1.0;"/><path d="M481.2188,236.5306 Q480.6406,236.8275 480,236.9681 Q479.3594,237.1244 478.6563,237.1244 Q476.1563,237.1244 474.8281,235.4837 Q473.5156,233.8275 473.5156,230.7025 Q473.5156,227.5775 474.8281,225.9212 Q476.1563,224.265 478.6563,224.265 Q479.3594,224.265 480,224.4212 Q480.6563,224.5775 481.2188,224.8744 L481.2188,227.5931 Q480.5938,227.015 480,226.7494 Q479.4063,226.4681 478.7813,226.4681 Q477.4375,226.4681 476.75,227.5462 Q476.0625,228.6087 476.0625,230.7025 Q476.0625,232.7962 476.75,233.8744 Q477.4375,234.9369 478.7813,234.9369 Q479.4063,234.9369 480,234.6712 Q480.5938,234.39 481.2188,233.8119 L481.2188,236.5306 Z " fill="#000000"/><text fill="#000000" font-family="sans-serif" font-size="14" lengthAdjust="spacing" textLength="139" x="498.75" y="235.7367">DetectronEnsemble</text><line style="stroke:#181818;stroke-width:0.5;" x1="78.5" x2="1025.5" y1="246.89" y2="246.89"/><rect fill="none" height="6" style="stroke:#C82930;stroke-width:1.0;" width="6" x="85.5" y="257.5384"/><text fill="#000000" font-family="sans-serif" font-size="14" lengthAdjust="spacing" textLength="298" x="97.5" y="263.8851">base_model_manager: BaseModelManager</text><rect fill="none" height="6" style="stroke:#C82930;stroke-width:1.0;" width="6" x="85.5" y="273.8353"/><text fill="#000000" font-family="sans-serif" font-size="14" lengthAdjust="spacing" textLength="87" x="97.5" y="280.182">ens_size: int</text><rect fill="none" height="6" style="stroke:#C82930;stroke-width:1.0;" width="6" x="85.5" y="290.1322"/><text fill="#000000" font-family="sans-serif" font-size="14" lengthAdjust="spacing" textLength="113" x="97.5" y="296.4789">cdcs: list[Model]</text><line style="stroke:#181818;stroke-width:0.5;" x1="78.5" x2="1025.5" y1="303.7806" y2="303.7806"/><ellipse cx="88.5" cy="317.4291" fill="#84BE84" rx="3" ry="3" style="stroke:#038048;stroke-width:1.0;"/><text fill="#000000" font-family="sans-serif" font-size="14" lengthAdjust="spacing" textLength="923" x="97.5" y="320.7757">evaluate_ensemble(datasets, n_runs, samples_size, training_params, set, patience, allow_margin, margin): DetectronRecordsManager</text></g><!--class DetectronRecord--><g id="elem_DetectronRecord"><rect codeLine="10" fill="#F1F1F1" height="210.9688" id="DetectronRecord" rx="2.5" ry="2.5" style="stroke:#181818;stroke-width:0.5;" width="497" x="22.5" y="791.12"/><ellipse cx="206.75" cy="807.12" fill="#ADD1B2" rx="11" ry="11" style="stroke:#181818;stroke-width:1.0;"/><path d="M209.7188,812.7606 Q209.1406,813.0575 208.5,813.1981 Q207.8594,813.3544 207.1563,813.3544 Q204.6563,813.3544 203.3281,811.7137 Q202.0156,810.0575 202.0156,806.9325 Q202.0156,803.8075 203.3281,802.1512 Q204.6563,800.495 207.1563,800.495 Q207.8594,800.495 208.5,800.6512 Q209.1563,800.8075 209.7188,801.1044 L209.7188,803.8231 Q209.0938,803.245 208.5,802.9794 Q207.9063,802.6981 207.2813,802.6981 Q205.9375,802.6981 205.25,803.7762 Q204.5625,804.8387 204.5625,806.9325 Q204.5625,809.0262 205.25,810.1044 Q205.9375,811.1669 207.2813,811.1669 Q207.9063,811.1669 208.5,810.9012 Q209.0938,810.62 209.7188,810.0419 L209.7188,812.7606 Z " fill="#000000"/><text fill="#000000" font-family="sans-serif" font-size="14" lengthAdjust="spacing" textLength="120" x="227.25" y="811.9667">DetectronRecord</text><line style="stroke:#181818;stroke-width:0.5;" x1="23.5" x2="518.5" y1="823.12" y2="823.12"/><rect fill="none" height="6" style="stroke:#C82930;stroke-width:1.0;" width="6" x="30.5" y="833.7684"/><text fill="#000000" font-family="sans-serif" font-size="14" lengthAdjust="spacing" textLength="61" x="42.5" y="840.1151">seed: int</text><rect fill="none" height="6" style="stroke:#C82930;stroke-width:1.0;" width="6" x="30.5" y="850.0653"/><text fill="#000000" font-family="sans-serif" font-size="14" lengthAdjust="spacing" textLength="88" x="42.5" y="856.412">model_id: int</text><rect fill="none" height="6" style="stroke:#C82930;stroke-width:1.0;" width="6" x="30.5" y="866.3622"/><text fill="#000000" font-family="sans-serif" font-size="14" lengthAdjust="spacing" textLength="122" x="42.5" y="872.7089">original_count: int</text><rect fill="none" height="6" style="stroke:#C82930;stroke-width:1.0;" width="6" x="30.5" y="882.6591"/><text fill="#000000" font-family="sans-serif" font-size="14" lengthAdjust="spacing" textLength="134" x="42.5" y="889.0057">validation_auc: float</text><rect fill="none" height="6" style="stroke:#C82930;stroke-width:1.0;" width="6" x="30.5" y="898.9559"/><text fill="#000000" font-family="sans-serif" font-size="14" lengthAdjust="spacing" textLength="97" x="42.5" y="905.3026">test_auc: float</text><rect fill="none" height="6" style="stroke:#C82930;stroke-width:1.0;" width="6" x="30.5" y="915.2528"/><text fill="#000000" font-family="sans-serif" font-size="14" lengthAdjust="spacing" textLength="238" x="42.5" y="921.5995">predicted_probabilities: np.ndarray</text><rect fill="none" height="6" style="stroke:#C82930;stroke-width:1.0;" width="6" x="30.5" y="931.5497"/><text fill="#000000" font-family="sans-serif" font-size="14" lengthAdjust="spacing" textLength="131" x="42.5" y="937.8964">updated_count: int</text><rect fill="none" height="6" style="stroke:#C82930;stroke-width:1.0;" width="6" x="30.5" y="947.8466"/><text fill="#000000" font-family="sans-serif" font-size="14" lengthAdjust="spacing" textLength="148" x="42.5" y="954.1932">rejected_samples: int</text><line style="stroke:#181818;stroke-width:0.5;" x1="23.5" x2="518.5" y1="961.495" y2="961.495"/><ellipse cx="33.5" cy="975.1434" fill="#84BE84" rx="3" ry="3" style="stroke:#038048;stroke-width:1.0;"/><text fill="#000000" font-family="sans-serif" font-size="14" lengthAdjust="spacing" textLength="471" x="42.5" y="978.4901">update(validation_auc, test_auc, predicted_probabilities, count): void</text><ellipse cx="33.5" cy="991.4403" fill="#84BE84" rx="3" ry="3" style="stroke:#038048;stroke-width:1.0;"/><text fill="#000000" font-family="sans-serif" font-size="14" lengthAdjust="spacing" textLength="90" x="42.5" y="994.787">to_dict(): dict</text></g><!--class DetectronRecordsManager--><g id="elem_DetectronRecordsManager"><rect codeLine="23" fill="#F1F1F1" height="292.4531" id="DetectronRecordsManager" rx="2.5" ry="2.5" style="stroke:#181818;stroke-width:0.5;" width="818" x="261" y="437.67"/><ellipse cx="571.75" cy="453.67" fill="#ADD1B2" rx="11" ry="11" style="stroke:#181818;stroke-width:1.0;"/><path d="M574.7188,459.3106 Q574.1406,459.6075 573.5,459.7481 Q572.8594,459.9044 572.1563,459.9044 Q569.6563,459.9044 568.3281,458.2637 Q567.0156,456.6075 567.0156,453.4825 Q567.0156,450.3575 568.3281,448.7012 Q569.6563,447.045 572.1563,447.045 Q572.8594,447.045 573.5,447.2012 Q574.1563,447.3575 574.7188,447.6544 L574.7188,450.3731 Q574.0938,449.795 573.5,449.5294 Q572.9063,449.2481 572.2813,449.2481 Q570.9375,449.2481 570.25,450.3262 Q569.5625,451.3887 569.5625,453.4825 Q569.5625,455.5762 570.25,456.6544 Q570.9375,457.7169 572.2813,457.7169 Q572.9063,457.7169 573.5,457.4512 Q574.0938,457.17 574.7188,456.5919 L574.7188,459.3106 Z " fill="#000000"/><text fill="#000000" font-family="sans-serif" font-size="14" lengthAdjust="spacing" textLength="188" x="592.25" y="458.5167">DetectronRecordsManager</text><line style="stroke:#181818;stroke-width:0.5;" x1="262" x2="1078" y1="469.67" y2="469.67"/><rect fill="none" height="6" style="stroke:#C82930;stroke-width:1.0;" width="6" x="269" y="480.3184"/><text fill="#000000" font-family="sans-serif" font-size="14" lengthAdjust="spacing" textLength="116" x="281" y="486.6651">records: list[dict]</text><rect fill="none" height="6" style="stroke:#C82930;stroke-width:1.0;" width="6" x="269" y="496.6153"/><text fill="#000000" font-family="sans-serif" font-size="14" lengthAdjust="spacing" textLength="111" x="281" y="502.962">sample_size: int</text><rect fill="none" height="6" style="stroke:#C82930;stroke-width:1.0;" width="6" x="269" y="512.9122"/><text fill="#000000" font-family="sans-serif" font-size="14" lengthAdjust="spacing" textLength="45" x="281" y="519.2589">idx: int</text><rect fill="none" height="6" style="stroke:#C82930;stroke-width:1.0;" width="6" x="269" y="529.2091"/><text fill="#000000" font-family="sans-serif" font-size="14" lengthAdjust="spacing" textLength="75" x="281" y="535.5557">__seed: int</text><rect fill="none" height="6" style="stroke:#C82930;stroke-width:1.0;" width="6" x="269" y="545.5059"/><text fill="#000000" font-family="sans-serif" font-size="14" lengthAdjust="spacing" textLength="143" x="281" y="551.8526">sampling_counts: int</text><line style="stroke:#181818;stroke-width:0.5;" x1="262" x2="1078" y1="559.1544" y2="559.1544"/><ellipse cx="272" cy="572.8028" fill="#84BE84" rx="3" ry="3" style="stroke:#038048;stroke-width:1.0;"/><text fill="#000000" font-family="sans-serif" font-size="14" lengthAdjust="spacing" textLength="143" x="281" y="576.1495">seed(seed: int): void</text><ellipse cx="272" cy="589.0997" fill="#84BE84" rx="3" ry="3" style="stroke:#038048;stroke-width:1.0;"/><text fill="#000000" font-family="sans-serif" font-size="14" lengthAdjust="spacing" textLength="792" x="281" y="592.4464">update(val_data_x, val_data_y, sample_size, model, model_id, predicted_probabilities, test_data_x, test_data_y): void</text><ellipse cx="272" cy="605.3966" fill="#84BE84" rx="3" ry="3" style="stroke:#038048;stroke-width:1.0;"/><text fill="#000000" font-family="sans-serif" font-size="14" lengthAdjust="spacing" textLength="91" x="281" y="608.7432">freeze(): void</text><ellipse cx="272" cy="621.6934" fill="#84BE84" rx="3" ry="3" style="stroke:#038048;stroke-width:1.0;"/><text fill="#000000" font-family="sans-serif" font-size="14" lengthAdjust="spacing" textLength="191" x="281" y="625.0401">get_record(): pd.DataFrame</text><ellipse cx="272" cy="637.9903" fill="#84BE84" rx="3" ry="3" style="stroke:#038048;stroke-width:1.0;"/><text fill="#000000" font-family="sans-serif" font-size="14" lengthAdjust="spacing" textLength="110" x="281" y="641.337">save(path): void</text><ellipse cx="272" cy="654.2872" fill="#84BE84" rx="3" ry="3" style="stroke:#038048;stroke-width:1.0;"/><text fill="#000000" font-family="sans-serif" font-size="14" lengthAdjust="spacing" textLength="267" x="281" y="657.6339">load(path): DetectronRecordsManager</text><ellipse cx="272" cy="670.5841" fill="#84BE84" rx="3" ry="3" style="stroke:#038048;stroke-width:1.0;"/><text fill="#000000" font-family="sans-serif" font-size="14" lengthAdjust="spacing" textLength="279" x="281" y="673.9307">counts(max_ensemble_size): np.ndarray</text><ellipse cx="272" cy="686.8809" fill="#84BE84" rx="3" ry="3" style="stroke:#038048;stroke-width:1.0;"/><text fill="#000000" font-family="sans-serif" font-size="14" lengthAdjust="spacing" textLength="333" x="281" y="690.2276">rejection_rates(max_ensemble_size): np.ndarray</text><ellipse cx="272" cy="703.1778" fill="#84BE84" rx="3" ry="3" style="stroke:#038048;stroke-width:1.0;"/><text fill="#000000" font-family="sans-serif" font-size="14" lengthAdjust="spacing" textLength="387" x="281" y="706.5245">predicted_probabilities(max_ensemble_size): np.ndarray</text><ellipse cx="272" cy="719.4747" fill="#84BE84" rx="3" ry="3" style="stroke:#038048;stroke-width:1.0;"/><text fill="#000000" font-family="sans-serif" font-size="14" lengthAdjust="spacing" textLength="343" x="281" y="722.8214">rejected_counts(max_ensemble_size): np.ndarray</text></g><!--class EarlyStopper--><g id="elem_EarlyStopper"><rect codeLine="41" fill="#F1F1F1" height="145.7813" id="EarlyStopper" rx="2.5" ry="2.5" style="stroke:#181818;stroke-width:0.5;" width="205" x="21.5" y="511"/><ellipse cx="76.25" cy="527" fill="#ADD1B2" rx="11" ry="11" style="stroke:#181818;stroke-width:1.0;"/><path d="M79.2188,532.6406 Q78.6406,532.9375 78,533.0781 Q77.3594,533.2344 76.6563,533.2344 Q74.1563,533.2344 72.8281,531.5937 Q71.5156,529.9375 71.5156,526.8125 Q71.5156,523.6875 72.8281,522.0312 Q74.1563,520.375 76.6563,520.375 Q77.3594,520.375 78,520.5312 Q78.6563,520.6875 79.2188,520.9844 L79.2188,523.7031 Q78.5938,523.125 78,522.8594 Q77.4063,522.5781 76.7813,522.5781 Q75.4375,522.5781 74.75,523.6562 Q74.0625,524.7187 74.0625,526.8125 Q74.0625,528.9062 74.75,529.9844 Q75.4375,531.0469 76.7813,531.0469 Q77.4063,531.0469 78,530.7812 Q78.5938,530.5 79.2188,529.9219 L79.2188,532.6406 Z " fill="#000000"/><text fill="#000000" font-family="sans-serif" font-size="14" lengthAdjust="spacing" textLength="87" x="96.75" y="531.8467">EarlyStopper</text><line style="stroke:#181818;stroke-width:0.5;" x1="22.5" x2="225.5" y1="543" y2="543"/><rect fill="none" height="6" style="stroke:#C82930;stroke-width:1.0;" width="6" x="29.5" y="553.6484"/><text fill="#000000" font-family="sans-serif" font-size="14" lengthAdjust="spacing" textLength="86" x="41.5" y="559.9951">patience: int</text><rect fill="none" height="6" style="stroke:#C82930;stroke-width:1.0;" width="6" x="29.5" y="569.9453"/><text fill="#000000" font-family="sans-serif" font-size="14" lengthAdjust="spacing" textLength="104" x="41.5" y="576.292">min_delta: float</text><rect fill="none" height="6" style="stroke:#C82930;stroke-width:1.0;" width="6" x="29.5" y="586.2422"/><text fill="#000000" font-family="sans-serif" font-size="14" lengthAdjust="spacing" textLength="69" x="41.5" y="592.5889">best: float</text><rect fill="none" height="6" style="stroke:#C82930;stroke-width:1.0;" width="6" x="29.5" y="602.5391"/><text fill="#000000" font-family="sans-serif" font-size="14" lengthAdjust="spacing" textLength="53" x="41.5" y="608.8857">wait: int</text><rect fill="none" height="6" style="stroke:#C82930;stroke-width:1.0;" width="6" x="29.5" y="618.8359"/><text fill="#000000" font-family="sans-serif" font-size="14" lengthAdjust="spacing" textLength="67" x="41.5" y="625.1826">mode: str</text><line style="stroke:#181818;stroke-width:0.5;" x1="22.5" x2="225.5" y1="632.4844" y2="632.4844"/><ellipse cx="32.5" cy="646.1328" fill="#84BE84" rx="3" ry="3" style="stroke:#038048;stroke-width:1.0;"/><text fill="#000000" font-family="sans-serif" font-size="14" lengthAdjust="spacing" textLength="179" x="41.5" y="649.4795">update(metric: float): bool</text></g><!--class DetectronStrategy--><g id="elem_DetectronStrategy"><rect codeLine="50" fill="#F1F1F1" height="64.2969" id="DetectronStrategy" rx="2.5" ry="2.5" style="stroke:#181818;stroke-width:0.5;" width="478" x="1114" y="551.75"/><ellipse cx="1285.25" cy="567.75" fill="#ADD1B2" rx="11" ry="11" style="stroke:#181818;stroke-width:1.0;"/><path d="M1288.2188,573.3906 Q1287.6406,573.6875 1287,573.8281 Q1286.3594,573.9844 1285.6563,573.9844 Q1283.1563,573.9844 1281.8281,572.3438 Q1280.5156,570.6875 1280.5156,567.5625 Q1280.5156,564.4375 1281.8281,562.7813 Q1283.1563,561.125 1285.6563,561.125 Q1286.3594,561.125 1287,561.2813 Q1287.6563,561.4375 1288.2188,561.7344 L1288.2188,564.4531 Q1287.5938,563.875 1287,563.6094 Q1286.4063,563.3281 1285.7813,563.3281 Q1284.4375,563.3281 1283.75,564.4063 Q1283.0625,565.4688 1283.0625,567.5625 Q1283.0625,569.6563 1283.75,570.7344 Q1284.4375,571.7969 1285.7813,571.7969 Q1286.4063,571.7969 1287,571.5313 Q1287.5938,571.25 1288.2188,570.6719 L1288.2188,573.3906 Z " fill="#000000"/><text fill="#000000" font-family="sans-serif" font-size="14" lengthAdjust="spacing" textLength="127" x="1305.75" y="572.5967">DetectronStrategy</text><line style="stroke:#181818;stroke-width:0.5;" x1="1115" x2="1591" y1="583.75" y2="583.75"/><line style="stroke:#181818;stroke-width:0.5;" x1="1115" x2="1591" y1="591.75" y2="591.75"/><ellipse cx="1125" cy="605.3984" fill="#84BE84" rx="3" ry="3" style="stroke:#038048;stroke-width:1.0;"/><text fill="#000000" font-family="sans-serif" font-size="14" lengthAdjust="spacing" text-decoration="underline" textLength="452" x="1134" y="608.7451">execute(calibration_records, test_records, significance_level): dict</text></g><!--class OriginalDisagreementStrategy--><g id="elem_OriginalDisagreementStrategy"><rect codeLine="54" fill="#F1F1F1" height="64.2969" id="OriginalDisagreementStrategy" rx="2.5" ry="2.5" style="stroke:#181818;stroke-width:0.5;" width="478" x="1581" y="864.46"/><ellipse cx="1712.75" cy="880.46" fill="#ADD1B2" rx="11" ry="11" style="stroke:#181818;stroke-width:1.0;"/><path d="M1715.7188,886.1006 Q1715.1406,886.3975 1714.5,886.5381 Q1713.8594,886.6944 1713.1563,886.6944 Q1710.6563,886.6944 1709.3281,885.0537 Q1708.0156,883.3975 1708.0156,880.2725 Q1708.0156,877.1475 1709.3281,875.4912 Q1710.6563,873.835 1713.1563,873.835 Q1713.8594,873.835 1714.5,873.9912 Q1715.1563,874.1475 1715.7188,874.4444 L1715.7188,877.1631 Q1715.0938,876.585 1714.5,876.3194 Q1713.9063,876.0381 1713.2813,876.0381 Q1711.9375,876.0381 1711.25,877.1162 Q1710.5625,878.1787 1710.5625,880.2725 Q1710.5625,882.3662 1711.25,883.4444 Q1711.9375,884.5069 1713.2813,884.5069 Q1713.9063,884.5069 1714.5,884.2412 Q1715.0938,883.96 1715.7188,883.3819 L1715.7188,886.1006 Z " fill="#000000"/><text fill="#000000" font-family="sans-serif" font-size="14" lengthAdjust="spacing" textLength="206" x="1733.25" y="885.3067">OriginalDisagreementStrategy</text><line style="stroke:#181818;stroke-width:0.5;" x1="1582" x2="2058" y1="896.46" y2="896.46"/><line style="stroke:#181818;stroke-width:0.5;" x1="1582" x2="2058" y1="904.46" y2="904.46"/><ellipse cx="1592" cy="918.1084" fill="#84BE84" rx="3" ry="3" style="stroke:#038048;stroke-width:1.0;"/><text fill="#000000" font-family="sans-serif" font-size="14" lengthAdjust="spacing" text-decoration="underline" textLength="452" x="1601" y="921.4551">execute(calibration_records, test_records, significance_level): dict</text></g><!--class MannWhitneyStrategy--><g id="elem_MannWhitneyStrategy"><rect codeLine="58" fill="#F1F1F1" height="64.2969" id="MannWhitneyStrategy" rx="2.5" ry="2.5" style="stroke:#181818;stroke-width:0.5;" width="478" x="555" y="864.46"/><ellipse cx="714.75" cy="880.46" fill="#ADD1B2" rx="11" ry="11" style="stroke:#181818;stroke-width:1.0;"/><path d="M717.7188,886.1006 Q717.1406,886.3975 716.5,886.5381 Q715.8594,886.6944 715.1563,886.6944 Q712.6563,886.6944 711.3281,885.0537 Q710.0156,883.3975 710.0156,880.2725 Q710.0156,877.1475 711.3281,875.4912 Q712.6563,873.835 715.1563,873.835 Q715.8594,873.835 716.5,873.9912 Q717.1563,874.1475 717.7188,874.4444 L717.7188,877.1631 Q717.0938,876.585 716.5,876.3194 Q715.9063,876.0381 715.2813,876.0381 Q713.9375,876.0381 713.25,877.1162 Q712.5625,878.1787 712.5625,880.2725 Q712.5625,882.3662 713.25,883.4444 Q713.9375,884.5069 715.2813,884.5069 Q715.9063,884.5069 716.5,884.2412 Q717.0938,883.96 717.7188,883.3819 L717.7188,886.1006 Z " fill="#000000"/><text fill="#000000" font-family="sans-serif" font-size="14" lengthAdjust="spacing" textLength="150" x="735.25" y="885.3067">MannWhitneyStrategy</text><line style="stroke:#181818;stroke-width:0.5;" x1="556" x2="1032" y1="896.46" y2="896.46"/><line style="stroke:#181818;stroke-width:0.5;" x1="556" x2="1032" y1="904.46" y2="904.46"/><ellipse cx="566" cy="918.1084" fill="#84BE84" rx="3" ry="3" style="stroke:#038048;stroke-width:1.0;"/><text fill="#000000" font-family="sans-serif" font-size="14" lengthAdjust="spacing" text-decoration="underline" textLength="452" x="575" y="921.4551">execute(calibration_records, test_records, significance_level): dict</text></g><!--class EnhancedDisagreementStrategy--><g id="elem_EnhancedDisagreementStrategy"><rect codeLine="62" fill="#F1F1F1" height="64.2969" id="EnhancedDisagreementStrategy" rx="2.5" ry="2.5" style="stroke:#181818;stroke-width:0.5;" width="478" x="1068" y="864.46"/><ellipse cx="1190.25" cy="880.46" fill="#ADD1B2" rx="11" ry="11" style="stroke:#181818;stroke-width:1.0;"/><path d="M1193.2188,886.1006 Q1192.6406,886.3975 1192,886.5381 Q1191.3594,886.6944 1190.6563,886.6944 Q1188.1563,886.6944 1186.8281,885.0537 Q1185.5156,883.3975 1185.5156,880.2725 Q1185.5156,877.1475 1186.8281,875.4912 Q1188.1563,873.835 1190.6563,873.835 Q1191.3594,873.835 1192,873.9912 Q1192.6563,874.1475 1193.2188,874.4444 L1193.2188,877.1631 Q1192.5938,876.585 1192,876.3194 Q1191.4063,876.0381 1190.7813,876.0381 Q1189.4375,876.0381 1188.75,877.1162 Q1188.0625,878.1787 1188.0625,880.2725 Q1188.0625,882.3662 1188.75,883.4444 Q1189.4375,884.5069 1190.7813,884.5069 Q1191.4063,884.5069 1192,884.2412 Q1192.5938,883.96 1193.2188,883.3819 L1193.2188,886.1006 Z " fill="#000000"/><text fill="#000000" font-family="sans-serif" font-size="14" lengthAdjust="spacing" textLength="225" x="1210.75" y="885.3067">EnhancedDisagreementStrategy</text><line style="stroke:#181818;stroke-width:0.5;" x1="1069" x2="1545" y1="896.46" y2="896.46"/><line style="stroke:#181818;stroke-width:0.5;" x1="1069" x2="1545" y1="904.46" y2="904.46"/><ellipse cx="1079" cy="918.1084" fill="#84BE84" rx="3" ry="3" style="stroke:#038048;stroke-width:1.0;"/><text fill="#000000" font-family="sans-serif" font-size="14" lengthAdjust="spacing" text-decoration="underline" textLength="452" x="1088" y="921.4551">execute(calibration_records, test_records, significance_level): dict</text></g><!--class DetectronResult--><g id="elem_DetectronResult"><rect codeLine="66" fill="#F1F1F1" height="178.375" id="DetectronResult" rx="2.5" ry="2.5" style="stroke:#181818;stroke-width:0.5;" width="302" x="1062" y="182.29"/><ellipse cx="1151.75" cy="198.29" fill="#ADD1B2" rx="11" ry="11" style="stroke:#181818;stroke-width:1.0;"/><path d="M1154.7188,203.9306 Q1154.1406,204.2275 1153.5,204.3681 Q1152.8594,204.5244 1152.1563,204.5244 Q1149.6563,204.5244 1148.3281,202.8837 Q1147.0156,201.2275 1147.0156,198.1025 Q1147.0156,194.9775 1148.3281,193.3212 Q1149.6563,191.665 1152.1563,191.665 Q1152.8594,191.665 1153.5,191.8212 Q1154.1563,191.9775 1154.7188,192.2744 L1154.7188,194.9931 Q1154.0938,194.415 1153.5,194.1494 Q1152.9063,193.8681 1152.2813,193.8681 Q1150.9375,193.8681 1150.25,194.9462 Q1149.5625,196.0087 1149.5625,198.1025 Q1149.5625,200.1962 1150.25,201.2744 Q1150.9375,202.3369 1152.2813,202.3369 Q1152.9063,202.3369 1153.5,202.0712 Q1154.0938,201.79 1154.7188,201.2119 L1154.7188,203.9306 Z " fill="#000000"/><text fill="#000000" font-family="sans-serif" font-size="14" lengthAdjust="spacing" textLength="114" x="1172.25" y="203.1367">DetectronResult</text><line style="stroke:#181818;stroke-width:0.5;" x1="1063" x2="1363" y1="214.29" y2="214.29"/><rect fill="none" height="6" style="stroke:#C82930;stroke-width:1.0;" width="6" x="1070" y="224.9384"/><text fill="#000000" font-family="sans-serif" font-size="14" lengthAdjust="spacing" textLength="268" x="1082" y="231.2851">cal_record: DetectronRecordsManager</text><rect fill="none" height="6" style="stroke:#C82930;stroke-width:1.0;" width="6" x="1070" y="241.2353"/><text fill="#000000" font-family="sans-serif" font-size="14" lengthAdjust="spacing" textLength="276" x="1082" y="247.582">test_record: DetectronRecordsManager</text><rect fill="none" height="6" style="stroke:#C82930;stroke-width:1.0;" width="6" x="1070" y="257.5322"/><text fill="#000000" font-family="sans-serif" font-size="14" lengthAdjust="spacing" textLength="115" x="1082" y="263.8789">test_results: dict</text><line style="stroke:#181818;stroke-width:0.5;" x1="1063" x2="1363" y1="271.1806" y2="271.1806"/><ellipse cx="1073" cy="284.8291" fill="#84BE84" rx="3" ry="3" style="stroke:#038048;stroke-width:1.0;"/><text fill="#000000" font-family="sans-serif" font-size="14" lengthAdjust="spacing" textLength="270" x="1082" y="288.1757">calibration_trajectories(): pd.DataFrame</text><ellipse cx="1073" cy="301.1259" fill="#84BE84" rx="3" ry="3" style="stroke:#038048;stroke-width:1.0;"/><text fill="#000000" font-family="sans-serif" font-size="14" lengthAdjust="spacing" textLength="227" x="1082" y="304.4726">test_trajectories(): pd.DataFrame</text><ellipse cx="1073" cy="317.4228" fill="#84BE84" rx="3" ry="3" style="stroke:#038048;stroke-width:1.0;"/><text fill="#000000" font-family="sans-serif" font-size="14" lengthAdjust="spacing" textLength="214" x="1082" y="320.7695">get_experiments_results(): dict</text><ellipse cx="1073" cy="333.7197" fill="#84BE84" rx="3" ry="3" style="stroke:#038048;stroke-width:1.0;"/><text fill="#000000" font-family="sans-serif" font-size="14" lengthAdjust="spacing" textLength="219" x="1082" y="337.0664">analyze_results(strategies): dict</text><ellipse cx="1073" cy="350.0166" fill="#84BE84" rx="3" ry="3" style="stroke:#038048;stroke-width:1.0;"/><text fill="#000000" font-family="sans-serif" font-size="14" lengthAdjust="spacing" textLength="209" x="1082" y="353.3632">save(file_path, file_name): void</text></g><!--class DetectronExperiment--><g id="elem_DetectronExperiment"><rect codeLine="77" fill="#F1F1F1" height="64.2969" id="DetectronExperiment" rx="2.5" ry="2.5" style="stroke:#181818;stroke-width:0.5;" width="1111" x="326.5" y="41"/><ellipse cx="803.75" cy="57" fill="#ADD1B2" rx="11" ry="11" style="stroke:#181818;stroke-width:1.0;"/><path d="M806.7188,62.6406 Q806.1406,62.9375 805.5,63.0781 Q804.8594,63.2344 804.1563,63.2344 Q801.6563,63.2344 800.3281,61.5937 Q799.0156,59.9375 799.0156,56.8125 Q799.0156,53.6875 800.3281,52.0312 Q801.6563,50.375 804.1563,50.375 Q804.8594,50.375 805.5,50.5312 Q806.1563,50.6875 806.7188,50.9844 L806.7188,53.7031 Q806.0938,53.125 805.5,52.8594 Q804.9063,52.5781 804.2813,52.5781 Q802.9375,52.5781 802.25,53.6562 Q801.5625,54.7187 801.5625,56.8125 Q801.5625,58.9062 802.25,59.9844 Q802.9375,61.0469 804.2813,61.0469 Q804.9063,61.0469 805.5,60.7812 Q806.0938,60.5 806.7188,59.9219 L806.7188,62.6406 Z " fill="#000000"/><text fill="#000000" font-family="sans-serif" font-size="14" lengthAdjust="spacing" textLength="148" x="824.25" y="61.8467">DetectronExperiment</text><line style="stroke:#181818;stroke-width:0.5;" x1="327.5" x2="1436.5" y1="73" y2="73"/><line style="stroke:#181818;stroke-width:0.5;" x1="327.5" x2="1436.5" y1="81" y2="81"/><ellipse cx="337.5" cy="94.6484" fill="#84BE84" rx="3" ry="3" style="stroke:#038048;stroke-width:1.0;"/><text fill="#000000" font-family="sans-serif" font-size="14" font-style="italic" lengthAdjust="spacing" textLength="1085" x="346.5" y="97.9951">run(datasets, training_params, base_model_manager, samples_size, calib_result, ensemble_size, num_calibration_runs, patience, allow_margin, margin): tuple</text></g><!--link DetectronEnsemble to EarlyStopper--><g id="link_DetectronEnsemble_EarlyStopper"><path codeLine="81" d="M421.47,328.49 C363.86,356.62 297.28,394.03 244,437.67 C218.44,458.6 198.0983,480.911 178.3183,505.961 " fill="none" id="DetectronEnsemble-to-EarlyStopper" style="stroke:#181818;stroke-width:1.0;stroke-dasharray:7.0,7.0;"/><polygon fill="#181818" points="174.6,510.67,183.3167,506.0854,177.6986,506.7459,177.0381,501.1277,174.6,510.67" style="stroke:#181818;stroke-width:1.0;"/><text fill="#000000" font-family="sans-serif" font-size="13" lengthAdjust="spacing" textLength="46" x="306" y="403.7369">&#171;uses&#187;</text></g><!--link DetectronExperiment to DetectronEnsemble--><g id="link_DetectronExperiment_DetectronEnsemble"><path codeLine="82" d="M828.98,105.69 C779.79,134.96 710.6064,176.1121 651.3264,211.3821 " fill="none" id="DetectronExperiment-to-DetectronEnsemble" style="stroke:#181818;stroke-width:1.0;stroke-dasharray:7.0,7.0;"/><polygon fill="#181818" points="646.17,214.45,655.9498,213.2857,650.467,211.8934,651.8593,206.4106,646.17,214.45" style="stroke:#181818;stroke-width:1.0;"/><text fill="#000000" font-family="sans-serif" font-size="13" lengthAdjust="spacing" textLength="46" x="776" y="148.3569">&#171;uses&#187;</text></g><!--reverse link DetectronRecordsManager to DetectronRecord--><g id="link_DetectronRecordsManager_DetectronRecord"><path codeLine="83" d="M473.5928,737.8438 C447.4528,758.2038 430.49,771.41 405.57,790.81 " fill="none" id="DetectronRecordsManager-backto-DetectronRecord" style="stroke:#181818;stroke-width:1.0;"/><polygon fill="#181818" points="483.06,730.47,475.8685,731.0012,473.5928,737.8438,480.7844,737.3126,483.06,730.47" style="stroke:#181818;stroke-width:1.0;"/><text fill="#000000" font-family="sans-serif" font-size="13" lengthAdjust="spacing" textLength="7" x="407.7859" y="779.9156">*</text></g><!--reverse link DetectronResult to DetectronRecordsManager--><g id="link_DetectronResult_DetectronRecordsManager"><path codeLine="84" d="M1051.3218,364.905 C1008.7218,389.255 971.6,410.48 924.72,437.28 " fill="none" id="DetectronResult-backto-DetectronRecordsManager" style="stroke:#181818;stroke-width:1.0;"/><polygon fill="none" points="1061.74,358.95,1054.5459,358.4548,1051.3218,364.905,1058.5159,365.4002,1061.74,358.95" style="stroke:#181818;stroke-width:1.0;"/></g><!--link DetectronExperiment to DetectronResult--><g id="link_DetectronExperiment_DetectronResult"><path codeLine="85" d="M935.18,105.69 C970.18,126.45 1012.6999,151.6685 1058.6799,178.9485 " fill="none" id="DetectronExperiment-to-DetectronResult" style="stroke:#181818;stroke-width:1.0;stroke-dasharray:7.0,7.0;"/><polygon fill="#181818" points="1063.84,182.01,1058.1408,173.9776,1059.5399,179.4587,1054.0588,180.8578,1063.84,182.01" style="stroke:#181818;stroke-width:1.0;"/><text fill="#000000" font-family="sans-serif" font-size="13" lengthAdjust="spacing" textLength="55" x="1009" y="148.3569">&#171;return&#187;</text></g><!--link DetectronEnsemble to DetectronRecordsManager--><g id="link_DetectronEnsemble_DetectronRecordsManager"><path codeLine="86" d="M573.23,328.33 C584.88,358.97 597.7776,392.9017 612.5076,431.6417 " fill="none" id="DetectronEnsemble-to-DetectronRecordsManager" style="stroke:#181818;stroke-width:1.0;stroke-dasharray:7.0,7.0;"/><polygon fill="#181818" points="614.64,437.25,615.1802,427.416,612.863,432.5764,607.7025,430.2592,614.64,437.25" style="stroke:#181818;stroke-width:1.0;"/><text fill="#000000" font-family="sans-serif" font-size="13" lengthAdjust="spacing" textLength="55" x="601" y="403.7369">&#171;return&#187;</text></g><!--reverse link DetectronStrategy to OriginalDisagreementStrategy--><g id="link_DetectronStrategy_OriginalDisagreementStrategy"><path codeLine="87" d="M1415.3364,626.3703 C1504.8464,685.9203 1682.92,804.4 1772.53,864.02 " fill="none" id="DetectronStrategy-backto-OriginalDisagreementStrategy" style="stroke:#181818;stroke-width:1.0;"/><polygon fill="none" points="1400.35,616.4,1412.013,631.3658,1418.6599,621.3748,1400.35,616.4" style="stroke:#181818;stroke-width:1.0;"/></g><!--reverse link DetectronStrategy to MannWhitneyStrategy--><g id="link_DetectronStrategy_MannWhitneyStrategy"><path codeLine="88" d="M1282.0739,625.3094 C1230.1039,654.8694 1165.75,691.31 1096,730.12 C1011.37,777.22 912.91,830.98 852.02,864.11 " fill="none" id="DetectronStrategy-backto-MannWhitneyStrategy" style="stroke:#181818;stroke-width:1.0;"/><polygon fill="none" points="1297.72,616.41,1279.1074,620.094,1285.0403,630.5247,1297.72,616.41" style="stroke:#181818;stroke-width:1.0;"/></g><!--reverse link DetectronStrategy to EnhancedDisagreementStrategy--><g id="link_DetectronStrategy_EnhancedDisagreementStrategy"><path codeLine="89" d="M1345.7028,634.2058 C1336.8828,693.7558 1320.5,804.4 1311.68,864.02 " fill="none" id="DetectronStrategy-backto-EnhancedDisagreementStrategy" style="stroke:#181818;stroke-width:1.0;"/><polygon fill="none" points="1348.34,616.4,1339.7675,633.3267,1351.638,635.0848,1348.34,616.4" style="stroke:#181818;stroke-width:1.0;"/></g><!--link DetectronResult to DetectronStrategy--><g id="link_DetectronResult_DetectronStrategy"><path codeLine="90" d="M1252.93,361.02 C1281.7,424.81 1318.84,507.16 1338.8,551.42 " fill="none" id="DetectronResult-DetectronStrategy" style="stroke:#181818;stroke-width:1.0;"/><text fill="#000000" font-family="sans-serif" font-size="13" lengthAdjust="spacing" textLength="46" x="1271" y="403.7369">&#171;uses&#187;</text></g><!--SRC=[nLR9Rjim4BtdAmYVd4Js1nX13aNSMr2WEVHG10GbZHMs52cGb6CdpRztI6tKOjczD3vODcT_V3EQWYM_MGPayG0M4gkL94zbN5Id2_9-TKNmamXc36bLjj907Wj0CQa_gvWPeBbAGT2SIJJM6_85pnxTqMDrqcc3DDJmDzWGBcrtdAI9sH31ZVtfxPvRqIticIYP1Gfry6NABFgt9YAIwbBYqx2y451vZeZLZ4ikCrempN8d1XkHWbaECa4v4qAzOh8wup8YrVDwqrNv7HAbKnFc_Z49HwKOWc40qa5f5JHyUAmqnx1Cq4ILqWw4M3B7AhcIb9N9Xko4Oe7OWh6JWa93oXCBAIsqYbdC1SUY4LbPh6NAj6R7JhaiC0IgJYMWuHTuFpMoVV5jPRhifud0rtaXsDE9HCG7Gx3tYgUTFwkeKr-Ym3tFGjxSJGYzhYGrYvoRv-1UV1bJpEFfON12wSGjUWUEKxw08HxEODbQZShhuAAEk_GGaVRtiM5lJLvFb_g1h9c1qgFT-El-74VXTnhW3PQZymmihL1piY9TFw3zLsmP22fZUrXYwxoCh95vQIEPQnslNA6spDcXRMDVx_KaDMyh-ZbUQGJkShiJMFrZtAOdBhBhqNJBj3W-MLKKVMusisSu6hYaUCsMZHevnkiS7RuoRYU6ouOOgqTaoy5gtam8J3jMIipqrPDrI6V78EjtOp7jv0D7y06I4dqcsE-nhXg-RhUQUUq_mpF9TpnXM2qLi0TnigU_rHFmWHkM8KLpaFP_fU6-WrIGh_B72xSIZf-KmLQ-ECtqCy2OdhEc53RaC0QgNPxlzrMGmENQBg89CgicHr0Vuk7w4r-TsDCdHvRtTfcgcu1mm6Rb3c_JvD1x3tb5p5WStw1LCDNLeFEHgf-OEuu3mmt7YFYV4iE64tGQz6sRIdZbB7RH4ekNZjjEiFsCzfpnAZPSZJoQTHKHwOqstARAdFRev7UhitkJBJ50MDLuNLolx_kpSKFkxae3vlv-OD4Xu6p6dauP3lQ2czMAB6uMG_dGndDSeUuSHSycL_jngMcmfPQZga8SJgLyshoT0tT_CDMviJbdDp7ZvjJd1j8aZ26AhQlWkZx-0W00]--></g></svg>