<svg xmlns="http://www.w3.org/2000/svg" xmlns:xlink="http://www.w3.org/1999/xlink" contentStyleType="text/css" height="1040px" preserveAspectRatio="none" style="width:2082px;height:1040px;background:#FFFFFF;" version="1.1" viewBox="0 0 2082 1040" width="2082px" zoomAndPan="magnify"><defs/><g><!--cluster Detectron Subpackage--><g id="cluster_Detectron Subpackage"><path d="M8.5,6 L189.5,6 A3.75,3.75 0 0 1 192,8.5 L199,28.2969 L2072.5,28.2969 A2.5,2.5 0 0 1 2075,30.7969 L2075,1030.89 A2.5,2.5 0 0 1 2072.5,1033.39 L8.5,1033.39 A2.5,2.5 0 0 1 6,1030.89 L6,8.5 A2.5,2.5 0 0 1 8.5,6 " fill="none" style="stroke:#000000;stroke-width:1.5;"/><line style="stroke:#000000;stroke-width:1.5;" x1="6" x2="199" y1="28.2969" y2="28.2969"/><text fill="#000000" font-family="sans-serif" font-size="14" font-weight="bold" lengthAdjust="spacing" textLength="180" x="10" y="20.9951">Detectron Subpackage</text></g><!--class DetectronEnsemble--><g id="elem_DetectronEnsemble"><rect codeLine="3" fill="#F1F1F1" height="113.1875" id="DetectronEnsemble" rx="2.5" ry="2.5" style="stroke:#181818;stroke-width:0.5;" width="949" x="43.5" y="223.04"/><ellipse cx="444.25" cy="239.04" fill="#ADD1B2" rx="11" ry="11" style="stroke:#181818;stroke-width:1.0;"/><path d="M447.2188,244.6806 Q446.6406,244.9775 446,245.1181 Q445.3594,245.2744 444.6563,245.2744 Q442.1563,245.2744 440.8281,243.6338 Q439.5156,241.9775 439.5156,238.8525 Q439.5156,235.7275 440.8281,234.0713 Q442.1563,232.415 444.6563,232.415 Q445.3594,232.415 446,232.5713 Q446.6563,232.7275 447.2188,233.0244 L447.2188,235.7431 Q446.5938,235.165 446,234.8994 Q445.4063,234.6181 444.7813,234.6181 Q443.4375,234.6181 442.75,235.6963 Q442.0625,236.7588 442.0625,238.8525 Q442.0625,240.9463 442.75,242.0244 Q443.4375,243.0869 444.7813,243.0869 Q445.4063,243.0869 446,242.8213 Q446.5938,242.54 447.2188,241.9619 L447.2188,244.6806 Z " fill="#000000"/><text fill="#000000" font-family="sans-serif" font-size="14" lengthAdjust="spacing" textLength="139" x="464.75" y="243.8867">DetectronEnsemble</text><line style="stroke:#181818;stroke-width:0.5;" x1="44.5" x2="991.5" y1="255.04" y2="255.04"/><rect fill="none" height="6" style="stroke:#C82930;stroke-width:1.0;" width="6" x="51.5" y="265.6884"/><text fill="#000000" font-family="sans-serif" font-size="14" lengthAdjust="spacing" textLength="298" x="63.5" y="272.0351">base_model_manager: BaseModelManager</text><rect fill="none" height="6" style="stroke:#C82930;stroke-width:1.0;" width="6" x="51.5" y="281.9853"/><text fill="#000000" font-family="sans-serif" font-size="14" lengthAdjust="spacing" textLength="87" x="63.5" y="288.332">ens_size: int</text><rect fill="none" height="6" style="stroke:#C82930;stroke-width:1.0;" width="6" x="51.5" y="298.2822"/><text fill="#000000" font-family="sans-serif" font-size="14" lengthAdjust="spacing" textLength="113" x="63.5" y="304.6289">cdcs: list[Model]</text><line style="stroke:#181818;stroke-width:0.5;" x1="44.5" x2="991.5" y1="311.9306" y2="311.9306"/><ellipse cx="54.5" cy="325.5791" fill="#84BE84" rx="3" ry="3" style="stroke:#038048;stroke-width:1.0;"/><text fill="#000000" font-family="sans-serif" font-size="14" lengthAdjust="spacing" textLength="923" x="63.5" y="328.9257">evaluate_ensemble(datasets, n_runs, samples_size, training_params, set, patience, allow_margin, margin): DetectronRecordsManager</text></g><!--class DetectronRecord--><g id="elem_DetectronRecord"><rect codeLine="10" fill="#F1F1F1" height="210.9688" id="DetectronRecord" rx="2.5" ry="2.5" style="stroke:#181818;stroke-width:0.5;" width="497" x="22.5" y="806.42"/><ellipse cx="206.75" cy="822.42" fill="#ADD1B2" rx="11" ry="11" style="stroke:#181818;stroke-width:1.0;"/><path d="M209.7188,828.0606 Q209.1406,828.3575 208.5,828.4981 Q207.8594,828.6544 207.1563,828.6544 Q204.6563,828.6544 203.3281,827.0138 Q202.0156,825.3575 202.0156,822.2325 Q202.0156,819.1075 203.3281,817.4513 Q204.6563,815.795 207.1563,815.795 Q207.8594,815.795 208.5,815.9513 Q209.1563,816.1075 209.7188,816.4044 L209.7188,819.1231 Q209.0938,818.545 208.5,818.2794 Q207.9063,817.9981 207.2813,817.9981 Q205.9375,817.9981 205.25,819.0763 Q204.5625,820.1388 204.5625,822.2325 Q204.5625,824.3263 205.25,825.4044 Q205.9375,826.4669 207.2813,826.4669 Q207.9063,826.4669 208.5,826.2013 Q209.0938,825.92 209.7188,825.3419 L209.7188,828.0606 Z " fill="#000000"/><text fill="#000000" font-family="sans-serif" font-size="14" lengthAdjust="spacing" textLength="120" x="227.25" y="827.2667">DetectronRecord</text><line style="stroke:#181818;stroke-width:0.5;" x1="23.5" x2="518.5" y1="838.42" y2="838.42"/><rect fill="none" height="6" style="stroke:#C82930;stroke-width:1.0;" width="6" x="30.5" y="849.0684"/><text fill="#000000" font-family="sans-serif" font-size="14" lengthAdjust="spacing" textLength="61" x="42.5" y="855.4151">seed: int</text><rect fill="none" height="6" style="stroke:#C82930;stroke-width:1.0;" width="6" x="30.5" y="865.3653"/><text fill="#000000" font-family="sans-serif" font-size="14" lengthAdjust="spacing" textLength="88" x="42.5" y="871.712">model_id: int</text><rect fill="none" height="6" style="stroke:#C82930;stroke-width:1.0;" width="6" x="30.5" y="881.6622"/><text fill="#000000" font-family="sans-serif" font-size="14" lengthAdjust="spacing" textLength="122" x="42.5" y="888.0089">original_count: int</text><rect fill="none" height="6" style="stroke:#C82930;stroke-width:1.0;" width="6" x="30.5" y="897.9591"/><text fill="#000000" font-family="sans-serif" font-size="14" lengthAdjust="spacing" textLength="134" x="42.5" y="904.3057">validation_auc: float</text><rect fill="none" height="6" style="stroke:#C82930;stroke-width:1.0;" width="6" x="30.5" y="914.2559"/><text fill="#000000" font-family="sans-serif" font-size="14" lengthAdjust="spacing" textLength="97" x="42.5" y="920.6026">test_auc: float</text><rect fill="none" height="6" style="stroke:#C82930;stroke-width:1.0;" width="6" x="30.5" y="930.5528"/><text fill="#000000" font-family="sans-serif" font-size="14" lengthAdjust="spacing" textLength="238" x="42.5" y="936.8995">predicted_probabilities: np.ndarray</text><rect fill="none" height="6" style="stroke:#C82930;stroke-width:1.0;" width="6" x="30.5" y="946.8497"/><text fill="#000000" font-family="sans-serif" font-size="14" lengthAdjust="spacing" textLength="131" x="42.5" y="953.1964">updated_count: int</text><rect fill="none" height="6" style="stroke:#C82930;stroke-width:1.0;" width="6" x="30.5" y="963.1466"/><text fill="#000000" font-family="sans-serif" font-size="14" lengthAdjust="spacing" textLength="148" x="42.5" y="969.4932">rejected_samples: int</text><line style="stroke:#181818;stroke-width:0.5;" x1="23.5" x2="518.5" y1="976.795" y2="976.795"/><ellipse cx="33.5" cy="990.4434" fill="#84BE84" rx="3" ry="3" style="stroke:#038048;stroke-width:1.0;"/><text fill="#000000" font-family="sans-serif" font-size="14" lengthAdjust="spacing" textLength="471" x="42.5" y="993.7901">update(validation_auc, test_auc, predicted_probabilities, count): void</text><ellipse cx="33.5" cy="1006.7403" fill="#84BE84" rx="3" ry="3" style="stroke:#038048;stroke-width:1.0;"/><text fill="#000000" font-family="sans-serif" font-size="14" lengthAdjust="spacing" textLength="90" x="42.5" y="1010.087">to_dict(): dict</text></g><!--class DetectronRecordsManager--><g id="elem_DetectronRecordsManager"><rect codeLine="23" fill="#F1F1F1" height="292.4531" id="DetectronRecordsManager" rx="2.5" ry="2.5" style="stroke:#181818;stroke-width:0.5;" width="818" x="261" y="453.97"/><ellipse cx="571.75" cy="469.97" fill="#ADD1B2" rx="11" ry="11" style="stroke:#181818;stroke-width:1.0;"/><path d="M574.7188,475.6106 Q574.1406,475.9075 573.5,476.0481 Q572.8594,476.2044 572.1563,476.2044 Q569.6563,476.2044 568.3281,474.5638 Q567.0156,472.9075 567.0156,469.7825 Q567.0156,466.6575 568.3281,465.0013 Q569.6563,463.345 572.1563,463.345 Q572.8594,463.345 573.5,463.5013 Q574.1563,463.6575 574.7188,463.9544 L574.7188,466.6731 Q574.0938,466.095 573.5,465.8294 Q572.9063,465.5481 572.2813,465.5481 Q570.9375,465.5481 570.25,466.6263 Q569.5625,467.6888 569.5625,469.7825 Q569.5625,471.8763 570.25,472.9544 Q570.9375,474.0169 572.2813,474.0169 Q572.9063,474.0169 573.5,473.7513 Q574.0938,473.47 574.7188,472.8919 L574.7188,475.6106 Z " fill="#000000"/><text fill="#000000" font-family="sans-serif" font-size="14" lengthAdjust="spacing" textLength="188" x="592.25" y="474.8167">DetectronRecordsManager</text><line style="stroke:#181818;stroke-width:0.5;" x1="262" x2="1078" y1="485.97" y2="485.97"/><rect fill="none" height="6" style="stroke:#C82930;stroke-width:1.0;" width="6" x="269" y="496.6184"/><text fill="#000000" font-family="sans-serif" font-size="14" lengthAdjust="spacing" textLength="116" x="281" y="502.9651">records: list[dict]</text><rect fill="none" height="6" style="stroke:#C82930;stroke-width:1.0;" width="6" x="269" y="512.9153"/><text fill="#000000" font-family="sans-serif" font-size="14" lengthAdjust="spacing" textLength="111" x="281" y="519.262">sample_size: int</text><rect fill="none" height="6" style="stroke:#C82930;stroke-width:1.0;" width="6" x="269" y="529.2122"/><text fill="#000000" font-family="sans-serif" font-size="14" lengthAdjust="spacing" textLength="45" x="281" y="535.5589">idx: int</text><rect fill="none" height="6" style="stroke:#C82930;stroke-width:1.0;" width="6" x="269" y="545.5091"/><text fill="#000000" font-family="sans-serif" font-size="14" lengthAdjust="spacing" textLength="75" x="281" y="551.8557">__seed: int</text><rect fill="none" height="6" style="stroke:#C82930;stroke-width:1.0;" width="6" x="269" y="561.8059"/><text fill="#000000" font-family="sans-serif" font-size="14" lengthAdjust="spacing" textLength="143" x="281" y="568.1526">sampling_counts: int</text><line style="stroke:#181818;stroke-width:0.5;" x1="262" x2="1078" y1="575.4544" y2="575.4544"/><ellipse cx="272" cy="589.1028" fill="#84BE84" rx="3" ry="3" style="stroke:#038048;stroke-width:1.0;"/><text fill="#000000" font-family="sans-serif" font-size="14" lengthAdjust="spacing" textLength="143" x="281" y="592.4495">seed(seed: int): void</text><ellipse cx="272" cy="605.3997" fill="#84BE84" rx="3" ry="3" style="stroke:#038048;stroke-width:1.0;"/><text fill="#000000" font-family="sans-serif" font-size="14" lengthAdjust="spacing" textLength="792" x="281" y="608.7464">update(val_data_x, val_data_y, sample_size, model, model_id, predicted_probabilities, test_data_x, test_data_y): void</text><ellipse cx="272" cy="621.6966" fill="#84BE84" rx="3" ry="3" style="stroke:#038048;stroke-width:1.0;"/><text fill="#000000" font-family="sans-serif" font-size="14" lengthAdjust="spacing" textLength="91" x="281" y="625.0432">freeze(): void</text><ellipse cx="272" cy="637.9934" fill="#84BE84" rx="3" ry="3" style="stroke:#038048;stroke-width:1.0;"/><text fill="#000000" font-family="sans-serif" font-size="14" lengthAdjust="spacing" textLength="191" x="281" y="641.3401">get_record(): pd.DataFrame</text><ellipse cx="272" cy="654.2903" fill="#84BE84" rx="3" ry="3" style="stroke:#038048;stroke-width:1.0;"/><text fill="#000000" font-family="sans-serif" font-size="14" lengthAdjust="spacing" textLength="110" x="281" y="657.637">save(path): void</text><ellipse cx="272" cy="670.5872" fill="#84BE84" rx="3" ry="3" style="stroke:#038048;stroke-width:1.0;"/><text fill="#000000" font-family="sans-serif" font-size="14" lengthAdjust="spacing" textLength="267" x="281" y="673.9339">load(path): DetectronRecordsManager</text><ellipse cx="272" cy="686.8841" fill="#84BE84" rx="3" ry="3" style="stroke:#038048;stroke-width:1.0;"/><text fill="#000000" font-family="sans-serif" font-size="14" lengthAdjust="spacing" textLength="279" x="281" y="690.2307">counts(max_ensemble_size): np.ndarray</text><ellipse cx="272" cy="703.1809" fill="#84BE84" rx="3" ry="3" style="stroke:#038048;stroke-width:1.0;"/><text fill="#000000" font-family="sans-serif" font-size="14" lengthAdjust="spacing" textLength="333" x="281" y="706.5276">rejection_rates(max_ensemble_size): np.ndarray</text><ellipse cx="272" cy="719.4778" fill="#84BE84" rx="3" ry="3" style="stroke:#038048;stroke-width:1.0;"/><text fill="#000000" font-family="sans-serif" font-size="14" lengthAdjust="spacing" textLength="387" x="281" y="722.8245">predicted_probabilities(max_ensemble_size): np.ndarray</text><ellipse cx="272" cy="735.7747" fill="#84BE84" rx="3" ry="3" style="stroke:#038048;stroke-width:1.0;"/><text fill="#000000" font-family="sans-serif" font-size="14" lengthAdjust="spacing" textLength="343" x="281" y="739.1214">rejected_counts(max_ensemble_size): np.ndarray</text></g><!--class EarlyStopper--><g id="elem_EarlyStopper"><rect codeLine="41" fill="#F1F1F1" height="145.7813" id="EarlyStopper" rx="2.5" ry="2.5" style="stroke:#181818;stroke-width:0.5;" width="205" x="21.5" y="527.3"/><ellipse cx="76.25" cy="543.3" fill="#ADD1B2" rx="11" ry="11" style="stroke:#181818;stroke-width:1.0;"/><path d="M79.2188,548.9406 Q78.6406,549.2375 78,549.3781 Q77.3594,549.5344 76.6563,549.5344 Q74.1563,549.5344 72.8281,547.8938 Q71.5156,546.2375 71.5156,543.1125 Q71.5156,539.9875 72.8281,538.3313 Q74.1563,536.675 76.6563,536.675 Q77.3594,536.675 78,536.8313 Q78.6563,536.9875 79.2188,537.2844 L79.2188,540.0031 Q78.5938,539.425 78,539.1594 Q77.4063,538.8781 76.7813,538.8781 Q75.4375,538.8781 74.75,539.9563 Q74.0625,541.0188 74.0625,543.1125 Q74.0625,545.2063 74.75,546.2844 Q75.4375,547.3469 76.7813,547.3469 Q77.4063,547.3469 78,547.0813 Q78.5938,546.8 79.2188,546.2219 L79.2188,548.9406 Z " fill="#000000"/><text fill="#000000" font-family="sans-serif" font-size="14" lengthAdjust="spacing" textLength="87" x="96.75" y="548.1467">EarlyStopper</text><line style="stroke:#181818;stroke-width:0.5;" x1="22.5" x2="225.5" y1="559.3" y2="559.3"/><rect fill="none" height="6" style="stroke:#C82930;stroke-width:1.0;" width="6" x="29.5" y="569.9484"/><text fill="#000000" font-family="sans-serif" font-size="14" lengthAdjust="spacing" textLength="86" x="41.5" y="576.2951">patience: int</text><rect fill="none" height="6" style="stroke:#C82930;stroke-width:1.0;" width="6" x="29.5" y="586.2453"/><text fill="#000000" font-family="sans-serif" font-size="14" lengthAdjust="spacing" textLength="104" x="41.5" y="592.592">min_delta: float</text><rect fill="none" height="6" style="stroke:#C82930;stroke-width:1.0;" width="6" x="29.5" y="602.5422"/><text fill="#000000" font-family="sans-serif" font-size="14" lengthAdjust="spacing" textLength="69" x="41.5" y="608.8889">best: float</text><rect fill="none" height="6" style="stroke:#C82930;stroke-width:1.0;" width="6" x="29.5" y="618.8391"/><text fill="#000000" font-family="sans-serif" font-size="14" lengthAdjust="spacing" textLength="53" x="41.5" y="625.1857">wait: int</text><rect fill="none" height="6" style="stroke:#C82930;stroke-width:1.0;" width="6" x="29.5" y="635.1359"/><text fill="#000000" font-family="sans-serif" font-size="14" lengthAdjust="spacing" textLength="67" x="41.5" y="641.4826">mode: str</text><line style="stroke:#181818;stroke-width:0.5;" x1="22.5" x2="225.5" y1="648.7844" y2="648.7844"/><ellipse cx="32.5" cy="662.4328" fill="#84BE84" rx="3" ry="3" style="stroke:#038048;stroke-width:1.0;"/><text fill="#000000" font-family="sans-serif" font-size="14" lengthAdjust="spacing" textLength="179" x="41.5" y="665.7795">update(metric: float): bool</text></g><!--class DetectronStrategy--><g id="elem_DetectronStrategy"><rect codeLine="50" fill="#F1F1F1" height="64.2969" id="DetectronStrategy" rx="2.5" ry="2.5" style="stroke:#181818;stroke-width:0.5;" width="478" x="1114" y="568.05"/><ellipse cx="1285.25" cy="584.05" fill="#ADD1B2" rx="11" ry="11" style="stroke:#181818;stroke-width:1.0;"/><path d="M1288.2188,589.6906 Q1287.6406,589.9875 1287,590.1281 Q1286.3594,590.2844 1285.6563,590.2844 Q1283.1563,590.2844 1281.8281,588.6438 Q1280.5156,586.9875 1280.5156,583.8625 Q1280.5156,580.7375 1281.8281,579.0813 Q1283.1563,577.425 1285.6563,577.425 Q1286.3594,577.425 1287,577.5813 Q1287.6563,577.7375 1288.2188,578.0344 L1288.2188,580.7531 Q1287.5938,580.175 1287,579.9094 Q1286.4063,579.6281 1285.7813,579.6281 Q1284.4375,579.6281 1283.75,580.7063 Q1283.0625,581.7688 1283.0625,583.8625 Q1283.0625,585.9563 1283.75,587.0344 Q1284.4375,588.0969 1285.7813,588.0969 Q1286.4063,588.0969 1287,587.8313 Q1287.5938,587.55 1288.2188,586.9719 L1288.2188,589.6906 Z " fill="#000000"/><text fill="#000000" font-family="sans-serif" font-size="14" lengthAdjust="spacing" textLength="127" x="1305.75" y="588.8967">DetectronStrategy</text><line style="stroke:#181818;stroke-width:0.5;" x1="1115" x2="1591" y1="600.05" y2="600.05"/><line style="stroke:#181818;stroke-width:0.5;" x1="1115" x2="1591" y1="608.05" y2="608.05"/><ellipse cx="1125" cy="621.6984" fill="#84BE84" rx="3" ry="3" style="stroke:#038048;stroke-width:1.0;"/><text fill="#000000" font-family="sans-serif" font-size="14" lengthAdjust="spacing" text-decoration="underline" textLength="452" x="1134" y="625.0451">execute(calibration_records, test_records, significance_level): dict</text></g><!--class DisagreementStrategy--><g id="elem_DisagreementStrategy"><rect codeLine="54" fill="#F1F1F1" height="64.2969" id="DisagreementStrategy" rx="2.5" ry="2.5" style="stroke:#181818;stroke-width:0.5;" width="478" x="1581" y="879.76"/><ellipse cx="1738.25" cy="895.76" fill="#ADD1B2" rx="11" ry="11" style="stroke:#181818;stroke-width:1.0;"/><path d="M1741.2188,901.4006 Q1740.6406,901.6975 1740,901.8381 Q1739.3594,901.9944 1738.6563,901.9944 Q1736.1563,901.9944 1734.8281,900.3538 Q1733.5156,898.6975 1733.5156,895.5725 Q1733.5156,892.4475 1734.8281,890.7913 Q1736.1563,889.135 1738.6563,889.135 Q1739.3594,889.135 1740,889.2913 Q1740.6563,889.4475 1741.2188,889.7444 L1741.2188,892.4631 Q1740.5938,891.885 1740,891.6194 Q1739.4063,891.3381 1738.7813,891.3381 Q1737.4375,891.3381 1736.75,892.4163 Q1736.0625,893.4788 1736.0625,895.5725 Q1736.0625,897.6663 1736.75,898.7444 Q1737.4375,899.8069 1738.7813,899.8069 Q1739.4063,899.8069 1740,899.5413 Q1740.5938,899.26 1741.2188,898.6819 L1741.2188,901.4006 Z " fill="#000000"/><text fill="#000000" font-family="sans-serif" font-size="14" lengthAdjust="spacing" textLength="155" x="1758.75" y="900.6067">DisagreementStrategy</text><line style="stroke:#181818;stroke-width:0.5;" x1="1582" x2="2058" y1="911.76" y2="911.76"/><line style="stroke:#181818;stroke-width:0.5;" x1="1582" x2="2058" y1="919.76" y2="919.76"/><ellipse cx="1592" cy="933.4084" fill="#84BE84" rx="3" ry="3" style="stroke:#038048;stroke-width:1.0;"/><text fill="#000000" font-family="sans-serif" font-size="14" lengthAdjust="spacing" text-decoration="underline" textLength="452" x="1601" y="936.7551">execute(calibration_records, test_records, significance_level): dict</text></g><!--class DisagreementStrategy_MW--><g id="elem_DisagreementStrategy_MW"><rect codeLine="58" fill="#F1F1F1" height="64.2969" id="DisagreementStrategy_MW" rx="2.5" ry="2.5" style="stroke:#181818;stroke-width:0.5;" width="478" x="555" y="879.76"/><ellipse cx="696.25" cy="895.76" fill="#ADD1B2" rx="11" ry="11" style="stroke:#181818;stroke-width:1.0;"/><path d="M699.2188,901.4006 Q698.6406,901.6975 698,901.8381 Q697.3594,901.9944 696.6563,901.9944 Q694.1563,901.9944 692.8281,900.3538 Q691.5156,898.6975 691.5156,895.5725 Q691.5156,892.4475 692.8281,890.7913 Q694.1563,889.135 696.6563,889.135 Q697.3594,889.135 698,889.2913 Q698.6563,889.4475 699.2188,889.7444 L699.2188,892.4631 Q698.5938,891.885 698,891.6194 Q697.4063,891.3381 696.7813,891.3381 Q695.4375,891.3381 694.75,892.4163 Q694.0625,893.4788 694.0625,895.5725 Q694.0625,897.6663 694.75,898.7444 Q695.4375,899.8069 696.7813,899.8069 Q697.4063,899.8069 698,899.5413 Q698.5938,899.26 699.2188,898.6819 L699.2188,901.4006 Z " fill="#000000"/><text fill="#000000" font-family="sans-serif" font-size="14" lengthAdjust="spacing" textLength="187" x="716.75" y="900.6067">DisagreementStrategy_MW</text><line style="stroke:#181818;stroke-width:0.5;" x1="556" x2="1032" y1="911.76" y2="911.76"/><line style="stroke:#181818;stroke-width:0.5;" x1="556" x2="1032" y1="919.76" y2="919.76"/><ellipse cx="566" cy="933.4084" fill="#84BE84" rx="3" ry="3" style="stroke:#038048;stroke-width:1.0;"/><text fill="#000000" font-family="sans-serif" font-size="14" lengthAdjust="spacing" text-decoration="underline" textLength="452" x="575" y="936.7551">execute(calibration_records, test_records, significance_level): dict</text></g><!--class DisagreementStrategy_KS--><g id="elem_DisagreementStrategy_KS"><rect codeLine="62" fill="#F1F1F1" height="64.2969" id="DisagreementStrategy_KS" rx="2.5" ry="2.5" style="stroke:#181818;stroke-width:0.5;" width="478" x="1068" y="879.76"/><ellipse cx="1212.75" cy="895.76" fill="#ADD1B2" rx="11" ry="11" style="stroke:#181818;stroke-width:1.0;"/><path d="M1215.7188,901.4006 Q1215.1406,901.6975 1214.5,901.8381 Q1213.8594,901.9944 1213.1563,901.9944 Q1210.6563,901.9944 1209.3281,900.3538 Q1208.0156,898.6975 1208.0156,895.5725 Q1208.0156,892.4475 1209.3281,890.7913 Q1210.6563,889.135 1213.1563,889.135 Q1213.8594,889.135 1214.5,889.2913 Q1215.1563,889.4475 1215.7188,889.7444 L1215.7188,892.4631 Q1215.0938,891.885 1214.5,891.6194 Q1213.9063,891.3381 1213.2813,891.3381 Q1211.9375,891.3381 1211.25,892.4163 Q1210.5625,893.4788 1210.5625,895.5725 Q1210.5625,897.6663 1211.25,898.7444 Q1211.9375,899.8069 1213.2813,899.8069 Q1213.9063,899.8069 1214.5,899.5413 Q1215.0938,899.26 1215.7188,898.6819 L1215.7188,901.4006 Z " fill="#000000"/><text fill="#000000" font-family="sans-serif" font-size="14" lengthAdjust="spacing" textLength="180" x="1233.25" y="900.6067">DisagreementStrategy_KS</text><line style="stroke:#181818;stroke-width:0.5;" x1="1069" x2="1545" y1="911.76" y2="911.76"/><line style="stroke:#181818;stroke-width:0.5;" x1="1069" x2="1545" y1="919.76" y2="919.76"/><ellipse cx="1079" cy="933.4084" fill="#84BE84" rx="3" ry="3" style="stroke:#038048;stroke-width:1.0;"/><text fill="#000000" font-family="sans-serif" font-size="14" lengthAdjust="spacing" text-decoration="underline" textLength="452" x="1088" y="936.7551">execute(calibration_records, test_records, significance_level): dict</text></g><!--class DetectronResult--><g id="elem_DetectronResult"><rect codeLine="66" fill="#F1F1F1" height="194.6719" id="DetectronResult" rx="2.5" ry="2.5" style="stroke:#181818;stroke-width:0.5;" width="423" x="1037.5" y="182.3"/><ellipse cx="1187.75" cy="198.3" fill="#ADD1B2" rx="11" ry="11" style="stroke:#181818;stroke-width:1.0;"/><path d="M1190.7188,203.9406 Q1190.1406,204.2375 1189.5,204.3781 Q1188.8594,204.5344 1188.1563,204.5344 Q1185.6563,204.5344 1184.3281,202.8938 Q1183.0156,201.2375 1183.0156,198.1125 Q1183.0156,194.9875 1184.3281,193.3313 Q1185.6563,191.675 1188.1563,191.675 Q1188.8594,191.675 1189.5,191.8313 Q1190.1563,191.9875 1190.7188,192.2844 L1190.7188,195.0031 Q1190.0938,194.425 1189.5,194.1594 Q1188.9063,193.8781 1188.2813,193.8781 Q1186.9375,193.8781 1186.25,194.9563 Q1185.5625,196.0188 1185.5625,198.1125 Q1185.5625,200.2063 1186.25,201.2844 Q1186.9375,202.3469 1188.2813,202.3469 Q1188.9063,202.3469 1189.5,202.0813 Q1190.0938,201.8 1190.7188,201.2219 L1190.7188,203.9406 Z " fill="#000000"/><text fill="#000000" font-family="sans-serif" font-size="14" lengthAdjust="spacing" textLength="114" x="1208.25" y="203.1467">DetectronResult</text><line style="stroke:#181818;stroke-width:0.5;" x1="1038.5" x2="1459.5" y1="214.3" y2="214.3"/><rect fill="none" height="6" style="stroke:#C82930;stroke-width:1.0;" width="6" x="1045.5" y="224.9484"/><text fill="#000000" font-family="sans-serif" font-size="14" lengthAdjust="spacing" textLength="268" x="1057.5" y="231.2951">cal_record: DetectronRecordsManager</text><rect fill="none" height="6" style="stroke:#C82930;stroke-width:1.0;" width="6" x="1045.5" y="241.2453"/><text fill="#000000" font-family="sans-serif" font-size="14" lengthAdjust="spacing" textLength="276" x="1057.5" y="247.592">test_record: DetectronRecordsManager</text><rect fill="none" height="6" style="stroke:#C82930;stroke-width:1.0;" width="6" x="1045.5" y="257.5422"/><text fill="#000000" font-family="sans-serif" font-size="14" lengthAdjust="spacing" textLength="115" x="1057.5" y="263.8889">test_results: dict</text><line style="stroke:#181818;stroke-width:0.5;" x1="1038.5" x2="1459.5" y1="271.1906" y2="271.1906"/><ellipse cx="1048.5" cy="284.8391" fill="#84BE84" rx="3" ry="3" style="stroke:#038048;stroke-width:1.0;"/><text fill="#000000" font-family="sans-serif" font-size="14" lengthAdjust="spacing" textLength="270" x="1057.5" y="288.1857">calibration_trajectories(): pd.DataFrame</text><ellipse cx="1048.5" cy="301.1359" fill="#84BE84" rx="3" ry="3" style="stroke:#038048;stroke-width:1.0;"/><text fill="#000000" font-family="sans-serif" font-size="14" lengthAdjust="spacing" textLength="227" x="1057.5" y="304.4826">test_trajectories(): pd.DataFrame</text><ellipse cx="1048.5" cy="317.4328" fill="#84BE84" rx="3" ry="3" style="stroke:#038048;stroke-width:1.0;"/><text fill="#000000" font-family="sans-serif" font-size="14" lengthAdjust="spacing" textLength="397" x="1057.5" y="320.7795">get_experiments_results(strategy, significance_level): dict</text><ellipse cx="1048.5" cy="333.7297" fill="#84BE84" rx="3" ry="3" style="stroke:#038048;stroke-width:1.0;"/><text fill="#000000" font-family="sans-serif" font-size="14" lengthAdjust="spacing" textLength="263" x="1057.5" y="337.0764">set_experiments_results(results): void</text><ellipse cx="1048.5" cy="350.0266" fill="#84BE84" rx="3" ry="3" style="stroke:#038048;stroke-width:1.0;"/><text fill="#000000" font-family="sans-serif" font-size="14" lengthAdjust="spacing" textLength="360" x="1057.5" y="353.3732">evaluate_detectron(strategy, significance_level): dict</text><ellipse cx="1048.5" cy="366.3234" fill="#84BE84" rx="3" ry="3" style="stroke:#038048;stroke-width:1.0;"/><text fill="#000000" font-family="sans-serif" font-size="14" lengthAdjust="spacing" textLength="136" x="1057.5" y="369.6701">save(file_path): void</text></g><!--class DetectronExperiment--><g id="elem_DetectronExperiment"><rect codeLine="78" fill="#F1F1F1" height="64.2969" id="DetectronExperiment" rx="2.5" ry="2.5" style="stroke:#181818;stroke-width:0.5;" width="1599" x="449.5" y="41"/><ellipse cx="1170.75" cy="57" fill="#ADD1B2" rx="11" ry="11" style="stroke:#181818;stroke-width:1.0;"/><path d="M1173.7188,62.6406 Q1173.1406,62.9375 1172.5,63.0781 Q1171.8594,63.2344 1171.1563,63.2344 Q1168.6563,63.2344 1167.3281,61.5938 Q1166.0156,59.9375 1166.0156,56.8125 Q1166.0156,53.6875 1167.3281,52.0313 Q1168.6563,50.375 1171.1563,50.375 Q1171.8594,50.375 1172.5,50.5313 Q1173.1563,50.6875 1173.7188,50.9844 L1173.7188,53.7031 Q1173.0938,53.125 1172.5,52.8594 Q1171.9063,52.5781 1171.2813,52.5781 Q1169.9375,52.5781 1169.25,53.6563 Q1168.5625,54.7188 1168.5625,56.8125 Q1168.5625,58.9063 1169.25,59.9844 Q1169.9375,61.0469 1171.2813,61.0469 Q1171.9063,61.0469 1172.5,60.7813 Q1173.0938,60.5 1173.7188,59.9219 L1173.7188,62.6406 Z " fill="#000000"/><text fill="#000000" font-family="sans-serif" font-size="14" lengthAdjust="spacing" textLength="148" x="1191.25" y="61.8467">DetectronExperiment</text><line style="stroke:#181818;stroke-width:0.5;" x1="450.5" x2="2047.5" y1="73" y2="73"/><line style="stroke:#181818;stroke-width:0.5;" x1="450.5" x2="2047.5" y1="81" y2="81"/><ellipse cx="460.5" cy="94.6484" fill="#84BE84" rx="3" ry="3" style="stroke:#038048;stroke-width:1.0;"/><text fill="#000000" font-family="sans-serif" font-size="14" font-style="italic" lengthAdjust="spacing" textLength="1573" x="469.5" y="97.9951">run(datasets, training_params, base_model_manager, samples_size, detectron_result, calib_result, ensemble_size, num_calibration_runs, patience, significance_level, test_strategy, evaluate_detectron, allow_margin, margin): tuple</text></g><!--link DetectronEnsemble to EarlyStopper--><g id="link_DetectronEnsemble_EarlyStopper"><path codeLine="82" d="M412.74,336.65 C359.38,367.59 295.21,408.86 244,453.97 C219.58,475.48 199.7545,497.5218 180.0745,522.1618 " fill="none" id="DetectronEnsemble-to-EarlyStopper" style="stroke:#181818;stroke-width:1.0;stroke-dasharray:7.0,7.0;"/><polygon fill="#181818" points="176.33,526.85,185.0721,522.314,179.4504,522.9432,178.8212,517.3214,176.33,526.85" style="stroke:#181818;stroke-width:1.0;"/><text fill="#000000" font-family="sans-serif" font-size="13" lengthAdjust="spacing" textLength="46" x="300" y="420.0369">&#171;uses&#187;</text></g><!--reverse link DetectronRecordsManager to DetectronRecord--><g id="link_DetectronRecordsManager_DetectronRecord"><path codeLine="83" d="M473.0012,754.1089 C447.2012,774.1389 430.62,787.01 406.02,806.1 " fill="none" id="DetectronRecordsManager-backto-DetectronRecord" style="stroke:#181818;stroke-width:1.0;"/><polygon fill="#181818" points="482.48,746.75,475.2877,747.2699,473.0012,754.1089,480.1936,753.589,482.48,746.75" style="stroke:#181818;stroke-width:1.0;"/><text fill="#000000" font-family="sans-serif" font-size="13" lengthAdjust="spacing" textLength="7" x="408.2675" y="795.2048">*</text></g><!--reverse link DetectronResult to DetectronRecordsManager--><g id="link_DetectronResult_DetectronRecordsManager"><path codeLine="84" d="M1062.8066,383.0752 C1019.0466,407.1552 981.67,427.72 934.66,453.58 " fill="none" id="DetectronResult-backto-DetectronRecordsManager" style="stroke:#181818;stroke-width:1.0;"/><polygon fill="none" points="1073.32,377.29,1066.1349,376.6782,1062.8066,383.0752,1069.9917,383.6871,1073.32,377.29" style="stroke:#181818;stroke-width:1.0;"/></g><!--link DetectronExperiment to DetectronResult--><g id="link_DetectronExperiment_DetectronResult"><path codeLine="85" d="M1249,105.65 C1249,126.26 1249,148.4 1249,175.99 " fill="none" id="DetectronExperiment-to-DetectronResult" style="stroke:#181818;stroke-width:1.0;stroke-dasharray:7.0,7.0;"/><polygon fill="#181818" points="1249,181.99,1253,172.99,1249,176.99,1245,172.99,1249,181.99" style="stroke:#181818;stroke-width:1.0;"/><text fill="#000000" font-family="sans-serif" font-size="13" lengthAdjust="spacing" textLength="55" x="1250" y="148.3669">&#171;return&#187;</text></g><!--link DetectronEnsemble to DetectronRecordsManager--><g id="link_DetectronEnsemble_DetectronRecordsManager"><path codeLine="86" d="M544.65,336.49 C560.23,369.14 578.1071,406.5944 597.9571,448.2144 " fill="none" id="DetectronEnsemble-to-DetectronRecordsManager" style="stroke:#181818;stroke-width:1.0;stroke-dasharray:7.0,7.0;"/><polygon fill="#181818" points="600.54,453.63,600.2761,443.7847,598.3876,449.117,593.0553,447.2285,600.54,453.63" style="stroke:#181818;stroke-width:1.0;"/><text fill="#000000" font-family="sans-serif" font-size="13" lengthAdjust="spacing" textLength="55" x="585" y="420.0369">&#171;return&#187;</text></g><!--reverse link DetectronStrategy to DisagreementStrategy--><g id="link_DetectronStrategy_DisagreementStrategy"><path codeLine="87" d="M1415.3511,642.5482 C1504.8611,701.9082 1682.92,820 1772.53,879.42 " fill="none" id="DetectronStrategy-backto-DisagreementStrategy" style="stroke:#181818;stroke-width:1.0;"/><polygon fill="none" points="1400.35,632.6,1412.035,647.5486,1418.6672,637.5479,1400.35,632.6" style="stroke:#181818;stroke-width:1.0;"/></g><!--reverse link DetectronStrategy to DisagreementStrategy_MW--><g id="link_DetectronStrategy_DisagreementStrategy_MW"><path codeLine="88" d="M1282.0992,641.6588 C1230.1492,671.2488 1165.8,707.7 1096,746.42 C1011.69,793.2 913.56,846.42 852.61,879.34 " fill="none" id="DetectronStrategy-backto-DisagreementStrategy_MW" style="stroke:#181818;stroke-width:1.0;"/><polygon fill="none" points="1297.74,632.75,1279.1296,636.4452,1285.0688,646.8724,1297.74,632.75" style="stroke:#181818;stroke-width:1.0;"/></g><!--reverse link DetectronStrategy to DisagreementStrategy_KS--><g id="link_DetectronStrategy_DisagreementStrategy_KS"><path codeLine="89" d="M1345.6945,650.4045 C1336.8745,709.7645 1320.5,820 1311.68,879.42 " fill="none" id="DetectronStrategy-backto-DisagreementStrategy_KS" style="stroke:#181818;stroke-width:1.0;"/><polygon fill="none" points="1348.34,632.6,1339.7597,649.5227,1351.6294,651.2864,1348.34,632.6" style="stroke:#181818;stroke-width:1.0;"/></g><!--link DetectronResult to DetectronStrategy--><g id="link_DetectronResult_DetectronStrategy"><path codeLine="90" d="M1280.49,377.08 C1301.71,442.09 1328.36,523.73 1342.71,567.69 " fill="none" id="DetectronResult-DetectronStrategy" style="stroke:#181818;stroke-width:1.0;"/><text fill="#000000" font-family="sans-serif" font-size="13" lengthAdjust="spacing" textLength="46" x="1295" y="420.0369">&#171;uses&#187;</text></g><!--SRC=[pLOxRzim4DxpAuXCIcBx1nX1XgBf4cIfXmv5G53KsMLBaG99ENRI_FSU9KgY7dujGJrO5k_zyRlp5Op_OHiWrr_10NT6Ax8gqw8-lIRlLrS4FrmoQqchygWivAa459FmcQVC0irr1fBcJA6nMP8lUFRiZvxhaquRbALMlC6I2EMwOvvnkoHIMFUpidjfHNUmPR9a3YY4u4d67FftTaOKDQN2fsLv8Q7sF2FECA64sj226PPxCRWPAPWJe3ZAcPJw5PCr6w5cf7xUBBiglmFN9hDnxX-JSDIACHWM81kKLaCZXiVQ20pB9EMwL6uWn985LYcqegpaIxAMcaLY1zPD2We3cU0ECbeOdR9KI8558xAgMAYC6SFsdN9PO0XKdKh0m6-e_0Ha- -AxsZJffud0XxmGxEb4PgGAXc1ljSWwVqvJhvwWm3zFGjxSJGozgIM1HTxDItGlLHbJp1FPRd12wSGjLWuyfwe2XdXuWwIr6fNNmKKzT-bkHjhV-uQzWRmLNS83MNC4oWhjnb_tiX-5Nnk0DqX6vnjmj4RDoufiyHNjls7BG5GPsqA2hVDhP8tConh9iTQfb6lKafpjsZQkwhsPfEPTJJ_FAuF0dMzt0AiBupOzSPPTZwQFpCZzokcYw7EpcJt3qI0KnMjsRDJ8ALxdwF2L2JSnN9R4EZCYMmxEY6P2ODgfrl98NwsSHtgpZx9-jmxJvXyuWdV0I_J9iTzJKpTyQBV0lFRDYeqIQy4PLaibR44UxcbXsGQfcODodnNUVvz8WJx_-1-oU5fzvbLq_MjBwMBgOg3WydIRpwC4pjVs4MsKMJqmeleG4j-M-8-9hNnmKbNUpbFrWmzssAF2GswR718Rm3-5NPZvqqx2SpGlspqcQt2vC9wVn6k1WsWuZgUlyh7DBIOIItrGxf1Ak3f5gzHeQHhlTSCzgoqar8x_xlxMshVUvCHbhSnfZxRLwjQjPMCC0gCxcCOO7jpcN8cPnl2CbzZ5ug4_iPVa_hwqO1yU-XQ3fUDsFYVNjzT3-T2cwYIDkiSQOUgwV5v3Fpur0wuqQfXShvn3AHysRoVl_L-VwiGekbGV1-Z59a-hIVHYy5elqIrz_0C0]--></g></svg>