<svg xmlns="http://www.w3.org/2000/svg" xmlns:xlink="http://www.w3.org/1999/xlink" contentStyleType="text/css" height="1084px" preserveAspectRatio="none" style="width:3384px;height:1084px;background:#FFFFFF;" version="1.1" viewBox="0 0 3384 1084" width="3384px" zoomAndPan="magnify"><defs/><g><!--cluster Med3pa Subpackage--><g id="cluster_Med3pa Subpackage"><path d="M8.5,6 L172.5,6 A3.75,3.75 0 0 1 175,8.5 L182,28.2969 L3374.5,28.2969 A2.5,2.5 0 0 1 3377,30.7969 L3377,1074.7 A2.5,2.5 0 0 1 3374.5,1077.2 L8.5,1077.2 A2.5,2.5 0 0 1 6,1074.7 L6,8.5 A2.5,2.5 0 0 1 8.5,6 " fill="none" style="stroke:#000000;stroke-width:1.5;"/><line style="stroke:#000000;stroke-width:1.5;" x1="6" x2="182" y1="28.2969" y2="28.2969"/><text fill="#000000" font-family="sans-serif" font-size="14" font-weight="bold" lengthAdjust="spacing" textLength="163" x="10" y="20.9951">Med3pa Subpackage</text></g><!--class UncertaintyMetric--><g id="elem_UncertaintyMetric"><rect codeLine="3" fill="#F1F1F1" height="64.2969" id="UncertaintyMetric" rx="2.5" ry="2.5" style="stroke:#181818;stroke-width:0.5;" width="595" x="22.5" y="478.41"/><ellipse cx="255.75" cy="494.41" fill="#A9DCDF" rx="11" ry="11" style="stroke:#181818;stroke-width:1.0;"/><path d="M255.8594,489.7538 L254.7031,494.8319 L257.0313,494.8319 L255.8594,489.7538 Z M254.375,487.5194 L257.3594,487.5194 L260.7188,499.91 L258.2656,499.91 L257.5,496.8475 L254.2188,496.8475 L253.4688,499.91 L251.0313,499.91 L254.375,487.5194 Z " fill="#000000"/><text fill="#000000" font-family="sans-serif" font-size="14" font-style="italic" lengthAdjust="spacing" textLength="120" x="276.25" y="499.2567">UncertaintyMetric</text><line style="stroke:#181818;stroke-width:0.5;" x1="23.5" x2="616.5" y1="510.41" y2="510.41"/><line style="stroke:#181818;stroke-width:0.5;" x1="23.5" x2="616.5" y1="518.41" y2="518.41"/><ellipse cx="33.5" cy="532.0584" fill="#84BE84" rx="3" ry="3" style="stroke:#038048;stroke-width:1.0;"/><text fill="#000000" font-family="sans-serif" font-size="14" font-style="italic" lengthAdjust="spacing" textLength="569" x="42.5" y="535.4051">calculate(x: np.ndarray, predicted_prob: np.ndarray, y_true: np.ndarray): np.ndarray</text></g><!--class AbsoluteError--><g id="elem_AbsoluteError"><rect codeLine="8" fill="#F1F1F1" height="64.2969" id="AbsoluteError" rx="2.5" ry="2.5" style="stroke:#181818;stroke-width:0.5;" width="595" x="22.5" y="668.9"/><ellipse cx="268.75" cy="684.9" fill="#ADD1B2" rx="11" ry="11" style="stroke:#181818;stroke-width:1.0;"/><path d="M271.7188,690.5406 Q271.1406,690.8375 270.5,690.9781 Q269.8594,691.1344 269.1563,691.1344 Q266.6563,691.1344 265.3281,689.4938 Q264.0156,687.8375 264.0156,684.7125 Q264.0156,681.5875 265.3281,679.9313 Q266.6563,678.275 269.1563,678.275 Q269.8594,678.275 270.5,678.4313 Q271.1563,678.5875 271.7188,678.8844 L271.7188,681.6031 Q271.0938,681.025 270.5,680.7594 Q269.9063,680.4781 269.2813,680.4781 Q267.9375,680.4781 267.25,681.5563 Q266.5625,682.6188 266.5625,684.7125 Q266.5625,686.8063 267.25,687.8844 Q267.9375,688.9469 269.2813,688.9469 Q269.9063,688.9469 270.5,688.6813 Q271.0938,688.4 271.7188,687.8219 L271.7188,690.5406 Z " fill="#000000"/><text fill="#000000" font-family="sans-serif" font-size="14" lengthAdjust="spacing" textLength="94" x="289.25" y="689.7467">AbsoluteError</text><line style="stroke:#181818;stroke-width:0.5;" x1="23.5" x2="616.5" y1="700.9" y2="700.9"/><line style="stroke:#181818;stroke-width:0.5;" x1="23.5" x2="616.5" y1="708.9" y2="708.9"/><ellipse cx="33.5" cy="722.5484" fill="#84BE84" rx="3" ry="3" style="stroke:#038048;stroke-width:1.0;"/><text fill="#000000" font-family="sans-serif" font-size="14" lengthAdjust="spacing" textLength="569" x="42.5" y="725.8951">calculate(x: np.ndarray, predicted_prob: np.ndarray, y_true: np.ndarray): np.ndarray</text></g><!--class UncertaintyCalculator--><g id="elem_UncertaintyCalculator"><rect codeLine="12" fill="#F1F1F1" height="80.5938" id="UncertaintyCalculator" rx="2.5" ry="2.5" style="stroke:#181818;stroke-width:0.5;" width="679" x="416.5" y="231.18"/><ellipse cx="678.75" cy="247.18" fill="#ADD1B2" rx="11" ry="11" style="stroke:#181818;stroke-width:1.0;"/><path d="M681.7188,252.8206 Q681.1406,253.1175 680.5,253.2581 Q679.8594,253.4144 679.1563,253.4144 Q676.6563,253.4144 675.3281,251.7738 Q674.0156,250.1175 674.0156,246.9925 Q674.0156,243.8675 675.3281,242.2113 Q676.6563,240.555 679.1563,240.555 Q679.8594,240.555 680.5,240.7113 Q681.1563,240.8675 681.7188,241.1644 L681.7188,243.8831 Q681.0938,243.305 680.5,243.0394 Q679.9063,242.7581 679.2813,242.7581 Q677.9375,242.7581 677.25,243.8363 Q676.5625,244.8988 676.5625,246.9925 Q676.5625,249.0863 677.25,250.1644 Q677.9375,251.2269 679.2813,251.2269 Q679.9063,251.2269 680.5,250.9613 Q681.0938,250.68 681.7188,250.1019 L681.7188,252.8206 Z " fill="#000000"/><text fill="#000000" font-family="sans-serif" font-size="14" lengthAdjust="spacing" textLength="146" x="699.25" y="252.0267">UncertaintyCalculator</text><line style="stroke:#181818;stroke-width:0.5;" x1="417.5" x2="1094.5" y1="263.18" y2="263.18"/><rect fill="none" height="6" style="stroke:#C82930;stroke-width:1.0;" width="6" x="424.5" y="273.8284"/><text fill="#000000" font-family="sans-serif" font-size="14" lengthAdjust="spacing" textLength="172" x="436.5" y="280.1751">metric: UncertaintyMetric</text><line style="stroke:#181818;stroke-width:0.5;" x1="417.5" x2="1094.5" y1="287.4769" y2="287.4769"/><ellipse cx="427.5" cy="301.1253" fill="#84BE84" rx="3" ry="3" style="stroke:#038048;stroke-width:1.0;"/><text fill="#000000" font-family="sans-serif" font-size="14" lengthAdjust="spacing" textLength="653" x="436.5" y="304.472">calculate_uncertainty(x: np.ndarray, predicted_prob: np.ndarray, y_true: np.ndarray): np.ndarray</text></g><!--class IPCModel--><g id="elem_IPCModel"><rect codeLine="17" fill="#F1F1F1" height="129.4844" id="IPCModel" rx="2.5" ry="2.5" style="stroke:#181818;stroke-width:0.5;" width="668" x="653" y="445.82"/><ellipse cx="950.75" cy="461.82" fill="#ADD1B2" rx="11" ry="11" style="stroke:#181818;stroke-width:1.0;"/><path d="M953.7188,467.4606 Q953.1406,467.7575 952.5,467.8981 Q951.8594,468.0544 951.1563,468.0544 Q948.6563,468.0544 947.3281,466.4138 Q946.0156,464.7575 946.0156,461.6325 Q946.0156,458.5075 947.3281,456.8513 Q948.6563,455.195 951.1563,455.195 Q951.8594,455.195 952.5,455.3513 Q953.1563,455.5075 953.7188,455.8044 L953.7188,458.5231 Q953.0938,457.945 952.5,457.6794 Q951.9063,457.3981 951.2813,457.3981 Q949.9375,457.3981 949.25,458.4763 Q948.5625,459.5388 948.5625,461.6325 Q948.5625,463.7263 949.25,464.8044 Q949.9375,465.8669 951.2813,465.8669 Q951.9063,465.8669 952.5,465.6013 Q953.0938,465.32 953.7188,464.7419 L953.7188,467.4606 Z " fill="#000000"/><text fill="#000000" font-family="sans-serif" font-size="14" lengthAdjust="spacing" textLength="64" x="971.25" y="466.6667">IPCModel</text><line style="stroke:#181818;stroke-width:0.5;" x1="654" x2="1320" y1="477.82" y2="477.82"/><rect fill="none" height="6" style="stroke:#C82930;stroke-width:1.0;" width="6" x="661" y="488.4684"/><text fill="#000000" font-family="sans-serif" font-size="14" lengthAdjust="spacing" textLength="259" x="673" y="494.8151">model_class: Type[RegressionModel]</text><rect fill="none" height="6" style="stroke:#C82930;stroke-width:1.0;" width="6" x="661" y="504.7653"/><text fill="#000000" font-family="sans-serif" font-size="14" lengthAdjust="spacing" textLength="173" x="673" y="511.112">model: RegressionModel</text><line style="stroke:#181818;stroke-width:0.5;" x1="654" x2="1320" y1="518.4138" y2="518.4138"/><ellipse cx="664" cy="532.0622" fill="#84BE84" rx="3" ry="3" style="stroke:#038048;stroke-width:1.0;"/><text fill="#000000" font-family="sans-serif" font-size="14" lengthAdjust="spacing" textLength="291" x="673" y="535.4089">train(x: np.ndarray, error_prob: np.ndarray)</text><ellipse cx="664" cy="548.3591" fill="#84BE84" rx="3" ry="3" style="stroke:#038048;stroke-width:1.0;"/><text fill="#000000" font-family="sans-serif" font-size="14" lengthAdjust="spacing" textLength="229" x="673" y="551.7057">predict(x: np.ndarray): np.ndarray</text><ellipse cx="664" cy="564.6559" fill="#84BE84" rx="3" ry="3" style="stroke:#038048;stroke-width:1.0;"/><text fill="#000000" font-family="sans-serif" font-size="14" lengthAdjust="spacing" textLength="642" x="673" y="568.0026">evaluate(X: np.ndarray, y: np.ndarray, eval_metrics: List[str], print_results: bool): Dict[str, float]</text></g><!--class APCModel--><g id="elem_APCModel"><rect codeLine="25" fill="#F1F1F1" height="129.4844" id="APCModel" rx="2.5" ry="2.5" style="stroke:#181818;stroke-width:0.5;" width="668" x="1356" y="445.82"/><ellipse cx="1650.75" cy="461.82" fill="#ADD1B2" rx="11" ry="11" style="stroke:#181818;stroke-width:1.0;"/><path d="M1653.7188,467.4606 Q1653.1406,467.7575 1652.5,467.8981 Q1651.8594,468.0544 1651.1563,468.0544 Q1648.6563,468.0544 1647.3281,466.4138 Q1646.0156,464.7575 1646.0156,461.6325 Q1646.0156,458.5075 1647.3281,456.8513 Q1648.6563,455.195 1651.1563,455.195 Q1651.8594,455.195 1652.5,455.3513 Q1653.1563,455.5075 1653.7188,455.8044 L1653.7188,458.5231 Q1653.0938,457.945 1652.5,457.6794 Q1651.9063,457.3981 1651.2813,457.3981 Q1649.9375,457.3981 1649.25,458.4763 Q1648.5625,459.5388 1648.5625,461.6325 Q1648.5625,463.7263 1649.25,464.8044 Q1649.9375,465.8669 1651.2813,465.8669 Q1651.9063,465.8669 1652.5,465.6013 Q1653.0938,465.32 1653.7188,464.7419 L1653.7188,467.4606 Z " fill="#000000"/><text fill="#000000" font-family="sans-serif" font-size="14" lengthAdjust="spacing" textLength="70" x="1671.25" y="466.6667">APCModel</text><line style="stroke:#181818;stroke-width:0.5;" x1="1357" x2="2023" y1="477.82" y2="477.82"/><rect fill="none" height="6" style="stroke:#C82930;stroke-width:1.0;" width="6" x="1364" y="488.4684"/><text fill="#000000" font-family="sans-serif" font-size="14" lengthAdjust="spacing" textLength="258" x="1376" y="494.8151">model: DecisionTreeRegressorModel</text><rect fill="none" height="6" style="stroke:#C82930;stroke-width:1.0;" width="6" x="1364" y="504.7653"/><text fill="#000000" font-family="sans-serif" font-size="14" lengthAdjust="spacing" textLength="283" x="1376" y="511.112">treeRepresentation: TreeRepresentation</text><line style="stroke:#181818;stroke-width:0.5;" x1="1357" x2="2023" y1="518.4138" y2="518.4138"/><ellipse cx="1367" cy="532.0622" fill="#84BE84" rx="3" ry="3" style="stroke:#038048;stroke-width:1.0;"/><text fill="#000000" font-family="sans-serif" font-size="14" lengthAdjust="spacing" textLength="291" x="1376" y="535.4089">train(x: np.ndarray, error_prob: np.ndarray)</text><ellipse cx="1367" cy="548.3591" fill="#84BE84" rx="3" ry="3" style="stroke:#038048;stroke-width:1.0;"/><text fill="#000000" font-family="sans-serif" font-size="14" lengthAdjust="spacing" textLength="479" x="1376" y="551.7057">predict(X: np.ndarray, depth: int, min_samples_ratio: float): np.ndarray</text><ellipse cx="1367" cy="564.6559" fill="#84BE84" rx="3" ry="3" style="stroke:#038048;stroke-width:1.0;"/><text fill="#000000" font-family="sans-serif" font-size="14" lengthAdjust="spacing" textLength="642" x="1376" y="568.0026">evaluate(X: np.ndarray, y: np.ndarray, eval_metrics: List[str], print_results: bool): Dict[str, float]</text></g><!--class MPCModel--><g id="elem_MPCModel"><rect codeLine="33" fill="#F1F1F1" height="96.8906" id="MPCModel" rx="2.5" ry="2.5" style="stroke:#181818;stroke-width:0.5;" width="331" x="1524.5" y="223.04"/><ellipse cx="1649.25" cy="239.04" fill="#ADD1B2" rx="11" ry="11" style="stroke:#181818;stroke-width:1.0;"/><path d="M1652.2188,244.6806 Q1651.6406,244.9775 1651,245.1181 Q1650.3594,245.2744 1649.6563,245.2744 Q1647.1563,245.2744 1645.8281,243.6338 Q1644.5156,241.9775 1644.5156,238.8525 Q1644.5156,235.7275 1645.8281,234.0713 Q1647.1563,232.415 1649.6563,232.415 Q1650.3594,232.415 1651,232.5713 Q1651.6563,232.7275 1652.2188,233.0244 L1652.2188,235.7431 Q1651.5938,235.165 1651,234.8994 Q1650.4063,234.6181 1649.7813,234.6181 Q1648.4375,234.6181 1647.75,235.6963 Q1647.0625,236.7588 1647.0625,238.8525 Q1647.0625,240.9463 1647.75,242.0244 Q1648.4375,243.0869 1649.7813,243.0869 Q1650.4063,243.0869 1651,242.8213 Q1651.5938,242.54 1652.2188,241.9619 L1652.2188,244.6806 Z " fill="#000000"/><text fill="#000000" font-family="sans-serif" font-size="14" lengthAdjust="spacing" textLength="73" x="1669.75" y="243.8867">MPCModel</text><line style="stroke:#181818;stroke-width:0.5;" x1="1525.5" x2="1854.5" y1="255.04" y2="255.04"/><rect fill="none" height="6" style="stroke:#C82930;stroke-width:1.0;" width="6" x="1532.5" y="265.6884"/><text fill="#000000" font-family="sans-serif" font-size="14" lengthAdjust="spacing" textLength="155" x="1544.5" y="272.0351">IPC_values: np.ndarray</text><rect fill="none" height="6" style="stroke:#C82930;stroke-width:1.0;" width="6" x="1532.5" y="281.9853"/><text fill="#000000" font-family="sans-serif" font-size="14" lengthAdjust="spacing" textLength="161" x="1544.5" y="288.332">APC_values: np.ndarray</text><line style="stroke:#181818;stroke-width:0.5;" x1="1525.5" x2="1854.5" y1="295.6338" y2="295.6338"/><ellipse cx="1535.5" cy="309.2822" fill="#84BE84" rx="3" ry="3" style="stroke:#038048;stroke-width:1.0;"/><text fill="#000000" font-family="sans-serif" font-size="14" lengthAdjust="spacing" textLength="305" x="1544.5" y="312.6289">predict(min_samples_ratio: float): np.ndarray</text></g><!--class TreeRepresentation--><g id="elem_TreeRepresentation"><rect codeLine="40" fill="#F1F1F1" height="113.1875" id="TreeRepresentation" rx="2.5" ry="2.5" style="stroke:#181818;stroke-width:0.5;" width="747" x="2181.5" y="644.45"/><ellipse cx="2481.25" cy="660.45" fill="#ADD1B2" rx="11" ry="11" style="stroke:#181818;stroke-width:1.0;"/><path d="M2484.2188,666.0906 Q2483.6406,666.3875 2483,666.5281 Q2482.3594,666.6844 2481.6563,666.6844 Q2479.1563,666.6844 2477.8281,665.0438 Q2476.5156,663.3875 2476.5156,660.2625 Q2476.5156,657.1375 2477.8281,655.4813 Q2479.1563,653.825 2481.6563,653.825 Q2482.3594,653.825 2483,653.9813 Q2483.6563,654.1375 2484.2188,654.4344 L2484.2188,657.1531 Q2483.5938,656.575 2483,656.3094 Q2482.4063,656.0281 2481.7813,656.0281 Q2480.4375,656.0281 2479.75,657.1063 Q2479.0625,658.1688 2479.0625,660.2625 Q2479.0625,662.3563 2479.75,663.4344 Q2480.4375,664.4969 2481.7813,664.4969 Q2482.4063,664.4969 2483,664.2313 Q2483.5938,663.95 2484.2188,663.3719 L2484.2188,666.0906 Z " fill="#000000"/><text fill="#000000" font-family="sans-serif" font-size="14" lengthAdjust="spacing" textLength="139" x="2501.75" y="665.2967">TreeRepresentation</text><line style="stroke:#181818;stroke-width:0.5;" x1="2182.5" x2="2927.5" y1="676.45" y2="676.45"/><rect fill="none" height="6" style="stroke:#C82930;stroke-width:1.0;" width="6" x="2189.5" y="687.0984"/><text fill="#000000" font-family="sans-serif" font-size="14" lengthAdjust="spacing" textLength="85" x="2201.5" y="693.4451">features: list</text><rect fill="none" height="6" style="stroke:#C82930;stroke-width:1.0;" width="6" x="2189.5" y="703.3953"/><text fill="#000000" font-family="sans-serif" font-size="14" lengthAdjust="spacing" textLength="120" x="2201.5" y="709.742">head: _TreeNode</text><line style="stroke:#181818;stroke-width:0.5;" x1="2182.5" x2="2927.5" y1="717.0438" y2="717.0438"/><ellipse cx="2192.5" cy="730.6922" fill="#84BE84" rx="3" ry="3" style="stroke:#038048;stroke-width:1.0;"/><text fill="#000000" font-family="sans-serif" font-size="14" lengthAdjust="spacing" textLength="721" x="2201.5" y="734.0389">build_tree(dtr: DecisionTreeRegressorModel, X: DataFrame, y: Series, node_id: int, path: list): _TreeNode</text><ellipse cx="2192.5" cy="746.9891" fill="#84BE84" rx="3" ry="3" style="stroke:#038048;stroke-width:1.0;"/><text fill="#000000" font-family="sans-serif" font-size="14" lengthAdjust="spacing" textLength="398" x="2201.5" y="750.3357">get_all_profiles(min_ca: float, min_samples_ratio: float): list</text></g><!--class _TreeNode--><g id="elem__TreeNode"><rect codeLine="47" fill="#F1F1F1" height="243.5625" id="_TreeNode" rx="2.5" ry="2.5" style="stroke:#181818;stroke-width:0.5;" width="559" x="2275.5" y="817.64"/><ellipse cx="2512.75" cy="833.64" fill="#ADD1B2" rx="11" ry="11" style="stroke:#181818;stroke-width:1.0;"/><path d="M2515.7188,839.2806 Q2515.1406,839.5775 2514.5,839.7181 Q2513.8594,839.8744 2513.1563,839.8744 Q2510.6563,839.8744 2509.3281,838.2338 Q2508.0156,836.5775 2508.0156,833.4525 Q2508.0156,830.3275 2509.3281,828.6713 Q2510.6563,827.015 2513.1563,827.015 Q2513.8594,827.015 2514.5,827.1713 Q2515.1563,827.3275 2515.7188,827.6244 L2515.7188,830.3431 Q2515.0938,829.765 2514.5,829.4994 Q2513.9063,829.2181 2513.2813,829.2181 Q2511.9375,829.2181 2511.25,830.2963 Q2510.5625,831.3588 2510.5625,833.4525 Q2510.5625,835.5463 2511.25,836.6244 Q2511.9375,837.6869 2513.2813,837.6869 Q2513.9063,837.6869 2514.5,837.4213 Q2515.0938,837.14 2515.7188,836.5619 L2515.7188,839.2806 Z " fill="#000000"/><text fill="#000000" font-family="sans-serif" font-size="14" lengthAdjust="spacing" textLength="76" x="2533.25" y="838.4867">_TreeNode</text><line style="stroke:#181818;stroke-width:0.5;" x1="2276.5" x2="2833.5" y1="849.64" y2="849.64"/><rect fill="none" height="6" style="stroke:#C82930;stroke-width:1.0;" width="6" x="2283.5" y="860.2884"/><text fill="#000000" font-family="sans-serif" font-size="14" lengthAdjust="spacing" textLength="74" x="2295.5" y="866.6351">value: float</text><rect fill="none" height="6" style="stroke:#C82930;stroke-width:1.0;" width="6" x="2283.5" y="876.5853"/><text fill="#000000" font-family="sans-serif" font-size="14" lengthAdjust="spacing" textLength="109" x="2295.5" y="882.932">value_max: float</text><rect fill="none" height="6" style="stroke:#C82930;stroke-width:1.0;" width="6" x="2283.5" y="892.8822"/><text fill="#000000" font-family="sans-serif" font-size="14" lengthAdjust="spacing" textLength="133" x="2295.5" y="899.2289">samples_ratio: float</text><rect fill="none" height="6" style="stroke:#C82930;stroke-width:1.0;" width="6" x="2283.5" y="909.1791"/><text fill="#000000" font-family="sans-serif" font-size="14" lengthAdjust="spacing" textLength="104" x="2295.5" y="915.5257">threshold: float</text><rect fill="none" height="6" style="stroke:#C82930;stroke-width:1.0;" width="6" x="2283.5" y="925.4759"/><text fill="#000000" font-family="sans-serif" font-size="14" lengthAdjust="spacing" textLength="76" x="2295.5" y="931.8226">feature: str</text><rect fill="none" height="6" style="stroke:#C82930;stroke-width:1.0;" width="6" x="2283.5" y="941.7728"/><text fill="#000000" font-family="sans-serif" font-size="14" lengthAdjust="spacing" textLength="94" x="2295.5" y="948.1195">feature_id: int</text><rect fill="none" height="6" style="stroke:#C82930;stroke-width:1.0;" width="6" x="2283.5" y="958.0697"/><text fill="#000000" font-family="sans-serif" font-size="14" lengthAdjust="spacing" textLength="81" x="2295.5" y="964.4164">node_id: int</text><rect fill="none" height="6" style="stroke:#C82930;stroke-width:1.0;" width="6" x="2283.5" y="974.3666"/><text fill="#000000" font-family="sans-serif" font-size="14" lengthAdjust="spacing" textLength="121" x="2295.5" y="980.7132">c_left: _TreeNode</text><rect fill="none" height="6" style="stroke:#C82930;stroke-width:1.0;" width="6" x="2283.5" y="990.6634"/><text fill="#000000" font-family="sans-serif" font-size="14" lengthAdjust="spacing" textLength="131" x="2295.5" y="997.0101">c_right: _TreeNode</text><rect fill="none" height="6" style="stroke:#C82930;stroke-width:1.0;" width="6" x="2283.5" y="1006.9603"/><text fill="#000000" font-family="sans-serif" font-size="14" lengthAdjust="spacing" textLength="59" x="2295.5" y="1013.307">path: list</text><line style="stroke:#181818;stroke-width:0.5;" x1="2276.5" x2="2833.5" y1="1020.6088" y2="1020.6088"/><ellipse cx="2286.5" cy="1034.2572" fill="#84BE84" rx="3" ry="3" style="stroke:#038048;stroke-width:1.0;"/><text fill="#000000" font-family="sans-serif" font-size="14" lengthAdjust="spacing" textLength="533" x="2295.5" y="1037.6039">assign_node(X: DataFrame | Series, depth: int, min_samples_ratio: float): float</text><ellipse cx="2286.5" cy="1050.5541" fill="#84BE84" rx="3" ry="3" style="stroke:#038048;stroke-width:1.0;"/><text fill="#000000" font-family="sans-serif" font-size="14" lengthAdjust="spacing" textLength="369" x="2295.5" y="1053.9007">get_profile(min_samples_ratio: float, min_ca: float): list</text></g><!--class Med3paResults--><g id="elem_Med3paResults"><rect codeLine="62" fill="#F1F1F1" height="178.375" id="Med3paResults" rx="2.5" ry="2.5" style="stroke:#181818;stroke-width:0.5;" width="509" x="1893.5" y="182.29"/><ellipse cx="2089.75" cy="198.29" fill="#ADD1B2" rx="11" ry="11" style="stroke:#181818;stroke-width:1.0;"/><path d="M2092.7188,203.9306 Q2092.1406,204.2275 2091.5,204.3681 Q2090.8594,204.5244 2090.1563,204.5244 Q2087.6563,204.5244 2086.3281,202.8838 Q2085.0156,201.2275 2085.0156,198.1025 Q2085.0156,194.9775 2086.3281,193.3213 Q2087.6563,191.665 2090.1563,191.665 Q2090.8594,191.665 2091.5,191.8213 Q2092.1563,191.9775 2092.7188,192.2744 L2092.7188,194.9931 Q2092.0938,194.415 2091.5,194.1494 Q2090.9063,193.8681 2090.2813,193.8681 Q2088.9375,193.8681 2088.25,194.9463 Q2087.5625,196.0088 2087.5625,198.1025 Q2087.5625,200.1963 2088.25,201.2744 Q2088.9375,202.3369 2090.2813,202.3369 Q2090.9063,202.3369 2091.5,202.0713 Q2092.0938,201.79 2092.7188,201.2119 L2092.7188,203.9306 Z " fill="#000000"/><text fill="#000000" font-family="sans-serif" font-size="14" lengthAdjust="spacing" textLength="108" x="2110.25" y="203.1367">Med3paResults</text><line style="stroke:#181818;stroke-width:0.5;" x1="1894.5" x2="2401.5" y1="214.29" y2="214.29"/><rect fill="none" height="6" style="stroke:#C82930;stroke-width:1.0;" width="6" x="1901.5" y="224.9384"/><text fill="#000000" font-family="sans-serif" font-size="14" lengthAdjust="spacing" textLength="193" x="1913.5" y="231.2851">metrics_by_dr: Dict[int, Dict]</text><rect fill="none" height="6" style="stroke:#C82930;stroke-width:1.0;" width="6" x="1901.5" y="241.2353"/><text fill="#000000" font-family="sans-serif" font-size="14" lengthAdjust="spacing" textLength="208" x="1913.5" y="247.582">profiles_records: Dict[int, Dict]</text><rect fill="none" height="6" style="stroke:#C82930;stroke-width:1.0;" width="6" x="1901.5" y="257.5322"/><text fill="#000000" font-family="sans-serif" font-size="14" lengthAdjust="spacing" textLength="240" x="1913.5" y="263.8789">lost_profiles_records: Dict[int, Dict]</text><rect fill="none" height="6" style="stroke:#C82930;stroke-width:1.0;" width="6" x="1901.5" y="273.8291"/><text fill="#000000" font-family="sans-serif" font-size="14" lengthAdjust="spacing" textLength="227" x="1913.5" y="280.1757">models_evaluation: Dict[str, Dict]</text><line style="stroke:#181818;stroke-width:0.5;" x1="1894.5" x2="2401.5" y1="287.4775" y2="287.4775"/><ellipse cx="1904.5" cy="301.1259" fill="#84BE84" rx="3" ry="3" style="stroke:#038048;stroke-width:1.0;"/><text fill="#000000" font-family="sans-serif" font-size="14" lengthAdjust="spacing" textLength="431" x="1913.5" y="304.4726">set_metrics_by_dr(samples_ratio: int, metrics_by_dr: Dict): void</text><ellipse cx="1904.5" cy="317.4228" fill="#84BE84" rx="3" ry="3" style="stroke:#038048;stroke-width:1.0;"/><text fill="#000000" font-family="sans-serif" font-size="14" lengthAdjust="spacing" textLength="467" x="1913.5" y="320.7695">set_profiles(samples_ratio: int, profiles: Dict, lost_profiles: Dict): void</text><ellipse cx="1904.5" cy="333.7197" fill="#84BE84" rx="3" ry="3" style="stroke:#038048;stroke-width:1.0;"/><text fill="#000000" font-family="sans-serif" font-size="14" lengthAdjust="spacing" textLength="483" x="1913.5" y="337.0664">set_models_evaluation(ipc_evaluation: Dict, apc_evaluation: Dict): void</text><ellipse cx="1904.5" cy="350.0166" fill="#84BE84" rx="3" ry="3" style="stroke:#038048;stroke-width:1.0;"/><text fill="#000000" font-family="sans-serif" font-size="14" lengthAdjust="spacing" textLength="163" x="1913.5" y="353.3632">save(file_path: str): void</text></g><!--class Med3paExperiment--><g id="elem_Med3paExperiment"><rect codeLine="73" fill="#F1F1F1" height="64.2969" id="Med3paExperiment" rx="2.5" ry="2.5" style="stroke:#181818;stroke-width:0.5;" width="302" x="1997" y="41"/><ellipse cx="2076.75" cy="57" fill="#ADD1B2" rx="11" ry="11" style="stroke:#181818;stroke-width:1.0;"/><path d="M2079.7188,62.6406 Q2079.1406,62.9375 2078.5,63.0781 Q2077.8594,63.2344 2077.1563,63.2344 Q2074.6563,63.2344 2073.3281,61.5938 Q2072.0156,59.9375 2072.0156,56.8125 Q2072.0156,53.6875 2073.3281,52.0313 Q2074.6563,50.375 2077.1563,50.375 Q2077.8594,50.375 2078.5,50.5313 Q2079.1563,50.6875 2079.7188,50.9844 L2079.7188,53.7031 Q2079.0938,53.125 2078.5,52.8594 Q2077.9063,52.5781 2077.2813,52.5781 Q2075.9375,52.5781 2075.25,53.6563 Q2074.5625,54.7188 2074.5625,56.8125 Q2074.5625,58.9063 2075.25,59.9844 Q2075.9375,61.0469 2077.2813,61.0469 Q2077.9063,61.0469 2078.5,60.7813 Q2079.0938,60.5 2079.7188,59.9219 L2079.7188,62.6406 Z " fill="#000000"/><text fill="#000000" font-family="sans-serif" font-size="14" lengthAdjust="spacing" textLength="134" x="2097.25" y="61.8467">Med3paExperiment</text><line style="stroke:#181818;stroke-width:0.5;" x1="1998" x2="2298" y1="73" y2="73"/><line style="stroke:#181818;stroke-width:0.5;" x1="1998" x2="2298" y1="81" y2="81"/><ellipse cx="2008" cy="94.6484" fill="#84BE84" rx="3" ry="3" style="stroke:#038048;stroke-width:1.0;"/><text fill="#000000" font-family="sans-serif" font-size="14" lengthAdjust="spacing" textLength="276" x="2017" y="97.9951">run():Tuple[np.ndarray, Med3paResults]</text></g><!--class Med3paDetectronResults--><g id="elem_Med3paDetectronResults"><rect codeLine="77" fill="#F1F1F1" height="145.7813" id="Med3paDetectronResults" rx="2.5" ry="2.5" style="stroke:#181818;stroke-width:0.5;" width="1007" x="2059.5" y="437.67"/><ellipse cx="2469.75" cy="453.67" fill="#ADD1B2" rx="11" ry="11" style="stroke:#181818;stroke-width:1.0;"/><path d="M2472.7188,459.3106 Q2472.1406,459.6075 2471.5,459.7481 Q2470.8594,459.9044 2470.1563,459.9044 Q2467.6563,459.9044 2466.3281,458.2638 Q2465.0156,456.6075 2465.0156,453.4825 Q2465.0156,450.3575 2466.3281,448.7013 Q2467.6563,447.045 2470.1563,447.045 Q2470.8594,447.045 2471.5,447.2013 Q2472.1563,447.3575 2472.7188,447.6544 L2472.7188,450.3731 Q2472.0938,449.795 2471.5,449.5294 Q2470.9063,449.2481 2470.2813,449.2481 Q2468.9375,449.2481 2468.25,450.3263 Q2467.5625,451.3888 2467.5625,453.4825 Q2467.5625,455.5763 2468.25,456.6544 Q2468.9375,457.7169 2470.2813,457.7169 Q2470.9063,457.7169 2471.5,457.4513 Q2472.0938,457.17 2472.7188,456.5919 L2472.7188,459.3106 Z " fill="#000000"/><text fill="#000000" font-family="sans-serif" font-size="14" lengthAdjust="spacing" textLength="178" x="2490.25" y="458.5167">Med3paDetectronResults</text><line style="stroke:#181818;stroke-width:0.5;" x1="2060.5" x2="3065.5" y1="469.67" y2="469.67"/><rect fill="none" height="6" style="stroke:#C82930;stroke-width:1.0;" width="6" x="2067.5" y="480.3184"/><text fill="#000000" font-family="sans-serif" font-size="14" lengthAdjust="spacing" textLength="220" x="2079.5" y="486.6651">detectron_res: DetectronResult</text><rect fill="none" height="6" style="stroke:#C82930;stroke-width:1.0;" width="6" x="2067.5" y="496.6153"/><text fill="#000000" font-family="sans-serif" font-size="14" lengthAdjust="spacing" textLength="248" x="2079.5" y="502.962">med3pa_reference: Med3paResults</text><rect fill="none" height="6" style="stroke:#C82930;stroke-width:1.0;" width="6" x="2067.5" y="512.9122"/><text fill="#000000" font-family="sans-serif" font-size="14" lengthAdjust="spacing" textLength="229" x="2079.5" y="519.2589">med3pa_testing: Med3paResults</text><rect fill="none" height="6" style="stroke:#C82930;stroke-width:1.0;" width="6" x="2067.5" y="529.2091"/><text fill="#000000" font-family="sans-serif" font-size="14" lengthAdjust="spacing" textLength="161" x="2079.5" y="535.5557">detectron_profiles: Dict</text><line style="stroke:#181818;stroke-width:0.5;" x1="2060.5" x2="3065.5" y1="542.8575" y2="542.8575"/><ellipse cx="2070.5" cy="556.5059" fill="#84BE84" rx="3" ry="3" style="stroke:#038048;stroke-width:1.0;"/><text fill="#000000" font-family="sans-serif" font-size="14" lengthAdjust="spacing" textLength="981" x="2079.5" y="559.8526">set_results(detectron_results: DetectronResult, med3pa_ref: Med3paResults, med3pa_testing: Med3paResults, detectron_profiles: Dict): void</text><ellipse cx="2070.5" cy="572.8028" fill="#84BE84" rx="3" ry="3" style="stroke:#038048;stroke-width:1.0;"/><text fill="#000000" font-family="sans-serif" font-size="14" lengthAdjust="spacing" textLength="163" x="2079.5" y="576.1495">save(file_path: str): void</text></g><!--class Med3paDetectron--><g id="elem_Med3paDetectron"><rect codeLine="86" fill="#F1F1F1" height="80.5938" id="Med3paDetectron" rx="2.5" ry="2.5" style="stroke:#181818;stroke-width:0.5;" width="246" x="2438" y="231.18"/><ellipse cx="2493.75" cy="247.18" fill="#ADD1B2" rx="11" ry="11" style="stroke:#181818;stroke-width:1.0;"/><path d="M2496.7188,252.8206 Q2496.1406,253.1175 2495.5,253.2581 Q2494.8594,253.4144 2494.1563,253.4144 Q2491.6563,253.4144 2490.3281,251.7738 Q2489.0156,250.1175 2489.0156,246.9925 Q2489.0156,243.8675 2490.3281,242.2113 Q2491.6563,240.555 2494.1563,240.555 Q2494.8594,240.555 2495.5,240.7113 Q2496.1563,240.8675 2496.7188,241.1644 L2496.7188,243.8831 Q2496.0938,243.305 2495.5,243.0394 Q2494.9063,242.7581 2494.2813,242.7581 Q2492.9375,242.7581 2492.25,243.8363 Q2491.5625,244.8988 2491.5625,246.9925 Q2491.5625,249.0863 2492.25,250.1644 Q2492.9375,251.2269 2494.2813,251.2269 Q2494.9063,251.2269 2495.5,250.9613 Q2496.0938,250.68 2496.7188,250.1019 L2496.7188,252.8206 Z " fill="#000000"/><text fill="#000000" font-family="sans-serif" font-size="14" lengthAdjust="spacing" textLength="126" x="2514.25" y="252.0267">Med3paDetectron</text><line style="stroke:#181818;stroke-width:0.5;" x1="2439" x2="2683" y1="263.18" y2="263.18"/><line style="stroke:#181818;stroke-width:0.5;" x1="2439" x2="2683" y1="271.18" y2="271.18"/><ellipse cx="2449" cy="284.8284" fill="#84BE84" rx="3" ry="3" style="stroke:#038048;stroke-width:1.0;"/><text fill="#000000" font-family="sans-serif" font-size="14" lengthAdjust="spacing" textLength="194" x="2458" y="288.1751">detectron_by_profiles(): Dict</text><ellipse cx="2449" cy="301.1253" fill="#84BE84" rx="3" ry="3" style="stroke:#038048;stroke-width:1.0;"/><text fill="#000000" font-family="sans-serif" font-size="14" lengthAdjust="spacing" textLength="220" x="2458" y="304.472">run(): Med3paDetectronResults</text></g><!--class ProfilesManager--><g id="elem_ProfilesManager"><rect fill="#F1F1F1" height="48" id="ProfilesManager" rx="2.5" ry="2.5" style="stroke:#181818;stroke-width:0.5;" width="142" x="3219" y="486.56"/><ellipse cx="3234" cy="502.56" fill="#ADD1B2" rx="11" ry="11" style="stroke:#181818;stroke-width:1.0;"/><path d="M3236.9688,508.2006 Q3236.3906,508.4975 3235.75,508.6381 Q3235.1094,508.7944 3234.4063,508.7944 Q3231.9063,508.7944 3230.5781,507.1538 Q3229.2656,505.4975 3229.2656,502.3725 Q3229.2656,499.2475 3230.5781,497.5913 Q3231.9063,495.935 3234.4063,495.935 Q3235.1094,495.935 3235.75,496.0913 Q3236.4063,496.2475 3236.9688,496.5444 L3236.9688,499.2631 Q3236.3438,498.685 3235.75,498.4194 Q3235.1563,498.1381 3234.5313,498.1381 Q3233.1875,498.1381 3232.5,499.2163 Q3231.8125,500.2788 3231.8125,502.3725 Q3231.8125,504.4663 3232.5,505.5444 Q3233.1875,506.6069 3234.5313,506.6069 Q3235.1563,506.6069 3235.75,506.3413 Q3236.3438,506.06 3236.9688,505.4819 L3236.9688,508.2006 Z " fill="#000000"/><text fill="#000000" font-family="sans-serif" font-size="14" lengthAdjust="spacing" textLength="110" x="3248" y="507.4067">ProfilesManager</text><line style="stroke:#181818;stroke-width:0.5;" x1="3220" x2="3360" y1="518.56" y2="518.56"/><line style="stroke:#181818;stroke-width:0.5;" x1="3220" x2="3360" y1="526.56" y2="526.56"/></g><!--class Profile--><g id="elem_Profile"><rect fill="#F1F1F1" height="48" id="Profile" rx="2.5" ry="2.5" style="stroke:#181818;stroke-width:0.5;" width="74" x="3253" y="677.04"/><ellipse cx="3268" cy="693.04" fill="#ADD1B2" rx="11" ry="11" style="stroke:#181818;stroke-width:1.0;"/><path d="M3270.9688,698.6806 Q3270.3906,698.9775 3269.75,699.1181 Q3269.1094,699.2744 3268.4063,699.2744 Q3265.9063,699.2744 3264.5781,697.6338 Q3263.2656,695.9775 3263.2656,692.8525 Q3263.2656,689.7275 3264.5781,688.0713 Q3265.9063,686.415 3268.4063,686.415 Q3269.1094,686.415 3269.75,686.5713 Q3270.4063,686.7275 3270.9688,687.0244 L3270.9688,689.7431 Q3270.3438,689.165 3269.75,688.8994 Q3269.1563,688.6181 3268.5313,688.6181 Q3267.1875,688.6181 3266.5,689.6963 Q3265.8125,690.7588 3265.8125,692.8525 Q3265.8125,694.9463 3266.5,696.0244 Q3267.1875,697.0869 3268.5313,697.0869 Q3269.1563,697.0869 3269.75,696.8213 Q3270.3438,696.54 3270.9688,695.9619 L3270.9688,698.6806 Z " fill="#000000"/><text fill="#000000" font-family="sans-serif" font-size="14" lengthAdjust="spacing" textLength="42" x="3282" y="697.8867">Profile</text><line style="stroke:#181818;stroke-width:0.5;" x1="3254" x2="3326" y1="709.04" y2="709.04"/><line style="stroke:#181818;stroke-width:0.5;" x1="3254" x2="3326" y1="717.04" y2="717.04"/></g><!--class MDRCalculator--><g id="elem_MDRCalculator"><rect fill="#F1F1F1" height="48" id="MDRCalculator" rx="2.5" ry="2.5" style="stroke:#181818;stroke-width:0.5;" width="133" x="3069.5" y="247.48"/><ellipse cx="3084.5" cy="263.48" fill="#ADD1B2" rx="11" ry="11" style="stroke:#181818;stroke-width:1.0;"/><path d="M3087.4688,269.1206 Q3086.8906,269.4175 3086.25,269.5581 Q3085.6094,269.7144 3084.9063,269.7144 Q3082.4063,269.7144 3081.0781,268.0738 Q3079.7656,266.4175 3079.7656,263.2925 Q3079.7656,260.1675 3081.0781,258.5113 Q3082.4063,256.855 3084.9063,256.855 Q3085.6094,256.855 3086.25,257.0113 Q3086.9063,257.1675 3087.4688,257.4644 L3087.4688,260.1831 Q3086.8438,259.605 3086.25,259.3394 Q3085.6563,259.0581 3085.0313,259.0581 Q3083.6875,259.0581 3083,260.1363 Q3082.3125,261.1988 3082.3125,263.2925 Q3082.3125,265.3863 3083,266.4644 Q3083.6875,267.5269 3085.0313,267.5269 Q3085.6563,267.5269 3086.25,267.2613 Q3086.8438,266.98 3087.4688,266.4019 L3087.4688,269.1206 Z " fill="#000000"/><text fill="#000000" font-family="sans-serif" font-size="14" lengthAdjust="spacing" textLength="101" x="3098.5" y="268.3267">MDRCalculator</text><line style="stroke:#181818;stroke-width:0.5;" x1="3070.5" x2="3201.5" y1="279.48" y2="279.48"/><line style="stroke:#181818;stroke-width:0.5;" x1="3070.5" x2="3201.5" y1="287.48" y2="287.48"/></g><!--link MPCModel to IPCModel--><g id="link_MPCModel_IPCModel"><path codeLine="92" d="M1548.16,320.31 C1441.47,356.29 1299.8654,404.0527 1182.9454,443.4827 " fill="none" id="MPCModel-to-IPCModel" style="stroke:#181818;stroke-width:1.0;stroke-dasharray:7.0,7.0;"/><polygon fill="#181818" points="1177.26,445.4,1187.0663,446.3143,1181.9978,443.8022,1184.5099,438.7337,1177.26,445.4" style="stroke:#181818;stroke-width:1.0;"/><text fill="#000000" font-family="sans-serif" font-size="13" lengthAdjust="spacing" textLength="46" x="1339" y="403.7369">&#171;uses&#187;</text></g><!--link MPCModel to APCModel--><g id="link_MPCModel_APCModel"><path codeLine="93" d="M1690,320.17 C1690,356.14 1690,399.85 1690,439.32 " fill="none" id="MPCModel-to-APCModel" style="stroke:#181818;stroke-width:1.0;stroke-dasharray:7.0,7.0;"/><polygon fill="#181818" points="1690,445.32,1694,436.32,1690,440.32,1686,436.32,1690,445.32" style="stroke:#181818;stroke-width:1.0;"/><text fill="#000000" font-family="sans-serif" font-size="13" lengthAdjust="spacing" textLength="46" x="1691" y="403.7369">&#171;uses&#187;</text></g><!--reverse link UncertaintyMetric to AbsoluteError--><g id="link_UncertaintyMetric_AbsoluteError"><path codeLine="94" d="M320,561.11 C320,596.01 320,633.89 320,668.71 " fill="none" id="UncertaintyMetric-backto-AbsoluteError" style="stroke:#181818;stroke-width:1.0;"/><polygon fill="none" points="320,543.11,314,561.11,326,561.11,320,543.11" style="stroke:#181818;stroke-width:1.0;"/></g><!--reverse link UncertaintyCalculator to UncertaintyMetric--><g id="link_UncertaintyCalculator_UncertaintyMetric"><path codeLine="95" d="M672.478,317.8929 C586.788,364.4929 456.92,435.11 378.19,477.92 " fill="none" id="UncertaintyCalculator-backto-UncertaintyMetric" style="stroke:#181818;stroke-width:1.0;"/><polygon fill="#181818" points="683.02,312.16,675.838,311.5125,672.478,317.8929,679.66,318.5405,683.02,312.16" style="stroke:#181818;stroke-width:1.0;"/></g><!--reverse link APCModel to TreeRepresentation--><g id="link_APCModel_TreeRepresentation"><path codeLine="96" d="M1996.3849,578.3246 C2098.0949,600.4846 2199.45,622.57 2297.91,644.02 " fill="none" id="APCModel-backto-TreeRepresentation" style="stroke:#181818;stroke-width:1.0;"/><polygon fill="#181818" points="1984.66,575.77,1989.6709,580.9556,1996.3849,578.3246,1991.374,573.139,1984.66,575.77" style="stroke:#181818;stroke-width:1.0;"/></g><!--reverse link TreeRepresentation to _TreeNode--><g id="link_TreeRepresentation__TreeNode"><path codeLine="97" d="M2555,770.06 C2555,787.95 2555,796.49 2555,817.15 " fill="none" id="TreeRepresentation-backto-_TreeNode" style="stroke:#181818;stroke-width:1.0;"/><polygon fill="#181818" points="2555,758.06,2551,764.06,2555,770.06,2559,764.06,2555,758.06" style="stroke:#181818;stroke-width:1.0;"/></g><!--reverse link ProfilesManager to Profile--><g id="link_ProfilesManager_Profile"><path codeLine="98" d="M3290,547.05 C3290,583.27 3290,640.34 3290,676.55 " fill="none" id="ProfilesManager-backto-Profile" style="stroke:#181818;stroke-width:1.0;"/><polygon fill="#181818" points="3290,535.05,3286,541.05,3290,547.05,3294,541.05,3290,535.05" style="stroke:#181818;stroke-width:1.0;"/><text fill="#000000" font-family="sans-serif" font-size="13" lengthAdjust="spacing" textLength="7" x="3282.1469" y="665.8355">*</text></g><!--link MDRCalculator to ProfilesManager--><g id="link_MDRCalculator_ProfilesManager"><path codeLine="99" d="M3151.05,295.64 C3180.49,340.97 3242.1316,435.8683 3271.6216,481.2683 " fill="none" id="MDRCalculator-to-ProfilesManager" style="stroke:#181818;stroke-width:1.0;stroke-dasharray:7.0,7.0;"/><polygon fill="#181818" points="3274.89,486.3,3273.3419,476.5736,3272.1664,482.1069,3266.633,480.9314,3274.89,486.3" style="stroke:#181818;stroke-width:1.0;"/><text fill="#000000" font-family="sans-serif" font-size="13" lengthAdjust="spacing" textLength="46" x="3223" y="403.7369">&#171;uses&#187;</text></g><!--link MDRCalculator to TreeRepresentation--><g id="link_MDRCalculator_TreeRepresentation"><path codeLine="100" d="M3139.95,295.74 C3148.26,353.09 3160.91,502.49 3084,583.45 C3058.62,610.17 3005.0278,630.0745 2934.7878,646.7445 " fill="none" id="MDRCalculator-to-TreeRepresentation" style="stroke:#181818;stroke-width:1.0;stroke-dasharray:7.0,7.0;"/><polygon fill="#181818" points="2928.95,648.13,2938.6304,649.9437,2933.8149,646.9754,2936.7831,642.1599,2928.95,648.13" style="stroke:#181818;stroke-width:1.0;"/><text fill="#000000" font-family="sans-serif" font-size="13" lengthAdjust="spacing" textLength="46" x="3144" y="515.1269">&#171;uses&#187;</text></g><!--link Med3paExperiment to Med3paResults--><g id="link_Med3paExperiment_Med3paResults"><path codeLine="101" d="M2148,105.69 C2148,126.5 2148,148.88 2148,176.22 " fill="none" id="Med3paExperiment-to-Med3paResults" style="stroke:#181818;stroke-width:1.0;stroke-dasharray:7.0,7.0;"/><polygon fill="#181818" points="2148,182.22,2152,173.22,2148,177.22,2144,173.22,2148,182.22" style="stroke:#181818;stroke-width:1.0;"/><text fill="#000000" font-family="sans-serif" font-size="13" lengthAdjust="spacing" textLength="62" x="2149" y="148.3569">&#171;returns&#187;</text></g><!--link Med3paDetectron to Med3paDetectronResults--><g id="link_Med3paDetectron_Med3paDetectronResults"><path codeLine="102" d="M2561.33,312.16 C2561.62,346.3 2562.0005,390.4202 2562.3405,431.6002 " fill="none" id="Med3paDetectron-to-Med3paDetectronResults" style="stroke:#181818;stroke-width:1.0;stroke-dasharray:7.0,7.0;"/><polygon fill="#181818" points="2562.39,437.6,2566.3156,428.5673,2562.3487,432.6002,2558.3158,428.6333,2562.39,437.6" style="stroke:#181818;stroke-width:1.0;"/><text fill="#000000" font-family="sans-serif" font-size="13" lengthAdjust="spacing" textLength="62" x="2563" y="403.7369">&#171;returns&#187;</text></g><!--link Med3paExperiment to MPCModel--><g id="link_Med3paExperiment_MPCModel"><path codeLine="103" d="M2064.4,105.78 C2010.3,126.65 1938.55,155.06 1876,182.29 C1847.16,194.85 1821.5999,206.6162 1793.3399,220.0362 " fill="none" id="Med3paExperiment-to-MPCModel" style="stroke:#181818;stroke-width:1.0;stroke-dasharray:7.0,7.0;"/><polygon fill="#181818" points="1787.92,222.61,1797.7657,222.3626,1792.4366,220.4652,1794.334,215.136,1787.92,222.61" style="stroke:#181818;stroke-width:1.0;"/><text fill="#000000" font-family="sans-serif" font-size="13" lengthAdjust="spacing" textLength="46" x="1988" y="148.3569">&#171;uses&#187;</text></g><!--link Med3paExperiment to MDRCalculator--><g id="link_Med3paExperiment_MDRCalculator"><path codeLine="104" d="M2299.43,103.38 C2410.82,124.97 2565.89,155.18 2702,182.29 C2832.07,208.2 2978.0325,238.0336 3063.2425,255.5236 " fill="none" id="Med3paExperiment-to-MDRCalculator" style="stroke:#181818;stroke-width:1.0;stroke-dasharray:7.0,7.0;"/><polygon fill="#181818" points="3069.12,256.73,3061.1081,251.0021,3064.2221,255.7247,3059.4995,258.8387,3069.12,256.73" style="stroke:#181818;stroke-width:1.0;"/><text fill="#000000" font-family="sans-serif" font-size="13" lengthAdjust="spacing" textLength="46" x="2550" y="148.3569">&#171;uses&#187;</text></g><!--link Med3paExperiment to UncertaintyCalculator--><g id="link_Med3paExperiment_UncertaintyCalculator"><path codeLine="105" d="M1996.71,95.48 C1767.31,127.84 1333.5312,189.022 1043.9712,229.862 " fill="none" id="Med3paExperiment-to-UncertaintyCalculator" style="stroke:#181818;stroke-width:1.0;stroke-dasharray:7.0,7.0;"/><polygon fill="#181818" points="1038.03,230.7,1047.5004,233.4039,1042.981,230.0017,1046.3832,225.4823,1038.03,230.7" style="stroke:#181818;stroke-width:1.0;"/><text fill="#000000" font-family="sans-serif" font-size="13" lengthAdjust="spacing" textLength="46" x="1698" y="148.3569">&#171;uses&#187;</text></g><!--reverse link Med3paExperiment to Med3paDetectron--><g id="link_Med3paExperiment_Med3paDetectron"><path codeLine="106" d="M2256.115,111.9297 C2309.795,131.6597 2361.51,152.68 2420,182.29 C2448.08,196.51 2477.81,214.61 2502.69,230.7 " fill="none" id="Med3paExperiment-backto-Med3paDetectron" style="stroke:#181818;stroke-width:1.0;"/><polygon fill="none" points="2239.22,105.72,2254.045,117.5614,2258.1849,106.2981,2239.22,105.72" style="stroke:#181818;stroke-width:1.0;"/></g><!--SRC=[pLTDQnin4BtdLuXSQZTsBhqj8H3Y50fr2MaAXH24l3ksHMNj8cb3J9F_tj5A-o6jd0H2e0U3FNhIlFTczE6AvN_O1iZn4eel5IC_wrNbGiVaxn4XdyW2rbm2OIjj5CiDoGNJ6ZIEXI7oI-QW3EFIx9TW5C-R1GZvs-AUoKdEH5uBPc3oc15PdSg2ASNsCr8fA7XkeA2LAbVXs9uQLSCmDXt-m2JF-1cIpKkPAp0m8EiuNgnqAMe3LqgLolFxO58ZSovzkex0VDVObOqTZFZHkWTy8DTlrvVBiW3HqRC_Q3EMaTjz1NSti56WDIzb0xmVu38I3JeDs01Snfp1Lc74T-fcU47Xd9Wtuk21YTeMxtSaEig5CEgCHXNVkJPts9NtrZYqaoBZMXWSMPMbm2mBJ6q1Cx8M9JFtiKSNAOzm6kJSAhzL0Dw7KlKsp4qJHsaQf646aUZeAFPUoo8d2gZCDYCeSqPsN5BDTfK0JPLDbZc1_usnoyXOR4PgYO0UCPnV71xhl7YhuFW8CLj8L8OmMJJX7yXnTBeay5x56fYfbUKfq20Nsm8hCaBRrHpjLSr5GMsRJ0gZNcge6S6wB9XXNnNRGLEMdw0uw1cHE4vvuKjUCLjzctSwIhS1GvaGjg7M72rgxCgPz-Z5Tl52Wk9rgxUwc-huEOC8tR7789hAuNVC5ZLlIr44KUzdHh2JWaWhsmM7HhX8JWMiJUm3XXNVRCVntZld5uha6qdjkfEX_UIfC_-DkwqNqnJ15-1WkxgrkieSyDzTuZTkouMtYwQhFIsKtu0DE_lD7zrj_N6xvgKgz06OA7L7zJLiSo9gwa-HvgJhztwFEz6eFg0uYVGx9ySYq8E7aXVzAbqJfnPe1ztS6Gca75Xm9672gtoaQ4PO8XeknXvWOZDHrr3eGJ-UgE3LOuNTjCDJf7sZg5fEfjbjZRhkXgTlKF7xz6eBV0dbHfKoQeoYZTFcP8fWRVFO5H2m1WNu-iZ2Z078W3PSRfAGFbVeUM-sloWc0IjtTKJCR3UqhA9atL2QYzsTQHxlAbV7hwrMdmNxjMlBwL2oA-Y12YNk8mMYwIwzvPKTx-x9qzFp_iMMaREp6g-ay_COSf64ZD_iPq_pUVXC3c63r-jdHAQUh5qg2qY-RX8NfSKE3zzhxzgIIVmpuf8TVpxsOQjkSJFWOYN6Kq8pHl04YN16l1NjfF24jNZydr4hEPpIjqC_OxG7qrFZREcw9g61ljVnwPA-FA_fZKZFqVC_]--></g></svg>