<svg xmlns="http://www.w3.org/2000/svg" xmlns:xlink="http://www.w3.org/1999/xlink" contentStyleType="text/css" height="1057px" preserveAspectRatio="none" style="width:2291px;height:1057px;background:#FFFFFF;" version="1.1" viewBox="0 0 2291 1057" width="2291px" zoomAndPan="magnify"><defs/><g><!--cluster models subpackage--><g id="cluster_models subpackage"><path d="M8.5,6 L166.5,6 A3.75,3.75 0 0 1 169,8.5 L176,28.2969 L2281.5,28.2969 A2.5,2.5 0 0 1 2284,30.7969 L2284,1048.19 A2.5,2.5 0 0 1 2281.5,1050.69 L8.5,1050.69 A2.5,2.5 0 0 1 6,1048.19 L6,8.5 A2.5,2.5 0 0 1 8.5,6 " fill="none" style="stroke:#000000;stroke-width:1.5;"/><line style="stroke:#000000;stroke-width:1.5;" x1="6" x2="176" y1="28.2969" y2="28.2969"/><text fill="#000000" font-family="sans-serif" font-size="14" font-weight="bold" lengthAdjust="spacing" textLength="157" x="10" y="20.9951">models subpackage</text></g><!--class EvaluationMetric--><g id="elem_EvaluationMetric"><rect codeLine="3" fill="#F1F1F1" height="80.5938" id="EvaluationMetric" rx="2.5" ry="2.5" style="stroke:#181818;stroke-width:0.5;" width="320" x="46" y="625.09"/><ellipse cx="145.75" cy="641.09" fill="#A9DCDF" rx="11" ry="11" style="stroke:#181818;stroke-width:1.0;"/><path d="M145.8594,636.4338 L144.7031,641.5119 L147.0313,641.5119 L145.8594,636.4338 Z M144.375,634.1994 L147.3594,634.1994 L150.7188,646.59 L148.2656,646.59 L147.5,643.5275 L144.2188,643.5275 L143.4688,646.59 L141.0313,646.59 L144.375,634.1994 Z " fill="#000000"/><text fill="#000000" font-family="sans-serif" font-size="14" font-style="italic" lengthAdjust="spacing" textLength="112" x="166.25" y="645.9367">EvaluationMetric</text><line style="stroke:#181818;stroke-width:0.5;" x1="47" x2="365" y1="657.09" y2="657.09"/><line style="stroke:#181818;stroke-width:0.5;" x1="47" x2="365" y1="665.09" y2="665.09"/><ellipse cx="57" cy="678.7384" fill="#84BE84" rx="3" ry="3" style="stroke:#038048;stroke-width:1.0;"/><text fill="#000000" font-family="sans-serif" font-size="14" lengthAdjust="spacing" textLength="294" x="66" y="682.0851">get_metric(metric_name: str = '') : function</text><ellipse cx="57" cy="695.0353" fill="#84BE84" rx="3" ry="3" style="stroke:#038048;stroke-width:1.0;"/><text fill="#000000" font-family="sans-serif" font-size="14" lengthAdjust="spacing" textLength="204" x="66" y="698.382">supported_metrics() : List[str]</text></g><!--class ClassificationEvaluationMetrics--><g id="elem_ClassificationEvaluationMetrics"><rect codeLine="9" fill="#F1F1F1" height="259.8594" id="ClassificationEvaluationMetrics" rx="2.5" ry="2.5" style="stroke:#181818;stroke-width:0.5;" width="417" x="22.5" y="774.83"/><ellipse cx="122.25" cy="790.83" fill="#ADD1B2" rx="11" ry="11" style="stroke:#181818;stroke-width:1.0;"/><path d="M125.2188,796.4706 Q124.6406,796.7675 124,796.9081 Q123.3594,797.0644 122.6563,797.0644 Q120.1563,797.0644 118.8281,795.4238 Q117.5156,793.7675 117.5156,790.6425 Q117.5156,787.5175 118.8281,785.8613 Q120.1563,784.205 122.6563,784.205 Q123.3594,784.205 124,784.3613 Q124.6563,784.5175 125.2188,784.8144 L125.2188,787.5331 Q124.5938,786.955 124,786.6894 Q123.4063,786.4081 122.7813,786.4081 Q121.4375,786.4081 120.75,787.4863 Q120.0625,788.5488 120.0625,790.6425 Q120.0625,792.7363 120.75,793.8144 Q121.4375,794.8769 122.7813,794.8769 Q123.4063,794.8769 124,794.6113 Q124.5938,794.33 125.2188,793.7519 L125.2188,796.4706 Z " fill="#000000"/><text fill="#000000" font-family="sans-serif" font-size="14" lengthAdjust="spacing" textLength="209" x="142.75" y="795.6767">ClassificationEvaluationMetrics</text><line style="stroke:#181818;stroke-width:0.5;" x1="23.5" x2="438.5" y1="806.83" y2="806.83"/><line style="stroke:#181818;stroke-width:0.5;" x1="23.5" x2="438.5" y1="814.83" y2="814.83"/><ellipse cx="33.5" cy="828.4784" fill="#84BE84" rx="3" ry="3" style="stroke:#038048;stroke-width:1.0;"/><text fill="#000000" font-family="sans-serif" font-size="14" lengthAdjust="spacing" textLength="316" x="42.5" y="831.8251">accuracy(y_true, y_pred, sample_weight) :float</text><ellipse cx="33.5" cy="844.7753" fill="#84BE84" rx="3" ry="3" style="stroke:#038048;stroke-width:1.0;"/><text fill="#000000" font-family="sans-serif" font-size="14" lengthAdjust="spacing" textLength="295" x="42.5" y="848.122">recall(y_true, y_pred, sample_weight) : float</text><ellipse cx="33.5" cy="861.0722" fill="#84BE84" rx="3" ry="3" style="stroke:#038048;stroke-width:1.0;"/><text fill="#000000" font-family="sans-serif" font-size="14" lengthAdjust="spacing" textLength="313" x="42.5" y="864.4189">roc_auc(y_true, y_pred, sample_weight) : float</text><ellipse cx="33.5" cy="877.3691" fill="#84BE84" rx="3" ry="3" style="stroke:#038048;stroke-width:1.0;"/><text fill="#000000" font-family="sans-serif" font-size="14" lengthAdjust="spacing" textLength="384" x="42.5" y="880.7157">average_precision(y_true, y_pred, sample_weight) : float</text><ellipse cx="33.5" cy="893.6659" fill="#84BE84" rx="3" ry="3" style="stroke:#038048;stroke-width:1.0;"/><text fill="#000000" font-family="sans-serif" font-size="14" lengthAdjust="spacing" textLength="391" x="42.5" y="897.0126">matthews_corrcoef(y_true, y_pred, sample_weight) : float</text><ellipse cx="33.5" cy="909.9628" fill="#84BE84" rx="3" ry="3" style="stroke:#038048;stroke-width:1.0;"/><text fill="#000000" font-family="sans-serif" font-size="14" lengthAdjust="spacing" textLength="322" x="42.5" y="913.3095">precision(y_true, y_pred, sample_weight) : float</text><ellipse cx="33.5" cy="926.2597" fill="#84BE84" rx="3" ry="3" style="stroke:#038048;stroke-width:1.0;"/><text fill="#000000" font-family="sans-serif" font-size="14" lengthAdjust="spacing" textLength="318" x="42.5" y="929.6064">f1_score(y_true, y_pred, sample_weight) : float</text><ellipse cx="33.5" cy="942.5566" fill="#84BE84" rx="3" ry="3" style="stroke:#038048;stroke-width:1.0;"/><text fill="#000000" font-family="sans-serif" font-size="14" lengthAdjust="spacing" textLength="326" x="42.5" y="945.9032">sensitivity(y_true, y_pred, sample_weight) : float</text><ellipse cx="33.5" cy="958.8534" fill="#84BE84" rx="3" ry="3" style="stroke:#038048;stroke-width:1.0;"/><text fill="#000000" font-family="sans-serif" font-size="14" lengthAdjust="spacing" textLength="326" x="42.5" y="962.2001">specificity(y_true, y_pred, sample_weight) : float</text><ellipse cx="33.5" cy="975.1503" fill="#84BE84" rx="3" ry="3" style="stroke:#038048;stroke-width:1.0;"/><text fill="#000000" font-family="sans-serif" font-size="14" lengthAdjust="spacing" textLength="284" x="42.5" y="978.497">ppv(y_true, y_pred, sample_weight) : float</text><ellipse cx="33.5" cy="991.4472" fill="#84BE84" rx="3" ry="3" style="stroke:#038048;stroke-width:1.0;"/><text fill="#000000" font-family="sans-serif" font-size="14" lengthAdjust="spacing" textLength="284" x="42.5" y="994.7939">npv(y_true, y_pred, sample_weight) : float</text><ellipse cx="33.5" cy="1007.7441" fill="#84BE84" rx="3" ry="3" style="stroke:#038048;stroke-width:1.0;"/><text fill="#000000" font-family="sans-serif" font-size="14" lengthAdjust="spacing" textLength="390" x="42.5" y="1011.0907">balanced_accuracy(y_true, y_pred, sample_weight) : float</text><ellipse cx="33.5" cy="1024.0409" fill="#84BE84" rx="3" ry="3" style="stroke:#038048;stroke-width:1.0;"/><text fill="#000000" font-family="sans-serif" font-size="14" lengthAdjust="spacing" textLength="315" x="42.5" y="1027.3876">log_loss(y_true, y_pred, sample_weight) : float</text></g><!--class RegressionEvaluationMetrics--><g id="elem_RegressionEvaluationMetrics"><rect codeLine="25" fill="#F1F1F1" height="113.1875" id="RegressionEvaluationMetrics" rx="2.5" ry="2.5" style="stroke:#181818;stroke-width:0.5;" width="463" x="474.5" y="848.17"/><ellipse cx="602.25" cy="864.17" fill="#ADD1B2" rx="11" ry="11" style="stroke:#181818;stroke-width:1.0;"/><path d="M605.2188,869.8106 Q604.6406,870.1075 604,870.2481 Q603.3594,870.4044 602.6563,870.4044 Q600.1563,870.4044 598.8281,868.7638 Q597.5156,867.1075 597.5156,863.9825 Q597.5156,860.8575 598.8281,859.2013 Q600.1563,857.545 602.6563,857.545 Q603.3594,857.545 604,857.7013 Q604.6563,857.8575 605.2188,858.1544 L605.2188,860.8731 Q604.5938,860.295 604,860.0294 Q603.4063,859.7481 602.7813,859.7481 Q601.4375,859.7481 600.75,860.8263 Q600.0625,861.8888 600.0625,863.9825 Q600.0625,866.0763 600.75,867.1544 Q601.4375,868.2169 602.7813,868.2169 Q603.4063,868.2169 604,867.9513 Q604.5938,867.67 605.2188,867.0919 L605.2188,869.8106 Z " fill="#000000"/><text fill="#000000" font-family="sans-serif" font-size="14" lengthAdjust="spacing" textLength="199" x="622.75" y="869.0167">RegressionEvaluationMetrics</text><line style="stroke:#181818;stroke-width:0.5;" x1="475.5" x2="936.5" y1="880.17" y2="880.17"/><line style="stroke:#181818;stroke-width:0.5;" x1="475.5" x2="936.5" y1="888.17" y2="888.17"/><ellipse cx="485.5" cy="901.8184" fill="#84BE84" rx="3" ry="3" style="stroke:#038048;stroke-width:1.0;"/><text fill="#000000" font-family="sans-serif" font-size="14" lengthAdjust="spacing" textLength="402" x="494.5" y="905.1651">mean_squared_error(y_true, y_pred, sample_weight) : float</text><ellipse cx="485.5" cy="918.1153" fill="#84BE84" rx="3" ry="3" style="stroke:#038048;stroke-width:1.0;"/><text fill="#000000" font-family="sans-serif" font-size="14" lengthAdjust="spacing" textLength="437" x="494.5" y="921.462">root_mean_squared_error(y_true, y_pred, sample_weight) : float</text><ellipse cx="485.5" cy="934.4122" fill="#84BE84" rx="3" ry="3" style="stroke:#038048;stroke-width:1.0;"/><text fill="#000000" font-family="sans-serif" font-size="14" lengthAdjust="spacing" textLength="405" x="494.5" y="937.7589">mean_absolute_error(y_true, y_pred, sample_weight) : float</text><ellipse cx="485.5" cy="950.7091" fill="#84BE84" rx="3" ry="3" style="stroke:#038048;stroke-width:1.0;"/><text fill="#000000" font-family="sans-serif" font-size="14" lengthAdjust="spacing" textLength="319" x="494.5" y="954.0557">r2_score(y_true, y_pred, sample_weight) : float</text></g><!--class Model--><g id="elem_Model"><rect codeLine="33" fill="#F1F1F1" height="308.75" id="Model" rx="2.5" ry="2.5" style="stroke:#181818;stroke-width:0.5;" width="369" x="1025.5" y="231.19"/><ellipse cx="1184.75" cy="247.19" fill="#A9DCDF" rx="11" ry="11" style="stroke:#181818;stroke-width:1.0;"/><path d="M1184.8594,242.5338 L1183.7031,247.6119 L1186.0313,247.6119 L1184.8594,242.5338 Z M1183.375,240.2994 L1186.3594,240.2994 L1189.7188,252.69 L1187.2656,252.69 L1186.5,249.6275 L1183.2188,249.6275 L1182.4688,252.69 L1180.0313,252.69 L1183.375,240.2994 Z " fill="#000000"/><text fill="#000000" font-family="sans-serif" font-size="14" font-style="italic" lengthAdjust="spacing" textLength="42" x="1205.25" y="252.0367">Model</text><line style="stroke:#181818;stroke-width:0.5;" x1="1026.5" x2="1393.5" y1="263.19" y2="263.19"/><rect fill="none" height="6" style="stroke:#C82930;stroke-width:1.0;" width="6" x="1033.5" y="273.8384"/><text fill="#000000" font-family="sans-serif" font-size="14" lengthAdjust="spacing" textLength="76" x="1045.5" y="280.1851">model: any</text><rect fill="none" height="6" style="stroke:#C82930;stroke-width:1.0;" width="6" x="1033.5" y="290.1353"/><text fill="#000000" font-family="sans-serif" font-size="14" lengthAdjust="spacing" textLength="124" x="1045.5" y="296.482">model_class: type</text><rect fill="none" height="6" style="stroke:#C82930;stroke-width:1.0;" width="6" x="1033.5" y="306.4322"/><text fill="#000000" font-family="sans-serif" font-size="14" lengthAdjust="spacing" textLength="85" x="1045.5" y="312.7789">params: dict</text><rect fill="none" height="6" style="stroke:#C82930;stroke-width:1.0;" width="6" x="1033.5" y="322.7291"/><text fill="#000000" font-family="sans-serif" font-size="14" lengthAdjust="spacing" textLength="343" x="1045.5" y="329.0757">data_preparation_strategy: DataPreparingStrategy</text><rect fill="none" height="6" style="stroke:#C82930;stroke-width:1.0;" width="6" x="1033.5" y="339.0259"/><text fill="#000000" font-family="sans-serif" font-size="14" lengthAdjust="spacing" textLength="164" x="1045.5" y="345.3726">pickled_model: boolean</text><line style="stroke:#181818;stroke-width:0.5;" x1="1026.5" x2="1393.5" y1="352.6744" y2="352.6744"/><ellipse cx="1036.5" cy="366.3228" fill="#84BE84" rx="3" ry="3" style="stroke:#038048;stroke-width:1.0;"/><text fill="#000000" font-family="sans-serif" font-size="14" font-style="italic" lengthAdjust="spacing" textLength="316" x="1045.5" y="369.6695">evaluate(X, y, eval_metrics, print_results) : dict</text><ellipse cx="1036.5" cy="382.6197" fill="#84BE84" rx="3" ry="3" style="stroke:#038048;stroke-width:1.0;"/><text fill="#000000" font-family="sans-serif" font-size="14" lengthAdjust="spacing" textLength="120" x="1045.5" y="385.9664">get_model() : any</text><ellipse cx="1036.5" cy="398.9166" fill="#84BE84" rx="3" ry="3" style="stroke:#038048;stroke-width:1.0;"/><text fill="#000000" font-family="sans-serif" font-size="14" lengthAdjust="spacing" textLength="163" x="1045.5" y="402.2632">get_model_type() : type</text><ellipse cx="1036.5" cy="415.2134" fill="#84BE84" rx="3" ry="3" style="stroke:#038048;stroke-width:1.0;"/><text fill="#000000" font-family="sans-serif" font-size="14" lengthAdjust="spacing" textLength="301" x="1045.5" y="418.5601">get_data_strategy() : DataPreparingStrategy</text><ellipse cx="1036.5" cy="431.5103" fill="#84BE84" rx="3" ry="3" style="stroke:#038048;stroke-width:1.0;"/><text fill="#000000" font-family="sans-serif" font-size="14" lengthAdjust="spacing" textLength="129" x="1045.5" y="434.857">get_params() : dict</text><ellipse cx="1036.5" cy="447.8072" fill="#84BE84" rx="3" ry="3" style="stroke:#038048;stroke-width:1.0;"/><text fill="#000000" font-family="sans-serif" font-size="14" lengthAdjust="spacing" textLength="103" x="1045.5" y="451.1539">get_info() : dict</text><ellipse cx="1036.5" cy="464.1041" fill="#84BE84" rx="3" ry="3" style="stroke:#038048;stroke-width:1.0;"/><text fill="#000000" font-family="sans-serif" font-size="14" lengthAdjust="spacing" textLength="166" x="1045.5" y="467.4507">set_model(model) : void</text><ellipse cx="1036.5" cy="480.4009" fill="#84BE84" rx="3" ry="3" style="stroke:#038048;stroke-width:1.0;"/><text fill="#000000" font-family="sans-serif" font-size="14" lengthAdjust="spacing" textLength="182" x="1045.5" y="483.7476">set_params(params) : void</text><ellipse cx="1036.5" cy="496.6978" fill="#84BE84" rx="3" ry="3" style="stroke:#038048;stroke-width:1.0;"/><text fill="#000000" font-family="sans-serif" font-size="14" lengthAdjust="spacing" textLength="209" x="1045.5" y="500.0445">update_params(params) : void</text><ellipse cx="1036.5" cy="512.9947" fill="#84BE84" rx="3" ry="3" style="stroke:#038048;stroke-width:1.0;"/><text fill="#000000" font-family="sans-serif" font-size="14" lengthAdjust="spacing" textLength="229" x="1045.5" y="516.3414">set_data_strategy(strategy) : void</text><ellipse cx="1036.5" cy="529.2916" fill="#84BE84" rx="3" ry="3" style="stroke:#038048;stroke-width:1.0;"/><text fill="#000000" font-family="sans-serif" font-size="14" lengthAdjust="spacing" textLength="114" x="1045.5" y="532.6382">save(path) : void</text></g><!--class ClassificationModel--><g id="elem_ClassificationModel"><rect codeLine="53" fill="#F1F1F1" height="96.8906" id="ClassificationModel" rx="2.5" ry="2.5" style="stroke:#181818;stroke-width:0.5;" width="882" x="401" y="616.94"/><ellipse cx="772.25" cy="632.94" fill="#A9DCDF" rx="11" ry="11" style="stroke:#181818;stroke-width:1.0;"/><path d="M772.3594,628.2838 L771.2031,633.3619 L773.5313,633.3619 L772.3594,628.2838 Z M770.875,626.0494 L773.8594,626.0494 L777.2188,638.44 L774.7656,638.44 L774,635.3775 L770.7188,635.3775 L769.9688,638.44 L767.5313,638.44 L770.875,626.0494 Z " fill="#000000"/><text fill="#000000" font-family="sans-serif" font-size="14" font-style="italic" lengthAdjust="spacing" textLength="131" x="792.75" y="637.7867">ClassificationModel</text><line style="stroke:#181818;stroke-width:0.5;" x1="402" x2="1282" y1="648.94" y2="648.94"/><line style="stroke:#181818;stroke-width:0.5;" x1="402" x2="1282" y1="656.94" y2="656.94"/><ellipse cx="412" cy="670.5884" fill="#84BE84" rx="3" ry="3" style="stroke:#038048;stroke-width:1.0;"/><text fill="#000000" font-family="sans-serif" font-size="14" font-style="italic" lengthAdjust="spacing" textLength="652" x="421" y="673.9351">train(x_train, y_train, x_validation, y_validation, training_parameters, balance_train_classes) : void</text><ellipse cx="412" cy="686.8853" fill="#84BE84" rx="3" ry="3" style="stroke:#038048;stroke-width:1.0;"/><text fill="#000000" font-family="sans-serif" font-size="14" font-style="italic" lengthAdjust="spacing" textLength="324" x="421" y="690.232">predict(X, return_proba, threshold) : np.ndarray</text><ellipse cx="412" cy="703.1822" fill="#84BE84" rx="3" ry="3" style="stroke:#038048;stroke-width:1.0;"/><text fill="#000000" font-family="sans-serif" font-size="14" font-style="italic" lengthAdjust="spacing" textLength="856" x="421" y="706.5289">train_to_disagree(x_train, y_train, x_validation, y_validation, x_test, y_test, training_parameters, balance_train_classes, N) : void</text></g><!--class RegressionModel--><g id="elem_RegressionModel"><rect codeLine="59" fill="#F1F1F1" height="80.5938" id="RegressionModel" rx="2.5" ry="2.5" style="stroke:#181818;stroke-width:0.5;" width="520" x="1318" y="625.09"/><ellipse cx="1513.25" cy="641.09" fill="#A9DCDF" rx="11" ry="11" style="stroke:#181818;stroke-width:1.0;"/><path d="M1513.3594,636.4338 L1512.2031,641.5119 L1514.5313,641.5119 L1513.3594,636.4338 Z M1511.875,634.1994 L1514.8594,634.1994 L1518.2188,646.59 L1515.7656,646.59 L1515,643.5275 L1511.7188,643.5275 L1510.9688,646.59 L1508.5313,646.59 L1511.875,634.1994 Z " fill="#000000"/><text fill="#000000" font-family="sans-serif" font-size="14" font-style="italic" lengthAdjust="spacing" textLength="121" x="1533.75" y="645.9367">RegressionModel</text><line style="stroke:#181818;stroke-width:0.5;" x1="1319" x2="1837" y1="657.09" y2="657.09"/><line style="stroke:#181818;stroke-width:0.5;" x1="1319" x2="1837" y1="665.09" y2="665.09"/><ellipse cx="1329" cy="678.7384" fill="#84BE84" rx="3" ry="3" style="stroke:#038048;stroke-width:1.0;"/><text fill="#000000" font-family="sans-serif" font-size="14" font-style="italic" lengthAdjust="spacing" textLength="494" x="1338" y="682.0851">train(x_train, y_train, x_validation, y_validation, training_parameters) : void</text><ellipse cx="1329" cy="695.0353" fill="#84BE84" rx="3" ry="3" style="stroke:#038048;stroke-width:1.0;"/><text fill="#000000" font-family="sans-serif" font-size="14" font-style="italic" lengthAdjust="spacing" textLength="153" x="1338" y="698.382">predict(X) : np.ndarray</text></g><!--class DataPreparingStrategy--><g id="elem_DataPreparingStrategy"><rect codeLine="65" fill="#F1F1F1" height="64.2969" id="DataPreparingStrategy" rx="2.5" ry="2.5" style="stroke:#181818;stroke-width:0.5;" width="315" x="1872.5" y="633.24"/><ellipse cx="1948.25" cy="649.24" fill="#A9DCDF" rx="11" ry="11" style="stroke:#181818;stroke-width:1.0;"/><path d="M1948.3594,644.5838 L1947.2031,649.6619 L1949.5313,649.6619 L1948.3594,644.5838 Z M1946.875,642.3494 L1949.8594,642.3494 L1953.2188,654.74 L1950.7656,654.74 L1950,651.6775 L1946.7188,651.6775 L1945.9688,654.74 L1943.5313,654.74 L1946.875,642.3494 Z " fill="#000000"/><text fill="#000000" font-family="sans-serif" font-size="14" font-style="italic" lengthAdjust="spacing" textLength="155" x="1968.75" y="654.0867">DataPreparingStrategy</text><line style="stroke:#181818;stroke-width:0.5;" x1="1873.5" x2="2186.5" y1="665.24" y2="665.24"/><line style="stroke:#181818;stroke-width:0.5;" x1="1873.5" x2="2186.5" y1="673.24" y2="673.24"/><ellipse cx="1883.5" cy="686.8884" fill="#84BE84" rx="3" ry="3" style="stroke:#038048;stroke-width:1.0;"/><text fill="#000000" font-family="sans-serif" font-size="14" font-style="italic" lengthAdjust="spacing" textLength="289" x="1892.5" y="690.2351">execute(features, labels, weights) : object</text></g><!--class ToDmatrixStrategy--><g id="elem_ToDmatrixStrategy"><rect codeLine="69" fill="#F1F1F1" height="48" id="ToDmatrixStrategy" rx="2.5" ry="2.5" style="stroke:#181818;stroke-width:0.5;" width="159" x="1698.5" y="880.76"/><ellipse cx="1713.5" cy="896.76" fill="#ADD1B2" rx="11" ry="11" style="stroke:#181818;stroke-width:1.0;"/><path d="M1716.4688,902.4006 Q1715.8906,902.6975 1715.25,902.8381 Q1714.6094,902.9944 1713.9063,902.9944 Q1711.4063,902.9944 1710.0781,901.3538 Q1708.7656,899.6975 1708.7656,896.5725 Q1708.7656,893.4475 1710.0781,891.7913 Q1711.4063,890.135 1713.9063,890.135 Q1714.6094,890.135 1715.25,890.2913 Q1715.9063,890.4475 1716.4688,890.7444 L1716.4688,893.4631 Q1715.8438,892.885 1715.25,892.6194 Q1714.6563,892.3381 1714.0313,892.3381 Q1712.6875,892.3381 1712,893.4163 Q1711.3125,894.4788 1711.3125,896.5725 Q1711.3125,898.6663 1712,899.7444 Q1712.6875,900.8069 1714.0313,900.8069 Q1714.6563,900.8069 1715.25,900.5413 Q1715.8438,900.26 1716.4688,899.6819 L1716.4688,902.4006 Z " fill="#000000"/><text fill="#000000" font-family="sans-serif" font-size="14" lengthAdjust="spacing" textLength="127" x="1727.5" y="901.6067">ToDmatrixStrategy</text><line style="stroke:#181818;stroke-width:0.5;" x1="1699.5" x2="1856.5" y1="912.76" y2="912.76"/><line style="stroke:#181818;stroke-width:0.5;" x1="1699.5" x2="1856.5" y1="920.76" y2="920.76"/></g><!--class ToNumpyStrategy--><g id="elem_ToNumpyStrategy"><rect codeLine="72" fill="#F1F1F1" height="48" id="ToNumpyStrategy" rx="2.5" ry="2.5" style="stroke:#181818;stroke-width:0.5;" width="155" x="1892.5" y="880.76"/><ellipse cx="1907.5" cy="896.76" fill="#ADD1B2" rx="11" ry="11" style="stroke:#181818;stroke-width:1.0;"/><path d="M1910.4688,902.4006 Q1909.8906,902.6975 1909.25,902.8381 Q1908.6094,902.9944 1907.9063,902.9944 Q1905.4063,902.9944 1904.0781,901.3538 Q1902.7656,899.6975 1902.7656,896.5725 Q1902.7656,893.4475 1904.0781,891.7913 Q1905.4063,890.135 1907.9063,890.135 Q1908.6094,890.135 1909.25,890.2913 Q1909.9063,890.4475 1910.4688,890.7444 L1910.4688,893.4631 Q1909.8438,892.885 1909.25,892.6194 Q1908.6563,892.3381 1908.0313,892.3381 Q1906.6875,892.3381 1906,893.4163 Q1905.3125,894.4788 1905.3125,896.5725 Q1905.3125,898.6663 1906,899.7444 Q1906.6875,900.8069 1908.0313,900.8069 Q1908.6563,900.8069 1909.25,900.5413 Q1909.8438,900.26 1910.4688,899.6819 L1910.4688,902.4006 Z " fill="#000000"/><text fill="#000000" font-family="sans-serif" font-size="14" lengthAdjust="spacing" textLength="123" x="1921.5" y="901.6067">ToNumpyStrategy</text><line style="stroke:#181818;stroke-width:0.5;" x1="1893.5" x2="2046.5" y1="912.76" y2="912.76"/><line style="stroke:#181818;stroke-width:0.5;" x1="1893.5" x2="2046.5" y1="920.76" y2="920.76"/></g><!--class ToDataframesStrategy--><g id="elem_ToDataframesStrategy"><rect codeLine="75" fill="#F1F1F1" height="48" id="ToDataframesStrategy" rx="2.5" ry="2.5" style="stroke:#181818;stroke-width:0.5;" width="186" x="2082" y="880.76"/><ellipse cx="2097" cy="896.76" fill="#ADD1B2" rx="11" ry="11" style="stroke:#181818;stroke-width:1.0;"/><path d="M2099.9688,902.4006 Q2099.3906,902.6975 2098.75,902.8381 Q2098.1094,902.9944 2097.4063,902.9944 Q2094.9063,902.9944 2093.5781,901.3538 Q2092.2656,899.6975 2092.2656,896.5725 Q2092.2656,893.4475 2093.5781,891.7913 Q2094.9063,890.135 2097.4063,890.135 Q2098.1094,890.135 2098.75,890.2913 Q2099.4063,890.4475 2099.9688,890.7444 L2099.9688,893.4631 Q2099.3438,892.885 2098.75,892.6194 Q2098.1563,892.3381 2097.5313,892.3381 Q2096.1875,892.3381 2095.5,893.4163 Q2094.8125,894.4788 2094.8125,896.5725 Q2094.8125,898.6663 2095.5,899.7444 Q2096.1875,900.8069 2097.5313,900.8069 Q2098.1563,900.8069 2098.75,900.5413 Q2099.3438,900.26 2099.9688,899.6819 L2099.9688,902.4006 Z " fill="#000000"/><text fill="#000000" font-family="sans-serif" font-size="14" lengthAdjust="spacing" textLength="154" x="2111" y="901.6067">ToDataframesStrategy</text><line style="stroke:#181818;stroke-width:0.5;" x1="2083" x2="2267" y1="912.76" y2="912.76"/><line style="stroke:#181818;stroke-width:0.5;" x1="2083" x2="2267" y1="920.76" y2="920.76"/></g><!--class XGBoostModel--><g id="elem_XGBoostModel"><rect codeLine="79" fill="#F1F1F1" height="48" id="XGBoostModel" rx="2.5" ry="2.5" style="stroke:#181818;stroke-width:0.5;" width="135" x="972.5" y="880.76"/><ellipse cx="987.5" cy="896.76" fill="#ADD1B2" rx="11" ry="11" style="stroke:#181818;stroke-width:1.0;"/><path d="M990.4688,902.4006 Q989.8906,902.6975 989.25,902.8381 Q988.6094,902.9944 987.9063,902.9944 Q985.4063,902.9944 984.0781,901.3538 Q982.7656,899.6975 982.7656,896.5725 Q982.7656,893.4475 984.0781,891.7913 Q985.4063,890.135 987.9063,890.135 Q988.6094,890.135 989.25,890.2913 Q989.9063,890.4475 990.4688,890.7444 L990.4688,893.4631 Q989.8438,892.885 989.25,892.6194 Q988.6563,892.3381 988.0313,892.3381 Q986.6875,892.3381 986,893.4163 Q985.3125,894.4788 985.3125,896.5725 Q985.3125,898.6663 986,899.7444 Q986.6875,900.8069 988.0313,900.8069 Q988.6563,900.8069 989.25,900.5413 Q989.8438,900.26 990.4688,899.6819 L990.4688,902.4006 Z " fill="#000000"/><text fill="#000000" font-family="sans-serif" font-size="14" lengthAdjust="spacing" textLength="103" x="1001.5" y="901.6067">XGBoostModel</text><line style="stroke:#181818;stroke-width:0.5;" x1="973.5" x2="1106.5" y1="912.76" y2="912.76"/><line style="stroke:#181818;stroke-width:0.5;" x1="973.5" x2="1106.5" y1="920.76" y2="920.76"/></g><!--class RandomForestRegressorModel--><g id="elem_RandomForestRegressorModel"><rect codeLine="82" fill="#F1F1F1" height="48" id="RandomForestRegressorModel" rx="2.5" ry="2.5" style="stroke:#181818;stroke-width:0.5;" width="248" x="1142" y="880.76"/><ellipse cx="1157" cy="896.76" fill="#ADD1B2" rx="11" ry="11" style="stroke:#181818;stroke-width:1.0;"/><path d="M1159.9688,902.4006 Q1159.3906,902.6975 1158.75,902.8381 Q1158.1094,902.9944 1157.4063,902.9944 Q1154.9063,902.9944 1153.5781,901.3538 Q1152.2656,899.6975 1152.2656,896.5725 Q1152.2656,893.4475 1153.5781,891.7913 Q1154.9063,890.135 1157.4063,890.135 Q1158.1094,890.135 1158.75,890.2913 Q1159.4063,890.4475 1159.9688,890.7444 L1159.9688,893.4631 Q1159.3438,892.885 1158.75,892.6194 Q1158.1563,892.3381 1157.5313,892.3381 Q1156.1875,892.3381 1155.5,893.4163 Q1154.8125,894.4788 1154.8125,896.5725 Q1154.8125,898.6663 1155.5,899.7444 Q1156.1875,900.8069 1157.5313,900.8069 Q1158.1563,900.8069 1158.75,900.5413 Q1159.3438,900.26 1159.9688,899.6819 L1159.9688,902.4006 Z " fill="#000000"/><text fill="#000000" font-family="sans-serif" font-size="14" lengthAdjust="spacing" textLength="216" x="1171" y="901.6067">RandomForestRegressorModel</text><line style="stroke:#181818;stroke-width:0.5;" x1="1143" x2="1389" y1="912.76" y2="912.76"/><line style="stroke:#181818;stroke-width:0.5;" x1="1143" x2="1389" y1="920.76" y2="920.76"/></g><!--class DecisionTreeRegressorModel--><g id="elem_DecisionTreeRegressorModel"><rect codeLine="85" fill="#F1F1F1" height="48" id="DecisionTreeRegressorModel" rx="2.5" ry="2.5" style="stroke:#181818;stroke-width:0.5;" width="238" x="1425" y="880.76"/><ellipse cx="1440" cy="896.76" fill="#ADD1B2" rx="11" ry="11" style="stroke:#181818;stroke-width:1.0;"/><path d="M1442.9688,902.4006 Q1442.3906,902.6975 1441.75,902.8381 Q1441.1094,902.9944 1440.4063,902.9944 Q1437.9063,902.9944 1436.5781,901.3538 Q1435.2656,899.6975 1435.2656,896.5725 Q1435.2656,893.4475 1436.5781,891.7913 Q1437.9063,890.135 1440.4063,890.135 Q1441.1094,890.135 1441.75,890.2913 Q1442.4063,890.4475 1442.9688,890.7444 L1442.9688,893.4631 Q1442.3438,892.885 1441.75,892.6194 Q1441.1563,892.3381 1440.5313,892.3381 Q1439.1875,892.3381 1438.5,893.4163 Q1437.8125,894.4788 1437.8125,896.5725 Q1437.8125,898.6663 1438.5,899.7444 Q1439.1875,900.8069 1440.5313,900.8069 Q1441.1563,900.8069 1441.75,900.5413 Q1442.3438,900.26 1442.9688,899.6819 L1442.9688,902.4006 Z " fill="#000000"/><text fill="#000000" font-family="sans-serif" font-size="14" lengthAdjust="spacing" textLength="206" x="1454" y="901.6067">DecisionTreeRegressorModel</text><line style="stroke:#181818;stroke-width:0.5;" x1="1426" x2="1662" y1="912.76" y2="912.76"/><line style="stroke:#181818;stroke-width:0.5;" x1="1426" x2="1662" y1="920.76" y2="920.76"/></g><!--class BaseModelManager--><g id="elem_BaseModelManager"><rect codeLine="89" fill="#F1F1F1" height="113.1875" id="BaseModelManager" rx="2.5" ry="2.5" style="stroke:#181818;stroke-width:0.5;" width="288" x="1066" y="41"/><ellipse cx="1137.25" cy="57" fill="#ADD1B2" rx="11" ry="11" style="stroke:#181818;stroke-width:1.0;"/><path d="M1140.2188,62.6406 Q1139.6406,62.9375 1139,63.0781 Q1138.3594,63.2344 1137.6563,63.2344 Q1135.1563,63.2344 1133.8281,61.5938 Q1132.5156,59.9375 1132.5156,56.8125 Q1132.5156,53.6875 1133.8281,52.0313 Q1135.1563,50.375 1137.6563,50.375 Q1138.3594,50.375 1139,50.5313 Q1139.6563,50.6875 1140.2188,50.9844 L1140.2188,53.7031 Q1139.5938,53.125 1139,52.8594 Q1138.4063,52.5781 1137.7813,52.5781 Q1136.4375,52.5781 1135.75,53.6563 Q1135.0625,54.7188 1135.0625,56.8125 Q1135.0625,58.9063 1135.75,59.9844 Q1136.4375,61.0469 1137.7813,61.0469 Q1138.4063,61.0469 1139,60.7813 Q1139.5938,60.5 1140.2188,59.9219 L1140.2188,62.6406 Z " fill="#000000"/><text fill="#000000" font-family="sans-serif" font-size="14" lengthAdjust="spacing" textLength="137" x="1157.75" y="61.8467">BaseModelManager</text><line style="stroke:#181818;stroke-width:0.5;" x1="1067" x2="1353" y1="73" y2="73"/><rect fill="none" height="6" style="stroke:#C82930;stroke-width:1.0;" width="6" x="1074" y="83.6484"/><text fill="#000000" font-family="sans-serif" font-size="14" lengthAdjust="spacing" textLength="131" x="1086" y="89.9951">baseModel : Model</text><line style="stroke:#181818;stroke-width:0.5;" x1="1067" x2="1353" y1="97.2969" y2="97.2969"/><ellipse cx="1077" cy="110.9453" fill="#84BE84" rx="3" ry="3" style="stroke:#038048;stroke-width:1.0;"/><text fill="#000000" font-family="sans-serif" font-size="14" lengthAdjust="spacing" textLength="262" x="1086" y="114.292">set_base_model(model : Model) : void</text><ellipse cx="1077" cy="127.2422" fill="#84BE84" rx="3" ry="3" style="stroke:#038048;stroke-width:1.0;"/><text fill="#000000" font-family="sans-serif" font-size="14" lengthAdjust="spacing" textLength="154" x="1086" y="130.5889">get_instance() : Model</text><ellipse cx="1077" cy="143.5391" fill="#84BE84" rx="3" ry="3" style="stroke:#038048;stroke-width:1.0;"/><text fill="#000000" font-family="sans-serif" font-size="14" lengthAdjust="spacing" textLength="194" x="1086" y="146.8857">clone_base_model() : Model</text></g><!--class ModelFactory--><g id="elem_ModelFactory"><rect codeLine="97" fill="#F1F1F1" height="96.8906" id="ModelFactory" rx="2.5" ry="2.5" style="stroke:#181818;stroke-width:0.5;" width="495" x="1402.5" y="49.15"/><ellipse cx="1599.75" cy="65.15" fill="#ADD1B2" rx="11" ry="11" style="stroke:#181818;stroke-width:1.0;"/><path d="M1602.7188,70.7906 Q1602.1406,71.0875 1601.5,71.2281 Q1600.8594,71.3844 1600.1563,71.3844 Q1597.6563,71.3844 1596.3281,69.7438 Q1595.0156,68.0875 1595.0156,64.9625 Q1595.0156,61.8375 1596.3281,60.1813 Q1597.6563,58.525 1600.1563,58.525 Q1600.8594,58.525 1601.5,58.6813 Q1602.1563,58.8375 1602.7188,59.1344 L1602.7188,61.8531 Q1602.0938,61.275 1601.5,61.0094 Q1600.9063,60.7281 1600.2813,60.7281 Q1598.9375,60.7281 1598.25,61.8063 Q1597.5625,62.8688 1597.5625,64.9625 Q1597.5625,67.0563 1598.25,68.1344 Q1598.9375,69.1969 1600.2813,69.1969 Q1600.9063,69.1969 1601.5,68.9313 Q1602.0938,68.65 1602.7188,68.0719 L1602.7188,70.7906 Z " fill="#000000"/><text fill="#000000" font-family="sans-serif" font-size="14" lengthAdjust="spacing" textLength="92" x="1620.25" y="69.9967">ModelFactory</text><line style="stroke:#181818;stroke-width:0.5;" x1="1403.5" x2="1896.5" y1="81.15" y2="81.15"/><line style="stroke:#181818;stroke-width:0.5;" x1="1403.5" x2="1896.5" y1="89.15" y2="89.15"/><ellipse cx="1413.5" cy="102.7984" fill="#84BE84" rx="3" ry="3" style="stroke:#038048;stroke-width:1.0;"/><text fill="#000000" font-family="sans-serif" font-size="14" lengthAdjust="spacing" text-decoration="underline" textLength="271" x="1422.5" y="106.1451">get_factory(model_type) : ModelFactory</text><ellipse cx="1413.5" cy="119.0953" fill="#84BE84" rx="3" ry="3" style="stroke:#038048;stroke-width:1.0;"/><text fill="#000000" font-family="sans-serif" font-size="14" lengthAdjust="spacing" text-decoration="underline" textLength="469" x="1422.5" y="122.442">create_model_with_hyperparams(model_type, hyperparams) : Model</text><ellipse cx="1413.5" cy="135.3922" fill="#84BE84" rx="3" ry="3" style="stroke:#038048;stroke-width:1.0;"/><text fill="#000000" font-family="sans-serif" font-size="14" lengthAdjust="spacing" text-decoration="underline" textLength="366" x="1422.5" y="138.7389">create_model_from_pickled(pickled_file_path) : Model</text></g><!--class XGBoostFactory--><g id="elem_XGBoostFactory"><rect codeLine="103" fill="#F1F1F1" height="80.5938" id="XGBoostFactory" rx="2.5" ry="2.5" style="stroke:#181818;stroke-width:0.5;" width="468" x="1430" y="345.27"/><ellipse cx="1604.25" cy="361.27" fill="#ADD1B2" rx="11" ry="11" style="stroke:#181818;stroke-width:1.0;"/><path d="M1607.2188,366.9106 Q1606.6406,367.2075 1606,367.3481 Q1605.3594,367.5044 1604.6563,367.5044 Q1602.1563,367.5044 1600.8281,365.8638 Q1599.5156,364.2075 1599.5156,361.0825 Q1599.5156,357.9575 1600.8281,356.3013 Q1602.1563,354.645 1604.6563,354.645 Q1605.3594,354.645 1606,354.8013 Q1606.6563,354.9575 1607.2188,355.2544 L1607.2188,357.9731 Q1606.5938,357.395 1606,357.1294 Q1605.4063,356.8481 1604.7813,356.8481 Q1603.4375,356.8481 1602.75,357.9263 Q1602.0625,358.9888 1602.0625,361.0825 Q1602.0625,363.1763 1602.75,364.2544 Q1603.4375,365.3169 1604.7813,365.3169 Q1605.4063,365.3169 1606,365.0513 Q1606.5938,364.77 1607.2188,364.1919 L1607.2188,366.9106 Z " fill="#000000"/><text fill="#000000" font-family="sans-serif" font-size="14" lengthAdjust="spacing" textLength="111" x="1624.75" y="366.1167">XGBoostFactory</text><line style="stroke:#181818;stroke-width:0.5;" x1="1431" x2="1897" y1="377.27" y2="377.27"/><line style="stroke:#181818;stroke-width:0.5;" x1="1431" x2="1897" y1="385.27" y2="385.27"/><ellipse cx="1441" cy="398.9184" fill="#84BE84" rx="3" ry="3" style="stroke:#038048;stroke-width:1.0;"/><text fill="#000000" font-family="sans-serif" font-size="14" lengthAdjust="spacing" textLength="442" x="1450" y="402.2651">create_model_with_hyperparams(hyperparams) : XGBoostModel</text><ellipse cx="1441" cy="415.2153" fill="#84BE84" rx="3" ry="3" style="stroke:#038048;stroke-width:1.0;"/><text fill="#000000" font-family="sans-serif" font-size="14" lengthAdjust="spacing" textLength="411" x="1450" y="418.562">create_model_from_pickled(loaded_model) : XGBoostModel</text></g><!--reverse link EvaluationMetric to ClassificationEvaluationMetrics--><g id="link_EvaluationMetric_ClassificationEvaluationMetrics"><path d="M212.0726,724.0202 C214.1026,743.2202 214.76,749.57 217.38,774.45 " fill="none" id="EvaluationMetric-backto-ClassificationEvaluationMetrics" style="stroke:#181818;stroke-width:1.0;"/><polygon fill="none" points="210.18,706.12,206.1058,724.6511,218.0393,723.3894,210.18,706.12" style="stroke:#181818;stroke-width:1.0;"/></g><!--reverse link EvaluationMetric to RegressionEvaluationMetrics--><g id="link_EvaluationMetric_RegressionEvaluationMetrics"><path d="M318.9293,713.1591 C365.9293,733.0291 406.5,750.88 457,774.83 C505.05,797.62 557.44,824.44 601.71,847.7 " fill="none" id="EvaluationMetric-backto-RegressionEvaluationMetrics" style="stroke:#181818;stroke-width:1.0;"/><polygon fill="none" points="302.35,706.15,316.5929,718.6856,321.2656,707.6327,302.35,706.15" style="stroke:#181818;stroke-width:1.0;"/></g><!--reverse link Model to ClassificationModel--><g id="link_Model_ClassificationModel"><path d="M1010.8228,536.9336 C967.6428,569.5236 938.9,591.23 905.35,616.56 " fill="none" id="Model-backto-ClassificationModel" style="stroke:#181818;stroke-width:1.0;"/><polygon fill="none" points="1025.19,526.09,1007.2083,532.1445,1014.4373,541.7227,1025.19,526.09" style="stroke:#181818;stroke-width:1.0;"/></g><!--reverse link Model to RegressionModel--><g id="link_Model_RegressionModel"><path d="M1409.1179,537.0259 C1415.2679,541.6759 1407.01,535.42 1413,539.94 C1450.51,568.26 1492.84,600.18 1525.23,624.6 " fill="none" id="Model-backto-RegressionModel" style="stroke:#181818;stroke-width:1.0;"/><polygon fill="none" points="1394.76,526.17,1405.4992,541.8119,1412.7365,532.24,1394.76,526.17" style="stroke:#181818;stroke-width:1.0;"/></g><!--reverse link DataPreparingStrategy to ToDmatrixStrategy--><g id="link_DataPreparingStrategy_ToDmatrixStrategy"><path d="M1961.0624,707.6396 C1929.6824,727.5096 1905.59,745.28 1875,774.83 C1840.95,807.72 1809.59,853.37 1792.2,880.61 " fill="none" id="DataPreparingStrategy-backto-ToDmatrixStrategy" style="stroke:#181818;stroke-width:1.0;"/><polygon fill="none" points="1976.27,698.01,1957.8525,702.5703,1964.2722,712.7088,1976.27,698.01" style="stroke:#181818;stroke-width:1.0;"/></g><!--reverse link DataPreparingStrategy to ToNumpyStrategy--><g id="link_DataPreparingStrategy_ToNumpyStrategy"><path d="M2017.6185,715.361 C2005.4085,763.661 1986.76,837.44 1975.92,880.34 " fill="none" id="DataPreparingStrategy-backto-ToNumpyStrategy" style="stroke:#181818;stroke-width:1.0;"/><polygon fill="none" points="2022.03,697.91,2011.8015,713.8905,2023.4355,716.8315,2022.03,697.91" style="stroke:#181818;stroke-width:1.0;"/></g><!--reverse link DataPreparingStrategy to ToDataframesStrategy--><g id="link_DataPreparingStrategy_ToDataframesStrategy"><path d="M2058.6346,713.27 C2088.1446,761.57 2134.49,837.44 2160.69,880.34 " fill="none" id="DataPreparingStrategy-backto-ToDataframesStrategy" style="stroke:#181818;stroke-width:1.0;"/><polygon fill="none" points="2049.25,697.91,2053.5146,716.3982,2063.7546,710.1418,2049.25,697.91" style="stroke:#181818;stroke-width:1.0;"/></g><!--reverse link ClassificationModel to XGBoostModel--><g id="link_ClassificationModel_XGBoostModel"><path d="M909.9254,726.5962 C929.2754,744.6962 937.43,753.73 955,774.83 C983.65,809.24 1011.09,853.62 1026.71,880.32 " fill="none" id="ClassificationModel-backto-XGBoostModel" style="stroke:#181818;stroke-width:1.0;"/><polygon fill="none" points="896.78,714.3,905.8267,730.9781,914.0242,722.2144,896.78,714.3" style="stroke:#181818;stroke-width:1.0;"/></g><!--reverse link RegressionModel to RandomForestRegressorModel--><g id="link_RegressionModel_RandomForestRegressorModel"><path d="M1494.193,715.3368 C1462.163,734.8268 1439.39,750.06 1407,774.83 C1362.74,808.69 1315.85,853.63 1288.84,880.53 " fill="none" id="RegressionModel-backto-RandomForestRegressorModel" style="stroke:#181818;stroke-width:1.0;"/><polygon fill="none" points="1509.57,705.98,1491.0741,710.2111,1497.312,720.4624,1509.57,705.98" style="stroke:#181818;stroke-width:1.0;"/></g><!--reverse link RegressionModel to DecisionTreeRegressorModel--><g id="link_RegressionModel_DecisionTreeRegressorModel"><path d="M1569.7564,723.9379 C1562.6064,773.8279 1553.14,839.96 1547.33,880.48 " fill="none" id="RegressionModel-backto-DecisionTreeRegressorModel" style="stroke:#181818;stroke-width:1.0;"/><polygon fill="none" points="1572.31,706.12,1563.8171,723.0868,1575.6957,724.7891,1572.31,706.12" style="stroke:#181818;stroke-width:1.0;"/></g><!--reverse link ModelFactory to XGBoostFactory--><g id="link_ModelFactory_XGBoostFactory"><path d="M1653.222,164.4384 C1655.952,220.0884 1659.51,292.94 1662.06,344.85 " fill="none" id="ModelFactory-backto-XGBoostFactory" style="stroke:#181818;stroke-width:1.0;"/><polygon fill="none" points="1652.34,146.46,1647.2292,164.7324,1659.2148,164.1444,1652.34,146.46" style="stroke:#181818;stroke-width:1.0;"/></g><!--reverse link BaseModelManager to Model--><g id="link_BaseModelManager_Model"><path codeLine="109" d="M1210,166.41 C1210,188.68 1210,203.51 1210,230.87 " fill="none" id="BaseModelManager-backto-Model" style="stroke:#181818;stroke-width:1.0;"/><polygon fill="#181818" points="1210,154.41,1206,160.41,1210,166.41,1214,160.41,1210,154.41" style="stroke:#181818;stroke-width:1.0;"/><text fill="#000000" font-family="sans-serif" font-size="13" lengthAdjust="spacing" textLength="8" x="1201.8063" y="220.0838">1</text></g><!--link Model to DataPreparingStrategy--><g id="link_Model_DataPreparingStrategy"><path codeLine="111" d="M1394.83,531.4 C1400.86,534.44 1406.92,537.3 1413,539.94 C1595.9,619.38 1660.34,573.69 1855,616.94 C1876.05,621.62 1892.5588,625.6584 1913.9588,631.3084 " fill="none" id="Model-to-DataPreparingStrategy" style="stroke:#181818;stroke-width:1.0;stroke-dasharray:7.0,7.0;"/><polygon fill="#181818" points="1919.76,632.84,1912.0793,626.6751,1914.9257,631.5636,1910.0371,634.41,1919.76,632.84" style="stroke:#181818;stroke-width:1.0;"/><text fill="#000000" font-family="sans-serif" font-size="13" lengthAdjust="spacing" textLength="46" x="1569" y="583.0069">&#171;uses&#187;</text></g><!--link Model to EvaluationMetric--><g id="link_Model_EvaluationMetric"><path codeLine="112" d="M1025.27,437.68 C830.44,491.59 533.3627,573.7999 355.5927,622.9899 " fill="none" id="Model-to-EvaluationMetric" style="stroke:#181818;stroke-width:1.0;stroke-dasharray:7.0,7.0;"/><polygon fill="#181818" points="349.81,624.59,359.5508,626.045,354.6289,623.2566,357.4173,618.3347,349.81,624.59" style="stroke:#181818;stroke-width:1.0;"/><text fill="#000000" font-family="sans-serif" font-size="13" lengthAdjust="spacing" textLength="46" x="531" y="583.0069">&#171;uses&#187;</text></g><!--link ModelFactory to Model--><g id="link_ModelFactory_Model"><path codeLine="114" d="M1557.68,146.43 C1513.12,170.48 1459.38,200.9 1413,231.19 C1406.99,235.12 1405.8958,235.7924 1399.8058,239.9224 " fill="none" id="ModelFactory-to-Model" style="stroke:#181818;stroke-width:1.0;stroke-dasharray:7.0,7.0;"/><polygon fill="#181818" points="1394.84,243.29,1404.5338,241.5491,1398.9782,240.4837,1400.0436,234.928,1394.84,243.29" style="stroke:#181818;stroke-width:1.0;"/><text fill="#000000" font-family="sans-serif" font-size="13" lengthAdjust="spacing" textLength="62" x="1490" y="197.2569">&#171;returns&#187;</text></g><!--SRC=[lLRVRzis47xVNq7a9Thg1EWUZImFNTg-DCNGzQ70C10KTRBPKgH6Kew58l_xZgHeKvATHXcm00vjtdt7-_7nZYtZtzW6o4MZAv2MsAviuzR5zvy8kIHtK0i5X9NM6SOTuP9P2vRKsf06d17SejvOJDxkcEoO4rhT1nNYRVc_LnjmDCAAk5356bWJX9FVoENbpsHDwavnZqqOsxMjDWwg0MaBh_L1MFSNmlv6jKVyvDvohRW11sUyZKx-xl-BMl3WwDHbIs3lG5LF1SCuxp3glkYfCnsiI4zR0zMAMDQq4kW3YCtMeRErrCmbb07EfFmXXen1cbFMyOKejWE3fVIwN5YCO26-OSvjuS5IhetX6kg5-9UUMx-c5e-4XJ0BoWedTiBrIv4jEefKM8viszr2X5gCA9baYYF_dqsuCLxg3PNQskV3XWiLByeds1YmzeMNf06cgFsdOtWY1MEqMKnzxNl6VxGI362Rqh9py38_VbrAocbR2ZsMbCmU6jEyTTu7dPIzgm1P4wRwqGuDoclY-XQIe6M6DRXN2PvylggOOzvBB_F5eVui1vj-JUvGz4UG2BNvSzW-s1Byc_GDDnvVQYqnVuFqUtBvaRo2M7Selc0-LiJ_J5rwHLeqxIXofvFE-iHahiL9uCs7RduCy2YWFheWpS8CuX1M2YLeF1LDWCJi5AUy4AhMCu4zk1V-U_5EYoeN3oRZCbNeMdGIdjQnir3IbvacTd8quhO7mP5U4mADnrgaKxgbOtBbTSHLg69Fm-gfFNpPKwoeg88jlvt_2YgOxXWaZbk3DHzwLSJJWUQJSFA3_HN2j7l-uCJkZ4AwwfAXzIqIPwjbvS6glLOLCuRrvtodJjDAM8Qj2XR6WTfWNL0Ew_FZMf6FMMYdwt7idlzpBPwJz5bkfotBqvDa3OGC31MdUjV9ItWoHDW3npvSrC2mvZwHafNu_boHs4M3yxhy2dmsZJxhEtoM6B4_790oUlxuYO6FNTFsBuTxnTfdsIwtCN-Yng5md0Vnb2_ltsXjtPWofwxspBzFJ5MwUOU3ohg1UzgCxKmfERDnDppRFkDbMcxZahpn8ou6rZ25Br1pCEr50N4V1STHLoO9bZwiUPlqmhmV9vrfeupzt3f_LqDF7rdYKYl8RUKQ1-_V8KUr4LarWahSplYCfpZ17-EXTPGMnybri3q0Pp2ilnyH4V4Wt9Pk4MQ6aN4qj2BP_ZIcC-PgeniwJF4YJVDQI3-HuXIPX3sYNGfrrAkcyV_0_udFEQ5F6XXvZ0-eAZq_Jg23p_YPaUcNgwkBrnT3RAWG-NHzVNlcPgx9pKs7z-xsTgGyUyrcUaanfSFh9zhUtCGPvlKU_mK0]--></g></svg>