<svg xmlns="http://www.w3.org/2000/svg" xmlns:xlink="http://www.w3.org/1999/xlink" contentStyleType="text/css" height="375px" preserveAspectRatio="none" style="width:379px;height:375px;background:#FFFFFF;" version="1.1" viewBox="0 0 379 375" width="379px" zoomAndPan="magnify"><defs/><g><!--cluster MED3pa--><g id="cluster_MED3pa"><path d="M8.5,6 L64.5,6 A3.75,3.75 0 0 1 67,8.5 L74,28.2969 L369.5,28.2969 A2.5,2.5 0 0 1 372,30.7969 L372,366.28 A2.5,2.5 0 0 1 369.5,368.78 L8.5,368.78 A2.5,2.5 0 0 1 6,366.28 L6,8.5 A2.5,2.5 0 0 1 8.5,6 " fill="none" style="stroke:#000000;stroke-width:1.5;"/><line style="stroke:#000000;stroke-width:1.5;" x1="6" x2="74" y1="28.2969" y2="28.2969"/><text fill="#000000" font-family="sans-serif" font-size="14" font-weight="bold" lengthAdjust="spacing" textLength="55" x="10" y="20.9951">MED3pa</text></g><path d="M72.5,300.19 L141.5,300.19 A3.75,3.75 0 0 1 144,302.69 L151,322.4869 L155.5,322.4869 A2.5,2.5 0 0 1 158,324.9869 L158,350.2837 A2.5,2.5 0 0 1 155.5,352.7837 L72.5,352.7837 A2.5,2.5 0 0 1 70,350.2837 L70,302.69 A2.5,2.5 0 0 1 72.5,300.19 " fill="#F1F1F1" style="stroke:#181818;stroke-width:0.5;"/><line style="stroke:#181818;stroke-width:0.5;" x1="70" x2="151" y1="322.4869" y2="322.4869"/><text fill="#000000" font-family="sans-serif" font-size="14" font-weight="bold" lengthAdjust="spacing" textLength="68" x="74" y="315.1851">datasets</text><path d="M240,300.19 L298,300.19 A3.75,3.75 0 0 1 300.5,302.69 L307.5,322.4869 L312,322.4869 A2.5,2.5 0 0 1 314.5,324.9869 L314.5,350.2837 A2.5,2.5 0 0 1 312,352.7837 L240,352.7837 A2.5,2.5 0 0 1 237.5,350.2837 L237.5,302.69 A2.5,2.5 0 0 1 240,300.19 " fill="#F1F1F1" style="stroke:#181818;stroke-width:0.5;"/><line style="stroke:#181818;stroke-width:0.5;" x1="237.5" x2="307.5" y1="322.4869" y2="322.4869"/><text fill="#000000" font-family="sans-serif" font-size="14" font-weight="bold" lengthAdjust="spacing" textLength="57" x="241.5" y="315.1851">models</text><path d="M142.5,170.59 L221.5,170.59 A3.75,3.75 0 0 1 224,173.09 L231,192.8869 L235.5,192.8869 A2.5,2.5 0 0 1 238,195.3869 L238,220.6837 A2.5,2.5 0 0 1 235.5,223.1837 L142.5,223.1837 A2.5,2.5 0 0 1 140,220.6837 L140,173.09 A2.5,2.5 0 0 1 142.5,170.59 " fill="#F1F1F1" style="stroke:#181818;stroke-width:0.5;"/><line style="stroke:#181818;stroke-width:0.5;" x1="140" x2="231" y1="192.8869" y2="192.8869"/><text fill="#000000" font-family="sans-serif" font-size="14" font-weight="bold" lengthAdjust="spacing" textLength="78" x="144" y="185.5851">detectron</text><path d="M150,41 L214,41 A3.75,3.75 0 0 1 216.5,43.5 L223.5,63.2969 L228,63.2969 A2.5,2.5 0 0 1 230.5,65.7969 L230.5,91.0938 A2.5,2.5 0 0 1 228,93.5938 L150,93.5938 A2.5,2.5 0 0 1 147.5,91.0938 L147.5,43.5 A2.5,2.5 0 0 1 150,41 " fill="#F1F1F1" style="stroke:#181818;stroke-width:0.5;"/><line style="stroke:#181818;stroke-width:0.5;" x1="147.5" x2="223.5" y1="63.2969" y2="63.2969"/><text fill="#000000" font-family="sans-serif" font-size="14" font-weight="bold" lengthAdjust="spacing" textLength="63" x="151.5" y="55.9951">med3pa</text><!--link detectron to models--><g id="link_detectron_models"><path codeLine="18" d="M206.4,223.4 C221.57,245.66 240.0905,272.8123 255.2505,295.0523 " fill="none" id="detectron-to-models" style="stroke:#181818;stroke-width:1.0;stroke-dasharray:7.0,7.0;"/><polygon fill="#181818" points="258.63,300.01,256.866,290.3204,255.8138,295.8785,250.2556,294.8264,258.63,300.01" style="stroke:#181818;stroke-width:1.0;"/><text fill="#000000" font-family="sans-serif" font-size="13" lengthAdjust="spacing" textLength="46" x="238" y="266.2569">&#171;uses&#187;</text></g><!--link detectron to datasets--><g id="link_detectron_datasets"><path codeLine="19" d="M153.96,223.5 C144.56,231.97 135.28,242.09 129,253.19 C120.98,267.35 117.9378,279.3031 116.1978,293.7431 " fill="none" id="detectron-to-datasets" style="stroke:#181818;stroke-width:1.0;stroke-dasharray:7.0,7.0;"/><polygon fill="#181818" points="115.48,299.7,120.528,291.2432,116.0782,294.7359,112.5854,290.2861,115.48,299.7" style="stroke:#181818;stroke-width:1.0;"/><text fill="#000000" font-family="sans-serif" font-size="13" lengthAdjust="spacing" textLength="46" x="130" y="266.2569">&#171;uses&#187;</text></g><!--link med3pa to models--><g id="link_med3pa_models"><path codeLine="21" d="M219.82,94.02 C228.83,102.7 238.11,112.92 245,123.59 C278.31,175.2 282.16,192.73 293,253.19 C295.8,268.8 293.9268,280.4246 289.2068,294.1846 " fill="none" id="med3pa-to-models" style="stroke:#181818;stroke-width:1.0;stroke-dasharray:7.0,7.0;"/><polygon fill="#181818" points="287.26,299.86,293.9638,292.6448,288.8823,295.1305,286.3966,290.0491,287.26,299.86" style="stroke:#181818;stroke-width:1.0;"/><text fill="#000000" font-family="sans-serif" font-size="13" lengthAdjust="spacing" textLength="46" x="288" y="201.4569">&#171;uses&#187;</text></g><!--link med3pa to datasets--><g id="link_med3pa_datasets"><path codeLine="22" d="M147.05,92.89 C120.99,110.76 89.74,137.57 75,170.59 C55.68,213.89 76.5903,263.2522 94.5903,294.7122 " fill="none" id="med3pa-to-datasets" style="stroke:#181818;stroke-width:1.0;stroke-dasharray:7.0,7.0;"/><polygon fill="#181818" points="97.57,299.92,96.5724,290.1218,95.0869,295.5801,89.6286,294.0947,97.57,299.92" style="stroke:#181818;stroke-width:1.0;"/><text fill="#000000" font-family="sans-serif" font-size="13" lengthAdjust="spacing" textLength="46" x="76" y="201.4569">&#171;uses&#187;</text></g><!--link med3pa to detectron--><g id="link_med3pa_detectron"><path codeLine="23" d="M189,93.81 C189,116.06 189,142.18 189,164.42 " fill="none" id="med3pa-to-detectron" style="stroke:#181818;stroke-width:1.0;stroke-dasharray:7.0,7.0;"/><polygon fill="#181818" points="189,170.42,193,161.42,189,165.42,185,161.42,189,170.42" style="stroke:#181818;stroke-width:1.0;"/><text fill="#000000" font-family="sans-serif" font-size="13" lengthAdjust="spacing" textLength="46" x="190" y="136.6569">&#171;uses&#187;</text></g><!--SRC=[AqXCpavCJrLGIaajCIv8L5Aevb800Z1H09TBB4aiJYqfXidMOb6Jcv-IceDN1T26rEIIelmyX28q8r9Je4w0IKCOS8qAUdfs2X2B5AmKR6nAYrEBxUomg84v65aLM1d42Zpc82d0PWYw4hYjQ6eWH2q0]--></g></svg>