<svg xmlns="http://www.w3.org/2000/svg" xmlns:xlink="http://www.w3.org/1999/xlink" contentStyleType="text/css" height="1024px" preserveAspectRatio="none" style="width:2082px;height:1024px;background:#FFFFFF;" version="1.1" viewBox="0 0 2082 1024" width="2082px" zoomAndPan="magnify"><defs/><g><!--cluster Detectron Subpackage--><g id="cluster_Detectron Subpackage"><path d="M8.5,6 L189.5,6 A3.75,3.75 0 0 1 192,8.5 L199,28.2969 L2072.5,28.2969 A2.5,2.5 0 0 1 2075,30.7969 L2075,1014.59 A2.5,2.5 0 0 1 2072.5,1017.09 L8.5,1017.09 A2.5,2.5 0 0 1 6,1014.59 L6,8.5 A2.5,2.5 0 0 1 8.5,6 " fill="none" style="stroke:#000000;stroke-width:1.5;"/><line style="stroke:#000000;stroke-width:1.5;" x1="6" x2="199" y1="28.2969" y2="28.2969"/><text fill="#000000" font-family="sans-serif" font-size="14" font-weight="bold" lengthAdjust="spacing" textLength="180" x="10" y="20.9951">Detectron Subpackage</text></g><!--class DetectronEnsemble--><g id="elem_DetectronEnsemble"><rect codeLine="3" fill="#F1F1F1" height="113.1875" id="DetectronEnsemble" rx="2.5" ry="2.5" style="stroke:#181818;stroke-width:0.5;" width="949" x="60.5" y="214.89"/><ellipse cx="461.25" cy="230.89" fill="#ADD1B2" rx="11" ry="11" style="stroke:#181818;stroke-width:1.0;"/><path d="M464.2188,236.5306 Q463.6406,236.8275 463,236.9681 Q462.3594,237.1244 461.6563,237.1244 Q459.1563,237.1244 457.8281,235.4837 Q456.5156,233.8275 456.5156,230.7025 Q456.5156,227.5775 457.8281,225.9212 Q459.1563,224.265 461.6563,224.265 Q462.3594,224.265 463,224.4212 Q463.6563,224.5775 464.2188,224.8744 L464.2188,227.5931 Q463.5938,227.015 463,226.7494 Q462.4063,226.4681 461.7813,226.4681 Q460.4375,226.4681 459.75,227.5462 Q459.0625,228.6087 459.0625,230.7025 Q459.0625,232.7962 459.75,233.8744 Q460.4375,234.9369 461.7813,234.9369 Q462.4063,234.9369 463,234.6712 Q463.5938,234.39 464.2188,233.8119 L464.2188,236.5306 Z " fill="#000000"/><text fill="#000000" font-family="sans-serif" font-size="14" lengthAdjust="spacing" textLength="139" x="481.75" y="235.7367">DetectronEnsemble</text><line style="stroke:#181818;stroke-width:0.5;" x1="61.5" x2="1008.5" y1="246.89" y2="246.89"/><rect fill="none" height="6" style="stroke:#C82930;stroke-width:1.0;" width="6" x="68.5" y="257.5384"/><text fill="#000000" font-family="sans-serif" font-size="14" lengthAdjust="spacing" textLength="298" x="80.5" y="263.8851">base_model_manager: BaseModelManager</text><rect fill="none" height="6" style="stroke:#C82930;stroke-width:1.0;" width="6" x="68.5" y="273.8353"/><text fill="#000000" font-family="sans-serif" font-size="14" lengthAdjust="spacing" textLength="87" x="80.5" y="280.182">ens_size: int</text><rect fill="none" height="6" style="stroke:#C82930;stroke-width:1.0;" width="6" x="68.5" y="290.1322"/><text fill="#000000" font-family="sans-serif" font-size="14" lengthAdjust="spacing" textLength="113" x="80.5" y="296.4789">cdcs: list[Model]</text><line style="stroke:#181818;stroke-width:0.5;" x1="61.5" x2="1008.5" y1="303.7806" y2="303.7806"/><ellipse cx="71.5" cy="317.4291" fill="#84BE84" rx="3" ry="3" style="stroke:#038048;stroke-width:1.0;"/><text fill="#000000" font-family="sans-serif" font-size="14" lengthAdjust="spacing" textLength="923" x="80.5" y="320.7757">evaluate_ensemble(datasets, n_runs, samples_size, training_params, set, patience, allow_margin, margin): DetectronRecordsManager</text></g><!--class DetectronRecord--><g id="elem_DetectronRecord"><rect codeLine="10" fill="#F1F1F1" height="210.9688" id="DetectronRecord" rx="2.5" ry="2.5" style="stroke:#181818;stroke-width:0.5;" width="497" x="22.5" y="790.12"/><ellipse cx="206.75" cy="806.12" fill="#ADD1B2" rx="11" ry="11" style="stroke:#181818;stroke-width:1.0;"/><path d="M209.7188,811.7606 Q209.1406,812.0575 208.5,812.1981 Q207.8594,812.3544 207.1563,812.3544 Q204.6563,812.3544 203.3281,810.7137 Q202.0156,809.0575 202.0156,805.9325 Q202.0156,802.8075 203.3281,801.1512 Q204.6563,799.495 207.1563,799.495 Q207.8594,799.495 208.5,799.6512 Q209.1563,799.8075 209.7188,800.1044 L209.7188,802.8231 Q209.0938,802.245 208.5,801.9794 Q207.9063,801.6981 207.2813,801.6981 Q205.9375,801.6981 205.25,802.7762 Q204.5625,803.8387 204.5625,805.9325 Q204.5625,808.0262 205.25,809.1044 Q205.9375,810.1669 207.2813,810.1669 Q207.9063,810.1669 208.5,809.9012 Q209.0938,809.62 209.7188,809.0419 L209.7188,811.7606 Z " fill="#000000"/><text fill="#000000" font-family="sans-serif" font-size="14" lengthAdjust="spacing" textLength="120" x="227.25" y="810.9667">DetectronRecord</text><line style="stroke:#181818;stroke-width:0.5;" x1="23.5" x2="518.5" y1="822.12" y2="822.12"/><rect fill="none" height="6" style="stroke:#C82930;stroke-width:1.0;" width="6" x="30.5" y="832.7684"/><text fill="#000000" font-family="sans-serif" font-size="14" lengthAdjust="spacing" textLength="61" x="42.5" y="839.1151">seed: int</text><rect fill="none" height="6" style="stroke:#C82930;stroke-width:1.0;" width="6" x="30.5" y="849.0653"/><text fill="#000000" font-family="sans-serif" font-size="14" lengthAdjust="spacing" textLength="88" x="42.5" y="855.412">model_id: int</text><rect fill="none" height="6" style="stroke:#C82930;stroke-width:1.0;" width="6" x="30.5" y="865.3622"/><text fill="#000000" font-family="sans-serif" font-size="14" lengthAdjust="spacing" textLength="122" x="42.5" y="871.7089">original_count: int</text><rect fill="none" height="6" style="stroke:#C82930;stroke-width:1.0;" width="6" x="30.5" y="881.6591"/><text fill="#000000" font-family="sans-serif" font-size="14" lengthAdjust="spacing" textLength="134" x="42.5" y="888.0057">validation_auc: float</text><rect fill="none" height="6" style="stroke:#C82930;stroke-width:1.0;" width="6" x="30.5" y="897.9559"/><text fill="#000000" font-family="sans-serif" font-size="14" lengthAdjust="spacing" textLength="97" x="42.5" y="904.3026">test_auc: float</text><rect fill="none" height="6" style="stroke:#C82930;stroke-width:1.0;" width="6" x="30.5" y="914.2528"/><text fill="#000000" font-family="sans-serif" font-size="14" lengthAdjust="spacing" textLength="238" x="42.5" y="920.5995">predicted_probabilities: np.ndarray</text><rect fill="none" height="6" style="stroke:#C82930;stroke-width:1.0;" width="6" x="30.5" y="930.5497"/><text fill="#000000" font-family="sans-serif" font-size="14" lengthAdjust="spacing" textLength="131" x="42.5" y="936.8964">updated_count: int</text><rect fill="none" height="6" style="stroke:#C82930;stroke-width:1.0;" width="6" x="30.5" y="946.8466"/><text fill="#000000" font-family="sans-serif" font-size="14" lengthAdjust="spacing" textLength="148" x="42.5" y="953.1932">rejected_samples: int</text><line style="stroke:#181818;stroke-width:0.5;" x1="23.5" x2="518.5" y1="960.495" y2="960.495"/><ellipse cx="33.5" cy="974.1434" fill="#84BE84" rx="3" ry="3" style="stroke:#038048;stroke-width:1.0;"/><text fill="#000000" font-family="sans-serif" font-size="14" lengthAdjust="spacing" textLength="471" x="42.5" y="977.4901">update(validation_auc, test_auc, predicted_probabilities, count): void</text><ellipse cx="33.5" cy="990.4403" fill="#84BE84" rx="3" ry="3" style="stroke:#038048;stroke-width:1.0;"/><text fill="#000000" font-family="sans-serif" font-size="14" lengthAdjust="spacing" textLength="90" x="42.5" y="993.787">to_dict(): dict</text></g><!--class DetectronRecordsManager--><g id="elem_DetectronRecordsManager"><rect codeLine="23" fill="#F1F1F1" height="292.4531" id="DetectronRecordsManager" rx="2.5" ry="2.5" style="stroke:#181818;stroke-width:0.5;" width="818" x="261" y="437.67"/><ellipse cx="571.75" cy="453.67" fill="#ADD1B2" rx="11" ry="11" style="stroke:#181818;stroke-width:1.0;"/><path d="M574.7188,459.3106 Q574.1406,459.6075 573.5,459.7481 Q572.8594,459.9044 572.1563,459.9044 Q569.6563,459.9044 568.3281,458.2637 Q567.0156,456.6075 567.0156,453.4825 Q567.0156,450.3575 568.3281,448.7012 Q569.6563,447.045 572.1563,447.045 Q572.8594,447.045 573.5,447.2012 Q574.1563,447.3575 574.7188,447.6544 L574.7188,450.3731 Q574.0938,449.795 573.5,449.5294 Q572.9063,449.2481 572.2813,449.2481 Q570.9375,449.2481 570.25,450.3262 Q569.5625,451.3887 569.5625,453.4825 Q569.5625,455.5762 570.25,456.6544 Q570.9375,457.7169 572.2813,457.7169 Q572.9063,457.7169 573.5,457.4512 Q574.0938,457.17 574.7188,456.5919 L574.7188,459.3106 Z " fill="#000000"/><text fill="#000000" font-family="sans-serif" font-size="14" lengthAdjust="spacing" textLength="188" x="592.25" y="458.5167">DetectronRecordsManager</text><line style="stroke:#181818;stroke-width:0.5;" x1="262" x2="1078" y1="469.67" y2="469.67"/><rect fill="none" height="6" style="stroke:#C82930;stroke-width:1.0;" width="6" x="269" y="480.3184"/><text fill="#000000" font-family="sans-serif" font-size="14" lengthAdjust="spacing" textLength="116" x="281" y="486.6651">records: list[dict]</text><rect fill="none" height="6" style="stroke:#C82930;stroke-width:1.0;" width="6" x="269" y="496.6153"/><text fill="#000000" font-family="sans-serif" font-size="14" lengthAdjust="spacing" textLength="111" x="281" y="502.962">sample_size: int</text><rect fill="none" height="6" style="stroke:#C82930;stroke-width:1.0;" width="6" x="269" y="512.9122"/><text fill="#000000" font-family="sans-serif" font-size="14" lengthAdjust="spacing" textLength="45" x="281" y="519.2589">idx: int</text><rect fill="none" height="6" style="stroke:#C82930;stroke-width:1.0;" width="6" x="269" y="529.2091"/><text fill="#000000" font-family="sans-serif" font-size="14" lengthAdjust="spacing" textLength="75" x="281" y="535.5557">__seed: int</text><rect fill="none" height="6" style="stroke:#C82930;stroke-width:1.0;" width="6" x="269" y="545.5059"/><text fill="#000000" font-family="sans-serif" font-size="14" lengthAdjust="spacing" textLength="143" x="281" y="551.8526">sampling_counts: int</text><line style="stroke:#181818;stroke-width:0.5;" x1="262" x2="1078" y1="559.1544" y2="559.1544"/><ellipse cx="272" cy="572.8028" fill="#84BE84" rx="3" ry="3" style="stroke:#038048;stroke-width:1.0;"/><text fill="#000000" font-family="sans-serif" font-size="14" lengthAdjust="spacing" textLength="143" x="281" y="576.1495">seed(seed: int): void</text><ellipse cx="272" cy="589.0997" fill="#84BE84" rx="3" ry="3" style="stroke:#038048;stroke-width:1.0;"/><text fill="#000000" font-family="sans-serif" font-size="14" lengthAdjust="spacing" textLength="792" x="281" y="592.4464">update(val_data_x, val_data_y, sample_size, model, model_id, predicted_probabilities, test_data_x, test_data_y): void</text><ellipse cx="272" cy="605.3966" fill="#84BE84" rx="3" ry="3" style="stroke:#038048;stroke-width:1.0;"/><text fill="#000000" font-family="sans-serif" font-size="14" lengthAdjust="spacing" textLength="91" x="281" y="608.7432">freeze(): void</text><ellipse cx="272" cy="621.6934" fill="#84BE84" rx="3" ry="3" style="stroke:#038048;stroke-width:1.0;"/><text fill="#000000" font-family="sans-serif" font-size="14" lengthAdjust="spacing" textLength="191" x="281" y="625.0401">get_record(): pd.DataFrame</text><ellipse cx="272" cy="637.9903" fill="#84BE84" rx="3" ry="3" style="stroke:#038048;stroke-width:1.0;"/><text fill="#000000" font-family="sans-serif" font-size="14" lengthAdjust="spacing" textLength="110" x="281" y="641.337">save(path): void</text><ellipse cx="272" cy="654.2872" fill="#84BE84" rx="3" ry="3" style="stroke:#038048;stroke-width:1.0;"/><text fill="#000000" font-family="sans-serif" font-size="14" lengthAdjust="spacing" textLength="267" x="281" y="657.6339">load(path): DetectronRecordsManager</text><ellipse cx="272" cy="670.5841" fill="#84BE84" rx="3" ry="3" style="stroke:#038048;stroke-width:1.0;"/><text fill="#000000" font-family="sans-serif" font-size="14" lengthAdjust="spacing" textLength="279" x="281" y="673.9307">counts(max_ensemble_size): np.ndarray</text><ellipse cx="272" cy="686.8809" fill="#84BE84" rx="3" ry="3" style="stroke:#038048;stroke-width:1.0;"/><text fill="#000000" font-family="sans-serif" font-size="14" lengthAdjust="spacing" textLength="333" x="281" y="690.2276">rejection_rates(max_ensemble_size): np.ndarray</text><ellipse cx="272" cy="703.1778" fill="#84BE84" rx="3" ry="3" style="stroke:#038048;stroke-width:1.0;"/><text fill="#000000" font-family="sans-serif" font-size="14" lengthAdjust="spacing" textLength="387" x="281" y="706.5245">predicted_probabilities(max_ensemble_size): np.ndarray</text><ellipse cx="272" cy="719.4747" fill="#84BE84" rx="3" ry="3" style="stroke:#038048;stroke-width:1.0;"/><text fill="#000000" font-family="sans-serif" font-size="14" lengthAdjust="spacing" textLength="343" x="281" y="722.8214">rejected_counts(max_ensemble_size): np.ndarray</text></g><!--class EarlyStopper--><g id="elem_EarlyStopper"><rect codeLine="41" fill="#F1F1F1" height="145.7813" id="EarlyStopper" rx="2.5" ry="2.5" style="stroke:#181818;stroke-width:0.5;" width="205" x="21.5" y="511"/><ellipse cx="76.25" cy="527" fill="#ADD1B2" rx="11" ry="11" style="stroke:#181818;stroke-width:1.0;"/><path d="M79.2188,532.6406 Q78.6406,532.9375 78,533.0781 Q77.3594,533.2344 76.6563,533.2344 Q74.1563,533.2344 72.8281,531.5937 Q71.5156,529.9375 71.5156,526.8125 Q71.5156,523.6875 72.8281,522.0312 Q74.1563,520.375 76.6563,520.375 Q77.3594,520.375 78,520.5312 Q78.6563,520.6875 79.2188,520.9844 L79.2188,523.7031 Q78.5938,523.125 78,522.8594 Q77.4063,522.5781 76.7813,522.5781 Q75.4375,522.5781 74.75,523.6562 Q74.0625,524.7187 74.0625,526.8125 Q74.0625,528.9062 74.75,529.9844 Q75.4375,531.0469 76.7813,531.0469 Q77.4063,531.0469 78,530.7812 Q78.5938,530.5 79.2188,529.9219 L79.2188,532.6406 Z " fill="#000000"/><text fill="#000000" font-family="sans-serif" font-size="14" lengthAdjust="spacing" textLength="87" x="96.75" y="531.8467">EarlyStopper</text><line style="stroke:#181818;stroke-width:0.5;" x1="22.5" x2="225.5" y1="543" y2="543"/><rect fill="none" height="6" style="stroke:#C82930;stroke-width:1.0;" width="6" x="29.5" y="553.6484"/><text fill="#000000" font-family="sans-serif" font-size="14" lengthAdjust="spacing" textLength="86" x="41.5" y="559.9951">patience: int</text><rect fill="none" height="6" style="stroke:#C82930;stroke-width:1.0;" width="6" x="29.5" y="569.9453"/><text fill="#000000" font-family="sans-serif" font-size="14" lengthAdjust="spacing" textLength="104" x="41.5" y="576.292">min_delta: float</text><rect fill="none" height="6" style="stroke:#C82930;stroke-width:1.0;" width="6" x="29.5" y="586.2422"/><text fill="#000000" font-family="sans-serif" font-size="14" lengthAdjust="spacing" textLength="69" x="41.5" y="592.5889">best: float</text><rect fill="none" height="6" style="stroke:#C82930;stroke-width:1.0;" width="6" x="29.5" y="602.5391"/><text fill="#000000" font-family="sans-serif" font-size="14" lengthAdjust="spacing" textLength="53" x="41.5" y="608.8857">wait: int</text><rect fill="none" height="6" style="stroke:#C82930;stroke-width:1.0;" width="6" x="29.5" y="618.8359"/><text fill="#000000" font-family="sans-serif" font-size="14" lengthAdjust="spacing" textLength="67" x="41.5" y="625.1826">mode: str</text><line style="stroke:#181818;stroke-width:0.5;" x1="22.5" x2="225.5" y1="632.4844" y2="632.4844"/><ellipse cx="32.5" cy="646.1328" fill="#84BE84" rx="3" ry="3" style="stroke:#038048;stroke-width:1.0;"/><text fill="#000000" font-family="sans-serif" font-size="14" lengthAdjust="spacing" textLength="179" x="41.5" y="649.4795">update(metric: float): bool</text></g><!--class DetectronStrategy--><g id="elem_DetectronStrategy"><rect codeLine="50" fill="#F1F1F1" height="64.2969" id="DetectronStrategy" rx="2.5" ry="2.5" style="stroke:#181818;stroke-width:0.5;" width="478" x="1114" y="551.75"/><ellipse cx="1285.25" cy="567.75" fill="#ADD1B2" rx="11" ry="11" style="stroke:#181818;stroke-width:1.0;"/><path d="M1288.2188,573.3906 Q1287.6406,573.6875 1287,573.8281 Q1286.3594,573.9844 1285.6563,573.9844 Q1283.1563,573.9844 1281.8281,572.3438 Q1280.5156,570.6875 1280.5156,567.5625 Q1280.5156,564.4375 1281.8281,562.7813 Q1283.1563,561.125 1285.6563,561.125 Q1286.3594,561.125 1287,561.2813 Q1287.6563,561.4375 1288.2188,561.7344 L1288.2188,564.4531 Q1287.5938,563.875 1287,563.6094 Q1286.4063,563.3281 1285.7813,563.3281 Q1284.4375,563.3281 1283.75,564.4063 Q1283.0625,565.4688 1283.0625,567.5625 Q1283.0625,569.6563 1283.75,570.7344 Q1284.4375,571.7969 1285.7813,571.7969 Q1286.4063,571.7969 1287,571.5313 Q1287.5938,571.25 1288.2188,570.6719 L1288.2188,573.3906 Z " fill="#000000"/><text fill="#000000" font-family="sans-serif" font-size="14" lengthAdjust="spacing" textLength="127" x="1305.75" y="572.5967">DetectronStrategy</text><line style="stroke:#181818;stroke-width:0.5;" x1="1115" x2="1591" y1="583.75" y2="583.75"/><line style="stroke:#181818;stroke-width:0.5;" x1="1115" x2="1591" y1="591.75" y2="591.75"/><ellipse cx="1125" cy="605.3984" fill="#84BE84" rx="3" ry="3" style="stroke:#038048;stroke-width:1.0;"/><text fill="#000000" font-family="sans-serif" font-size="14" lengthAdjust="spacing" text-decoration="underline" textLength="452" x="1134" y="608.7451">execute(calibration_records, test_records, significance_level): dict</text></g><!--class DisagreementStrategy--><g id="elem_DisagreementStrategy"><rect codeLine="54" fill="#F1F1F1" height="64.2969" id="DisagreementStrategy" rx="2.5" ry="2.5" style="stroke:#181818;stroke-width:0.5;" width="478" x="1581" y="863.46"/><ellipse cx="1738.25" cy="879.46" fill="#ADD1B2" rx="11" ry="11" style="stroke:#181818;stroke-width:1.0;"/><path d="M1741.2188,885.1006 Q1740.6406,885.3975 1740,885.5381 Q1739.3594,885.6944 1738.6563,885.6944 Q1736.1563,885.6944 1734.8281,884.0537 Q1733.5156,882.3975 1733.5156,879.2725 Q1733.5156,876.1475 1734.8281,874.4912 Q1736.1563,872.835 1738.6563,872.835 Q1739.3594,872.835 1740,872.9912 Q1740.6563,873.1475 1741.2188,873.4444 L1741.2188,876.1631 Q1740.5938,875.585 1740,875.3194 Q1739.4063,875.0381 1738.7813,875.0381 Q1737.4375,875.0381 1736.75,876.1162 Q1736.0625,877.1787 1736.0625,879.2725 Q1736.0625,881.3662 1736.75,882.4444 Q1737.4375,883.5069 1738.7813,883.5069 Q1739.4063,883.5069 1740,883.2412 Q1740.5938,882.96 1741.2188,882.3819 L1741.2188,885.1006 Z " fill="#000000"/><text fill="#000000" font-family="sans-serif" font-size="14" lengthAdjust="spacing" textLength="155" x="1758.75" y="884.3067">DisagreementStrategy</text><line style="stroke:#181818;stroke-width:0.5;" x1="1582" x2="2058" y1="895.46" y2="895.46"/><line style="stroke:#181818;stroke-width:0.5;" x1="1582" x2="2058" y1="903.46" y2="903.46"/><ellipse cx="1592" cy="917.1084" fill="#84BE84" rx="3" ry="3" style="stroke:#038048;stroke-width:1.0;"/><text fill="#000000" font-family="sans-serif" font-size="14" lengthAdjust="spacing" text-decoration="underline" textLength="452" x="1601" y="920.4551">execute(calibration_records, test_records, significance_level): dict</text></g><!--class DisagreementStrategy_MW--><g id="elem_DisagreementStrategy_MW"><rect codeLine="58" fill="#F1F1F1" height="64.2969" id="DisagreementStrategy_MW" rx="2.5" ry="2.5" style="stroke:#181818;stroke-width:0.5;" width="478" x="555" y="863.46"/><ellipse cx="696.25" cy="879.46" fill="#ADD1B2" rx="11" ry="11" style="stroke:#181818;stroke-width:1.0;"/><path d="M699.2188,885.1006 Q698.6406,885.3975 698,885.5381 Q697.3594,885.6944 696.6563,885.6944 Q694.1563,885.6944 692.8281,884.0537 Q691.5156,882.3975 691.5156,879.2725 Q691.5156,876.1475 692.8281,874.4912 Q694.1563,872.835 696.6563,872.835 Q697.3594,872.835 698,872.9912 Q698.6563,873.1475 699.2188,873.4444 L699.2188,876.1631 Q698.5938,875.585 698,875.3194 Q697.4063,875.0381 696.7813,875.0381 Q695.4375,875.0381 694.75,876.1162 Q694.0625,877.1787 694.0625,879.2725 Q694.0625,881.3662 694.75,882.4444 Q695.4375,883.5069 696.7813,883.5069 Q697.4063,883.5069 698,883.2412 Q698.5938,882.96 699.2188,882.3819 L699.2188,885.1006 Z " fill="#000000"/><text fill="#000000" font-family="sans-serif" font-size="14" lengthAdjust="spacing" textLength="187" x="716.75" y="884.3067">DisagreementStrategy_MW</text><line style="stroke:#181818;stroke-width:0.5;" x1="556" x2="1032" y1="895.46" y2="895.46"/><line style="stroke:#181818;stroke-width:0.5;" x1="556" x2="1032" y1="903.46" y2="903.46"/><ellipse cx="566" cy="917.1084" fill="#84BE84" rx="3" ry="3" style="stroke:#038048;stroke-width:1.0;"/><text fill="#000000" font-family="sans-serif" font-size="14" lengthAdjust="spacing" text-decoration="underline" textLength="452" x="575" y="920.4551">execute(calibration_records, test_records, significance_level): dict</text></g><!--class DisagreementStrategy_KS--><g id="elem_DisagreementStrategy_KS"><rect codeLine="62" fill="#F1F1F1" height="64.2969" id="DisagreementStrategy_KS" rx="2.5" ry="2.5" style="stroke:#181818;stroke-width:0.5;" width="478" x="1068" y="863.46"/><ellipse cx="1212.75" cy="879.46" fill="#ADD1B2" rx="11" ry="11" style="stroke:#181818;stroke-width:1.0;"/><path d="M1215.7188,885.1006 Q1215.1406,885.3975 1214.5,885.5381 Q1213.8594,885.6944 1213.1563,885.6944 Q1210.6563,885.6944 1209.3281,884.0537 Q1208.0156,882.3975 1208.0156,879.2725 Q1208.0156,876.1475 1209.3281,874.4912 Q1210.6563,872.835 1213.1563,872.835 Q1213.8594,872.835 1214.5,872.9912 Q1215.1563,873.1475 1215.7188,873.4444 L1215.7188,876.1631 Q1215.0938,875.585 1214.5,875.3194 Q1213.9063,875.0381 1213.2813,875.0381 Q1211.9375,875.0381 1211.25,876.1162 Q1210.5625,877.1787 1210.5625,879.2725 Q1210.5625,881.3662 1211.25,882.4444 Q1211.9375,883.5069 1213.2813,883.5069 Q1213.9063,883.5069 1214.5,883.2412 Q1215.0938,882.96 1215.7188,882.3819 L1215.7188,885.1006 Z " fill="#000000"/><text fill="#000000" font-family="sans-serif" font-size="14" lengthAdjust="spacing" textLength="180" x="1233.25" y="884.3067">DisagreementStrategy_KS</text><line style="stroke:#181818;stroke-width:0.5;" x1="1069" x2="1545" y1="895.46" y2="895.46"/><line style="stroke:#181818;stroke-width:0.5;" x1="1069" x2="1545" y1="903.46" y2="903.46"/><ellipse cx="1079" cy="917.1084" fill="#84BE84" rx="3" ry="3" style="stroke:#038048;stroke-width:1.0;"/><text fill="#000000" font-family="sans-serif" font-size="14" lengthAdjust="spacing" text-decoration="underline" textLength="452" x="1088" y="920.4551">execute(calibration_records, test_records, significance_level): dict</text></g><!--class DetectronResult--><g id="elem_DetectronResult"><rect codeLine="66" fill="#F1F1F1" height="178.375" id="DetectronResult" rx="2.5" ry="2.5" style="stroke:#181818;stroke-width:0.5;" width="302" x="1123" y="182.29"/><ellipse cx="1212.75" cy="198.29" fill="#ADD1B2" rx="11" ry="11" style="stroke:#181818;stroke-width:1.0;"/><path d="M1215.7188,203.9306 Q1215.1406,204.2275 1214.5,204.3681 Q1213.8594,204.5244 1213.1563,204.5244 Q1210.6563,204.5244 1209.3281,202.8837 Q1208.0156,201.2275 1208.0156,198.1025 Q1208.0156,194.9775 1209.3281,193.3212 Q1210.6563,191.665 1213.1563,191.665 Q1213.8594,191.665 1214.5,191.8212 Q1215.1563,191.9775 1215.7188,192.2744 L1215.7188,194.9931 Q1215.0938,194.415 1214.5,194.1494 Q1213.9063,193.8681 1213.2813,193.8681 Q1211.9375,193.8681 1211.25,194.9462 Q1210.5625,196.0087 1210.5625,198.1025 Q1210.5625,200.1962 1211.25,201.2744 Q1211.9375,202.3369 1213.2813,202.3369 Q1213.9063,202.3369 1214.5,202.0712 Q1215.0938,201.79 1215.7188,201.2119 L1215.7188,203.9306 Z " fill="#000000"/><text fill="#000000" font-family="sans-serif" font-size="14" lengthAdjust="spacing" textLength="114" x="1233.25" y="203.1367">DetectronResult</text><line style="stroke:#181818;stroke-width:0.5;" x1="1124" x2="1424" y1="214.29" y2="214.29"/><rect fill="none" height="6" style="stroke:#C82930;stroke-width:1.0;" width="6" x="1131" y="224.9384"/><text fill="#000000" font-family="sans-serif" font-size="14" lengthAdjust="spacing" textLength="268" x="1143" y="231.2851">cal_record: DetectronRecordsManager</text><rect fill="none" height="6" style="stroke:#C82930;stroke-width:1.0;" width="6" x="1131" y="241.2353"/><text fill="#000000" font-family="sans-serif" font-size="14" lengthAdjust="spacing" textLength="276" x="1143" y="247.582">test_record: DetectronRecordsManager</text><rect fill="none" height="6" style="stroke:#C82930;stroke-width:1.0;" width="6" x="1131" y="257.5322"/><text fill="#000000" font-family="sans-serif" font-size="14" lengthAdjust="spacing" textLength="115" x="1143" y="263.8789">test_results: dict</text><line style="stroke:#181818;stroke-width:0.5;" x1="1124" x2="1424" y1="271.1806" y2="271.1806"/><ellipse cx="1134" cy="284.8291" fill="#84BE84" rx="3" ry="3" style="stroke:#038048;stroke-width:1.0;"/><text fill="#000000" font-family="sans-serif" font-size="14" lengthAdjust="spacing" textLength="270" x="1143" y="288.1757">calibration_trajectories(): pd.DataFrame</text><ellipse cx="1134" cy="301.1259" fill="#84BE84" rx="3" ry="3" style="stroke:#038048;stroke-width:1.0;"/><text fill="#000000" font-family="sans-serif" font-size="14" lengthAdjust="spacing" textLength="227" x="1143" y="304.4726">test_trajectories(): pd.DataFrame</text><ellipse cx="1134" cy="317.4228" fill="#84BE84" rx="3" ry="3" style="stroke:#038048;stroke-width:1.0;"/><text fill="#000000" font-family="sans-serif" font-size="14" lengthAdjust="spacing" textLength="214" x="1143" y="320.7695">get_experiments_results(): dict</text><ellipse cx="1134" cy="333.7197" fill="#84BE84" rx="3" ry="3" style="stroke:#038048;stroke-width:1.0;"/><text fill="#000000" font-family="sans-serif" font-size="14" lengthAdjust="spacing" textLength="206" x="1143" y="337.0664">analyze_results(strategy): dict</text><ellipse cx="1134" cy="350.0166" fill="#84BE84" rx="3" ry="3" style="stroke:#038048;stroke-width:1.0;"/><text fill="#000000" font-family="sans-serif" font-size="14" lengthAdjust="spacing" textLength="209" x="1143" y="353.3632">save(file_path, file_name): void</text></g><!--class DetectronExperiment--><g id="elem_DetectronExperiment"><rect codeLine="77" fill="#F1F1F1" height="64.2969" id="DetectronExperiment" rx="2.5" ry="2.5" style="stroke:#181818;stroke-width:0.5;" width="1111" x="718.5" y="41"/><ellipse cx="1195.75" cy="57" fill="#ADD1B2" rx="11" ry="11" style="stroke:#181818;stroke-width:1.0;"/><path d="M1198.7188,62.6406 Q1198.1406,62.9375 1197.5,63.0781 Q1196.8594,63.2344 1196.1563,63.2344 Q1193.6563,63.2344 1192.3281,61.5937 Q1191.0156,59.9375 1191.0156,56.8125 Q1191.0156,53.6875 1192.3281,52.0312 Q1193.6563,50.375 1196.1563,50.375 Q1196.8594,50.375 1197.5,50.5312 Q1198.1563,50.6875 1198.7188,50.9844 L1198.7188,53.7031 Q1198.0938,53.125 1197.5,52.8594 Q1196.9063,52.5781 1196.2813,52.5781 Q1194.9375,52.5781 1194.25,53.6562 Q1193.5625,54.7187 1193.5625,56.8125 Q1193.5625,58.9062 1194.25,59.9844 Q1194.9375,61.0469 1196.2813,61.0469 Q1196.9063,61.0469 1197.5,60.7812 Q1198.0938,60.5 1198.7188,59.9219 L1198.7188,62.6406 Z " fill="#000000"/><text fill="#000000" font-family="sans-serif" font-size="14" lengthAdjust="spacing" textLength="148" x="1216.25" y="61.8467">DetectronExperiment</text><line style="stroke:#181818;stroke-width:0.5;" x1="719.5" x2="1828.5" y1="73" y2="73"/><line style="stroke:#181818;stroke-width:0.5;" x1="719.5" x2="1828.5" y1="81" y2="81"/><ellipse cx="729.5" cy="94.6484" fill="#84BE84" rx="3" ry="3" style="stroke:#038048;stroke-width:1.0;"/><text fill="#000000" font-family="sans-serif" font-size="14" font-style="italic" lengthAdjust="spacing" textLength="1085" x="738.5" y="97.9951">run(datasets, training_params, base_model_manager, samples_size, calib_result, ensemble_size, num_calibration_runs, patience, allow_margin, margin): tuple</text></g><!--link DetectronEnsemble to EarlyStopper--><g id="link_DetectronEnsemble_EarlyStopper"><path codeLine="81" d="M413.98,328.53 C359.09,357.02 295.17,394.72 244,437.67 C218.82,458.8 198.6476,481.0184 178.8976,505.9284 " fill="none" id="DetectronEnsemble-to-EarlyStopper" style="stroke:#181818;stroke-width:1.0;stroke-dasharray:7.0,7.0;"/><polygon fill="#181818" points="175.17,510.63,183.8958,506.0628,178.2764,506.712,177.6271,501.0926,175.17,510.63" style="stroke:#181818;stroke-width:1.0;"/><text fill="#000000" font-family="sans-serif" font-size="13" lengthAdjust="spacing" textLength="46" x="303" y="403.7369">&#171;uses&#187;</text></g><!--reverse link DetectronRecordsManager to DetectronRecord--><g id="link_DetectronRecordsManager_DetectronRecord"><path codeLine="82" d="M473.0012,737.8089 C447.2012,757.8389 430.62,770.71 406.02,789.8 " fill="none" id="DetectronRecordsManager-backto-DetectronRecord" style="stroke:#181818;stroke-width:1.0;"/><polygon fill="#181818" points="482.48,730.45,475.2877,730.9699,473.0012,737.8089,480.1936,737.289,482.48,730.45" style="stroke:#181818;stroke-width:1.0;"/><text fill="#000000" font-family="sans-serif" font-size="13" lengthAdjust="spacing" textLength="7" x="408.2675" y="778.9048">*</text></g><!--reverse link DetectronResult to DetectronRecordsManager--><g id="link_DetectronResult_DetectronRecordsManager"><path codeLine="83" d="M1112.0772,355.6955 C1060.5372,382.1855 1011.79,407.24 953.31,437.29 " fill="none" id="DetectronResult-backto-DetectronRecordsManager" style="stroke:#181818;stroke-width:1.0;"/><polygon fill="none" points="1122.75,350.21,1115.5851,349.3951,1112.0772,355.6955,1119.2421,356.5104,1122.75,350.21" style="stroke:#181818;stroke-width:1.0;"/></g><!--link DetectronExperiment to DetectronResult--><g id="link_DetectronExperiment_DetectronResult"><path codeLine="84" d="M1274,105.69 C1274,126.5 1274,148.88 1274,176.22 " fill="none" id="DetectronExperiment-to-DetectronResult" style="stroke:#181818;stroke-width:1.0;stroke-dasharray:7.0,7.0;"/><polygon fill="#181818" points="1274,182.22,1278,173.22,1274,177.22,1270,173.22,1274,182.22" style="stroke:#181818;stroke-width:1.0;"/><text fill="#000000" font-family="sans-serif" font-size="13" lengthAdjust="spacing" textLength="55" x="1275" y="148.3569">&#171;return&#187;</text></g><!--link DetectronEnsemble to DetectronRecordsManager--><g id="link_DetectronEnsemble_DetectronRecordsManager"><path codeLine="85" d="M559.29,328.33 C572.61,358.97 587.4169,393.0079 604.2669,431.7479 " fill="none" id="DetectronEnsemble-to-DetectronRecordsManager" style="stroke:#181818;stroke-width:1.0;stroke-dasharray:7.0,7.0;"/><polygon fill="#181818" points="606.66,437.25,606.7384,427.4015,604.6657,432.6649,599.4022,430.5923,606.66,437.25" style="stroke:#181818;stroke-width:1.0;"/><text fill="#000000" font-family="sans-serif" font-size="13" lengthAdjust="spacing" textLength="55" x="591" y="403.7369">&#171;return&#187;</text></g><!--reverse link DetectronStrategy to DisagreementStrategy--><g id="link_DetectronStrategy_DisagreementStrategy"><path codeLine="86" d="M1415.3511,626.2482 C1504.8611,685.6082 1682.92,803.7 1772.53,863.12 " fill="none" id="DetectronStrategy-backto-DisagreementStrategy" style="stroke:#181818;stroke-width:1.0;"/><polygon fill="none" points="1400.35,616.3,1412.035,631.2486,1418.6672,621.2479,1400.35,616.3" style="stroke:#181818;stroke-width:1.0;"/></g><!--reverse link DetectronStrategy to DisagreementStrategy_MW--><g id="link_DetectronStrategy_DisagreementStrategy_MW"><path codeLine="87" d="M1282.0992,625.3588 C1230.1492,654.9488 1165.8,691.4 1096,730.12 C1011.69,776.9 913.56,830.12 852.61,863.04 " fill="none" id="DetectronStrategy-backto-DisagreementStrategy_MW" style="stroke:#181818;stroke-width:1.0;"/><polygon fill="none" points="1297.74,616.45,1279.1296,620.1452,1285.0688,630.5724,1297.74,616.45" style="stroke:#181818;stroke-width:1.0;"/></g><!--reverse link DetectronStrategy to DisagreementStrategy_KS--><g id="link_DetectronStrategy_DisagreementStrategy_KS"><path codeLine="88" d="M1345.6945,634.1045 C1336.8745,693.4645 1320.5,803.7 1311.68,863.12 " fill="none" id="DetectronStrategy-backto-DisagreementStrategy_KS" style="stroke:#181818;stroke-width:1.0;"/><polygon fill="none" points="1348.34,616.3,1339.7597,633.2227,1351.6294,634.9864,1348.34,616.3" style="stroke:#181818;stroke-width:1.0;"/></g><!--link DetectronResult to DetectronStrategy--><g id="link_DetectronResult_DetectronStrategy"><path codeLine="89" d="M1296.53,361.02 C1312.77,424.81 1333.73,507.16 1344.99,551.42 " fill="none" id="DetectronResult-DetectronStrategy" style="stroke:#181818;stroke-width:1.0;"/><text fill="#000000" font-family="sans-serif" font-size="13" lengthAdjust="spacing" textLength="46" x="1307" y="403.7369">&#171;uses&#187;</text></g><!--SRC=[pLR9Rjim4BtdAmYVd4Js1nX13aNJIv1BVUYX20YA6hjiAL8WASTEcd_laDgenKikGNsmRCx-vis81UD_s1R8x2iuuCveHTPbMbIdC_9sTKNmmoMpbhGg3yf2daf0CQa_YvHPeBdEGDASAJGsA_85pvxyqLDrqcc3ijIALrWHeLntp3DkLqGAwtu6k-TMT0ix9alcW48TV9unX_wTJOYYfbJuj2ml95IU4-8C4qgeBIsOORaNWqj8mPm0nL7EfDGlcApP2fMGwdczwghy3boRpCQvlq_2KId6O5Y0R51Q1OqO7ciZC2oJbEjIkO4GInPOfT2AifAlo4Pg5eaTM3SfA0naWZl8Q65qob8X1HQDoAfYgJ9c33jqocM18L1rAW43lo7ugP7jYsyhqta_JGI-pWl1daua8I4OWhtJ8klyEKsz-Xm5_daMygOtCVIcajGiycwUexw4CgQO9xBzu8JIYIu61vvJeO0X7jvWtbgDoklWefwxT9-GzlUXOMzDta2N-e6iEG5bGBlnr_qvZC9l3C0hp4VdMt2qGitBYcpv5Us_uSX0L1dRmHn7vzV86fcNDP9JenEKAzJcETktOnpglPwavcr5FyyhWy1TRdS4gm_6RMRY8hiUJH-OaOUrqqNHvsQpUuQhGIYARNPiDCWfjdDq-CA4crWkAsAT6P4j1sT4io4mxLHhUMAkriuZlJr4MRzPXsdpTrp1U-0b-kGuxwcf1huUjvfvxJyhjafi16TOBPMm0tbyfeLbMwHc3ifzLdZ_VIO5-lJZVyZYSVsPhUZcrvRInTJ5GBNBysE-Y1AuNDj7j55crSA8waD8_5ZY6nD7-UYc2jukK_MB3_Ouey93RfiSUg-Ve8WPoyChj0gsxiv8CQp9ZS0juJTYGi9FXK7ZjJaD-KERIDnmblfOt67ByOeJNNb6bvln_Mju7mfOrZKafBVFy0fLvhH7fd2XEdjPSYK6YAiQtn6No_l-GboHkxlIWhs_xriCtkatYmMPtSo6yg5D8Af6tLCycqBPvpNqurCpu4gZXidroZcMyd7pTh7T_VMfJapwH_LnFttOv74zYLuCNkibwjBxFm00]--></g></svg>