<svg xmlns="http://www.w3.org/2000/svg" xmlns:xlink="http://www.w3.org/1999/xlink" contentStyleType="text/css" height="1155px" preserveAspectRatio="none" style="width:1733px;height:1155px;background:#FFFFFF;" version="1.1" viewBox="0 0 1733 1155" width="1733px" zoomAndPan="magnify"><defs/><g><!--cluster Detectron Subpackage--><g id="cluster_Detectron Subpackage"><path d="M8.5,6 L189.2715,6 A3.75,3.75 0 0 1 191.7715,8.5 L198.7715,28.2969 L1723.5,28.2969 A2.5,2.5 0 0 1 1726,30.7969 L1726,1145.97 A2.5,2.5 0 0 1 1723.5,1148.47 L8.5,1148.47 A2.5,2.5 0 0 1 6,1145.97 L6,8.5 A2.5,2.5 0 0 1 8.5,6 " fill="none" style="stroke:#000000;stroke-width:1.5;"/><line style="stroke:#000000;stroke-width:1.5;" x1="6" x2="198.7715" y1="28.2969" y2="28.2969"/><text fill="#000000" font-family="sans-serif" font-size="14" font-weight="bold" lengthAdjust="spacing" textLength="179.7715" x="10" y="20.9951">Detectron Subpackage</text></g><!--class DetectronEnsemble--><g id="elem_DetectronEnsemble"><rect codeLine="3" fill="#F1F1F1" height="113.1875" id="DetectronEnsemble" rx="2.5" ry="2.5" style="stroke:#181818;stroke-width:0.5;" width="970.3779" x="50.81" y="345.27"/><ellipse cx="462.4838" cy="361.27" fill="#ADD1B2" rx="11" ry="11" style="stroke:#181818;stroke-width:1.0;"/><path d="M465.4526,366.9106 Q464.8745,367.2075 464.2338,367.3481 Q463.5932,367.5044 462.8901,367.5044 Q460.3901,367.5044 459.062,365.8638 Q457.7495,364.2075 457.7495,361.0825 Q457.7495,357.9575 459.062,356.3013 Q460.3901,354.645 462.8901,354.645 Q463.5932,354.645 464.2338,354.8013 Q464.8901,354.9575 465.4526,355.2544 L465.4526,357.9731 Q464.8276,357.395 464.2338,357.1294 Q463.6401,356.8481 463.0151,356.8481 Q461.6713,356.8481 460.9838,357.9263 Q460.2963,358.9888 460.2963,361.0825 Q460.2963,363.1763 460.9838,364.2544 Q461.6713,365.3169 463.0151,365.3169 Q463.6401,365.3169 464.2338,365.0513 Q464.8276,364.77 465.4526,364.1919 L465.4526,366.9106 Z " fill="#000000"/><text fill="#000000" font-family="sans-serif" font-size="14" lengthAdjust="spacing" textLength="138.5303" x="482.9838" y="366.1167">DetectronEnsemble</text><line style="stroke:#181818;stroke-width:0.5;" x1="51.81" x2="1020.1879" y1="377.27" y2="377.27"/><rect fill="none" height="6" style="stroke:#C82930;stroke-width:1.0;" width="6" x="58.81" y="387.9184"/><text fill="#000000" font-family="sans-serif" font-size="14" lengthAdjust="spacing" textLength="300.5488" x="70.81" y="394.2651">base_model_manager: BaseModelManager</text><rect fill="none" height="6" style="stroke:#C82930;stroke-width:1.0;" width="6" x="58.81" y="404.2153"/><text fill="#000000" font-family="sans-serif" font-size="14" lengthAdjust="spacing" textLength="86.3447" x="70.81" y="410.562">ens_size: int</text><rect fill="none" height="6" style="stroke:#C82930;stroke-width:1.0;" width="6" x="58.81" y="420.5122"/><text fill="#000000" font-family="sans-serif" font-size="14" lengthAdjust="spacing" textLength="114.2627" x="70.81" y="426.8589">cdcs: list[Model]</text><line style="stroke:#181818;stroke-width:0.5;" x1="51.81" x2="1020.1879" y1="434.1606" y2="434.1606"/><ellipse cx="61.81" cy="447.8091" fill="#84BE84" rx="3" ry="3" style="stroke:#038048;stroke-width:1.0;"/><text fill="#000000" font-family="sans-serif" font-size="14" lengthAdjust="spacing" textLength="944.3779" x="70.81" y="451.1557">evaluate_ensemble(datasets, n_runs, samples_size, training_params, set, patience, allow_margin, margin): DetectronRecordsManager</text></g><!--class DetectronRecord--><g id="elem_DetectronRecord"><rect codeLine="10" fill="#F1F1F1" height="210.9688" id="DetectronRecord" rx="2.5" ry="2.5" style="stroke:#181818;stroke-width:0.5;" width="511.5908" x="22.2" y="921.5"/><ellipse cx="214.1839" cy="937.5" fill="#ADD1B2" rx="11" ry="11" style="stroke:#181818;stroke-width:1.0;"/><path d="M217.1526,943.1406 Q216.5745,943.4375 215.9339,943.5781 Q215.2933,943.7344 214.5901,943.7344 Q212.0901,943.7344 210.762,942.0938 Q209.4495,940.4375 209.4495,937.3125 Q209.4495,934.1875 210.762,932.5313 Q212.0901,930.875 214.5901,930.875 Q215.2933,930.875 215.9339,931.0313 Q216.5901,931.1875 217.1526,931.4844 L217.1526,934.2031 Q216.5276,933.625 215.9339,933.3594 Q215.3401,933.0781 214.7151,933.0781 Q213.3714,933.0781 212.6839,934.1563 Q211.9964,935.2188 211.9964,937.3125 Q211.9964,939.4063 212.6839,940.4844 Q213.3714,941.5469 214.7151,941.5469 Q215.3401,941.5469 215.9339,941.2813 Q216.5276,941 217.1526,940.4219 L217.1526,943.1406 Z " fill="#000000"/><text fill="#000000" font-family="sans-serif" font-size="14" lengthAdjust="spacing" textLength="119.123" x="234.6839" y="942.3467">DetectronRecord</text><line style="stroke:#181818;stroke-width:0.5;" x1="23.2" x2="532.7908" y1="953.5" y2="953.5"/><rect fill="none" height="6" style="stroke:#C82930;stroke-width:1.0;" width="6" x="30.2" y="964.1484"/><text fill="#000000" font-family="sans-serif" font-size="14" lengthAdjust="spacing" textLength="60.8262" x="42.2" y="970.4951">seed: int</text><rect fill="none" height="6" style="stroke:#C82930;stroke-width:1.0;" width="6" x="30.2" y="980.4453"/><text fill="#000000" font-family="sans-serif" font-size="14" lengthAdjust="spacing" textLength="90.7881" x="42.2" y="986.792">model_id: int</text><rect fill="none" height="6" style="stroke:#C82930;stroke-width:1.0;" width="6" x="30.2" y="996.7422"/><text fill="#000000" font-family="sans-serif" font-size="14" lengthAdjust="spacing" textLength="126.2461" x="42.2" y="1003.0889">original_count: int</text><rect fill="none" height="6" style="stroke:#C82930;stroke-width:1.0;" width="6" x="30.2" y="1013.0391"/><text fill="#000000" font-family="sans-serif" font-size="14" lengthAdjust="spacing" textLength="141.6953" x="42.2" y="1019.3857">validation_auc: float</text><rect fill="none" height="6" style="stroke:#C82930;stroke-width:1.0;" width="6" x="30.2" y="1029.3359"/><text fill="#000000" font-family="sans-serif" font-size="14" lengthAdjust="spacing" textLength="99.6543" x="42.2" y="1035.6826">test_auc: float</text><rect fill="none" height="6" style="stroke:#C82930;stroke-width:1.0;" width="6" x="30.2" y="1045.6328"/><text fill="#000000" font-family="sans-serif" font-size="14" lengthAdjust="spacing" textLength="246.3262" x="42.2" y="1051.9795">predicted_probabilities: np.ndarray</text><rect fill="none" height="6" style="stroke:#C82930;stroke-width:1.0;" width="6" x="30.2" y="1061.9297"/><text fill="#000000" font-family="sans-serif" font-size="14" lengthAdjust="spacing" textLength="132.1318" x="42.2" y="1068.2764">updated_count: int</text><rect fill="none" height="6" style="stroke:#C82930;stroke-width:1.0;" width="6" x="30.2" y="1078.2266"/><text fill="#000000" font-family="sans-serif" font-size="14" lengthAdjust="spacing" textLength="150.1719" x="42.2" y="1084.5732">rejected_samples: int</text><line style="stroke:#181818;stroke-width:0.5;" x1="23.2" x2="532.7908" y1="1091.875" y2="1091.875"/><ellipse cx="33.2" cy="1105.5234" fill="#84BE84" rx="3" ry="3" style="stroke:#038048;stroke-width:1.0;"/><text fill="#000000" font-family="sans-serif" font-size="14" lengthAdjust="spacing" textLength="485.5908" x="42.2" y="1108.8701">update(validation_auc, test_auc, predicted_probabilities, count): void</text><ellipse cx="33.2" cy="1121.8203" fill="#84BE84" rx="3" ry="3" style="stroke:#038048;stroke-width:1.0;"/><text fill="#000000" font-family="sans-serif" font-size="14" lengthAdjust="spacing" textLength="93.0713" x="42.2" y="1125.167">to_dict(): dict</text></g><!--class DetectronRecordsManager--><g id="elem_DetectronRecordsManager"><rect codeLine="23" fill="#F1F1F1" height="292.4531" id="DetectronRecordsManager" rx="2.5" ry="2.5" style="stroke:#181818;stroke-width:0.5;" width="850.1475" x="268.93" y="568.05"/><ellipse cx="595.8621" cy="584.05" fill="#ADD1B2" rx="11" ry="11" style="stroke:#181818;stroke-width:1.0;"/><path d="M598.8309,589.6906 Q598.2528,589.9875 597.6121,590.1281 Q596.9715,590.2844 596.2684,590.2844 Q593.7684,590.2844 592.4403,588.6438 Q591.1278,586.9875 591.1278,583.8625 Q591.1278,580.7375 592.4403,579.0813 Q593.7684,577.425 596.2684,577.425 Q596.9715,577.425 597.6121,577.5813 Q598.2684,577.7375 598.8309,578.0344 L598.8309,580.7531 Q598.2059,580.175 597.6121,579.9094 Q597.0184,579.6281 596.3934,579.6281 Q595.0496,579.6281 594.3621,580.7063 Q593.6746,581.7688 593.6746,583.8625 Q593.6746,585.9563 594.3621,587.0344 Q595.0496,588.0969 596.3934,588.0969 Q597.0184,588.0969 597.6121,587.8313 Q598.2059,587.55 598.8309,586.9719 L598.8309,589.6906 Z " fill="#000000"/><text fill="#000000" font-family="sans-serif" font-size="14" lengthAdjust="spacing" textLength="187.7832" x="616.3621" y="588.8967">DetectronRecordsManager</text><line style="stroke:#181818;stroke-width:0.5;" x1="269.93" x2="1118.0775" y1="600.05" y2="600.05"/><rect fill="none" height="6" style="stroke:#C82930;stroke-width:1.0;" width="6" x="276.93" y="610.6984"/><text fill="#000000" font-family="sans-serif" font-size="14" lengthAdjust="spacing" textLength="119.1846" x="288.93" y="617.0451">records: list[dict]</text><rect fill="none" height="6" style="stroke:#C82930;stroke-width:1.0;" width="6" x="276.93" y="626.9953"/><text fill="#000000" font-family="sans-serif" font-size="14" lengthAdjust="spacing" textLength="112.4648" x="288.93" y="633.342">sample_size: int</text><rect fill="none" height="6" style="stroke:#C82930;stroke-width:1.0;" width="6" x="276.93" y="643.2922"/><text fill="#000000" font-family="sans-serif" font-size="14" lengthAdjust="spacing" textLength="48.4805" x="288.93" y="649.6389">idx: int</text><rect fill="none" height="6" style="stroke:#C82930;stroke-width:1.0;" width="6" x="276.93" y="659.5891"/><text fill="#000000" font-family="sans-serif" font-size="14" lengthAdjust="spacing" textLength="74.8262" x="288.93" y="665.9357">__seed: int</text><rect fill="none" height="6" style="stroke:#C82930;stroke-width:1.0;" width="6" x="276.93" y="675.8859"/><text fill="#000000" font-family="sans-serif" font-size="14" lengthAdjust="spacing" textLength="145.1475" x="288.93" y="682.2326">sampling_counts: int</text><line style="stroke:#181818;stroke-width:0.5;" x1="269.93" x2="1118.0775" y1="689.5344" y2="689.5344"/><ellipse cx="279.93" cy="703.1828" fill="#84BE84" rx="3" ry="3" style="stroke:#038048;stroke-width:1.0;"/><text fill="#000000" font-family="sans-serif" font-size="14" lengthAdjust="spacing" textLength="143.9512" x="288.93" y="706.5295">seed(seed: int): void</text><ellipse cx="279.93" cy="719.4797" fill="#84BE84" rx="3" ry="3" style="stroke:#038048;stroke-width:1.0;"/><text fill="#000000" font-family="sans-serif" font-size="14" lengthAdjust="spacing" textLength="824.1475" x="288.93" y="722.8264">update(val_data_x, val_data_y, sample_size, model, model_id, predicted_probabilities, test_data_x, test_data_y): void</text><ellipse cx="279.93" cy="735.7766" fill="#84BE84" rx="3" ry="3" style="stroke:#038048;stroke-width:1.0;"/><text fill="#000000" font-family="sans-serif" font-size="14" lengthAdjust="spacing" textLength="93.5908" x="288.93" y="739.1232">freeze(): void</text><ellipse cx="279.93" cy="752.0734" fill="#84BE84" rx="3" ry="3" style="stroke:#038048;stroke-width:1.0;"/><text fill="#000000" font-family="sans-serif" font-size="14" lengthAdjust="spacing" textLength="195.6445" x="288.93" y="755.4201">get_record(): pd.DataFrame</text><ellipse cx="279.93" cy="768.3703" fill="#84BE84" rx="3" ry="3" style="stroke:#038048;stroke-width:1.0;"/><text fill="#000000" font-family="sans-serif" font-size="14" lengthAdjust="spacing" textLength="114.3174" x="288.93" y="771.717">save(path): void</text><ellipse cx="279.93" cy="784.6672" fill="#84BE84" rx="3" ry="3" style="stroke:#038048;stroke-width:1.0;"/><text fill="#000000" font-family="sans-serif" font-size="14" lengthAdjust="spacing" textLength="269.623" x="288.93" y="788.0139">load(path): DetectronRecordsManager</text><ellipse cx="279.93" cy="800.9641" fill="#84BE84" rx="3" ry="3" style="stroke:#038048;stroke-width:1.0;"/><text fill="#000000" font-family="sans-serif" font-size="14" lengthAdjust="spacing" textLength="283.876" x="288.93" y="804.3107">counts(max_ensemble_size): np.ndarray</text><ellipse cx="279.93" cy="817.2609" fill="#84BE84" rx="3" ry="3" style="stroke:#038048;stroke-width:1.0;"/><text fill="#000000" font-family="sans-serif" font-size="14" lengthAdjust="spacing" textLength="341.2021" x="288.93" y="820.6076">rejection_rates(max_ensemble_size): np.ndarray</text><ellipse cx="279.93" cy="833.5578" fill="#84BE84" rx="3" ry="3" style="stroke:#038048;stroke-width:1.0;"/><text fill="#000000" font-family="sans-serif" font-size="14" lengthAdjust="spacing" textLength="397.3184" x="288.93" y="836.9045">predicted_probabilities(max_ensemble_size): np.ndarray</text><ellipse cx="279.93" cy="849.8547" fill="#84BE84" rx="3" ry="3" style="stroke:#038048;stroke-width:1.0;"/><text fill="#000000" font-family="sans-serif" font-size="14" lengthAdjust="spacing" textLength="348.4346" x="288.93" y="853.2014">rejected_counts(max_ensemble_size): np.ndarray</text></g><!--class EarlyStopper--><g id="elem_EarlyStopper"><rect codeLine="41" fill="#F1F1F1" height="145.7813" id="EarlyStopper" rx="2.5" ry="2.5" style="stroke:#181818;stroke-width:0.5;" width="211.0283" x="22.49" y="641.38"/><ellipse cx="78.5344" cy="657.38" fill="#ADD1B2" rx="11" ry="11" style="stroke:#181818;stroke-width:1.0;"/><path d="M81.5032,663.0206 Q80.9251,663.3175 80.2844,663.4581 Q79.6438,663.6144 78.9407,663.6144 Q76.4407,663.6144 75.1126,661.9738 Q73.8001,660.3175 73.8001,657.1925 Q73.8001,654.0675 75.1126,652.4113 Q76.4407,650.755 78.9407,650.755 Q79.6438,650.755 80.2844,650.9113 Q80.9407,651.0675 81.5032,651.3644 L81.5032,654.0831 Q80.8782,653.505 80.2844,653.2394 Q79.6907,652.9581 79.0657,652.9581 Q77.7219,652.9581 77.0344,654.0363 Q76.3469,655.0988 76.3469,657.1925 Q76.3469,659.2863 77.0344,660.3644 Q77.7219,661.4269 79.0657,661.4269 Q79.6907,661.4269 80.2844,661.1613 Q80.8782,660.88 81.5032,660.3019 L81.5032,663.0206 Z " fill="#000000"/><text fill="#000000" font-family="sans-serif" font-size="14" lengthAdjust="spacing" textLength="90.4395" x="99.0344" y="662.2267">EarlyStopper</text><line style="stroke:#181818;stroke-width:0.5;" x1="23.49" x2="232.5183" y1="673.38" y2="673.38"/><rect fill="none" height="6" style="stroke:#C82930;stroke-width:1.0;" width="6" x="30.49" y="684.0284"/><text fill="#000000" font-family="sans-serif" font-size="14" lengthAdjust="spacing" textLength="88.0605" x="42.49" y="690.3751">patience: int</text><rect fill="none" height="6" style="stroke:#C82930;stroke-width:1.0;" width="6" x="30.49" y="700.3253"/><text fill="#000000" font-family="sans-serif" font-size="14" lengthAdjust="spacing" textLength="109.4775" x="42.49" y="706.672">min_delta: float</text><rect fill="none" height="6" style="stroke:#C82930;stroke-width:1.0;" width="6" x="30.49" y="716.6222"/><text fill="#000000" font-family="sans-serif" font-size="14" lengthAdjust="spacing" textLength="70.9023" x="42.49" y="722.9689">best: float</text><rect fill="none" height="6" style="stroke:#C82930;stroke-width:1.0;" width="6" x="30.49" y="732.9191"/><text fill="#000000" font-family="sans-serif" font-size="14" lengthAdjust="spacing" textLength="56.8271" x="42.49" y="739.2657">wait: int</text><rect fill="none" height="6" style="stroke:#C82930;stroke-width:1.0;" width="6" x="30.49" y="749.2159"/><text fill="#000000" font-family="sans-serif" font-size="14" lengthAdjust="spacing" textLength="67.4092" x="42.49" y="755.5626">mode: str</text><line style="stroke:#181818;stroke-width:0.5;" x1="23.49" x2="232.5183" y1="762.8644" y2="762.8644"/><ellipse cx="33.49" cy="776.5128" fill="#84BE84" rx="3" ry="3" style="stroke:#038048;stroke-width:1.0;"/><text fill="#000000" font-family="sans-serif" font-size="14" lengthAdjust="spacing" textLength="185.0283" x="42.49" y="779.8595">update(metric: float): bool</text></g><!--class DetectronStrategy--><g id="elem_DetectronStrategy"><rect codeLine="50" fill="#F1F1F1" height="64.2969" id="DetectronStrategy" rx="2.5" ry="2.5" style="stroke:#181818;stroke-width:0.5;" width="357.2559" x="1154.37" y="682.13"/><ellipse cx="1263.8168" cy="698.13" fill="#ADD1B2" rx="11" ry="11" style="stroke:#181818;stroke-width:1.0;"/><path d="M1266.7855,703.7706 Q1266.2074,704.0675 1265.5668,704.2081 Q1264.9262,704.3644 1264.223,704.3644 Q1261.723,704.3644 1260.3949,702.7238 Q1259.0824,701.0675 1259.0824,697.9425 Q1259.0824,694.8175 1260.3949,693.1613 Q1261.723,691.505 1264.223,691.505 Q1264.9262,691.505 1265.5668,691.6613 Q1266.223,691.8175 1266.7855,692.1144 L1266.7855,694.8331 Q1266.1605,694.255 1265.5668,693.9894 Q1264.973,693.7081 1264.348,693.7081 Q1263.0043,693.7081 1262.3168,694.7863 Q1261.6293,695.8488 1261.6293,697.9425 Q1261.6293,700.0363 1262.3168,701.1144 Q1263.0043,702.1769 1264.348,702.1769 Q1264.973,702.1769 1265.5668,701.9113 Q1266.1605,701.63 1266.7855,701.0519 L1266.7855,703.7706 Z " fill="#000000"/><text fill="#000000" font-family="sans-serif" font-size="14" lengthAdjust="spacing" textLength="129.8623" x="1284.3168" y="702.9767">DetectronStrategy</text><line style="stroke:#181818;stroke-width:0.5;" x1="1155.37" x2="1510.6259" y1="714.13" y2="714.13"/><line style="stroke:#181818;stroke-width:0.5;" x1="1155.37" x2="1510.6259" y1="722.13" y2="722.13"/><ellipse cx="1165.37" cy="735.7784" fill="#84BE84" rx="3" ry="3" style="stroke:#038048;stroke-width:1.0;"/><text fill="#000000" font-family="sans-serif" font-size="14" lengthAdjust="spacing" text-decoration="underline" textLength="331.2559" x="1174.37" y="739.1251">execute(calibration_records, test_records): dict</text></g><!--class OriginalDisagreementStrategy--><g id="elem_OriginalDisagreementStrategy"><rect codeLine="54" fill="#F1F1F1" height="64.2969" id="OriginalDisagreementStrategy" rx="2.5" ry="2.5" style="stroke:#181818;stroke-width:0.5;" width="357.2559" x="1352.37" y="994.84"/><ellipse cx="1419.851" cy="1010.84" fill="#ADD1B2" rx="11" ry="11" style="stroke:#181818;stroke-width:1.0;"/><path d="M1422.8197,1016.4806 Q1422.2416,1016.7775 1421.601,1016.9181 Q1420.9603,1017.0744 1420.2572,1017.0744 Q1417.7572,1017.0744 1416.4291,1015.4338 Q1415.1166,1013.7775 1415.1166,1010.6525 Q1415.1166,1007.5275 1416.4291,1005.8713 Q1417.7572,1004.215 1420.2572,1004.215 Q1420.9603,1004.215 1421.601,1004.3713 Q1422.2572,1004.5275 1422.8197,1004.8244 L1422.8197,1007.5431 Q1422.1947,1006.965 1421.601,1006.6994 Q1421.0072,1006.4181 1420.3822,1006.4181 Q1419.0385,1006.4181 1418.351,1007.4963 Q1417.6635,1008.5588 1417.6635,1010.6525 Q1417.6635,1012.7463 1418.351,1013.8244 Q1419.0385,1014.8869 1420.3822,1014.8869 Q1421.0072,1014.8869 1421.601,1014.6213 Q1422.1947,1014.34 1422.8197,1013.7619 L1422.8197,1016.4806 Z " fill="#000000"/><text fill="#000000" font-family="sans-serif" font-size="14" lengthAdjust="spacing" textLength="213.7939" x="1440.351" y="1015.6867">OriginalDisagreementStrategy</text><line style="stroke:#181818;stroke-width:0.5;" x1="1353.37" x2="1708.6259" y1="1026.84" y2="1026.84"/><line style="stroke:#181818;stroke-width:0.5;" x1="1353.37" x2="1708.6259" y1="1034.84" y2="1034.84"/><ellipse cx="1363.37" cy="1048.4884" fill="#84BE84" rx="3" ry="3" style="stroke:#038048;stroke-width:1.0;"/><text fill="#000000" font-family="sans-serif" font-size="14" lengthAdjust="spacing" text-decoration="underline" textLength="331.2559" x="1372.37" y="1051.8351">execute(calibration_records, test_records): dict</text></g><!--class MannWhitneyStrategy--><g id="elem_MannWhitneyStrategy"><rect codeLine="58" fill="#F1F1F1" height="64.2969" id="MannWhitneyStrategy" rx="2.5" ry="2.5" style="stroke:#181818;stroke-width:0.5;" width="357.2559" x="568.37" y="994.84"/><ellipse cx="664.62" cy="1010.84" fill="#ADD1B2" rx="11" ry="11" style="stroke:#181818;stroke-width:1.0;"/><path d="M667.5888,1016.4806 Q667.0106,1016.7775 666.37,1016.9181 Q665.7294,1017.0744 665.0263,1017.0744 Q662.5263,1017.0744 661.1981,1015.4338 Q659.8856,1013.7775 659.8856,1010.6525 Q659.8856,1007.5275 661.1981,1005.8713 Q662.5263,1004.215 665.0263,1004.215 Q665.7294,1004.215 666.37,1004.3713 Q667.0263,1004.5275 667.5888,1004.8244 L667.5888,1007.5431 Q666.9638,1006.965 666.37,1006.6994 Q665.7763,1006.4181 665.1513,1006.4181 Q663.8075,1006.4181 663.12,1007.4963 Q662.4325,1008.5588 662.4325,1010.6525 Q662.4325,1012.7463 663.12,1013.8244 Q663.8075,1014.8869 665.1513,1014.8869 Q665.7763,1014.8869 666.37,1014.6213 Q666.9638,1014.34 667.5888,1013.7619 L667.5888,1016.4806 Z " fill="#000000"/><text fill="#000000" font-family="sans-serif" font-size="14" lengthAdjust="spacing" textLength="156.2559" x="685.12" y="1015.6867">MannWhitneyStrategy</text><line style="stroke:#181818;stroke-width:0.5;" x1="569.37" x2="924.6259" y1="1026.84" y2="1026.84"/><line style="stroke:#181818;stroke-width:0.5;" x1="569.37" x2="924.6259" y1="1034.84" y2="1034.84"/><ellipse cx="579.37" cy="1048.4884" fill="#84BE84" rx="3" ry="3" style="stroke:#038048;stroke-width:1.0;"/><text fill="#000000" font-family="sans-serif" font-size="14" lengthAdjust="spacing" text-decoration="underline" textLength="331.2559" x="588.37" y="1051.8351">execute(calibration_records, test_records): dict</text></g><!--class EnhancedDisagreementStrategy--><g id="elem_EnhancedDisagreementStrategy"><rect codeLine="62" fill="#F1F1F1" height="64.2969" id="EnhancedDisagreementStrategy" rx="2.5" ry="2.5" style="stroke:#181818;stroke-width:0.5;" width="357.2559" x="960.37" y="994.84"/><ellipse cx="1020.622" cy="1010.84" fill="#ADD1B2" rx="11" ry="11" style="stroke:#181818;stroke-width:1.0;"/><path d="M1023.5907,1016.4806 Q1023.0126,1016.7775 1022.372,1016.9181 Q1021.7313,1017.0744 1021.0282,1017.0744 Q1018.5282,1017.0744 1017.2001,1015.4338 Q1015.8876,1013.7775 1015.8876,1010.6525 Q1015.8876,1007.5275 1017.2001,1005.8713 Q1018.5282,1004.215 1021.0282,1004.215 Q1021.7313,1004.215 1022.372,1004.3713 Q1023.0282,1004.5275 1023.5907,1004.8244 L1023.5907,1007.5431 Q1022.9657,1006.965 1022.372,1006.6994 Q1021.7782,1006.4181 1021.1532,1006.4181 Q1019.8095,1006.4181 1019.122,1007.4963 Q1018.4345,1008.5588 1018.4345,1010.6525 Q1018.4345,1012.7463 1019.122,1013.8244 Q1019.8095,1014.8869 1021.1532,1014.8869 Q1021.7782,1014.8869 1022.372,1014.6213 Q1022.9657,1014.34 1023.5907,1013.7619 L1023.5907,1016.4806 Z " fill="#000000"/><text fill="#000000" font-family="sans-serif" font-size="14" lengthAdjust="spacing" textLength="228.252" x="1041.122" y="1015.6867">EnhancedDisagreementStrategy</text><line style="stroke:#181818;stroke-width:0.5;" x1="961.37" x2="1316.6259" y1="1026.84" y2="1026.84"/><line style="stroke:#181818;stroke-width:0.5;" x1="961.37" x2="1316.6259" y1="1034.84" y2="1034.84"/><ellipse cx="971.37" cy="1048.4884" fill="#84BE84" rx="3" ry="3" style="stroke:#038048;stroke-width:1.0;"/><text fill="#000000" font-family="sans-serif" font-size="14" lengthAdjust="spacing" text-decoration="underline" textLength="331.2559" x="980.37" y="1051.8351">execute(calibration_records, test_records): dict</text></g><!--class DetectronResult--><g id="elem_DetectronResult"><rect codeLine="66" fill="#F1F1F1" height="178.375" id="DetectronResult" rx="2.5" ry="2.5" style="stroke:#181818;stroke-width:0.5;" width="307.1074" x="1056.45" y="312.67"/><ellipse cx="1148.8719" cy="328.67" fill="#ADD1B2" rx="11" ry="11" style="stroke:#181818;stroke-width:1.0;"/><path d="M1151.8406,334.3106 Q1151.2625,334.6075 1150.6219,334.7481 Q1149.9813,334.9044 1149.2781,334.9044 Q1146.7781,334.9044 1145.45,333.2638 Q1144.1375,331.6075 1144.1375,328.4825 Q1144.1375,325.3575 1145.45,323.7013 Q1146.7781,322.045 1149.2781,322.045 Q1149.9813,322.045 1150.6219,322.2013 Q1151.2781,322.3575 1151.8406,322.6544 L1151.8406,325.3731 Q1151.2156,324.795 1150.6219,324.5294 Q1150.0281,324.2481 1149.4031,324.2481 Q1148.0594,324.2481 1147.3719,325.3263 Q1146.6844,326.3888 1146.6844,328.4825 Q1146.6844,330.5763 1147.3719,331.6544 Q1148.0594,332.7169 1149.4031,332.7169 Q1150.0281,332.7169 1150.6219,332.4513 Q1151.2156,332.17 1151.8406,331.5919 L1151.8406,334.3106 Z " fill="#000000"/><text fill="#000000" font-family="sans-serif" font-size="14" lengthAdjust="spacing" textLength="113.7637" x="1169.3719" y="333.5167">DetectronResult</text><line style="stroke:#181818;stroke-width:0.5;" x1="1057.45" x2="1362.5574" y1="344.67" y2="344.67"/><rect fill="none" height="6" style="stroke:#C82930;stroke-width:1.0;" width="6" x="1064.45" y="355.3184"/><text fill="#000000" font-family="sans-serif" font-size="14" lengthAdjust="spacing" textLength="269.3906" x="1076.45" y="361.6651">cal_record: DetectronRecordsManager</text><rect fill="none" height="6" style="stroke:#C82930;stroke-width:1.0;" width="6" x="1064.45" y="371.6153"/><text fill="#000000" font-family="sans-serif" font-size="14" lengthAdjust="spacing" textLength="276.1104" x="1076.45" y="377.962">test_record: DetectronRecordsManager</text><rect fill="none" height="6" style="stroke:#C82930;stroke-width:1.0;" width="6" x="1064.45" y="387.9122"/><text fill="#000000" font-family="sans-serif" font-size="14" lengthAdjust="spacing" textLength="116.2246" x="1076.45" y="394.2589">test_results: dict</text><line style="stroke:#181818;stroke-width:0.5;" x1="1057.45" x2="1362.5574" y1="401.5606" y2="401.5606"/><ellipse cx="1067.45" cy="415.2091" fill="#84BE84" rx="3" ry="3" style="stroke:#038048;stroke-width:1.0;"/><text fill="#000000" font-family="sans-serif" font-size="14" lengthAdjust="spacing" textLength="281.1074" x="1076.45" y="418.5557">calibration_trajectories(): pd.DataFrame</text><ellipse cx="1067.45" cy="431.5059" fill="#84BE84" rx="3" ry="3" style="stroke:#038048;stroke-width:1.0;"/><text fill="#000000" font-family="sans-serif" font-size="14" lengthAdjust="spacing" textLength="233.8984" x="1076.45" y="434.8526">test_trajectories(): pd.DataFrame</text><ellipse cx="1067.45" cy="447.8028" fill="#84BE84" rx="3" ry="3" style="stroke:#038048;stroke-width:1.0;"/><text fill="#000000" font-family="sans-serif" font-size="14" lengthAdjust="spacing" textLength="218.2031" x="1076.45" y="451.1495">get_experiments_results(): dict</text><ellipse cx="1067.45" cy="464.0997" fill="#84BE84" rx="3" ry="3" style="stroke:#038048;stroke-width:1.0;"/><text fill="#000000" font-family="sans-serif" font-size="14" lengthAdjust="spacing" textLength="224.335" x="1076.45" y="467.4464">analyze_results(strategies): dict</text><ellipse cx="1067.45" cy="480.3966" fill="#84BE84" rx="3" ry="3" style="stroke:#038048;stroke-width:1.0;"/><text fill="#000000" font-family="sans-serif" font-size="14" lengthAdjust="spacing" textLength="219.5635" x="1076.45" y="483.7432">save(file_path, file_name): void</text></g><!--class DetectronExperiment--><g id="elem_DetectronExperiment"><rect codeLine="77" fill="#F1F1F1" height="64.2969" id="DetectronExperiment" rx="2.5" ry="2.5" style="stroke:#181818;stroke-width:0.5;" width="1141.8301" x="73.08" y="106.19"/><ellipse cx="564.3617" cy="122.19" fill="#ADD1B2" rx="11" ry="11" style="stroke:#181818;stroke-width:1.0;"/><path d="M567.3305,127.8306 Q566.7524,128.1275 566.1117,128.2681 Q565.4711,128.4244 564.768,128.4244 Q562.268,128.4244 560.9399,126.7838 Q559.6274,125.1275 559.6274,122.0025 Q559.6274,118.8775 560.9399,117.2213 Q562.268,115.565 564.768,115.565 Q565.4711,115.565 566.1117,115.7213 Q566.768,115.8775 567.3305,116.1744 L567.3305,118.8931 Q566.7055,118.315 566.1117,118.0494 Q565.518,117.7681 564.893,117.7681 Q563.5492,117.7681 562.8617,118.8463 Q562.1742,119.9088 562.1742,122.0025 Q562.1742,124.0963 562.8617,125.1744 Q563.5492,126.2369 564.893,126.2369 Q565.518,126.2369 566.1117,125.9713 Q566.7055,125.69 567.3305,125.1119 L567.3305,127.8306 Z " fill="#000000"/><text fill="#000000" font-family="sans-serif" font-size="14" lengthAdjust="spacing" textLength="150.7666" x="584.8617" y="127.0367">DetectronExperiment</text><line style="stroke:#181818;stroke-width:0.5;" x1="74.08" x2="1213.9101" y1="138.19" y2="138.19"/><line style="stroke:#181818;stroke-width:0.5;" x1="74.08" x2="1213.9101" y1="146.19" y2="146.19"/><ellipse cx="84.08" cy="159.8384" fill="#84BE84" rx="3" ry="3" style="stroke:#038048;stroke-width:1.0;"/><text fill="#000000" font-family="sans-serif" font-size="14" font-style="italic" lengthAdjust="spacing" textLength="1115.8301" x="93.08" y="163.1851">run(datasets, training_params, base_model_manager, samples_size, calib_result, ensemble_size, num_calibration_runs, patience, allow_margin, margin): tuple</text></g><!--class DetectronComparison--><g id="elem_DetectronComparison"><rect codeLine="82" fill="#F1F1F1" height="194.6719" id="DetectronComparison" rx="2.5" ry="2.5" style="stroke:#181818;stroke-width:0.5;" width="280.6455" x="1364.68" y="41"/><ellipse cx="1423.9031" cy="57" fill="#ADD1B2" rx="11" ry="11" style="stroke:#181818;stroke-width:1.0;"/><path d="M1426.8719,62.6406 Q1426.2938,62.9375 1425.6531,63.0781 Q1425.0125,63.2344 1424.3094,63.2344 Q1421.8094,63.2344 1420.4813,61.5938 Q1419.1688,59.9375 1419.1688,56.8125 Q1419.1688,53.6875 1420.4813,52.0313 Q1421.8094,50.375 1424.3094,50.375 Q1425.0125,50.375 1425.6531,50.5313 Q1426.3094,50.6875 1426.8719,50.9844 L1426.8719,53.7031 Q1426.2469,53.125 1425.6531,52.8594 Q1425.0594,52.5781 1424.4344,52.5781 Q1423.0906,52.5781 1422.4031,53.6563 Q1421.7156,54.7188 1421.7156,56.8125 Q1421.7156,58.9063 1422.4031,59.9844 Q1423.0906,61.0469 1424.4344,61.0469 Q1425.0594,61.0469 1425.6531,60.7813 Q1426.2469,60.5 1426.8719,59.9219 L1426.8719,62.6406 Z " fill="#000000"/><text fill="#000000" font-family="sans-serif" font-size="14" lengthAdjust="spacing" textLength="153.6992" x="1444.4031" y="61.8467">DetectronComparison</text><line style="stroke:#181818;stroke-width:0.5;" x1="1365.68" x2="1644.3255" y1="73" y2="73"/><rect fill="none" height="6" style="stroke:#C82930;stroke-width:1.0;" width="6" x="1372.68" y="83.6484"/><text fill="#000000" font-family="sans-serif" font-size="14" lengthAdjust="spacing" textLength="122.6504" x="1384.68" y="89.9951">results1_path: str</text><rect fill="none" height="6" style="stroke:#C82930;stroke-width:1.0;" width="6" x="1372.68" y="99.9453"/><text fill="#000000" font-family="sans-serif" font-size="14" lengthAdjust="spacing" textLength="122.6504" x="1384.68" y="106.292">results2_path: str</text><rect fill="none" height="6" style="stroke:#C82930;stroke-width:1.0;" width="6" x="1372.68" y="116.2422"/><text fill="#000000" font-family="sans-serif" font-size="14" lengthAdjust="spacing" textLength="254.6455" x="1384.68" y="122.5889">detectron_results_comparaison: dict</text><rect fill="none" height="6" style="stroke:#C82930;stroke-width:1.0;" width="6" x="1372.68" y="132.5391"/><text fill="#000000" font-family="sans-serif" font-size="14" lengthAdjust="spacing" textLength="106.292" x="1384.68" y="138.8857">config_file: dict</text><line style="stroke:#181818;stroke-width:0.5;" x1="1365.68" x2="1644.3255" y1="146.1875" y2="146.1875"/><ellipse cx="1375.68" cy="159.8359" fill="#84BE84" rx="3" ry="3" style="stroke:#038048;stroke-width:1.0;"/><text fill="#000000" font-family="sans-serif" font-size="14" lengthAdjust="spacing" textLength="238.9639" x="1384.68" y="163.1826">_check_experiment_name(): None</text><ellipse cx="1375.68" cy="176.1328" fill="#84BE84" rx="3" ry="3" style="stroke:#038048;stroke-width:1.0;"/><text fill="#000000" font-family="sans-serif" font-size="14" lengthAdjust="spacing" textLength="247.543" x="1384.68" y="179.4795">compare_detectron_results(): None</text><ellipse cx="1375.68" cy="192.4297" fill="#84BE84" rx="3" ry="3" style="stroke:#038048;stroke-width:1.0;"/><text fill="#000000" font-family="sans-serif" font-size="14" lengthAdjust="spacing" textLength="168.1914" x="1384.68" y="195.7764">compare_config(): None</text><ellipse cx="1375.68" cy="208.7266" fill="#84BE84" rx="3" ry="3" style="stroke:#038048;stroke-width:1.0;"/><text fill="#000000" font-family="sans-serif" font-size="14" lengthAdjust="spacing" textLength="213.3018" x="1384.68" y="212.0732">compare_experiments(): None</text><ellipse cx="1375.68" cy="225.0234" fill="#84BE84" rx="3" ry="3" style="stroke:#038048;stroke-width:1.0;"/><text fill="#000000" font-family="sans-serif" font-size="14" lengthAdjust="spacing" textLength="218.8594" x="1384.68" y="228.3701">save(directory_path: str): None</text></g><!--link DetectronEnsemble to EarlyStopper--><g id="link_DetectronEnsemble_EarlyStopper"><path codeLine="95" d="M419.17,458.84 C365.17,487.57 301.88,525.48 251,568.05 C225.53,589.36 204.89,611.6685 184.61,636.5585 " fill="none" id="DetectronEnsemble-to-EarlyStopper" style="stroke:#181818;stroke-width:1.0;stroke-dasharray:7.0,7.0;"/><polygon fill="#181818" points="180.82,641.21,189.6059,636.7594,183.9783,637.3338,183.4039,631.7061,180.82,641.21" style="stroke:#181818;stroke-width:1.0;"/><text fill="#000000" font-family="sans-serif" font-size="13" lengthAdjust="spacing" textLength="45.6904" x="309" y="534.1169">&#171;uses&#187;</text></g><!--link DetectronExperiment to DetectronEnsemble--><g id="link_DetectronExperiment_DetectronEnsemble"><path codeLine="96" d="M630.97,170.88 C613.19,213.95 583.3102,286.3043 561.3902,339.3843 " fill="none" id="DetectronExperiment-to-DetectronEnsemble" style="stroke:#181818;stroke-width:1.0;stroke-dasharray:7.0,7.0;"/><polygon fill="#181818" points="559.1,344.93,566.2324,338.1382,561.0085,340.3086,558.8381,335.0846,559.1,344.93" style="stroke:#181818;stroke-width:1.0;"/><text fill="#000000" font-family="sans-serif" font-size="13" lengthAdjust="spacing" textLength="45.6904" x="591" y="278.7369">&#171;uses&#187;</text></g><!--reverse link DetectronRecordsManager to DetectronRecord--><g id="link_DetectronRecordsManager_DetectronRecord"><path codeLine="97" d="M489.4769,868.0325 C462.2269,888.3925 444.28,901.79 418.31,921.19 " fill="none" id="DetectronRecordsManager-backto-DetectronRecord" style="stroke:#181818;stroke-width:1.0;"/><polygon fill="#181818" points="499.09,860.85,491.8893,861.2369,489.4769,868.0325,496.6776,867.6456,499.09,860.85" style="stroke:#181818;stroke-width:1.0;"/><text fill="#000000" font-family="sans-serif" font-size="13" lengthAdjust="spacing" textLength="6.5" x="421.9825" y="910.2956">*</text></g><!--reverse link DetectronResult to DetectronRecordsManager--><g id="link_DetectronResult_DetectronRecordsManager"><path codeLine="98" d="M1052.5467,497.585 C1012.9267,521.415 979.28,541.65 935.97,567.71 " fill="none" id="DetectronResult-backto-DetectronRecordsManager" style="stroke:#181818;stroke-width:1.0;"/><polygon fill="none" points="1062.83,491.4,1055.6267,491.0648,1052.5467,497.585,1059.75,497.9203,1062.83,491.4" style="stroke:#181818;stroke-width:1.0;"/></g><!--link DetectronExperiment to DetectronResult--><g id="link_DetectronExperiment_DetectronResult"><path codeLine="99" d="M719.62,170.86 C799.6,204.58 929.15,260.31 1039,312.67 C1044.58,315.33 1044.8454,315.4436 1050.5554,318.2236 " fill="none" id="DetectronExperiment-to-DetectronResult" style="stroke:#181818;stroke-width:1.0;stroke-dasharray:7.0,7.0;"/><polygon fill="#181818" points="1055.95,320.85,1049.6091,313.3139,1051.4545,318.6613,1046.1071,320.5067,1055.95,320.85" style="stroke:#181818;stroke-width:1.0;"/><text fill="#000000" font-family="sans-serif" font-size="13" lengthAdjust="spacing" textLength="56.1704" x="965" y="278.7369">&#171;return&#187;</text></g><!--link DetectronEnsemble to DetectronRecordsManager--><g id="link_DetectronEnsemble_DetectronRecordsManager"><path codeLine="100" d="M564.43,458.71 C580.02,489.35 597.4281,523.5429 617.1481,562.2829 " fill="none" id="DetectronEnsemble-to-DetectronRecordsManager" style="stroke:#181818;stroke-width:1.0;stroke-dasharray:7.0,7.0;"/><polygon fill="#181818" points="619.87,567.63,619.3519,557.7948,617.6018,563.1741,612.2225,561.4239,619.87,567.63" style="stroke:#181818;stroke-width:1.0;"/><text fill="#000000" font-family="sans-serif" font-size="13" lengthAdjust="spacing" textLength="56.1704" x="601" y="534.1169">&#171;return&#187;</text></g><!--reverse link DetectronStrategy to OriginalDisagreementStrategy--><g id="link_DetectronStrategy_OriginalDisagreementStrategy"><path codeLine="101" d="M1362.7437,761.9596 C1400.6937,821.5096 1472.88,934.78 1510.87,994.4 " fill="none" id="DetectronStrategy-backto-OriginalDisagreementStrategy" style="stroke:#181818;stroke-width:1.0;"/><polygon fill="none" points="1353.07,746.78,1357.6838,765.1842,1367.8035,758.7351,1353.07,746.78" style="stroke:#181818;stroke-width:1.0;"/></g><!--reverse link DetectronStrategy to MannWhitneyStrategy--><g id="link_DetectronStrategy_MannWhitneyStrategy"><path codeLine="102" d="M1284.5959,758.5268 C1247.1659,790.9568 1198.32,829.26 1137,860.5 C1056.46,901.53 1026.35,886.54 943,921.5 C892.86,942.53 838.5,972.09 799.77,994.41 " fill="none" id="DetectronStrategy-backto-MannWhitneyStrategy" style="stroke:#181818;stroke-width:1.0;"/><polygon fill="none" points="1298.2,746.74,1280.667,753.9921,1288.5249,763.0615,1298.2,746.74" style="stroke:#181818;stroke-width:1.0;"/></g><!--reverse link DetectronStrategy to EnhancedDisagreementStrategy--><g id="link_DetectronStrategy_EnhancedDisagreementStrategy"><path codeLine="103" d="M1303.7972,762.0484 C1266.6172,821.5984 1195.94,934.78 1158.72,994.4 " fill="none" id="DetectronStrategy-backto-EnhancedDisagreementStrategy" style="stroke:#181818;stroke-width:1.0;"/><polygon fill="none" points="1313.33,746.78,1298.7077,758.8708,1308.8866,765.226,1313.33,746.78" style="stroke:#181818;stroke-width:1.0;"/></g><!--link DetectronResult to DetectronStrategy--><g id="link_DetectronResult_DetectronStrategy"><path codeLine="104" d="M1245.08,491.4 C1270.36,555.19 1302.99,637.54 1320.53,681.8 " fill="none" id="DetectronResult-DetectronStrategy" style="stroke:#181818;stroke-width:1.0;"/><text fill="#000000" font-family="sans-serif" font-size="13" lengthAdjust="spacing" textLength="45.6904" x="1261" y="534.1169">&#171;uses&#187;</text></g><!--SRC=[lLOxRzim4DxxAmXFJY8RQ4SZoD36tT82pT2X20YAEjji958WgSHEcl_U8_MY7fRT8VLWsRptTz-Tc3F-oBP0PhTWWLkj9BaluhmydP7N3ny8VdZAZ26DobeQoE8KK4ogpo9c1cYc4aXfnYGQwnNvZ6TtxkYkF6crGHfgn0kiY92sFUO9DokI2cD_URk7HdG5Jomjc0KALV1vmYpwjoOYakf2ujEmB4-Xz1mHgvcGGcvfpZJBd1XiH79c1KYESfQcwXcJrLiX8r8-BrPjbJ-0AvsOCFUtKJXAnH0C0v3qIYkX4VrZfGM6PIdbgf2s9yII1LOfbAIiu2koIHKBn1QC7HNa6XB1BIGqrofciKW55et8odmf4wOrExJAHOuXK7Ki0Gs_mVkfaEsAhqhJUJTD1BxA2y4UJoGYFXY2_QH4qlgpYZhrEGhSyoJaTMz2w7KfgLZat3m4VV5bZ35F9FlU2QKZNVGE7ATy0NqydC6yiHgKry957NVfFYBDxqFDtegydYxL0rap0QL7k_RN_ZaCmcyqm0lC1-TRiBH4pSdoP7cBzbznP22eZ3t174TdDx16vYMrP6fql7A9sZnZ-sQCVRqNezIyAkddUAKHkFFjZc3rZt7hcJZBhaFJDTFfuTwgFEzoizuz_TKW9CKsMpOOv1ZREJXyPiAEB9SLCLOFo9Q1rQBU49Xsh5GwCLVtrY6zFGHPlngBQVCtNC5xu0Nwv3ZliIu7lXgtYddLlwFp-xtQThV2i2tICGDftoEa-mx28W_bpvsm4Wx_8TfQxXWsENdl8iVteYbI6t8EdLRcf-Tp4GGxNzj5D45cvQG7jM3jRfxmLOSpU7J5U6_dgRgD1NiSBk6mDNKEdVU6LyICqyCBD0gcR0Cw7wZw3RSHEE1kcKN4_vGODjnuuw2lcrJ2zhBOHUCM6uota-2sChYN3AzE_QkCHxEg8YATLOItdoAZ7Uhukz39UuujC42VmMFbVL4PPYeCNWqxxraFwKSFLtVtrB9FOxAaTbit1PUiyyzSW5vJ5bp9ZTXIruj0r3QDyXtmnu0BlcEE1z-KXF2zuq807GG_hbg6FYuF-3TKycHAXFPKFhGmX8eLbuQNwkNofli6MP7hwyA0kRdfMRIySpP3JySCUxUdoyM2p2vdVNdVncyMXRfJY-5aSfKVbve6MsWvg2h4uLZAnysRJNlz1rETUk5CsOsyCQRKfrR-A8mXYeshe5rlVm40]--></g></svg>