<svg xmlns="http://www.w3.org/2000/svg" xmlns:xlink="http://www.w3.org/1999/xlink" contentStyleType="text/css" height="1117px" preserveAspectRatio="none" style="width:2342px;height:1117px;background:#FFFFFF;" version="1.1" viewBox="0 0 2342 1117" width="2342px" zoomAndPan="magnify"><defs/><g><!--cluster Med3pa Subpackage--><g id="cluster_Med3pa Subpackage"><path d="M8.5,6 L172.5,6 A3.75,3.75 0 0 1 175,8.5 L182,28.2969 L2332.5,28.2969 A2.5,2.5 0 0 1 2335,30.7969 L2335,1108.3 A2.5,2.5 0 0 1 2332.5,1110.8 L8.5,1110.8 A2.5,2.5 0 0 1 6,1108.3 L6,8.5 A2.5,2.5 0 0 1 8.5,6 " fill="none" style="stroke:#000000;stroke-width:1.5;"/><line style="stroke:#000000;stroke-width:1.5;" x1="6" x2="182" y1="28.2969" y2="28.2969"/><text fill="#000000" font-family="sans-serif" font-size="14" font-weight="bold" lengthAdjust="spacing" textLength="163" x="10" y="20.9951">Med3pa Subpackage</text></g><!--class UncertaintyMetric--><g id="elem_UncertaintyMetric"><rect codeLine="3" fill="#F1F1F1" height="64.2969" id="UncertaintyMetric" rx="2.5" ry="2.5" style="stroke:#181818;stroke-width:0.5;" width="595" x="22.5" y="519.16"/><ellipse cx="255.75" cy="535.16" fill="#A9DCDF" rx="11" ry="11" style="stroke:#181818;stroke-width:1.0;"/><path d="M255.8594,530.5038 L254.7031,535.5819 L257.0313,535.5819 L255.8594,530.5038 Z M254.375,528.2694 L257.3594,528.2694 L260.7188,540.66 L258.2656,540.66 L257.5,537.5975 L254.2188,537.5975 L253.4688,540.66 L251.0313,540.66 L254.375,528.2694 Z " fill="#000000"/><text fill="#000000" font-family="sans-serif" font-size="14" font-style="italic" lengthAdjust="spacing" textLength="120" x="276.25" y="540.0067">UncertaintyMetric</text><line style="stroke:#181818;stroke-width:0.5;" x1="23.5" x2="616.5" y1="551.16" y2="551.16"/><line style="stroke:#181818;stroke-width:0.5;" x1="23.5" x2="616.5" y1="559.16" y2="559.16"/><ellipse cx="33.5" cy="572.8084" fill="#84BE84" rx="3" ry="3" style="stroke:#038048;stroke-width:1.0;"/><text fill="#000000" font-family="sans-serif" font-size="14" font-style="italic" lengthAdjust="spacing" textLength="569" x="42.5" y="576.1551">calculate(x: np.ndarray, predicted_prob: np.ndarray, y_true: np.ndarray): np.ndarray</text></g><!--class AbsoluteError--><g id="elem_AbsoluteError"><rect codeLine="8" fill="#F1F1F1" height="64.2969" id="AbsoluteError" rx="2.5" ry="2.5" style="stroke:#181818;stroke-width:0.5;" width="595" x="22.5" y="701.5"/><ellipse cx="268.75" cy="717.5" fill="#ADD1B2" rx="11" ry="11" style="stroke:#181818;stroke-width:1.0;"/><path d="M271.7188,723.1406 Q271.1406,723.4375 270.5,723.5781 Q269.8594,723.7344 269.1563,723.7344 Q266.6563,723.7344 265.3281,722.0938 Q264.0156,720.4375 264.0156,717.3125 Q264.0156,714.1875 265.3281,712.5313 Q266.6563,710.875 269.1563,710.875 Q269.8594,710.875 270.5,711.0313 Q271.1563,711.1875 271.7188,711.4844 L271.7188,714.2031 Q271.0938,713.625 270.5,713.3594 Q269.9063,713.0781 269.2813,713.0781 Q267.9375,713.0781 267.25,714.1563 Q266.5625,715.2188 266.5625,717.3125 Q266.5625,719.4063 267.25,720.4844 Q267.9375,721.5469 269.2813,721.5469 Q269.9063,721.5469 270.5,721.2813 Q271.0938,721 271.7188,720.4219 L271.7188,723.1406 Z " fill="#000000"/><text fill="#000000" font-family="sans-serif" font-size="14" lengthAdjust="spacing" textLength="94" x="289.25" y="722.3467">AbsoluteError</text><line style="stroke:#181818;stroke-width:0.5;" x1="23.5" x2="616.5" y1="733.5" y2="733.5"/><line style="stroke:#181818;stroke-width:0.5;" x1="23.5" x2="616.5" y1="741.5" y2="741.5"/><ellipse cx="33.5" cy="755.1484" fill="#84BE84" rx="3" ry="3" style="stroke:#038048;stroke-width:1.0;"/><text fill="#000000" font-family="sans-serif" font-size="14" lengthAdjust="spacing" textLength="569" x="42.5" y="758.4951">calculate(x: np.ndarray, predicted_prob: np.ndarray, y_true: np.ndarray): np.ndarray</text></g><!--class UncertaintyCalculator--><g id="elem_UncertaintyCalculator"><rect codeLine="12" fill="#F1F1F1" height="80.5938" id="UncertaintyCalculator" rx="2.5" ry="2.5" style="stroke:#181818;stroke-width:0.5;" width="679" x="101.5" y="255.64"/><ellipse cx="363.75" cy="271.64" fill="#ADD1B2" rx="11" ry="11" style="stroke:#181818;stroke-width:1.0;"/><path d="M366.7188,277.2806 Q366.1406,277.5775 365.5,277.7181 Q364.8594,277.8744 364.1563,277.8744 Q361.6563,277.8744 360.3281,276.2338 Q359.0156,274.5775 359.0156,271.4525 Q359.0156,268.3275 360.3281,266.6713 Q361.6563,265.015 364.1563,265.015 Q364.8594,265.015 365.5,265.1713 Q366.1563,265.3275 366.7188,265.6244 L366.7188,268.3431 Q366.0938,267.765 365.5,267.4994 Q364.9063,267.2181 364.2813,267.2181 Q362.9375,267.2181 362.25,268.2963 Q361.5625,269.3588 361.5625,271.4525 Q361.5625,273.5463 362.25,274.6244 Q362.9375,275.6869 364.2813,275.6869 Q364.9063,275.6869 365.5,275.4213 Q366.0938,275.14 366.7188,274.5619 L366.7188,277.2806 Z " fill="#000000"/><text fill="#000000" font-family="sans-serif" font-size="14" lengthAdjust="spacing" textLength="146" x="384.25" y="276.4867">UncertaintyCalculator</text><line style="stroke:#181818;stroke-width:0.5;" x1="102.5" x2="779.5" y1="287.64" y2="287.64"/><rect fill="none" height="6" style="stroke:#C82930;stroke-width:1.0;" width="6" x="109.5" y="298.2884"/><text fill="#000000" font-family="sans-serif" font-size="14" lengthAdjust="spacing" textLength="172" x="121.5" y="304.6351">metric: UncertaintyMetric</text><line style="stroke:#181818;stroke-width:0.5;" x1="102.5" x2="779.5" y1="311.9369" y2="311.9369"/><ellipse cx="112.5" cy="325.5853" fill="#84BE84" rx="3" ry="3" style="stroke:#038048;stroke-width:1.0;"/><text fill="#000000" font-family="sans-serif" font-size="14" lengthAdjust="spacing" textLength="653" x="121.5" y="328.932">calculate_uncertainty(x: np.ndarray, predicted_prob: np.ndarray, y_true: np.ndarray): np.ndarray</text></g><!--class IPCModel--><g id="elem_IPCModel"><rect codeLine="17" fill="#F1F1F1" height="129.4844" id="IPCModel" rx="2.5" ry="2.5" style="stroke:#181818;stroke-width:0.5;" width="668" x="653" y="486.57"/><ellipse cx="950.75" cy="502.57" fill="#ADD1B2" rx="11" ry="11" style="stroke:#181818;stroke-width:1.0;"/><path d="M953.7188,508.2106 Q953.1406,508.5075 952.5,508.6481 Q951.8594,508.8044 951.1563,508.8044 Q948.6563,508.8044 947.3281,507.1637 Q946.0156,505.5075 946.0156,502.3825 Q946.0156,499.2575 947.3281,497.6012 Q948.6563,495.945 951.1563,495.945 Q951.8594,495.945 952.5,496.1012 Q953.1563,496.2575 953.7188,496.5544 L953.7188,499.2731 Q953.0938,498.695 952.5,498.4294 Q951.9063,498.1481 951.2813,498.1481 Q949.9375,498.1481 949.25,499.2262 Q948.5625,500.2887 948.5625,502.3825 Q948.5625,504.4762 949.25,505.5544 Q949.9375,506.6169 951.2813,506.6169 Q951.9063,506.6169 952.5,506.3512 Q953.0938,506.07 953.7188,505.4919 L953.7188,508.2106 Z " fill="#000000"/><text fill="#000000" font-family="sans-serif" font-size="14" lengthAdjust="spacing" textLength="64" x="971.25" y="507.4167">IPCModel</text><line style="stroke:#181818;stroke-width:0.5;" x1="654" x2="1320" y1="518.57" y2="518.57"/><rect fill="none" height="6" style="stroke:#C82930;stroke-width:1.0;" width="6" x="661" y="529.2184"/><text fill="#000000" font-family="sans-serif" font-size="14" lengthAdjust="spacing" textLength="259" x="673" y="535.5651">model_class: Type[RegressionModel]</text><rect fill="none" height="6" style="stroke:#C82930;stroke-width:1.0;" width="6" x="661" y="545.5153"/><text fill="#000000" font-family="sans-serif" font-size="14" lengthAdjust="spacing" textLength="173" x="673" y="551.862">model: RegressionModel</text><line style="stroke:#181818;stroke-width:0.5;" x1="654" x2="1320" y1="559.1637" y2="559.1637"/><ellipse cx="664" cy="572.8122" fill="#84BE84" rx="3" ry="3" style="stroke:#038048;stroke-width:1.0;"/><text fill="#000000" font-family="sans-serif" font-size="14" lengthAdjust="spacing" textLength="291" x="673" y="576.1589">train(x: np.ndarray, error_prob: np.ndarray)</text><ellipse cx="664" cy="589.1091" fill="#84BE84" rx="3" ry="3" style="stroke:#038048;stroke-width:1.0;"/><text fill="#000000" font-family="sans-serif" font-size="14" lengthAdjust="spacing" textLength="229" x="673" y="592.4557">predict(x: np.ndarray): np.ndarray</text><ellipse cx="664" cy="605.4059" fill="#84BE84" rx="3" ry="3" style="stroke:#038048;stroke-width:1.0;"/><text fill="#000000" font-family="sans-serif" font-size="14" lengthAdjust="spacing" textLength="642" x="673" y="608.7526">evaluate(X: np.ndarray, y: np.ndarray, eval_metrics: List[str], print_results: bool): Dict[str, float]</text></g><!--class APCModel--><g id="elem_APCModel"><rect codeLine="25" fill="#F1F1F1" height="129.4844" id="APCModel" rx="2.5" ry="2.5" style="stroke:#181818;stroke-width:0.5;" width="668" x="1356" y="486.57"/><ellipse cx="1650.75" cy="502.57" fill="#ADD1B2" rx="11" ry="11" style="stroke:#181818;stroke-width:1.0;"/><path d="M1653.7188,508.2106 Q1653.1406,508.5075 1652.5,508.6481 Q1651.8594,508.8044 1651.1563,508.8044 Q1648.6563,508.8044 1647.3281,507.1637 Q1646.0156,505.5075 1646.0156,502.3825 Q1646.0156,499.2575 1647.3281,497.6012 Q1648.6563,495.945 1651.1563,495.945 Q1651.8594,495.945 1652.5,496.1012 Q1653.1563,496.2575 1653.7188,496.5544 L1653.7188,499.2731 Q1653.0938,498.695 1652.5,498.4294 Q1651.9063,498.1481 1651.2813,498.1481 Q1649.9375,498.1481 1649.25,499.2262 Q1648.5625,500.2887 1648.5625,502.3825 Q1648.5625,504.4762 1649.25,505.5544 Q1649.9375,506.6169 1651.2813,506.6169 Q1651.9063,506.6169 1652.5,506.3512 Q1653.0938,506.07 1653.7188,505.4919 L1653.7188,508.2106 Z " fill="#000000"/><text fill="#000000" font-family="sans-serif" font-size="14" lengthAdjust="spacing" textLength="70" x="1671.25" y="507.4167">APCModel</text><line style="stroke:#181818;stroke-width:0.5;" x1="1357" x2="2023" y1="518.57" y2="518.57"/><rect fill="none" height="6" style="stroke:#C82930;stroke-width:1.0;" width="6" x="1364" y="529.2184"/><text fill="#000000" font-family="sans-serif" font-size="14" lengthAdjust="spacing" textLength="258" x="1376" y="535.5651">model: DecisionTreeRegressorModel</text><rect fill="none" height="6" style="stroke:#C82930;stroke-width:1.0;" width="6" x="1364" y="545.5153"/><text fill="#000000" font-family="sans-serif" font-size="14" lengthAdjust="spacing" textLength="283" x="1376" y="551.862">treeRepresentation: TreeRepresentation</text><line style="stroke:#181818;stroke-width:0.5;" x1="1357" x2="2023" y1="559.1637" y2="559.1637"/><ellipse cx="1367" cy="572.8122" fill="#84BE84" rx="3" ry="3" style="stroke:#038048;stroke-width:1.0;"/><text fill="#000000" font-family="sans-serif" font-size="14" lengthAdjust="spacing" textLength="291" x="1376" y="576.1589">train(x: np.ndarray, error_prob: np.ndarray)</text><ellipse cx="1367" cy="589.1091" fill="#84BE84" rx="3" ry="3" style="stroke:#038048;stroke-width:1.0;"/><text fill="#000000" font-family="sans-serif" font-size="14" lengthAdjust="spacing" textLength="479" x="1376" y="592.4557">predict(X: np.ndarray, depth: int, min_samples_ratio: float): np.ndarray</text><ellipse cx="1367" cy="605.4059" fill="#84BE84" rx="3" ry="3" style="stroke:#038048;stroke-width:1.0;"/><text fill="#000000" font-family="sans-serif" font-size="14" lengthAdjust="spacing" textLength="642" x="1376" y="608.7526">evaluate(X: np.ndarray, y: np.ndarray, eval_metrics: List[str], print_results: bool): Dict[str, float]</text></g><!--class MPCModel--><g id="elem_MPCModel"><rect codeLine="33" fill="#F1F1F1" height="96.8906" id="MPCModel" rx="2.5" ry="2.5" style="stroke:#181818;stroke-width:0.5;" width="187" x="893.5" y="247.49"/><ellipse cx="946.25" cy="263.49" fill="#ADD1B2" rx="11" ry="11" style="stroke:#181818;stroke-width:1.0;"/><path d="M949.2188,269.1306 Q948.6406,269.4275 948,269.5681 Q947.3594,269.7244 946.6563,269.7244 Q944.1563,269.7244 942.8281,268.0838 Q941.5156,266.4275 941.5156,263.3025 Q941.5156,260.1775 942.8281,258.5213 Q944.1563,256.865 946.6563,256.865 Q947.3594,256.865 948,257.0213 Q948.6563,257.1775 949.2188,257.4744 L949.2188,260.1931 Q948.5938,259.615 948,259.3494 Q947.4063,259.0681 946.7813,259.0681 Q945.4375,259.0681 944.75,260.1463 Q944.0625,261.2088 944.0625,263.3025 Q944.0625,265.3963 944.75,266.4744 Q945.4375,267.5369 946.7813,267.5369 Q947.4063,267.5369 948,267.2713 Q948.5938,266.99 949.2188,266.4119 L949.2188,269.1306 Z " fill="#000000"/><text fill="#000000" font-family="sans-serif" font-size="14" lengthAdjust="spacing" textLength="73" x="966.75" y="268.3367">MPCModel</text><line style="stroke:#181818;stroke-width:0.5;" x1="894.5" x2="1079.5" y1="279.49" y2="279.49"/><rect fill="none" height="6" style="stroke:#C82930;stroke-width:1.0;" width="6" x="901.5" y="290.1384"/><text fill="#000000" font-family="sans-serif" font-size="14" lengthAdjust="spacing" textLength="155" x="913.5" y="296.4851">IPC_values: np.ndarray</text><rect fill="none" height="6" style="stroke:#C82930;stroke-width:1.0;" width="6" x="901.5" y="306.4353"/><text fill="#000000" font-family="sans-serif" font-size="14" lengthAdjust="spacing" textLength="161" x="913.5" y="312.782">APC_values: np.ndarray</text><line style="stroke:#181818;stroke-width:0.5;" x1="894.5" x2="1079.5" y1="320.0838" y2="320.0838"/><ellipse cx="904.5" cy="333.7322" fill="#84BE84" rx="3" ry="3" style="stroke:#038048;stroke-width:1.0;"/><text fill="#000000" font-family="sans-serif" font-size="14" lengthAdjust="spacing" textLength="140" x="913.5" y="337.0789">predict(): np.ndarray</text></g><!--class TreeRepresentation--><g id="elem_TreeRepresentation"><rect codeLine="40" fill="#F1F1F1" height="113.1875" id="TreeRepresentation" rx="2.5" ry="2.5" style="stroke:#181818;stroke-width:0.5;" width="747" x="1400.5" y="677.05"/><ellipse cx="1700.25" cy="693.05" fill="#ADD1B2" rx="11" ry="11" style="stroke:#181818;stroke-width:1.0;"/><path d="M1703.2188,698.6906 Q1702.6406,698.9875 1702,699.1281 Q1701.3594,699.2844 1700.6563,699.2844 Q1698.1563,699.2844 1696.8281,697.6438 Q1695.5156,695.9875 1695.5156,692.8625 Q1695.5156,689.7375 1696.8281,688.0813 Q1698.1563,686.425 1700.6563,686.425 Q1701.3594,686.425 1702,686.5813 Q1702.6563,686.7375 1703.2188,687.0344 L1703.2188,689.7531 Q1702.5938,689.175 1702,688.9094 Q1701.4063,688.6281 1700.7813,688.6281 Q1699.4375,688.6281 1698.75,689.7063 Q1698.0625,690.7688 1698.0625,692.8625 Q1698.0625,694.9563 1698.75,696.0344 Q1699.4375,697.0969 1700.7813,697.0969 Q1701.4063,697.0969 1702,696.8313 Q1702.5938,696.55 1703.2188,695.9719 L1703.2188,698.6906 Z " fill="#000000"/><text fill="#000000" font-family="sans-serif" font-size="14" lengthAdjust="spacing" textLength="139" x="1720.75" y="697.8967">TreeRepresentation</text><line style="stroke:#181818;stroke-width:0.5;" x1="1401.5" x2="2146.5" y1="709.05" y2="709.05"/><rect fill="none" height="6" style="stroke:#C82930;stroke-width:1.0;" width="6" x="1408.5" y="719.6984"/><text fill="#000000" font-family="sans-serif" font-size="14" lengthAdjust="spacing" textLength="85" x="1420.5" y="726.0451">features: list</text><rect fill="none" height="6" style="stroke:#C82930;stroke-width:1.0;" width="6" x="1408.5" y="735.9953"/><text fill="#000000" font-family="sans-serif" font-size="14" lengthAdjust="spacing" textLength="120" x="1420.5" y="742.342">head: _TreeNode</text><line style="stroke:#181818;stroke-width:0.5;" x1="1401.5" x2="2146.5" y1="749.6438" y2="749.6438"/><ellipse cx="1411.5" cy="763.2922" fill="#84BE84" rx="3" ry="3" style="stroke:#038048;stroke-width:1.0;"/><text fill="#000000" font-family="sans-serif" font-size="14" lengthAdjust="spacing" textLength="721" x="1420.5" y="766.6389">build_tree(dtr: DecisionTreeRegressorModel, X: DataFrame, y: Series, node_id: int, path: list): _TreeNode</text><ellipse cx="1411.5" cy="779.5891" fill="#84BE84" rx="3" ry="3" style="stroke:#038048;stroke-width:1.0;"/><text fill="#000000" font-family="sans-serif" font-size="14" lengthAdjust="spacing" textLength="398" x="1420.5" y="782.9357">get_all_profiles(min_ca: float, min_samples_ratio: float): list</text></g><!--class _TreeNode--><g id="elem__TreeNode"><rect codeLine="47" fill="#F1F1F1" height="243.5625" id="_TreeNode" rx="2.5" ry="2.5" style="stroke:#181818;stroke-width:0.5;" width="559" x="1494.5" y="851.24"/><ellipse cx="1731.75" cy="867.24" fill="#ADD1B2" rx="11" ry="11" style="stroke:#181818;stroke-width:1.0;"/><path d="M1734.7188,872.8806 Q1734.1406,873.1775 1733.5,873.3181 Q1732.8594,873.4744 1732.1563,873.4744 Q1729.6563,873.4744 1728.3281,871.8338 Q1727.0156,870.1775 1727.0156,867.0525 Q1727.0156,863.9275 1728.3281,862.2713 Q1729.6563,860.615 1732.1563,860.615 Q1732.8594,860.615 1733.5,860.7713 Q1734.1563,860.9275 1734.7188,861.2244 L1734.7188,863.9431 Q1734.0938,863.365 1733.5,863.0994 Q1732.9063,862.8181 1732.2813,862.8181 Q1730.9375,862.8181 1730.25,863.8963 Q1729.5625,864.9588 1729.5625,867.0525 Q1729.5625,869.1463 1730.25,870.2244 Q1730.9375,871.2869 1732.2813,871.2869 Q1732.9063,871.2869 1733.5,871.0213 Q1734.0938,870.74 1734.7188,870.1619 L1734.7188,872.8806 Z " fill="#000000"/><text fill="#000000" font-family="sans-serif" font-size="14" lengthAdjust="spacing" textLength="76" x="1752.25" y="872.0867">_TreeNode</text><line style="stroke:#181818;stroke-width:0.5;" x1="1495.5" x2="2052.5" y1="883.24" y2="883.24"/><rect fill="none" height="6" style="stroke:#C82930;stroke-width:1.0;" width="6" x="1502.5" y="893.8884"/><text fill="#000000" font-family="sans-serif" font-size="14" lengthAdjust="spacing" textLength="74" x="1514.5" y="900.2351">value: float</text><rect fill="none" height="6" style="stroke:#C82930;stroke-width:1.0;" width="6" x="1502.5" y="910.1853"/><text fill="#000000" font-family="sans-serif" font-size="14" lengthAdjust="spacing" textLength="109" x="1514.5" y="916.532">value_max: float</text><rect fill="none" height="6" style="stroke:#C82930;stroke-width:1.0;" width="6" x="1502.5" y="926.4822"/><text fill="#000000" font-family="sans-serif" font-size="14" lengthAdjust="spacing" textLength="133" x="1514.5" y="932.8289">samples_ratio: float</text><rect fill="none" height="6" style="stroke:#C82930;stroke-width:1.0;" width="6" x="1502.5" y="942.7791"/><text fill="#000000" font-family="sans-serif" font-size="14" lengthAdjust="spacing" textLength="104" x="1514.5" y="949.1257">threshold: float</text><rect fill="none" height="6" style="stroke:#C82930;stroke-width:1.0;" width="6" x="1502.5" y="959.0759"/><text fill="#000000" font-family="sans-serif" font-size="14" lengthAdjust="spacing" textLength="76" x="1514.5" y="965.4226">feature: str</text><rect fill="none" height="6" style="stroke:#C82930;stroke-width:1.0;" width="6" x="1502.5" y="975.3728"/><text fill="#000000" font-family="sans-serif" font-size="14" lengthAdjust="spacing" textLength="94" x="1514.5" y="981.7195">feature_id: int</text><rect fill="none" height="6" style="stroke:#C82930;stroke-width:1.0;" width="6" x="1502.5" y="991.6697"/><text fill="#000000" font-family="sans-serif" font-size="14" lengthAdjust="spacing" textLength="81" x="1514.5" y="998.0164">node_id: int</text><rect fill="none" height="6" style="stroke:#C82930;stroke-width:1.0;" width="6" x="1502.5" y="1007.9666"/><text fill="#000000" font-family="sans-serif" font-size="14" lengthAdjust="spacing" textLength="121" x="1514.5" y="1014.3132">c_left: _TreeNode</text><rect fill="none" height="6" style="stroke:#C82930;stroke-width:1.0;" width="6" x="1502.5" y="1024.2634"/><text fill="#000000" font-family="sans-serif" font-size="14" lengthAdjust="spacing" textLength="131" x="1514.5" y="1030.6101">c_right: _TreeNode</text><rect fill="none" height="6" style="stroke:#C82930;stroke-width:1.0;" width="6" x="1502.5" y="1040.5603"/><text fill="#000000" font-family="sans-serif" font-size="14" lengthAdjust="spacing" textLength="59" x="1514.5" y="1046.907">path: list</text><line style="stroke:#181818;stroke-width:0.5;" x1="1495.5" x2="2052.5" y1="1054.2088" y2="1054.2088"/><ellipse cx="1505.5" cy="1067.8572" fill="#84BE84" rx="3" ry="3" style="stroke:#038048;stroke-width:1.0;"/><text fill="#000000" font-family="sans-serif" font-size="14" lengthAdjust="spacing" textLength="533" x="1514.5" y="1071.2039">assign_node(X: DataFrame | Series, depth: int, min_samples_ratio: float): float</text><ellipse cx="1505.5" cy="1084.1541" fill="#84BE84" rx="3" ry="3" style="stroke:#038048;stroke-width:1.0;"/><text fill="#000000" font-family="sans-serif" font-size="14" lengthAdjust="spacing" textLength="369" x="1514.5" y="1087.5007">get_profile(min_samples_ratio: float, min_ca: float): list</text></g><!--class Med3paResults--><g id="elem_Med3paResults"><rect codeLine="62" fill="#F1F1F1" height="227.2656" id="Med3paResults" rx="2.5" ry="2.5" style="stroke:#181818;stroke-width:0.5;" width="522" x="1115" y="182.3"/><ellipse cx="1317.75" cy="198.3" fill="#ADD1B2" rx="11" ry="11" style="stroke:#181818;stroke-width:1.0;"/><path d="M1320.7188,203.9406 Q1320.1406,204.2375 1319.5,204.3781 Q1318.8594,204.5344 1318.1563,204.5344 Q1315.6563,204.5344 1314.3281,202.8937 Q1313.0156,201.2375 1313.0156,198.1125 Q1313.0156,194.9875 1314.3281,193.3312 Q1315.6563,191.675 1318.1563,191.675 Q1318.8594,191.675 1319.5,191.8312 Q1320.1563,191.9875 1320.7188,192.2844 L1320.7188,195.0031 Q1320.0938,194.425 1319.5,194.1594 Q1318.9063,193.8781 1318.2813,193.8781 Q1316.9375,193.8781 1316.25,194.9562 Q1315.5625,196.0187 1315.5625,198.1125 Q1315.5625,200.2062 1316.25,201.2844 Q1316.9375,202.3469 1318.2813,202.3469 Q1318.9063,202.3469 1319.5,202.0812 Q1320.0938,201.8 1320.7188,201.2219 L1320.7188,203.9406 Z " fill="#000000"/><text fill="#000000" font-family="sans-serif" font-size="14" lengthAdjust="spacing" textLength="108" x="1338.25" y="203.1467">Med3paResults</text><line style="stroke:#181818;stroke-width:0.5;" x1="1116" x2="1636" y1="214.3" y2="214.3"/><rect fill="none" height="6" style="stroke:#C82930;stroke-width:1.0;" width="6" x="1123" y="224.9484"/><text fill="#000000" font-family="sans-serif" font-size="14" lengthAdjust="spacing" textLength="193" x="1135" y="231.2951">metrics_by_dr: Dict[int, Dict]</text><rect fill="none" height="6" style="stroke:#C82930;stroke-width:1.0;" width="6" x="1123" y="241.2453"/><text fill="#000000" font-family="sans-serif" font-size="14" lengthAdjust="spacing" textLength="227" x="1135" y="247.592">models_evaluation: Dict[str, Dict]</text><rect fill="none" height="6" style="stroke:#C82930;stroke-width:1.0;" width="6" x="1123" y="257.5422"/><text fill="#000000" font-family="sans-serif" font-size="14" lengthAdjust="spacing" textLength="237" x="1135" y="263.8889">profiles_manager: ProfilesManager</text><rect fill="none" height="6" style="stroke:#C82930;stroke-width:1.0;" width="6" x="1123" y="273.8391"/><text fill="#000000" font-family="sans-serif" font-size="14" lengthAdjust="spacing" textLength="239" x="1135" y="280.1857">datasets: Dict[int, MaskedDataset]</text><line style="stroke:#181818;stroke-width:0.5;" x1="1116" x2="1636" y1="287.4875" y2="287.4875"/><ellipse cx="1126" cy="301.1359" fill="#84BE84" rx="3" ry="3" style="stroke:#038048;stroke-width:1.0;"/><text fill="#000000" font-family="sans-serif" font-size="14" lengthAdjust="spacing" textLength="108" x="1135" y="304.4826">__init__() : None</text><ellipse cx="1126" cy="317.4328" fill="#84BE84" rx="3" ry="3" style="stroke:#038048;stroke-width:1.0;"/><text fill="#000000" font-family="sans-serif" font-size="14" lengthAdjust="spacing" textLength="315" x="1135" y="320.7795">set_metrics_by_dr(metrics_by_dr: Dict) : None</text><ellipse cx="1126" cy="333.7297" fill="#84BE84" rx="3" ry="3" style="stroke:#038048;stroke-width:1.0;"/><text fill="#000000" font-family="sans-serif" font-size="14" lengthAdjust="spacing" textLength="436" x="1135" y="337.0764">set_profiles_manager(profile_manager: ProfilesManager) : None</text><ellipse cx="1126" cy="350.0266" fill="#84BE84" rx="3" ry="3" style="stroke:#038048;stroke-width:1.0;"/><text fill="#000000" font-family="sans-serif" font-size="14" lengthAdjust="spacing" textLength="496" x="1135" y="353.3732">set_models_evaluation(ipc_evaluation: Dict, apc_evaluation: Dict) : None</text><ellipse cx="1126" cy="366.3234" fill="#84BE84" rx="3" ry="3" style="stroke:#038048;stroke-width:1.0;"/><text fill="#000000" font-family="sans-serif" font-size="14" lengthAdjust="spacing" textLength="439" x="1135" y="369.6701">set_dataset(samples_ratio: int, dataset: MaskedDataset) : None</text><ellipse cx="1126" cy="382.6203" fill="#84BE84" rx="3" ry="3" style="stroke:#038048;stroke-width:1.0;"/><text fill="#000000" font-family="sans-serif" font-size="14" lengthAdjust="spacing" textLength="176" x="1135" y="385.967">save(file_path: str) : None</text><ellipse cx="1126" cy="398.9172" fill="#84BE84" rx="3" ry="3" style="stroke:#038048;stroke-width:1.0;"/><text fill="#000000" font-family="sans-serif" font-size="14" lengthAdjust="spacing" textLength="281" x="1135" y="402.2639">get_profiles_manager() : ProfilesManager</text></g><!--class Med3paExperiment--><g id="elem_Med3paExperiment"><rect codeLine="77" fill="#F1F1F1" height="64.2969" id="Med3paExperiment" rx="2.5" ry="2.5" style="stroke:#181818;stroke-width:0.5;" width="337" x="1207.5" y="41"/><ellipse cx="1304.75" cy="57" fill="#ADD1B2" rx="11" ry="11" style="stroke:#181818;stroke-width:1.0;"/><path d="M1307.7188,62.6406 Q1307.1406,62.9375 1306.5,63.0781 Q1305.8594,63.2344 1305.1563,63.2344 Q1302.6563,63.2344 1301.3281,61.5938 Q1300.0156,59.9375 1300.0156,56.8125 Q1300.0156,53.6875 1301.3281,52.0313 Q1302.6563,50.375 1305.1563,50.375 Q1305.8594,50.375 1306.5,50.5313 Q1307.1563,50.6875 1307.7188,50.9844 L1307.7188,53.7031 Q1307.0938,53.125 1306.5,52.8594 Q1305.9063,52.5781 1305.2813,52.5781 Q1303.9375,52.5781 1303.25,53.6563 Q1302.5625,54.7188 1302.5625,56.8125 Q1302.5625,58.9063 1303.25,59.9844 Q1303.9375,61.0469 1305.2813,61.0469 Q1305.9063,61.0469 1306.5,60.7813 Q1307.0938,60.5 1307.7188,59.9219 L1307.7188,62.6406 Z " fill="#000000"/><text fill="#000000" font-family="sans-serif" font-size="14" lengthAdjust="spacing" textLength="134" x="1325.25" y="61.8467">Med3paExperiment</text><line style="stroke:#181818;stroke-width:0.5;" x1="1208.5" x2="1543.5" y1="73" y2="73"/><line style="stroke:#181818;stroke-width:0.5;" x1="1208.5" x2="1543.5" y1="81" y2="81"/><ellipse cx="1218.5" cy="94.6484" fill="#84BE84" rx="3" ry="3" style="stroke:#038048;stroke-width:1.0;"/><text fill="#000000" font-family="sans-serif" font-size="14" lengthAdjust="spacing" textLength="311" x="1227.5" y="97.9951">run():Tuple[Med3paResults, Med3paResults]</text></g><!--class Med3paDetectronExperiment--><g id="elem_Med3paDetectronExperiment"><rect codeLine="82" fill="#F1F1F1" height="64.2969" id="Med3paDetectronExperiment" rx="2.5" ry="2.5" style="stroke:#181818;stroke-width:0.5;" width="471" x="1672.5" y="263.78"/><ellipse cx="1801.75" cy="279.78" fill="#ADD1B2" rx="11" ry="11" style="stroke:#181818;stroke-width:1.0;"/><path d="M1804.7188,285.4206 Q1804.1406,285.7175 1803.5,285.8581 Q1802.8594,286.0144 1802.1563,286.0144 Q1799.6563,286.0144 1798.3281,284.3738 Q1797.0156,282.7175 1797.0156,279.5925 Q1797.0156,276.4675 1798.3281,274.8113 Q1799.6563,273.155 1802.1563,273.155 Q1802.8594,273.155 1803.5,273.3113 Q1804.1563,273.4675 1804.7188,273.7644 L1804.7188,276.4831 Q1804.0938,275.905 1803.5,275.6394 Q1802.9063,275.3581 1802.2813,275.3581 Q1800.9375,275.3581 1800.25,276.4363 Q1799.5625,277.4988 1799.5625,279.5925 Q1799.5625,281.6863 1800.25,282.7644 Q1800.9375,283.8269 1802.2813,283.8269 Q1802.9063,283.8269 1803.5,283.5613 Q1804.0938,283.28 1804.7188,282.7019 L1804.7188,285.4206 Z " fill="#000000"/><text fill="#000000" font-family="sans-serif" font-size="14" lengthAdjust="spacing" textLength="204" x="1822.25" y="284.6267">Med3paDetectronExperiment</text><line style="stroke:#181818;stroke-width:0.5;" x1="1673.5" x2="2142.5" y1="295.78" y2="295.78"/><line style="stroke:#181818;stroke-width:0.5;" x1="1673.5" x2="2142.5" y1="303.78" y2="303.78"/><ellipse cx="1683.5" cy="317.4284" fill="#84BE84" rx="3" ry="3" style="stroke:#038048;stroke-width:1.0;"/><text fill="#000000" font-family="sans-serif" font-size="14" lengthAdjust="spacing" textLength="445" x="1692.5" y="320.7751">run(): Tuple[DetectronResults, Med3paResults, Med3paResults]</text></g><!--class ProfilesManager--><g id="elem_ProfilesManager"><rect fill="#F1F1F1" height="48" id="ProfilesManager" rx="2.5" ry="2.5" style="stroke:#181818;stroke-width:0.5;" width="142" x="2177" y="527.31"/><ellipse cx="2192" cy="543.31" fill="#ADD1B2" rx="11" ry="11" style="stroke:#181818;stroke-width:1.0;"/><path d="M2194.9688,548.9506 Q2194.3906,549.2475 2193.75,549.3881 Q2193.1094,549.5444 2192.4063,549.5444 Q2189.9063,549.5444 2188.5781,547.9038 Q2187.2656,546.2475 2187.2656,543.1225 Q2187.2656,539.9975 2188.5781,538.3413 Q2189.9063,536.685 2192.4063,536.685 Q2193.1094,536.685 2193.75,536.8413 Q2194.4063,536.9975 2194.9688,537.2944 L2194.9688,540.0131 Q2194.3438,539.435 2193.75,539.1694 Q2193.1563,538.8881 2192.5313,538.8881 Q2191.1875,538.8881 2190.5,539.9663 Q2189.8125,541.0288 2189.8125,543.1225 Q2189.8125,545.2163 2190.5,546.2944 Q2191.1875,547.3569 2192.5313,547.3569 Q2193.1563,547.3569 2193.75,547.0913 Q2194.3438,546.81 2194.9688,546.2319 L2194.9688,548.9506 Z " fill="#000000"/><text fill="#000000" font-family="sans-serif" font-size="14" lengthAdjust="spacing" textLength="110" x="2206" y="548.1567">ProfilesManager</text><line style="stroke:#181818;stroke-width:0.5;" x1="2178" x2="2318" y1="559.31" y2="559.31"/><line style="stroke:#181818;stroke-width:0.5;" x1="2178" x2="2318" y1="567.31" y2="567.31"/></g><!--class Profile--><g id="elem_Profile"><rect fill="#F1F1F1" height="48" id="Profile" rx="2.5" ry="2.5" style="stroke:#181818;stroke-width:0.5;" width="74" x="2211" y="709.64"/><ellipse cx="2226" cy="725.64" fill="#ADD1B2" rx="11" ry="11" style="stroke:#181818;stroke-width:1.0;"/><path d="M2228.9688,731.2806 Q2228.3906,731.5775 2227.75,731.7181 Q2227.1094,731.8744 2226.4063,731.8744 Q2223.9063,731.8744 2222.5781,730.2337 Q2221.2656,728.5775 2221.2656,725.4525 Q2221.2656,722.3275 2222.5781,720.6712 Q2223.9063,719.015 2226.4063,719.015 Q2227.1094,719.015 2227.75,719.1712 Q2228.4063,719.3275 2228.9688,719.6244 L2228.9688,722.3431 Q2228.3438,721.765 2227.75,721.4994 Q2227.1563,721.2181 2226.5313,721.2181 Q2225.1875,721.2181 2224.5,722.2962 Q2223.8125,723.3587 2223.8125,725.4525 Q2223.8125,727.5462 2224.5,728.6244 Q2225.1875,729.6869 2226.5313,729.6869 Q2227.1563,729.6869 2227.75,729.4212 Q2228.3438,729.14 2228.9688,728.5619 L2228.9688,731.2806 Z " fill="#000000"/><text fill="#000000" font-family="sans-serif" font-size="14" lengthAdjust="spacing" textLength="42" x="2240" y="730.4867">Profile</text><line style="stroke:#181818;stroke-width:0.5;" x1="2212" x2="2284" y1="741.64" y2="741.64"/><line style="stroke:#181818;stroke-width:0.5;" x1="2212" x2="2284" y1="749.64" y2="749.64"/></g><!--class MDRCalculator--><g id="elem_MDRCalculator"><rect fill="#F1F1F1" height="48" id="MDRCalculator" rx="2.5" ry="2.5" style="stroke:#181818;stroke-width:0.5;" width="133" x="2178.5" y="271.93"/><ellipse cx="2193.5" cy="287.93" fill="#ADD1B2" rx="11" ry="11" style="stroke:#181818;stroke-width:1.0;"/><path d="M2196.4688,293.5706 Q2195.8906,293.8675 2195.25,294.0081 Q2194.6094,294.1644 2193.9063,294.1644 Q2191.4063,294.1644 2190.0781,292.5237 Q2188.7656,290.8675 2188.7656,287.7425 Q2188.7656,284.6175 2190.0781,282.9612 Q2191.4063,281.305 2193.9063,281.305 Q2194.6094,281.305 2195.25,281.4612 Q2195.9063,281.6175 2196.4688,281.9144 L2196.4688,284.6331 Q2195.8438,284.055 2195.25,283.7894 Q2194.6563,283.5081 2194.0313,283.5081 Q2192.6875,283.5081 2192,284.5862 Q2191.3125,285.6487 2191.3125,287.7425 Q2191.3125,289.8362 2192,290.9144 Q2192.6875,291.9769 2194.0313,291.9769 Q2194.6563,291.9769 2195.25,291.7112 Q2195.8438,291.43 2196.4688,290.8519 L2196.4688,293.5706 Z " fill="#000000"/><text fill="#000000" font-family="sans-serif" font-size="14" lengthAdjust="spacing" textLength="101" x="2207.5" y="292.7767">MDRCalculator</text><line style="stroke:#181818;stroke-width:0.5;" x1="2179.5" x2="2310.5" y1="303.93" y2="303.93"/><line style="stroke:#181818;stroke-width:0.5;" x1="2179.5" x2="2310.5" y1="311.93" y2="311.93"/></g><!--link MPCModel to IPCModel--><g id="link_MPCModel_IPCModel"><path codeLine="87" d="M987,344.59 C987,384.59 987,436.08 987,480.12 " fill="none" id="MPCModel-to-IPCModel" style="stroke:#181818;stroke-width:1.0;stroke-dasharray:7.0,7.0;"/><polygon fill="#181818" points="987,486.12,991,477.12,987,481.12,983,477.12,987,486.12" style="stroke:#181818;stroke-width:1.0;"/><text fill="#000000" font-family="sans-serif" font-size="13" lengthAdjust="spacing" textLength="46" x="988" y="452.6369">&#171;uses&#187;</text></g><!--link MPCModel to APCModel--><g id="link_MPCModel_APCModel"><path codeLine="88" d="M1023.39,344.83 C1043.11,367.64 1069.3,393.39 1098,409.57 C1144.88,435.98 1242.3415,462.3647 1349.7615,486.1147 " fill="none" id="MPCModel-to-APCModel" style="stroke:#181818;stroke-width:1.0;stroke-dasharray:7.0,7.0;"/><polygon fill="#181818" points="1355.62,487.41,1347.6957,481.5614,1350.7379,486.3306,1345.9687,489.3727,1355.62,487.41" style="stroke:#181818;stroke-width:1.0;"/><text fill="#000000" font-family="sans-serif" font-size="13" lengthAdjust="spacing" textLength="46" x="1219" y="452.6369">&#171;uses&#187;</text></g><!--reverse link UncertaintyMetric to AbsoluteError--><g id="link_UncertaintyMetric_AbsoluteError"><path codeLine="89" d="M320,601.72 C320,634.72 320,668.31 320,701.29 " fill="none" id="UncertaintyMetric-backto-AbsoluteError" style="stroke:#181818;stroke-width:1.0;"/><polygon fill="none" points="320,583.72,314,601.72,326,601.72,320,583.72" style="stroke:#181818;stroke-width:1.0;"/></g><!--reverse link UncertaintyCalculator to UncertaintyMetric--><g id="link_UncertaintyCalculator_UncertaintyMetric"><path codeLine="90" d="M416.9195,347.3489 C392.8595,397.7389 356.96,472.91 334.96,518.98 " fill="none" id="UncertaintyCalculator-backto-UncertaintyMetric" style="stroke:#181818;stroke-width:1.0;"/><polygon fill="#181818" points="422.09,336.52,415.8951,340.2109,416.9195,347.3489,423.1144,343.658,422.09,336.52" style="stroke:#181818;stroke-width:1.0;"/></g><!--reverse link APCModel to TreeRepresentation--><g id="link_APCModel_TreeRepresentation"><path codeLine="91" d="M1724.9192,627.2767 C1734.1192,647.0167 1739.09,657.7 1748.01,676.84 " fill="none" id="APCModel-backto-TreeRepresentation" style="stroke:#181818;stroke-width:1.0;"/><polygon fill="#181818" points="1719.85,616.4,1718.759,623.5281,1724.9192,627.2767,1726.0102,620.1486,1719.85,616.4" style="stroke:#181818;stroke-width:1.0;"/></g><!--reverse link TreeRepresentation to _TreeNode--><g id="link_TreeRepresentation__TreeNode"><path codeLine="92" d="M1774,802.6 C1774,820.83 1774,829.83 1774,850.93 " fill="none" id="TreeRepresentation-backto-_TreeNode" style="stroke:#181818;stroke-width:1.0;"/><polygon fill="#181818" points="1774,790.6,1770,796.6,1774,802.6,1778,796.6,1774,790.6" style="stroke:#181818;stroke-width:1.0;"/></g><!--reverse link ProfilesManager to Profile--><g id="link_ProfilesManager_Profile"><path codeLine="93" d="M2248,587.51 C2248,622.05 2248,674.6 2248,709.24 " fill="none" id="ProfilesManager-backto-Profile" style="stroke:#181818;stroke-width:1.0;"/><polygon fill="#181818" points="2248,575.51,2244,581.51,2248,587.51,2252,581.51,2248,575.51" style="stroke:#181818;stroke-width:1.0;"/><text fill="#000000" font-family="sans-serif" font-size="13" lengthAdjust="spacing" textLength="7" x="2240.1469" y="698.5475">*</text></g><!--link MDRCalculator to ProfilesManager--><g id="link_MDRCalculator_ProfilesManager"><path codeLine="94" d="M2245.28,320.32 C2245.85,368.58 2247.0791,472.7604 2247.6491,520.9804 " fill="none" id="MDRCalculator-to-ProfilesManager" style="stroke:#181818;stroke-width:1.0;stroke-dasharray:7.0,7.0;"/><polygon fill="#181818" points="2247.72,526.98,2251.6133,517.9333,2247.6609,521.9803,2243.6139,518.0279,2247.72,526.98" style="stroke:#181818;stroke-width:1.0;"/><text fill="#000000" font-family="sans-serif" font-size="13" lengthAdjust="spacing" textLength="46" x="2247" y="452.6369">&#171;uses&#187;</text></g><!--link MDRCalculator to TreeRepresentation--><g id="link_MDRCalculator_TreeRepresentation"><path codeLine="95" d="M2227.3,320.28 C2200.91,355.49 2150.27,424.65 2112,486.57 C2077.6,542.21 2090.19,571.8 2042,616.05 C2015.18,640.67 1987.7599,658.0552 1954.3799,674.0652 " fill="none" id="MDRCalculator-to-TreeRepresentation" style="stroke:#181818;stroke-width:1.0;stroke-dasharray:7.0,7.0;"/><polygon fill="#181818" points="1948.97,676.66,1958.8147,676.3745,1953.4783,674.4977,1955.355,669.1613,1948.97,676.66" style="stroke:#181818;stroke-width:1.0;"/><text fill="#000000" font-family="sans-serif" font-size="13" lengthAdjust="spacing" textLength="46" x="2113" y="555.8769">&#171;uses&#187;</text></g><!--link Med3paExperiment to Med3paResults--><g id="link_Med3paExperiment_Med3paResults"><path codeLine="96" d="M1376,105.78 C1376,126.17 1376,148.04 1376,176.12 " fill="none" id="Med3paExperiment-to-Med3paResults" style="stroke:#181818;stroke-width:1.0;stroke-dasharray:7.0,7.0;"/><polygon fill="#181818" points="1376,182.12,1380,173.12,1376,177.12,1372,173.12,1376,182.12" style="stroke:#181818;stroke-width:1.0;"/><text fill="#000000" font-family="sans-serif" font-size="13" lengthAdjust="spacing" textLength="62" x="1377" y="148.3669">&#171;returns&#187;</text></g><!--link Med3paExperiment to MPCModel--><g id="link_Med3paExperiment_MPCModel"><path codeLine="97" d="M1263.9,105.73 C1211.04,123.55 1148.62,149 1098,182.3 C1071.16,199.95 1049.6814,220.5381 1029.9114,242.5281 " fill="none" id="Med3paExperiment-to-MPCModel" style="stroke:#181818;stroke-width:1.0;stroke-dasharray:7.0,7.0;"/><polygon fill="#181818" points="1025.9,246.99,1034.8917,242.9715,1029.2429,243.2718,1028.9426,237.6229,1025.9,246.99" style="stroke:#181818;stroke-width:1.0;"/><text fill="#000000" font-family="sans-serif" font-size="13" lengthAdjust="spacing" textLength="46" x="1185" y="148.3669">&#171;uses&#187;</text></g><!--link Med3paExperiment to MDRCalculator--><g id="link_Med3paExperiment_MDRCalculator"><path codeLine="98" d="M1544.66,82.22 C1743.49,94.33 2059.72,122.49 2161,182.3 C2196.29,203.14 2218.7706,239.7565 2231.8906,266.1665 " fill="none" id="Med3paExperiment-to-MDRCalculator" style="stroke:#181818;stroke-width:1.0;stroke-dasharray:7.0,7.0;"/><polygon fill="#181818" points="2234.56,271.54,2234.1382,261.7002,2232.3355,267.0621,2226.9735,265.2594,2234.56,271.54" style="stroke:#181818;stroke-width:1.0;"/><text fill="#000000" font-family="sans-serif" font-size="13" lengthAdjust="spacing" textLength="46" x="2073" y="148.3669">&#171;uses&#187;</text></g><!--link Med3paExperiment to UncertaintyCalculator--><g id="link_Med3paExperiment_UncertaintyCalculator"><path codeLine="99" d="M1222.18,105.75 C1123.11,126.51 991.68,154.82 876,182.3 C779.8,205.15 678.0199,231.4435 593.9199,253.7235 " fill="none" id="Med3paExperiment-to-UncertaintyCalculator" style="stroke:#181818;stroke-width:1.0;stroke-dasharray:7.0,7.0;"/><polygon fill="#181818" points="588.12,255.26,597.8442,256.8218,592.9533,253.9796,595.7955,249.0886,588.12,255.26" style="stroke:#181818;stroke-width:1.0;"/><text fill="#000000" font-family="sans-serif" font-size="13" lengthAdjust="spacing" textLength="46" x="1082" y="148.3669">&#171;uses&#187;</text></g><!--reverse link Med3paExperiment to Med3paDetectronExperiment--><g id="link_Med3paExperiment_Med3paDetectronExperiment"><path codeLine="100" d="M1466.2814,107.8641 C1521.8114,128.8841 1590.25,155.36 1655,182.3 C1717.92,208.48 1788.73,240.2 1839.4,263.3 " fill="none" id="Med3paExperiment-backto-Med3paDetectronExperiment" style="stroke:#181818;stroke-width:1.0;stroke-dasharray:7.0,7.0;"/><polygon fill="#181818" points="1460.67,105.74,1467.6711,112.6671,1465.3462,107.5101,1470.5032,105.1852,1460.67,105.74" style="stroke:#181818;stroke-width:1.0;"/><text fill="#000000" font-family="sans-serif" font-size="13" lengthAdjust="spacing" textLength="46" x="1579" y="148.3669">&#171;uses&#187;</text></g><!--SRC=[pLPDQnin4BttLuXSkcbjNtfRGY34BHJgKD8K2i48UNTiYyZQHTAMc3R_lQCFhrTQsIsKGW-1UFHcvisRqQnQLZsn3P2B1TJlMaQ-TAlMcox8ZrU4l2PpM7C9XAsqKQmof19CQz1u5fl8Lrc1CenBir-0KRno0GZvSS2zaBSL4rKdc87YkIIodScQASNs4z8gg7bbeAQjQbRnsPuQrS7GTZdyWKbUy6z8jcfafS30WApdUBFIZUWCl5UgKO7VFoOr4kSsfEi9J7TEhdAiOCAFTaV0F-JwyVFjegb1zFJi3-hEIlAmR-7n7ZOAjEQDTC3b05UIvD3NW0F0PSePR1T6V2-zHoWezabv8mw-Cz7PvdrBYavo8OnweR6AJroRHvpAfHKEvQJ8k1C6JrPD8p3B75DRm8IiHSFCCjNe9gSHka75RUKF2Y3eqAYZ35FZx5YQ1ccOGIGgEhBzhMI94ZMqPbiIB7D2TbnIpNQj04sLJLRw0lyROHU9i3YCr181FM8ulJbzrclnkrLXjf3f066oTkOxv3BQ8XbyOBi6PZfb-GWKmjksmEgIq4CqJs_LSL5JEmv5RTIvmPaGr7_E3FkWs0wS_5z0ST0J8l6SyZgqjcMsopRlvIZT1WnbGjZ1MNFiVM7de6AX-MV78XGIDQcFVgZRTI7u32nqnvuZQov7k1bRh7dRY3go1ZrBWXCJMGvbU-DG26-fg82rINL0i-ARxTX-rCxhXKNoZQGsRZ6Kd_pinV_3MtKinZKXDA0uvU5ZzPr9z0zNn7sgx_t5EdI0X2j8LtjQgt3F73dxt_80iXEbQRZQRlqSB-GGU1WKxA34nm06_1mi2sy8k1gLqM3lzp7XWkadgEV-PFdA5qyevP8RIejBKfAxHeR998YX4VSYKqd69sLO1CD9nhcygHm5RwkHEXF2CjPCk216aJJMYHBEobYTD0Zx3eKhmWyajYL1R7ALMqpQddYfkebv_zpYxEvmPnrUFggJk20VEcJx64tL91womPPEOixnbLKPrSXJmOcFtkFo2KxdwnUr0k7KrrlUsbNSVoXci-lZawKaLrSTxkhhwnHoauMC7wrNFwVJ-9qOmmRFjpU8pBtP-bGMaFsyPxuW5ZlSIab3tVd5cujWjjNDxmTSR8cfIop629uX4NkaKsETukLZyVZGxfGyvv9lJXOQaVmzFj-NytvNizcPuHtullm2]--></g></svg>