<svg xmlns="http://www.w3.org/2000/svg" xmlns:xlink="http://www.w3.org/1999/xlink" contentStyleType="text/css" height="1404px" preserveAspectRatio="none" style="width:3264px;height:1404px;background:#FFFFFF;" version="1.1" viewBox="0 0 3264 1404" width="3264px" zoomAndPan="magnify"><defs/><g><!--cluster Med3pa Subpackage--><g id="cluster_Med3pa Subpackage"><path d="M8.5,6 L172.5,6 A3.75,3.75 0 0 1 175,8.5 L182,28.2969 L3254.5,28.2969 A2.5,2.5 0 0 1 3257,30.7969 L3257,1395.27 A2.5,2.5 0 0 1 3254.5,1397.77 L8.5,1397.77 A2.5,2.5 0 0 1 6,1395.27 L6,8.5 A2.5,2.5 0 0 1 8.5,6 " fill="none" style="stroke:#000000;stroke-width:1.5;"/><line style="stroke:#000000;stroke-width:1.5;" x1="6" x2="182" y1="28.2969" y2="28.2969"/><text fill="#000000" font-family="sans-serif" font-size="14" font-weight="bold" lengthAdjust="spacing" textLength="163" x="10" y="20.9951">Med3pa Subpackage</text></g><!--class UncertaintyMetric--><g id="elem_UncertaintyMetric"><rect codeLine="3" fill="#F1F1F1" height="64.2969" id="UncertaintyMetric" rx="2.5" ry="2.5" style="stroke:#181818;stroke-width:0.5;" width="595" x="22.5" y="693.05"/><ellipse cx="255.75" cy="709.05" fill="#A9DCDF" rx="11" ry="11" style="stroke:#181818;stroke-width:1.0;"/><path d="M255.8594,704.3938 L254.7031,709.4719 L257.0313,709.4719 L255.8594,704.3938 Z M254.375,702.1594 L257.3594,702.1594 L260.7188,714.55 L258.2656,714.55 L257.5,711.4875 L254.2188,711.4875 L253.4688,714.55 L251.0313,714.55 L254.375,702.1594 Z " fill="#000000"/><text fill="#000000" font-family="sans-serif" font-size="14" font-style="italic" lengthAdjust="spacing" textLength="120" x="276.25" y="713.8967">UncertaintyMetric</text><line style="stroke:#181818;stroke-width:0.5;" x1="23.5" x2="616.5" y1="725.05" y2="725.05"/><line style="stroke:#181818;stroke-width:0.5;" x1="23.5" x2="616.5" y1="733.05" y2="733.05"/><ellipse cx="33.5" cy="746.6984" fill="#84BE84" rx="3" ry="3" style="stroke:#038048;stroke-width:1.0;"/><text fill="#000000" font-family="sans-serif" font-size="14" font-style="italic" lengthAdjust="spacing" textLength="569" x="42.5" y="750.0451">calculate(x: np.ndarray, predicted_prob: np.ndarray, y_true: np.ndarray): np.ndarray</text></g><!--class AbsoluteError--><g id="elem_AbsoluteError"><rect codeLine="8" fill="#F1F1F1" height="64.2969" id="AbsoluteError" rx="2.5" ry="2.5" style="stroke:#181818;stroke-width:0.5;" width="595" x="22.5" y="948.72"/><ellipse cx="268.75" cy="964.72" fill="#ADD1B2" rx="11" ry="11" style="stroke:#181818;stroke-width:1.0;"/><path d="M271.7188,970.3606 Q271.1406,970.6575 270.5,970.7981 Q269.8594,970.9544 269.1563,970.9544 Q266.6563,970.9544 265.3281,969.3138 Q264.0156,967.6575 264.0156,964.5325 Q264.0156,961.4075 265.3281,959.7513 Q266.6563,958.095 269.1563,958.095 Q269.8594,958.095 270.5,958.2513 Q271.1563,958.4075 271.7188,958.7044 L271.7188,961.4231 Q271.0938,960.845 270.5,960.5794 Q269.9063,960.2981 269.2813,960.2981 Q267.9375,960.2981 267.25,961.3763 Q266.5625,962.4388 266.5625,964.5325 Q266.5625,966.6263 267.25,967.7044 Q267.9375,968.7669 269.2813,968.7669 Q269.9063,968.7669 270.5,968.5013 Q271.0938,968.22 271.7188,967.6419 L271.7188,970.3606 Z " fill="#000000"/><text fill="#000000" font-family="sans-serif" font-size="14" lengthAdjust="spacing" textLength="94" x="289.25" y="969.5667">AbsoluteError</text><line style="stroke:#181818;stroke-width:0.5;" x1="23.5" x2="616.5" y1="980.72" y2="980.72"/><line style="stroke:#181818;stroke-width:0.5;" x1="23.5" x2="616.5" y1="988.72" y2="988.72"/><ellipse cx="33.5" cy="1002.3684" fill="#84BE84" rx="3" ry="3" style="stroke:#038048;stroke-width:1.0;"/><text fill="#000000" font-family="sans-serif" font-size="14" lengthAdjust="spacing" textLength="569" x="42.5" y="1005.7151">calculate(x: np.ndarray, predicted_prob: np.ndarray, y_true: np.ndarray): np.ndarray</text></g><!--class UncertaintyCalculator--><g id="elem_UncertaintyCalculator"><rect codeLine="12" fill="#F1F1F1" height="80.5938" id="UncertaintyCalculator" rx="2.5" ry="2.5" style="stroke:#181818;stroke-width:0.5;" width="679" x="22.5" y="396.93"/><ellipse cx="284.75" cy="412.93" fill="#ADD1B2" rx="11" ry="11" style="stroke:#181818;stroke-width:1.0;"/><path d="M287.7188,418.5706 Q287.1406,418.8675 286.5,419.0081 Q285.8594,419.1644 285.1563,419.1644 Q282.6563,419.1644 281.3281,417.5237 Q280.0156,415.8675 280.0156,412.7425 Q280.0156,409.6175 281.3281,407.9612 Q282.6563,406.305 285.1563,406.305 Q285.8594,406.305 286.5,406.4612 Q287.1563,406.6175 287.7188,406.9144 L287.7188,409.6331 Q287.0938,409.055 286.5,408.7894 Q285.9063,408.5081 285.2813,408.5081 Q283.9375,408.5081 283.25,409.5862 Q282.5625,410.6487 282.5625,412.7425 Q282.5625,414.8362 283.25,415.9144 Q283.9375,416.9769 285.2813,416.9769 Q285.9063,416.9769 286.5,416.7112 Q287.0938,416.43 287.7188,415.8519 L287.7188,418.5706 Z " fill="#000000"/><text fill="#000000" font-family="sans-serif" font-size="14" lengthAdjust="spacing" textLength="146" x="305.25" y="417.7767">UncertaintyCalculator</text><line style="stroke:#181818;stroke-width:0.5;" x1="23.5" x2="700.5" y1="428.93" y2="428.93"/><rect fill="none" height="6" style="stroke:#C82930;stroke-width:1.0;" width="6" x="30.5" y="439.5784"/><text fill="#000000" font-family="sans-serif" font-size="14" lengthAdjust="spacing" textLength="172" x="42.5" y="445.9251">metric: UncertaintyMetric</text><line style="stroke:#181818;stroke-width:0.5;" x1="23.5" x2="700.5" y1="453.2269" y2="453.2269"/><ellipse cx="33.5" cy="466.8753" fill="#84BE84" rx="3" ry="3" style="stroke:#038048;stroke-width:1.0;"/><text fill="#000000" font-family="sans-serif" font-size="14" lengthAdjust="spacing" textLength="653" x="42.5" y="470.222">calculate_uncertainty(x: np.ndarray, predicted_prob: np.ndarray, y_true: np.ndarray): np.ndarray</text></g><!--class IPCModel--><g id="elem_IPCModel"><rect codeLine="17" fill="#F1F1F1" height="129.4844" id="IPCModel" rx="2.5" ry="2.5" style="stroke:#181818;stroke-width:0.5;" width="668" x="1356" y="660.46"/><ellipse cx="1653.75" cy="676.46" fill="#ADD1B2" rx="11" ry="11" style="stroke:#181818;stroke-width:1.0;"/><path d="M1656.7188,682.1006 Q1656.1406,682.3975 1655.5,682.5381 Q1654.8594,682.6944 1654.1563,682.6944 Q1651.6563,682.6944 1650.3281,681.0538 Q1649.0156,679.3975 1649.0156,676.2725 Q1649.0156,673.1475 1650.3281,671.4913 Q1651.6563,669.835 1654.1563,669.835 Q1654.8594,669.835 1655.5,669.9913 Q1656.1563,670.1475 1656.7188,670.4444 L1656.7188,673.1631 Q1656.0938,672.585 1655.5,672.3194 Q1654.9063,672.0381 1654.2813,672.0381 Q1652.9375,672.0381 1652.25,673.1163 Q1651.5625,674.1788 1651.5625,676.2725 Q1651.5625,678.3663 1652.25,679.4444 Q1652.9375,680.5069 1654.2813,680.5069 Q1654.9063,680.5069 1655.5,680.2413 Q1656.0938,679.96 1656.7188,679.3819 L1656.7188,682.1006 Z " fill="#000000"/><text fill="#000000" font-family="sans-serif" font-size="14" lengthAdjust="spacing" textLength="64" x="1674.25" y="681.3067">IPCModel</text><line style="stroke:#181818;stroke-width:0.5;" x1="1357" x2="2023" y1="692.46" y2="692.46"/><rect fill="none" height="6" style="stroke:#C82930;stroke-width:1.0;" width="6" x="1364" y="703.1084"/><text fill="#000000" font-family="sans-serif" font-size="14" lengthAdjust="spacing" textLength="259" x="1376" y="709.4551">model_class: Type[RegressionModel]</text><rect fill="none" height="6" style="stroke:#C82930;stroke-width:1.0;" width="6" x="1364" y="719.4053"/><text fill="#000000" font-family="sans-serif" font-size="14" lengthAdjust="spacing" textLength="173" x="1376" y="725.752">model: RegressionModel</text><line style="stroke:#181818;stroke-width:0.5;" x1="1357" x2="2023" y1="733.0538" y2="733.0538"/><ellipse cx="1367" cy="746.7022" fill="#84BE84" rx="3" ry="3" style="stroke:#038048;stroke-width:1.0;"/><text fill="#000000" font-family="sans-serif" font-size="14" lengthAdjust="spacing" textLength="291" x="1376" y="750.0489">train(x: np.ndarray, error_prob: np.ndarray)</text><ellipse cx="1367" cy="762.9991" fill="#84BE84" rx="3" ry="3" style="stroke:#038048;stroke-width:1.0;"/><text fill="#000000" font-family="sans-serif" font-size="14" lengthAdjust="spacing" textLength="229" x="1376" y="766.3457">predict(x: np.ndarray): np.ndarray</text><ellipse cx="1367" cy="779.2959" fill="#84BE84" rx="3" ry="3" style="stroke:#038048;stroke-width:1.0;"/><text fill="#000000" font-family="sans-serif" font-size="14" lengthAdjust="spacing" textLength="642" x="1376" y="782.6426">evaluate(X: np.ndarray, y: np.ndarray, eval_metrics: List[str], print_results: bool): Dict[str, float]</text></g><!--class APCModel--><g id="elem_APCModel"><rect codeLine="25" fill="#F1F1F1" height="129.4844" id="APCModel" rx="2.5" ry="2.5" style="stroke:#181818;stroke-width:0.5;" width="668" x="653" y="660.46"/><ellipse cx="947.75" cy="676.46" fill="#ADD1B2" rx="11" ry="11" style="stroke:#181818;stroke-width:1.0;"/><path d="M950.7188,682.1006 Q950.1406,682.3975 949.5,682.5381 Q948.8594,682.6944 948.1563,682.6944 Q945.6563,682.6944 944.3281,681.0538 Q943.0156,679.3975 943.0156,676.2725 Q943.0156,673.1475 944.3281,671.4913 Q945.6563,669.835 948.1563,669.835 Q948.8594,669.835 949.5,669.9913 Q950.1563,670.1475 950.7188,670.4444 L950.7188,673.1631 Q950.0938,672.585 949.5,672.3194 Q948.9063,672.0381 948.2813,672.0381 Q946.9375,672.0381 946.25,673.1163 Q945.5625,674.1788 945.5625,676.2725 Q945.5625,678.3663 946.25,679.4444 Q946.9375,680.5069 948.2813,680.5069 Q948.9063,680.5069 949.5,680.2413 Q950.0938,679.96 950.7188,679.3819 L950.7188,682.1006 Z " fill="#000000"/><text fill="#000000" font-family="sans-serif" font-size="14" lengthAdjust="spacing" textLength="70" x="968.25" y="681.3067">APCModel</text><line style="stroke:#181818;stroke-width:0.5;" x1="654" x2="1320" y1="692.46" y2="692.46"/><rect fill="none" height="6" style="stroke:#C82930;stroke-width:1.0;" width="6" x="661" y="703.1084"/><text fill="#000000" font-family="sans-serif" font-size="14" lengthAdjust="spacing" textLength="258" x="673" y="709.4551">model: DecisionTreeRegressorModel</text><rect fill="none" height="6" style="stroke:#C82930;stroke-width:1.0;" width="6" x="661" y="719.4053"/><text fill="#000000" font-family="sans-serif" font-size="14" lengthAdjust="spacing" textLength="283" x="673" y="725.752">treeRepresentation: TreeRepresentation</text><line style="stroke:#181818;stroke-width:0.5;" x1="654" x2="1320" y1="733.0538" y2="733.0538"/><ellipse cx="664" cy="746.7022" fill="#84BE84" rx="3" ry="3" style="stroke:#038048;stroke-width:1.0;"/><text fill="#000000" font-family="sans-serif" font-size="14" lengthAdjust="spacing" textLength="291" x="673" y="750.0489">train(x: np.ndarray, error_prob: np.ndarray)</text><ellipse cx="664" cy="762.9991" fill="#84BE84" rx="3" ry="3" style="stroke:#038048;stroke-width:1.0;"/><text fill="#000000" font-family="sans-serif" font-size="14" lengthAdjust="spacing" textLength="479" x="673" y="766.3457">predict(X: np.ndarray, depth: int, min_samples_ratio: float): np.ndarray</text><ellipse cx="664" cy="779.2959" fill="#84BE84" rx="3" ry="3" style="stroke:#038048;stroke-width:1.0;"/><text fill="#000000" font-family="sans-serif" font-size="14" lengthAdjust="spacing" textLength="642" x="673" y="782.6426">evaluate(X: np.ndarray, y: np.ndarray, eval_metrics: List[str], print_results: bool): Dict[str, float]</text></g><!--class MPCModel--><g id="elem_MPCModel"><rect codeLine="33" fill="#F1F1F1" height="96.8906" id="MPCModel" rx="2.5" ry="2.5" style="stroke:#181818;stroke-width:0.5;" width="331" x="736.5" y="388.79"/><ellipse cx="861.25" cy="404.79" fill="#ADD1B2" rx="11" ry="11" style="stroke:#181818;stroke-width:1.0;"/><path d="M864.2188,410.4306 Q863.6406,410.7275 863,410.8681 Q862.3594,411.0244 861.6563,411.0244 Q859.1563,411.0244 857.8281,409.3837 Q856.5156,407.7275 856.5156,404.6025 Q856.5156,401.4775 857.8281,399.8212 Q859.1563,398.165 861.6563,398.165 Q862.3594,398.165 863,398.3212 Q863.6563,398.4775 864.2188,398.7744 L864.2188,401.4931 Q863.5938,400.915 863,400.6494 Q862.4063,400.3681 861.7813,400.3681 Q860.4375,400.3681 859.75,401.4462 Q859.0625,402.5087 859.0625,404.6025 Q859.0625,406.6962 859.75,407.7744 Q860.4375,408.8369 861.7813,408.8369 Q862.4063,408.8369 863,408.5712 Q863.5938,408.29 864.2188,407.7119 L864.2188,410.4306 Z " fill="#000000"/><text fill="#000000" font-family="sans-serif" font-size="14" lengthAdjust="spacing" textLength="73" x="881.75" y="409.6367">MPCModel</text><line style="stroke:#181818;stroke-width:0.5;" x1="737.5" x2="1066.5" y1="420.79" y2="420.79"/><rect fill="none" height="6" style="stroke:#C82930;stroke-width:1.0;" width="6" x="744.5" y="431.4384"/><text fill="#000000" font-family="sans-serif" font-size="14" lengthAdjust="spacing" textLength="155" x="756.5" y="437.7851">IPC_values: np.ndarray</text><rect fill="none" height="6" style="stroke:#C82930;stroke-width:1.0;" width="6" x="744.5" y="447.7353"/><text fill="#000000" font-family="sans-serif" font-size="14" lengthAdjust="spacing" textLength="161" x="756.5" y="454.082">APC_values: np.ndarray</text><line style="stroke:#181818;stroke-width:0.5;" x1="737.5" x2="1066.5" y1="461.3837" y2="461.3837"/><ellipse cx="747.5" cy="475.0322" fill="#84BE84" rx="3" ry="3" style="stroke:#038048;stroke-width:1.0;"/><text fill="#000000" font-family="sans-serif" font-size="14" lengthAdjust="spacing" textLength="305" x="756.5" y="478.3789">predict(min_samples_ratio: float): np.ndarray</text></g><!--class Profile--><g id="elem_Profile"><rect codeLine="39" fill="#F1F1F1" height="194.6719" id="Profile" rx="2.5" ry="2.5" style="stroke:#181818;stroke-width:0.5;" width="407" x="2222.5" y="883.54"/><ellipse cx="2400.75" cy="899.54" fill="#ADD1B2" rx="11" ry="11" style="stroke:#181818;stroke-width:1.0;"/><path d="M2403.7188,905.1806 Q2403.1406,905.4775 2402.5,905.6181 Q2401.8594,905.7744 2401.1563,905.7744 Q2398.6563,905.7744 2397.3281,904.1338 Q2396.0156,902.4775 2396.0156,899.3525 Q2396.0156,896.2275 2397.3281,894.5713 Q2398.6563,892.915 2401.1563,892.915 Q2401.8594,892.915 2402.5,893.0713 Q2403.1563,893.2275 2403.7188,893.5244 L2403.7188,896.2431 Q2403.0938,895.665 2402.5,895.3994 Q2401.9063,895.1181 2401.2813,895.1181 Q2399.9375,895.1181 2399.25,896.1963 Q2398.5625,897.2588 2398.5625,899.3525 Q2398.5625,901.4463 2399.25,902.5244 Q2399.9375,903.5869 2401.2813,903.5869 Q2401.9063,903.5869 2402.5,903.3213 Q2403.0938,903.04 2403.7188,902.4619 L2403.7188,905.1806 Z " fill="#000000"/><text fill="#000000" font-family="sans-serif" font-size="14" lengthAdjust="spacing" textLength="42" x="2421.25" y="904.3867">Profile</text><line style="stroke:#181818;stroke-width:0.5;" x1="2223.5" x2="2628.5" y1="915.54" y2="915.54"/><rect fill="none" height="6" style="stroke:#C82930;stroke-width:1.0;" width="6" x="2230.5" y="926.1884"/><text fill="#000000" font-family="sans-serif" font-size="14" lengthAdjust="spacing" textLength="81" x="2242.5" y="932.5351">node_id: int</text><rect fill="none" height="6" style="stroke:#C82930;stroke-width:1.0;" width="6" x="2230.5" y="942.4853"/><text fill="#000000" font-family="sans-serif" font-size="14" lengthAdjust="spacing" textLength="58" x="2242.5" y="948.832">path: str</text><rect fill="none" height="6" style="stroke:#C82930;stroke-width:1.0;" width="6" x="2230.5" y="958.7822"/><text fill="#000000" font-family="sans-serif" font-size="14" lengthAdjust="spacing" textLength="120" x="2242.5" y="965.1289">mean_value: float</text><rect fill="none" height="6" style="stroke:#C82930;stroke-width:1.0;" width="6" x="2230.5" y="975.0791"/><text fill="#000000" font-family="sans-serif" font-size="14" lengthAdjust="spacing" textLength="85" x="2242.5" y="981.4257">metrics: dict</text><rect fill="none" height="6" style="stroke:#C82930;stroke-width:1.0;" width="6" x="2230.5" y="991.3759"/><text fill="#000000" font-family="sans-serif" font-size="14" lengthAdjust="spacing" textLength="156" x="2242.5" y="997.7226">detectron_results: dict</text><line style="stroke:#181818;stroke-width:0.5;" x1="2223.5" x2="2628.5" y1="1005.0244" y2="1005.0244"/><ellipse cx="2233.5" cy="1018.6728" fill="#84BE84" rx="3" ry="3" style="stroke:#038048;stroke-width:1.0;"/><text fill="#000000" font-family="sans-serif" font-size="14" lengthAdjust="spacing" textLength="333" x="2242.5" y="1022.0195">__init__(node_id: int, path: str, mean_value: float)</text><ellipse cx="2233.5" cy="1034.9697" fill="#84BE84" rx="3" ry="3" style="stroke:#038048;stroke-width:1.0;"/><text fill="#000000" font-family="sans-serif" font-size="14" lengthAdjust="spacing" textLength="90" x="2242.5" y="1038.3164">to_dict(): dict</text><ellipse cx="2233.5" cy="1051.2666" fill="#84BE84" rx="3" ry="3" style="stroke:#038048;stroke-width:1.0;"/><text fill="#000000" font-family="sans-serif" font-size="14" lengthAdjust="spacing" textLength="381" x="2242.5" y="1054.6132">update_detectron_results(detectron_results: dict): void</text><ellipse cx="2233.5" cy="1067.5634" fill="#84BE84" rx="3" ry="3" style="stroke:#038048;stroke-width:1.0;"/><text fill="#000000" font-family="sans-serif" font-size="14" lengthAdjust="spacing" textLength="293" x="2242.5" y="1070.9101">update_metrics_results(metrics: dict): void</text></g><!--class ProfilesManager--><g id="elem_ProfilesManager"><rect codeLine="51" fill="#F1F1F1" height="194.6719" id="ProfilesManager" rx="2.5" ry="2.5" style="stroke:#181818;stroke-width:0.5;" width="498" x="2177" y="627.86"/><ellipse cx="2366.75" cy="643.86" fill="#ADD1B2" rx="11" ry="11" style="stroke:#181818;stroke-width:1.0;"/><path d="M2369.7188,649.5006 Q2369.1406,649.7975 2368.5,649.9381 Q2367.8594,650.0944 2367.1563,650.0944 Q2364.6563,650.0944 2363.3281,648.4538 Q2362.0156,646.7975 2362.0156,643.6725 Q2362.0156,640.5475 2363.3281,638.8913 Q2364.6563,637.235 2367.1563,637.235 Q2367.8594,637.235 2368.5,637.3913 Q2369.1563,637.5475 2369.7188,637.8444 L2369.7188,640.5631 Q2369.0938,639.985 2368.5,639.7194 Q2367.9063,639.4381 2367.2813,639.4381 Q2365.9375,639.4381 2365.25,640.5163 Q2364.5625,641.5788 2364.5625,643.6725 Q2364.5625,645.7663 2365.25,646.8444 Q2365.9375,647.9069 2367.2813,647.9069 Q2367.9063,647.9069 2368.5,647.6413 Q2369.0938,647.36 2369.7188,646.7819 L2369.7188,649.5006 Z " fill="#000000"/><text fill="#000000" font-family="sans-serif" font-size="14" lengthAdjust="spacing" textLength="110" x="2387.25" y="648.7067">ProfilesManager</text><line style="stroke:#181818;stroke-width:0.5;" x1="2178" x2="2674" y1="659.86" y2="659.86"/><rect fill="none" height="6" style="stroke:#C82930;stroke-width:1.0;" width="6" x="2185" y="670.5084"/><text fill="#000000" font-family="sans-serif" font-size="14" lengthAdjust="spacing" textLength="144" x="2197" y="676.8551">profiles_records: dict</text><rect fill="none" height="6" style="stroke:#C82930;stroke-width:1.0;" width="6" x="2185" y="686.8053"/><text fill="#000000" font-family="sans-serif" font-size="14" lengthAdjust="spacing" textLength="176" x="2197" y="693.152">lost_profiles_records: dict</text><rect fill="none" height="6" style="stroke:#C82930;stroke-width:1.0;" width="6" x="2185" y="703.1022"/><text fill="#000000" font-family="sans-serif" font-size="14" lengthAdjust="spacing" textLength="85" x="2197" y="709.4489">features: list</text><line style="stroke:#181818;stroke-width:0.5;" x1="2178" x2="2674" y1="716.7506" y2="716.7506"/><ellipse cx="2188" cy="730.3991" fill="#84BE84" rx="3" ry="3" style="stroke:#038048;stroke-width:1.0;"/><text fill="#000000" font-family="sans-serif" font-size="14" lengthAdjust="spacing" textLength="143" x="2197" y="733.7457">__init__(features: list)</text><ellipse cx="2188" cy="746.6959" fill="#84BE84" rx="3" ry="3" style="stroke:#038048;stroke-width:1.0;"/><text fill="#000000" font-family="sans-serif" font-size="14" lengthAdjust="spacing" textLength="430" x="2197" y="750.0426">insert_profiles(dr: int, min_samples_ratio: int, profiles: list): void</text><ellipse cx="2188" cy="762.9928" fill="#84BE84" rx="3" ry="3" style="stroke:#038048;stroke-width:1.0;"/><text fill="#000000" font-family="sans-serif" font-size="14" lengthAdjust="spacing" textLength="462" x="2197" y="766.3395">insert_lost_profiles(dr: int, min_samples_ratio: int, profiles: list): void</text><ellipse cx="2188" cy="779.2897" fill="#84BE84" rx="3" ry="3" style="stroke:#038048;stroke-width:1.0;"/><text fill="#000000" font-family="sans-serif" font-size="14" lengthAdjust="spacing" textLength="439" x="2197" y="782.6364">get_profiles(min_samples_ratio: int = None, dr: int = None): dict</text><ellipse cx="2188" cy="795.5866" fill="#84BE84" rx="3" ry="3" style="stroke:#038048;stroke-width:1.0;"/><text fill="#000000" font-family="sans-serif" font-size="14" lengthAdjust="spacing" textLength="471" x="2197" y="798.9332">get_lost_profiles(min_samples_ratio: int = None, dr: int = None): dict</text><ellipse cx="2188" cy="811.8834" fill="#84BE84" rx="3" ry="3" style="stroke:#038048;stroke-width:1.0;"/><text fill="#000000" font-family="sans-serif" font-size="14" lengthAdjust="spacing" textLength="472" x="2197" y="815.2301">static transform_to_profiles(profiles_list: list, to_dict: bool = True): list</text></g><!--class TreeRepresentation--><g id="elem_TreeRepresentation"><rect codeLine="64" fill="#F1F1F1" height="113.1875" id="TreeRepresentation" rx="2.5" ry="2.5" style="stroke:#181818;stroke-width:0.5;" width="747" x="1046.5" y="924.28"/><ellipse cx="1346.25" cy="940.28" fill="#ADD1B2" rx="11" ry="11" style="stroke:#181818;stroke-width:1.0;"/><path d="M1349.2188,945.9206 Q1348.6406,946.2175 1348,946.3581 Q1347.3594,946.5144 1346.6563,946.5144 Q1344.1563,946.5144 1342.8281,944.8738 Q1341.5156,943.2175 1341.5156,940.0925 Q1341.5156,936.9675 1342.8281,935.3113 Q1344.1563,933.655 1346.6563,933.655 Q1347.3594,933.655 1348,933.8113 Q1348.6563,933.9675 1349.2188,934.2644 L1349.2188,936.9831 Q1348.5938,936.405 1348,936.1394 Q1347.4063,935.8581 1346.7813,935.8581 Q1345.4375,935.8581 1344.75,936.9363 Q1344.0625,937.9988 1344.0625,940.0925 Q1344.0625,942.1863 1344.75,943.2644 Q1345.4375,944.3269 1346.7813,944.3269 Q1347.4063,944.3269 1348,944.0613 Q1348.5938,943.78 1349.2188,943.2019 L1349.2188,945.9206 Z " fill="#000000"/><text fill="#000000" font-family="sans-serif" font-size="14" lengthAdjust="spacing" textLength="139" x="1366.75" y="945.1267">TreeRepresentation</text><line style="stroke:#181818;stroke-width:0.5;" x1="1047.5" x2="1792.5" y1="956.28" y2="956.28"/><rect fill="none" height="6" style="stroke:#C82930;stroke-width:1.0;" width="6" x="1054.5" y="966.9284"/><text fill="#000000" font-family="sans-serif" font-size="14" lengthAdjust="spacing" textLength="85" x="1066.5" y="973.2751">features: list</text><rect fill="none" height="6" style="stroke:#C82930;stroke-width:1.0;" width="6" x="1054.5" y="983.2253"/><text fill="#000000" font-family="sans-serif" font-size="14" lengthAdjust="spacing" textLength="120" x="1066.5" y="989.572">head: _TreeNode</text><line style="stroke:#181818;stroke-width:0.5;" x1="1047.5" x2="1792.5" y1="996.8738" y2="996.8738"/><ellipse cx="1057.5" cy="1010.5222" fill="#84BE84" rx="3" ry="3" style="stroke:#038048;stroke-width:1.0;"/><text fill="#000000" font-family="sans-serif" font-size="14" lengthAdjust="spacing" textLength="721" x="1066.5" y="1013.8689">build_tree(dtr: DecisionTreeRegressorModel, X: DataFrame, y: Series, node_id: int, path: list): _TreeNode</text><ellipse cx="1057.5" cy="1026.8191" fill="#84BE84" rx="3" ry="3" style="stroke:#038048;stroke-width:1.0;"/><text fill="#000000" font-family="sans-serif" font-size="14" lengthAdjust="spacing" textLength="398" x="1066.5" y="1030.1657">get_all_profiles(min_ca: float, min_samples_ratio: float): list</text></g><!--class _TreeNode--><g id="elem__TreeNode"><rect codeLine="71" fill="#F1F1F1" height="243.5625" id="_TreeNode" rx="2.5" ry="2.5" style="stroke:#181818;stroke-width:0.5;" width="559" x="1140.5" y="1138.21"/><ellipse cx="1377.75" cy="1154.21" fill="#ADD1B2" rx="11" ry="11" style="stroke:#181818;stroke-width:1.0;"/><path d="M1380.7188,1159.8506 Q1380.1406,1160.1475 1379.5,1160.2881 Q1378.8594,1160.4444 1378.1563,1160.4444 Q1375.6563,1160.4444 1374.3281,1158.8038 Q1373.0156,1157.1475 1373.0156,1154.0225 Q1373.0156,1150.8975 1374.3281,1149.2413 Q1375.6563,1147.585 1378.1563,1147.585 Q1378.8594,1147.585 1379.5,1147.7413 Q1380.1563,1147.8975 1380.7188,1148.1944 L1380.7188,1150.9131 Q1380.0938,1150.335 1379.5,1150.0694 Q1378.9063,1149.7881 1378.2813,1149.7881 Q1376.9375,1149.7881 1376.25,1150.8663 Q1375.5625,1151.9288 1375.5625,1154.0225 Q1375.5625,1156.1163 1376.25,1157.1944 Q1376.9375,1158.2569 1378.2813,1158.2569 Q1378.9063,1158.2569 1379.5,1157.9913 Q1380.0938,1157.71 1380.7188,1157.1319 L1380.7188,1159.8506 Z " fill="#000000"/><text fill="#000000" font-family="sans-serif" font-size="14" lengthAdjust="spacing" textLength="76" x="1398.25" y="1159.0567">_TreeNode</text><line style="stroke:#181818;stroke-width:0.5;" x1="1141.5" x2="1698.5" y1="1170.21" y2="1170.21"/><rect fill="none" height="6" style="stroke:#C82930;stroke-width:1.0;" width="6" x="1148.5" y="1180.8584"/><text fill="#000000" font-family="sans-serif" font-size="14" lengthAdjust="spacing" textLength="74" x="1160.5" y="1187.2051">value: float</text><rect fill="none" height="6" style="stroke:#C82930;stroke-width:1.0;" width="6" x="1148.5" y="1197.1553"/><text fill="#000000" font-family="sans-serif" font-size="14" lengthAdjust="spacing" textLength="109" x="1160.5" y="1203.502">value_max: float</text><rect fill="none" height="6" style="stroke:#C82930;stroke-width:1.0;" width="6" x="1148.5" y="1213.4522"/><text fill="#000000" font-family="sans-serif" font-size="14" lengthAdjust="spacing" textLength="133" x="1160.5" y="1219.7989">samples_ratio: float</text><rect fill="none" height="6" style="stroke:#C82930;stroke-width:1.0;" width="6" x="1148.5" y="1229.7491"/><text fill="#000000" font-family="sans-serif" font-size="14" lengthAdjust="spacing" textLength="104" x="1160.5" y="1236.0957">threshold: float</text><rect fill="none" height="6" style="stroke:#C82930;stroke-width:1.0;" width="6" x="1148.5" y="1246.0459"/><text fill="#000000" font-family="sans-serif" font-size="14" lengthAdjust="spacing" textLength="76" x="1160.5" y="1252.3926">feature: str</text><rect fill="none" height="6" style="stroke:#C82930;stroke-width:1.0;" width="6" x="1148.5" y="1262.3428"/><text fill="#000000" font-family="sans-serif" font-size="14" lengthAdjust="spacing" textLength="94" x="1160.5" y="1268.6895">feature_id: int</text><rect fill="none" height="6" style="stroke:#C82930;stroke-width:1.0;" width="6" x="1148.5" y="1278.6397"/><text fill="#000000" font-family="sans-serif" font-size="14" lengthAdjust="spacing" textLength="81" x="1160.5" y="1284.9864">node_id: int</text><rect fill="none" height="6" style="stroke:#C82930;stroke-width:1.0;" width="6" x="1148.5" y="1294.9366"/><text fill="#000000" font-family="sans-serif" font-size="14" lengthAdjust="spacing" textLength="121" x="1160.5" y="1301.2832">c_left: _TreeNode</text><rect fill="none" height="6" style="stroke:#C82930;stroke-width:1.0;" width="6" x="1148.5" y="1311.2334"/><text fill="#000000" font-family="sans-serif" font-size="14" lengthAdjust="spacing" textLength="131" x="1160.5" y="1317.5801">c_right: _TreeNode</text><rect fill="none" height="6" style="stroke:#C82930;stroke-width:1.0;" width="6" x="1148.5" y="1327.5303"/><text fill="#000000" font-family="sans-serif" font-size="14" lengthAdjust="spacing" textLength="59" x="1160.5" y="1333.877">path: list</text><line style="stroke:#181818;stroke-width:0.5;" x1="1141.5" x2="1698.5" y1="1341.1788" y2="1341.1788"/><ellipse cx="1151.5" cy="1354.8272" fill="#84BE84" rx="3" ry="3" style="stroke:#038048;stroke-width:1.0;"/><text fill="#000000" font-family="sans-serif" font-size="14" lengthAdjust="spacing" textLength="533" x="1160.5" y="1358.1739">assign_node(X: DataFrame | Series, depth: int, min_samples_ratio: float): float</text><ellipse cx="1151.5" cy="1371.1241" fill="#84BE84" rx="3" ry="3" style="stroke:#038048;stroke-width:1.0;"/><text fill="#000000" font-family="sans-serif" font-size="14" lengthAdjust="spacing" textLength="369" x="1160.5" y="1374.4707">get_profile(min_samples_ratio: float, min_ca: float): list</text></g><!--class MDRCalculator--><g id="elem_MDRCalculator"><rect codeLine="86" fill="#F1F1F1" height="178.375" id="MDRCalculator" rx="2.5" ry="2.5" style="stroke:#181818;stroke-width:0.5;" width="1595" x="1102.5" y="348.04"/><ellipse cx="1845.25" cy="364.04" fill="#ADD1B2" rx="11" ry="11" style="stroke:#181818;stroke-width:1.0;"/><path d="M1848.2188,369.6806 Q1847.6406,369.9775 1847,370.1181 Q1846.3594,370.2744 1845.6563,370.2744 Q1843.1563,370.2744 1841.8281,368.6337 Q1840.5156,366.9775 1840.5156,363.8525 Q1840.5156,360.7275 1841.8281,359.0712 Q1843.1563,357.415 1845.6563,357.415 Q1846.3594,357.415 1847,357.5712 Q1847.6563,357.7275 1848.2188,358.0244 L1848.2188,360.7431 Q1847.5938,360.165 1847,359.8994 Q1846.4063,359.6181 1845.7813,359.6181 Q1844.4375,359.6181 1843.75,360.6962 Q1843.0625,361.7587 1843.0625,363.8525 Q1843.0625,365.9462 1843.75,367.0244 Q1844.4375,368.0869 1845.7813,368.0869 Q1846.4063,368.0869 1847,367.8212 Q1847.5938,367.54 1848.2188,366.9619 L1848.2188,369.6806 Z " fill="#000000"/><text fill="#000000" font-family="sans-serif" font-size="14" lengthAdjust="spacing" textLength="101" x="1865.75" y="368.8867">MDRCalculator</text><line style="stroke:#181818;stroke-width:0.5;" x1="1103.5" x2="2696.5" y1="380.04" y2="380.04"/><line style="stroke:#181818;stroke-width:0.5;" x1="1103.5" x2="2696.5" y1="388.04" y2="388.04"/><ellipse cx="1113.5" cy="401.6884" fill="#84BE84" rx="3" ry="3" style="stroke:#038048;stroke-width:1.0;"/><text fill="#000000" font-family="sans-serif" font-size="14" lengthAdjust="spacing" textLength="355" x="1122.5" y="405.0351">_get_min_confidence_score(dr, confidence_scores)</text><ellipse cx="1113.5" cy="417.9853" fill="#84BE84" rx="3" ry="3" style="stroke:#038048;stroke-width:1.0;"/><text fill="#000000" font-family="sans-serif" font-size="14" lengthAdjust="spacing" textLength="430" x="1122.5" y="421.332">_calculate_metrics(y_true, y_pred, predicted_prob, metrics_list)</text><ellipse cx="1113.5" cy="434.2822" fill="#84BE84" rx="3" ry="3" style="stroke:#038048;stroke-width:1.0;"/><text fill="#000000" font-family="sans-serif" font-size="14" lengthAdjust="spacing" textLength="335" x="1122.5" y="437.6289">_list_difference_by_key(list1, list2, key='node_id')</text><ellipse cx="1113.5" cy="450.5791" fill="#84BE84" rx="3" ry="3" style="stroke:#038048;stroke-width:1.0;"/><text fill="#000000" font-family="sans-serif" font-size="14" lengthAdjust="spacing" textLength="604" x="1122.5" y="453.9257">_filter_by_profile(datasets_manager, path, set='reference', min_confidence_level=None)</text><ellipse cx="1113.5" cy="466.8759" fill="#84BE84" rx="3" ry="3" style="stroke:#038048;stroke-width:1.0;"/><text fill="#000000" font-family="sans-serif" font-size="14" lengthAdjust="spacing" textLength="467" x="1122.5" y="470.2226">calc_metrics_by_dr(datasets_manager, metrics_list, set='reference')</text><ellipse cx="1113.5" cy="483.1728" fill="#84BE84" rx="3" ry="3" style="stroke:#038048;stroke-width:1.0;"/><text fill="#000000" font-family="sans-serif" font-size="14" lengthAdjust="spacing" textLength="522" x="1122.5" y="486.5195">calc_profiles(profiles_manager, tree, confidence_scores, min_samples_ratio)</text><ellipse cx="1113.5" cy="499.4697" fill="#84BE84" rx="3" ry="3" style="stroke:#038048;stroke-width:1.0;"/><text fill="#000000" font-family="sans-serif" font-size="14" lengthAdjust="spacing" textLength="629" x="1122.5" y="502.8164">calc_metrics_by_profiles(profiles_manager, datasets_manager, metrics_list, set='reference')</text><ellipse cx="1113.5" cy="515.7666" fill="#84BE84" rx="3" ry="3" style="stroke:#038048;stroke-width:1.0;"/><text fill="#000000" font-family="sans-serif" font-size="14" lengthAdjust="spacing" textLength="1569" x="1122.5" y="519.1132">detectron_by_profiles(datasets, profiles_manager, training_params, base_model_manager, strategy, samples_size=20, ensemble_size=10, num_calibration_runs=100, patience=3, allow_margin=False, margin=0.05, all_dr=True)</text></g><!--class Med3paResults--><g id="elem_Med3paResults"><rect codeLine="98" fill="#F1F1F1" height="227.2656" id="Med3paResults" rx="2.5" ry="2.5" style="stroke:#181818;stroke-width:0.5;" width="509" x="2732.5" y="323.6"/><ellipse cx="2928.75" cy="339.6" fill="#ADD1B2" rx="11" ry="11" style="stroke:#181818;stroke-width:1.0;"/><path d="M2931.7188,345.2406 Q2931.1406,345.5375 2930.5,345.6781 Q2929.8594,345.8344 2929.1563,345.8344 Q2926.6563,345.8344 2925.3281,344.1937 Q2924.0156,342.5375 2924.0156,339.4125 Q2924.0156,336.2875 2925.3281,334.6312 Q2926.6563,332.975 2929.1563,332.975 Q2929.8594,332.975 2930.5,333.1312 Q2931.1563,333.2875 2931.7188,333.5844 L2931.7188,336.3031 Q2931.0938,335.725 2930.5,335.4594 Q2929.9063,335.1781 2929.2813,335.1781 Q2927.9375,335.1781 2927.25,336.2562 Q2926.5625,337.3187 2926.5625,339.4125 Q2926.5625,341.5062 2927.25,342.5844 Q2927.9375,343.6469 2929.2813,343.6469 Q2929.9063,343.6469 2930.5,343.3812 Q2931.0938,343.1 2931.7188,342.5219 L2931.7188,345.2406 Z " fill="#000000"/><text fill="#000000" font-family="sans-serif" font-size="14" lengthAdjust="spacing" textLength="108" x="2949.25" y="344.4467">Med3paResults</text><line style="stroke:#181818;stroke-width:0.5;" x1="2733.5" x2="3240.5" y1="355.6" y2="355.6"/><rect fill="none" height="6" style="stroke:#C82930;stroke-width:1.0;" width="6" x="2740.5" y="366.2484"/><text fill="#000000" font-family="sans-serif" font-size="14" lengthAdjust="spacing" textLength="193" x="2752.5" y="372.5951">metrics_by_dr: Dict[int, Dict]</text><rect fill="none" height="6" style="stroke:#C82930;stroke-width:1.0;" width="6" x="2740.5" y="382.5453"/><text fill="#000000" font-family="sans-serif" font-size="14" lengthAdjust="spacing" textLength="227" x="2752.5" y="388.892">models_evaluation: Dict[str, Dict]</text><rect fill="none" height="6" style="stroke:#C82930;stroke-width:1.0;" width="6" x="2740.5" y="398.8422"/><text fill="#000000" font-family="sans-serif" font-size="14" lengthAdjust="spacing" textLength="237" x="2752.5" y="405.1889">profiles_manager: ProfilesManager</text><rect fill="none" height="6" style="stroke:#C82930;stroke-width:1.0;" width="6" x="2740.5" y="415.1391"/><text fill="#000000" font-family="sans-serif" font-size="14" lengthAdjust="spacing" textLength="239" x="2752.5" y="421.4857">datasets: Dict[int, MaskedDataset]</text><line style="stroke:#181818;stroke-width:0.5;" x1="2733.5" x2="3240.5" y1="428.7875" y2="428.7875"/><ellipse cx="2743.5" cy="442.4359" fill="#84BE84" rx="3" ry="3" style="stroke:#038048;stroke-width:1.0;"/><text fill="#000000" font-family="sans-serif" font-size="14" lengthAdjust="spacing" textLength="95" x="2752.5" y="445.7826">__init__(): void</text><ellipse cx="2743.5" cy="458.7328" fill="#84BE84" rx="3" ry="3" style="stroke:#038048;stroke-width:1.0;"/><text fill="#000000" font-family="sans-serif" font-size="14" lengthAdjust="spacing" textLength="431" x="2752.5" y="462.0795">set_metrics_by_dr(samples_ratio: int, metrics_by_dr: Dict): void</text><ellipse cx="2743.5" cy="475.0297" fill="#84BE84" rx="3" ry="3" style="stroke:#038048;stroke-width:1.0;"/><text fill="#000000" font-family="sans-serif" font-size="14" lengthAdjust="spacing" textLength="423" x="2752.5" y="478.3764">set_profiles_manager(profile_manager: ProfilesManager): void</text><ellipse cx="2743.5" cy="491.3266" fill="#84BE84" rx="3" ry="3" style="stroke:#038048;stroke-width:1.0;"/><text fill="#000000" font-family="sans-serif" font-size="14" lengthAdjust="spacing" textLength="483" x="2752.5" y="494.6732">set_models_evaluation(ipc_evaluation: Dict, apc_evaluation: Dict): void</text><ellipse cx="2743.5" cy="507.6234" fill="#84BE84" rx="3" ry="3" style="stroke:#038048;stroke-width:1.0;"/><text fill="#000000" font-family="sans-serif" font-size="14" lengthAdjust="spacing" textLength="426" x="2752.5" y="510.9701">set_dataset(samples_ratio: int, dataset: MaskedDataset): void</text><ellipse cx="2743.5" cy="523.9203" fill="#84BE84" rx="3" ry="3" style="stroke:#038048;stroke-width:1.0;"/><text fill="#000000" font-family="sans-serif" font-size="14" lengthAdjust="spacing" textLength="163" x="2752.5" y="527.267">save(file_path: str): void</text><ellipse cx="2743.5" cy="540.2172" fill="#84BE84" rx="3" ry="3" style="stroke:#038048;stroke-width:1.0;"/><text fill="#000000" font-family="sans-serif" font-size="14" lengthAdjust="spacing" textLength="277" x="2752.5" y="543.5639">get_profiles_manager(): ProfilesManager</text></g><!--class Med3paExperiment--><g id="elem_Med3paExperiment"><rect codeLine="112" fill="#F1F1F1" height="64.2969" id="Med3paExperiment" rx="2.5" ry="2.5" style="stroke:#181818;stroke-width:0.5;" width="176" x="1312" y="182.3"/><ellipse cx="1331.5" cy="198.3" fill="#A9DCDF" rx="11" ry="11" style="stroke:#181818;stroke-width:1.0;"/><path d="M1331.6094,193.6437 L1330.4531,198.7219 L1332.7813,198.7219 L1331.6094,193.6437 Z M1330.125,191.4094 L1333.1094,191.4094 L1336.4688,203.8 L1334.0156,203.8 L1333.25,200.7375 L1329.9688,200.7375 L1329.2188,203.8 L1326.7813,203.8 L1330.125,191.4094 Z " fill="#000000"/><text fill="#000000" font-family="sans-serif" font-size="14" font-style="italic" lengthAdjust="spacing" textLength="134" x="1346.5" y="203.1467">Med3paExperiment</text><line style="stroke:#181818;stroke-width:0.5;" x1="1313" x2="1487" y1="214.3" y2="214.3"/><line style="stroke:#181818;stroke-width:0.5;" x1="1313" x2="1487" y1="222.3" y2="222.3"/><ellipse cx="1323" cy="235.9484" fill="#84BE84" rx="3" ry="3" style="stroke:#038048;stroke-width:1.0;"/><text fill="#000000" font-family="sans-serif" font-size="14" lengthAdjust="spacing" textLength="150" x="1332" y="239.2951">run(): Med3paResults</text></g><!--class Med3paDetectronExperiment--><g id="elem_Med3paDetectronExperiment"><rect codeLine="116" fill="#F1F1F1" height="64.2969" id="Med3paDetectronExperiment" rx="2.5" ry="2.5" style="stroke:#181818;stroke-width:0.5;" width="463" x="1168.5" y="41"/><ellipse cx="1293.75" cy="57" fill="#A9DCDF" rx="11" ry="11" style="stroke:#181818;stroke-width:1.0;"/><path d="M1293.8594,52.3438 L1292.7031,57.4219 L1295.0313,57.4219 L1293.8594,52.3438 Z M1292.375,50.1094 L1295.3594,50.1094 L1298.7188,62.5 L1296.2656,62.5 L1295.5,59.4375 L1292.2188,59.4375 L1291.4688,62.5 L1289.0313,62.5 L1292.375,50.1094 Z " fill="#000000"/><text fill="#000000" font-family="sans-serif" font-size="14" font-style="italic" lengthAdjust="spacing" textLength="204" x="1314.25" y="61.8467">Med3paDetectronExperiment</text><line style="stroke:#181818;stroke-width:0.5;" x1="1169.5" x2="1630.5" y1="73" y2="73"/><line style="stroke:#181818;stroke-width:0.5;" x1="1169.5" x2="1630.5" y1="81" y2="81"/><ellipse cx="1179.5" cy="94.6484" fill="#84BE84" rx="3" ry="3" style="stroke:#038048;stroke-width:1.0;"/><text fill="#000000" font-family="sans-serif" font-size="14" lengthAdjust="spacing" textLength="437" x="1188.5" y="97.9951">run(): Tuple[Med3paResults, Med3paResults, DetectronResult]</text></g><!--link MPCModel to IPCModel--><g id="link_MPCModel_IPCModel"><path codeLine="121" d="M969.52,485.93 C1003.05,508 1044.89,533.17 1085,550.86 C1120.21,566.39 1294.0866,615.7225 1448.5666,658.3925 " fill="none" id="MPCModel-to-IPCModel" style="stroke:#181818;stroke-width:1.0;stroke-dasharray:7.0,7.0;"/><polygon fill="#181818" points="1454.35,659.99,1446.7398,653.7382,1449.5305,658.6588,1444.6099,661.4494,1454.35,659.99" style="stroke:#181818;stroke-width:1.0;"/><text fill="#000000" font-family="sans-serif" font-size="13" lengthAdjust="spacing" textLength="46" x="1229" y="593.9269">&#171;uses&#187;</text></g><!--link MPCModel to APCModel--><g id="link_MPCModel_APCModel"><path codeLine="122" d="M916.23,486.1 C930.41,533.8 950.5608,601.5886 966.2308,654.3186 " fill="none" id="MPCModel-to-APCModel" style="stroke:#181818;stroke-width:1.0;stroke-dasharray:7.0,7.0;"/><polygon fill="#181818" points="967.94,660.07,969.2105,650.3034,966.5157,655.2772,961.542,652.5823,967.94,660.07" style="stroke:#181818;stroke-width:1.0;"/><text fill="#000000" font-family="sans-serif" font-size="13" lengthAdjust="spacing" textLength="46" x="948" y="593.9269">&#171;uses&#187;</text></g><!--reverse link UncertaintyMetric to AbsoluteError--><g id="link_UncertaintyMetric_AbsoluteError"><path codeLine="123" d="M320,775.81 C320,824.56 320,899.52 320,948.26 " fill="none" id="UncertaintyMetric-backto-AbsoluteError" style="stroke:#181818;stroke-width:1.0;"/><polygon fill="none" points="320,757.81,314,775.81,326,775.81,320,757.81" style="stroke:#181818;stroke-width:1.0;"/></g><!--reverse link UncertaintyCalculator to UncertaintyMetric--><g id="link_UncertaintyCalculator_UncertaintyMetric"><path codeLine="124" d="M354.4163,489.8626 C345.9863,547.2626 332.32,640.31 324.63,692.69 " fill="none" id="UncertaintyCalculator-backto-UncertaintyMetric" style="stroke:#181818;stroke-width:1.0;"/><polygon fill="#181818" points="356.16,477.99,351.3306,483.3451,354.4163,489.8626,359.2457,484.5075,356.16,477.99" style="stroke:#181818;stroke-width:1.0;"/></g><!--reverse link APCModel to TreeRepresentation--><g id="link_APCModel_TreeRepresentation"><path codeLine="125" d="M1106.8942,796.4455 C1177.1742,837.6155 1257.18,884.48 1324.52,923.93 " fill="none" id="APCModel-backto-TreeRepresentation" style="stroke:#181818;stroke-width:1.0;"/><polygon fill="#181818" points="1096.54,790.38,1099.6953,796.8642,1106.8942,796.4455,1103.7389,789.9613,1096.54,790.38" style="stroke:#181818;stroke-width:1.0;"/></g><!--reverse link TreeRepresentation to _TreeNode--><g id="link_TreeRepresentation__TreeNode"><path codeLine="126" d="M1420,1049.95 C1420,1078.73 1420,1102.98 1420,1137.76 " fill="none" id="TreeRepresentation-backto-_TreeNode" style="stroke:#181818;stroke-width:1.0;"/><polygon fill="#181818" points="1420,1037.95,1416,1043.95,1420,1049.95,1424,1043.95,1420,1037.95" style="stroke:#181818;stroke-width:1.0;"/></g><!--reverse link ProfilesManager to Profile--><g id="link_ProfilesManager_Profile"><path codeLine="127" d="M2426,834.83 C2426,854.57 2426,863.35 2426,883.09 " fill="none" id="ProfilesManager-backto-Profile" style="stroke:#181818;stroke-width:1.0;"/><polygon fill="#181818" points="2426,822.83,2422,828.83,2426,834.83,2430,828.83,2426,822.83" style="stroke:#181818;stroke-width:1.0;"/><text fill="#000000" font-family="sans-serif" font-size="13" lengthAdjust="spacing" textLength="7" x="2418.743" y="872.4298">*</text></g><!--link MDRCalculator to ProfilesManager--><g id="link_MDRCalculator_ProfilesManager"><path codeLine="128" d="M2062.83,526.75 C2121.51,558.66 2182.7484,591.9546 2242.6684,624.5246 " fill="none" id="MDRCalculator-to-ProfilesManager" style="stroke:#181818;stroke-width:1.0;stroke-dasharray:7.0,7.0;"/><polygon fill="#181818" points="2247.94,627.39,2241.9429,619.5775,2243.547,625.0022,2238.1224,626.6063,2247.94,627.39" style="stroke:#181818;stroke-width:1.0;"/><text fill="#000000" font-family="sans-serif" font-size="13" lengthAdjust="spacing" textLength="46" x="2179" y="593.9269">&#171;uses&#187;</text></g><!--link MDRCalculator to TreeRepresentation--><g id="link_MDRCalculator_TreeRepresentation"><path codeLine="129" d="M1984.7,526.83 C2007.87,556.62 2029.92,591.57 2042,627.86 C2069.33,709.95 2095.15,754.27 2042,822.54 C2007.83,866.43 1911.5096,898.7295 1799.5896,923.3795 " fill="none" id="MDRCalculator-to-TreeRepresentation" style="stroke:#181818;stroke-width:1.0;stroke-dasharray:7.0,7.0;"/><polygon fill="#181818" points="1793.73,924.67,1803.3797,926.6406,1798.613,923.5945,1801.659,918.8278,1793.73,924.67" style="stroke:#181818;stroke-width:1.0;"/><text fill="#000000" font-family="sans-serif" font-size="13" lengthAdjust="spacing" textLength="46" x="2073" y="729.7669">&#171;uses&#187;</text></g><!--link Med3paExperiment to Med3paResults--><g id="link_Med3paExperiment_Med3paResults"><path codeLine="130" d="M1488.1,219.13 C1743.48,230.37 2480.8,266.95 2715,323.6 C2720.71,324.98 2720.673,324.8754 2726.443,326.4554 " fill="none" id="Med3paExperiment-to-Med3paResults" style="stroke:#181818;stroke-width:1.0;stroke-dasharray:7.0,7.0;"/><polygon fill="#181818" points="2732.23,328.04,2724.606,321.8051,2727.4075,326.7195,2722.4931,329.521,2732.23,328.04" style="stroke:#181818;stroke-width:1.0;"/><text fill="#000000" font-family="sans-serif" font-size="13" lengthAdjust="spacing" textLength="62" x="2529" y="289.6669">&#171;returns&#187;</text></g><!--link Med3paExperiment to MPCModel--><g id="link_Med3paExperiment_MPCModel"><path codeLine="131" d="M1311.72,240.03 C1247.42,259.3 1158.98,288.66 1085,323.6 C1046.04,342 1010.0151,363.4569 976.6851,385.0569 " fill="none" id="Med3paExperiment-to-MPCModel" style="stroke:#181818;stroke-width:1.0;stroke-dasharray:7.0,7.0;"/><polygon fill="#181818" points="971.65,388.32,981.378,386.7821,975.8459,385.6008,977.0273,380.0686,971.65,388.32" style="stroke:#181818;stroke-width:1.0;"/><text fill="#000000" font-family="sans-serif" font-size="13" lengthAdjust="spacing" textLength="46" x="1195" y="289.6669">&#171;uses&#187;</text></g><!--link Med3paExperiment to MDRCalculator--><g id="link_Med3paExperiment_MDRCalculator"><path codeLine="132" d="M1471.64,247.08 C1531.11,273.34 1613.2015,309.5859 1693.6915,345.1359 " fill="none" id="Med3paExperiment-to-MDRCalculator" style="stroke:#181818;stroke-width:1.0;stroke-dasharray:7.0,7.0;"/><polygon fill="#181818" points="1699.18,347.56,1692.5633,340.2648,1694.6062,345.5399,1689.3312,347.5828,1699.18,347.56" style="stroke:#181818;stroke-width:1.0;"/><text fill="#000000" font-family="sans-serif" font-size="13" lengthAdjust="spacing" textLength="46" x="1577" y="289.6669">&#171;uses&#187;</text></g><!--link Med3paExperiment to UncertaintyCalculator--><g id="link_Med3paExperiment_UncertaintyCalculator"><path codeLine="133" d="M1311.57,225.25 C1180.9,240.68 929.02,274.08 719,323.6 C635.34,343.32 548.5291,370.7942 478.6491,394.6142 " fill="none" id="Med3paExperiment-to-UncertaintyCalculator" style="stroke:#181818;stroke-width:1.0;stroke-dasharray:7.0,7.0;"/><polygon fill="#181818" points="472.97,396.55,482.7793,397.4323,477.7026,394.9368,480.1981,389.8601,472.97,396.55" style="stroke:#181818;stroke-width:1.0;"/><text fill="#000000" font-family="sans-serif" font-size="13" lengthAdjust="spacing" textLength="46" x="942" y="289.6669">&#171;uses&#187;</text></g><!--link Med3paDetectronExperiment to Med3paExperiment--><g id="link_Med3paDetectronExperiment_Med3paExperiment"><path codeLine="134" d="M1400,105.76 C1400,128.56 1400,153.2 1400,175.97 " fill="none" id="Med3paDetectronExperiment-to-Med3paExperiment" style="stroke:#181818;stroke-width:1.0;stroke-dasharray:7.0,7.0;"/><polygon fill="#181818" points="1400,181.97,1404,172.97,1400,176.97,1396,172.97,1400,181.97" style="stroke:#181818;stroke-width:1.0;"/><text fill="#000000" font-family="sans-serif" font-size="13" lengthAdjust="spacing" textLength="46" x="1401" y="148.3669">&#171;uses&#187;</text></g><!--SRC=[pLZVQniv47xlNo7o4gTnGjfoBoOEXAQ5WtCfQGuEGX3oxjWMMMiNIPjBBit_tj6FtPMqibjQ2lSGY4UZcVc-6SsCtR3Ydgs172oWVDSmygLTDavqG9vV4N98hc351H2sL5goGfEYOag1mhDOHFuM1KZDkD1F2z2I5zO08S-TtWivBbXLj1NJC7cS4T6SYf99oPwcf95Gya93IHjPB-Ep9wfb2w7iAFo0JbxmBmosg4KXGKCGh8lnSgdggjNmGSfQ-lX-Sr0ZSjvxTtq09rjBrspCO18VRGU5tnZhdv_VB-eIgZuyyu7QincvUMhWzXhM4fJYjR2ATu7UZ2I73WCM01Tfp62oC8htoDtmWE8xQToe1m-iQato_ab09xvGZJgY4SLVNEbRhCexGnpIIJ7Yjj9uigph2hrSeMkZC2MhgcRwBkNeCiSHNeE26-Gt4i3pKCk1XXDjvGXDWT1CeoOoEfBzAcK94oKqUZCZ27DAjbnGnRPD1OfAuspc0FvlY5qan68nKXC8g5649vUxptekVXHm5CHdMQzu1LqC0WEYlBGKEad33AC8etl0JBX8lFNmNMDm9X8dAh4h5LhMOY2cFpocb0kkAPs43f78pXccBtNaCwzhQj4UXURQfZHDO-HoiYC8lFnGypAwx27qLoD8tOMNLwyYtjI22PmWVNzhl1Yj5BKi8qAgMccwJs45JBVIfBZ2sag8YWyz6Lmex9AzqKafTnU_8zXhUYiX3TvM5EKl6Ln3O2X_dyp9fre0FbmPVevoQyp4GVsyBMMwJa6mtmYrgkMMOZNrPllK62GEpvJuSdEF6atUu7WvyWbAPx7UGAR54IPAA_w4fJuQqndzvvtLSB81Xa-5TjOSg6NBgvAQVZifjTpNcQS46zmLq-oZP5km_UqBI0vgIdBlq6SqSMVomQegJaV1_2lTstSzaAW1zTOxtEFcOYLqonuZQSw77pqRnBofgpAIUZw3NkObSRyRTy22Lh3IAGyebdoz6Si7xXnV29Al1JLs9o7zv6jF_W-EhG5C-BPszdrdgy_C3luNLzUZDUsO6llsTYrMl0HSngZ2VeKLXgqv5IhVZUYmlldcEN7xcDdBp9HATpVJvLtJ3NgQ_HyVtMe5qlfOFj5xU9eOyPkfnV1sIb0oF_IvEknk8XqQfBdGSOETdIdG2gl7zcbNsbE2ilcX1E_Yq5CruAhW0QgvxH_3PjgF27HGoepj4Ct8HsXet7Dw6-OTPoZE5CQEoFRO_hc8XnaQMkzi3ICWn83x71ThsZ2iT5HPeYfrotMlPBufQLZZNjMXKlm_cByzmqKBHz5sMO6Jl469QBUcklZI8iTftWg51sSsdzn4Etyt9TYMwd_HWrnpCV_8AeLC-azdfsT_M0NCtDmsSJFBXrTWlnDUkz7lNy6mrhY4-utElbBptrslPO0fwhT8k-aEkr-acL8rI_U8Jh5ZD_IvOEeUoYjtqfaS5eHmzffHPrvmLA-vyPq1cB6JXjsLrauOkLXIaYQyAKQSOOeoqemvJr0Mb3-RnOobHjW3J2o8VkbCDDOvv4UvbFc6clnAu6hgmsE3NNwBqxqlgsEiNcCeAhhlcBdg7k4UUpSjKd4RMPsIv6DlnqdSbv9mYP5GMURLXZScgFvRokdfnV1zUKREprlSOoukKfNBhChu5vFphoSdyOyKiLemb5wZPku7WzwLKSX-jyniLqOtdDZf8c_E3ruVUB515mr80p6z4fCnKiy44Tz8wyHSYXkIqPU0ouhOToMVdAng5EJtzVDvoTpBbUa09n06Tr- -0G00]--></g></svg>